<?xml version="1.0" standalone="no"?>
<!DOCTYPE svg PUBLIC "-//W3C//DTD SVG 20010904//EN"
 "http://www.w3.org/TR/2001/REC-SVG-20010904/DTD/svg10.dtd">
<svg version="1.0" xmlns="http://www.w3.org/2000/svg"
 width="8000.000000pt" height="8000.000000pt" viewBox="0 0 8000.000000 8000.000000"
 preserveAspectRatio="xMidYMid meet">
<metadata>
Created by potrace 1.16, written by Peter Selinger 2001-2019
</metadata>
<g transform="translate(0.000000,8000.000000) scale(0.100000,-0.100000)"
fill="#000000" stroke="none">
<path d="M25160 76014 c-19 -7 -62 -13 -95 -13 -34 -1 -66 -6 -72 -12 -7 -7
-47 -14 -90 -17 -43 -3 -87 -11 -98 -18 -11 -8 -33 -14 -50 -14 -16 0 -39 -7
-49 -15 -11 -8 -38 -15 -60 -15 -23 0 -50 -7 -60 -15 -11 -8 -36 -15 -55 -15
-20 0 -45 -7 -55 -15 -11 -8 -28 -15 -39 -15 -10 0 -25 -7 -33 -15 -9 -8 -26
-15 -39 -15 -13 0 -36 -6 -52 -14 -15 -8 -54 -22 -85 -32 -32 -10 -58 -21 -58
-25 0 -4 -10 -11 -22 -14 -24 -7 -73 -28 -120 -52 -14 -7 -33 -13 -41 -13 -9
0 -17 -4 -19 -8 -4 -10 -84 -52 -99 -52 -5 0 -15 -5 -22 -10 -43 -37 -60 -48
-94 -66 -21 -10 -44 -25 -51 -31 -7 -7 -20 -13 -28 -13 -8 0 -14 -3 -14 -7 0
-5 -21 -20 -48 -36 -45 -26 -73 -44 -96 -59 -6 -4 -30 -23 -52 -42 -23 -20
-46 -36 -52 -36 -5 0 -12 -7 -16 -15 -3 -8 -11 -15 -19 -15 -7 0 -26 -13 -42
-30 -16 -16 -33 -30 -38 -30 -4 0 -14 -6 -21 -12 -8 -7 -50 -47 -95 -88 -122
-113 -371 -366 -371 -379 0 -3 -12 -19 -28 -36 -32 -36 -85 -105 -92 -121 -6
-13 -48 -69 -71 -94 -8 -9 -18 -24 -22 -33 -3 -9 -11 -17 -17 -17 -5 0 -10 -7
-10 -15 0 -8 -4 -15 -9 -15 -5 0 -14 -13 -20 -30 -5 -16 -15 -30 -20 -30 -6 0
-11 -9 -11 -19 0 -11 -6 -26 -13 -33 -7 -7 -16 -20 -20 -28 -13 -25 -32 -57
-44 -71 -19 -24 -100 -185 -107 -213 -3 -14 -11 -26 -16 -26 -6 0 -10 -9 -10
-19 0 -11 -7 -26 -15 -35 -8 -8 -15 -23 -15 -34 0 -11 -7 -25 -15 -32 -8 -7
-15 -23 -15 -36 0 -13 -6 -27 -13 -31 -8 -4 -17 -26 -20 -47 -4 -22 -10 -42
-15 -45 -5 -3 -12 -23 -16 -43 -4 -21 -11 -38 -16 -38 -6 0 -10 -12 -10 -27
-1 -16 -7 -39 -15 -53 -8 -14 -14 -36 -15 -50 0 -14 -7 -38 -15 -54 -8 -15
-15 -40 -15 -55 0 -14 -7 -35 -15 -45 -8 -11 -15 -36 -15 -57 0 -20 -7 -50
-15 -65 -8 -16 -15 -51 -15 -79 -1 -27 -7 -68 -15 -90 -8 -22 -15 -70 -15
-106 0 -42 -5 -72 -15 -85 -13 -17 -14 -4192 -15 -34446 l0 -34428 24 0 c19 0
1988 1964 9015 8991 l8991 8990 8990 -8990 c7136 -7137 8996 -8991 9015 -8991
l25 0 0 34428 c0 24883 -3 34431 -11 34439 -6 6 -14 51 -19 99 -4 49 -13 102
-19 117 -6 16 -11 51 -11 78 0 32 -6 56 -15 65 -9 9 -15 34 -15 60 0 27 -6 52
-15 60 -9 9 -15 34 -15 60 0 27 -6 52 -15 60 -8 9 -15 30 -15 48 0 18 -7 41
-15 52 -8 10 -15 29 -15 42 0 13 -7 30 -15 38 -8 9 -15 29 -15 45 0 17 -7 37
-15 45 -8 9 -15 31 -15 50 0 24 -5 34 -15 34 -10 0 -15 10 -15 29 0 16 -4 31
-8 33 -8 3 -48 83 -102 200 -12 27 -26 50 -31 54 -5 3 -9 13 -9 23 0 10 -7 24
-15 31 -8 7 -15 21 -15 31 0 11 -7 19 -15 19 -9 0 -15 9 -15 25 0 14 -7 28
-15 31 -8 4 -15 12 -15 19 0 7 -7 18 -15 25 -8 7 -15 21 -15 31 0 11 -7 19
-15 19 -8 0 -15 8 -15 19 0 10 -7 24 -15 31 -8 7 -15 18 -15 25 0 7 -7 15 -15
19 -8 3 -15 11 -15 18 0 7 -21 36 -45 63 -25 28 -45 55 -45 60 0 6 -14 26 -31
44 -17 19 -48 57 -69 85 -21 28 -81 95 -134 150 -53 54 -96 102 -96 107 0 5
-4 9 -9 9 -5 0 -54 43 -108 96 -54 53 -117 110 -140 127 -24 17 -43 34 -43 39
0 4 -6 8 -13 8 -7 0 -20 8 -29 18 -26 27 -46 42 -58 42 -6 0 -13 7 -16 15 -4
8 -11 15 -18 15 -6 0 -25 14 -43 30 -18 17 -37 30 -43 30 -6 0 -13 6 -16 14
-3 8 -16 17 -30 20 -13 4 -24 11 -24 16 0 6 -9 10 -20 10 -11 0 -23 7 -26 15
-4 8 -15 15 -25 15 -11 0 -22 6 -25 14 -3 8 -16 17 -30 20 -13 4 -24 11 -24
16 0 6 -9 10 -20 10 -11 0 -23 6 -26 14 -3 8 -16 17 -30 20 -13 4 -24 11 -24
16 0 6 -11 10 -24 10 -14 0 -27 4 -30 8 -8 13 -270 142 -287 142 -9 0 -24 7
-35 15 -10 8 -31 15 -45 15 -15 0 -32 7 -39 15 -7 8 -22 15 -34 15 -12 0 -31
7 -42 15 -10 8 -28 15 -40 15 -11 0 -29 7 -40 15 -10 8 -35 15 -55 15 -19 0
-44 7 -55 15 -10 8 -38 15 -61 15 -23 0 -48 6 -55 13 -7 8 -36 16 -63 19 -27
4 -51 11 -53 17 -2 7 -32 11 -76 11 -44 0 -79 5 -91 14 -12 8 -57 15 -108 18
-48 2 -93 10 -99 16 -19 19 -29599 15 -29648 -4z"/>
</g>
</svg>
