<?xml version="1.0" standalone="yes"?>
<svg xmlns="http://www.w3.org/2000/svg" width="500" height="500">
<path style="fill:#010101; stroke:none;" d="M0 0L0 500L500 500L500 0L0 0z"/>
<path style="fill:#f4f4f4; stroke:none;" d="M72.6667 102.333L73.3333 102.667L72.6667 102.333z"/>
<path style="fill:#dfdfdf; stroke:none;" d="M74 102L74 103L177 103L146 102L74 102z"/>
<path style="fill:#f4f4f4; stroke:none;" d="M177 102L177 103L180 103L177 102M68 103L69 104L68 103z"/>
<path style="fill:#dfdfdf; stroke:none;" d="M69 103L70 104L69 103z"/>
<path style="fill:#b9b9b9; stroke:none;" d="M70.6667 103.333L71.3333 103.667L70.6667 103.333z"/>
<path style="fill:#979797; stroke:none;" d="M72 103.468C47.9801 108.086 56 147.225 56 165L56 329L56 369C56 376.484 55.2206 383.773 60.5293 389.815C67.6998 397.976 78.1998 397 88 397L150 397L342 397L400 397C409.07 397 420.237 398.74 429 396.211C450.255 390.075 444 360.833 444 344L444 202C444 187.765 449.265 161.07 437.696 150.529C429.159 142.751 415.594 145 405 145L326 145L271 145C263.093 145 252.549 146.814 245 144.298C222.634 136.842 205.536 114.385 184 104.754C174.465 100.49 160.258 103 150 103C125.266 103 96.2701 98.8023 72 103.468z"/>
<path style="fill:#b9b9b9; stroke:none;" d="M180 103L181 104L180 103z"/>
<path style="fill:#dfdfdf; stroke:none;" d="M181 103L182 104L181 103z"/>
<path style="fill:#f4f4f4; stroke:none;" d="M182 103L183 104L182 103M66 104L67 105L66 104z"/>
<path style="fill:#dfdfdf; stroke:none;" d="M67 104L68 105L67 104M184 104L185 105L184 104M65 105L66 106L65 105z"/>
<path style="fill:#b9b9b9; stroke:none;" d="M185 105L186 106L185 105z"/>
<path style="fill:#f4f4f4; stroke:none;" d="M186 105L187 106L186 105M63 106L64 107L63 106z"/>
<path style="fill:#b9b9b9; stroke:none;" d="M64 106L65 107L64 106z"/>
<path style="fill:#dfdfdf; stroke:none;" d="M187 106L188 107L187 106M62 107L63 108L62 107z"/>
<path style="fill:#b9b9b9; stroke:none;" d="M188 107L189 108L188 107z"/>
<path style="fill:#f4f4f4; stroke:none;" d="M189 107L190 108L189 107z"/>
<path style="fill:#dfdfdf; stroke:none;" d="M61 108L62 109L61 108z"/>
<path style="fill:#f4f4f4; stroke:none;" d="M190 108L191 109L190 108z"/>
<path style="fill:#dfdfdf; stroke:none;" d="M60 109L61 110L60 109z"/>
<path style="fill:#b9b9b9; stroke:none;" d="M191 109L192 110L191 109z"/>
<path style="fill:#f4f4f4; stroke:none;" d="M192 109L193 110L192 109M59 110L60 111L59 110z"/>
<path style="fill:#dfdfdf; stroke:none;" d="M193 110L194 111L193 110z"/>
<path style="fill:#f4f4f4; stroke:none;" d="M58 111L59 112L58 111z"/>
<path style="fill:#b9b9b9; stroke:none;" d="M194 111L195 112L194 111z"/>
<path style="fill:#f4f4f4; stroke:none;" d="M195 111L196 112L195 111z"/>
<path style="fill:#b9b9b9; stroke:none;" d="M58 112L59 113L58 112z"/>
<path style="fill:#dfdfdf; stroke:none;" d="M196 112L197 113L196 112z"/>
<path style="fill:#f4f4f4; stroke:none;" d="M57 113L58 114L57 113z"/>
<path style="fill:#b9b9b9; stroke:none;" d="M197 113L198 114L197 113z"/>
<path style="fill:#f4f4f4; stroke:none;" d="M198 113L199 114L198 113z"/>
<path style="fill:#b9b9b9; stroke:none;" d="M57 114L58 115L57 114z"/>
<path style="fill:#dfdfdf; stroke:none;" d="M199 114L200 115L199 114z"/>
<path style="fill:#f4f4f4; stroke:none;" d="M56 115L57 116L56 115z"/>
<path style="fill:#b9b9b9; stroke:none;" d="M200 115L201 116L200 115z"/>
<path style="fill:#f4f4f4; stroke:none;" d="M201 115L202 116L201 115z"/>
<path style="fill:#b9b9b9; stroke:none;" d="M56 116L57 117L56 116z"/>
<path style="fill:#dfdfdf; stroke:none;" d="M202 116L203 117L202 116z"/>
<path style="fill:#f4f4f4; stroke:none;" d="M55.3333 117.667L55.6667 118.333L55.3333 117.667z"/>
<path style="fill:#b9b9b9; stroke:none;" d="M203 117L204 118L203 117z"/>
<path style="fill:#f4f4f4; stroke:none;" d="M204 117L205 118L204 117z"/>
<path style="fill:#dfdfdf; stroke:none;" d="M205 118L206 119L205 118M55 119L56 120L55 119z"/>
<path style="fill:#b9b9b9; stroke:none;" d="M206 119L207 120L206 119z"/>
<path style="fill:#f4f4f4; stroke:none;" d="M207 119L208 120L207 119z"/>
<path style="fill:#b9b9b9; stroke:none;" d="M55 120L55 379L56 379L56 196L56 144L55 120z"/>
<path style="fill:#dfdfdf; stroke:none;" d="M208 120L209 121L208 120z"/>
<path style="fill:#b9b9b9; stroke:none;" d="M209 121L210 122L209 121z"/>
<path style="fill:#f4f4f4; stroke:none;" d="M210 121L211 122L210 121z"/>
<path style="fill:#dfdfdf; stroke:none;" d="M211 122L212 123L211 122z"/>
<path style="fill:#b9b9b9; stroke:none;" d="M212 123L213 124L212 123z"/>
<path style="fill:#f4f4f4; stroke:none;" d="M213 123L214 124L213 123z"/>
<path style="fill:#dfdfdf; stroke:none;" d="M214 124L215 125L214 124z"/>
<path style="fill:#b9b9b9; stroke:none;" d="M215 125L216 126L215 125z"/>
<path style="fill:#f4f4f4; stroke:none;" d="M216 125L217 126L216 125z"/>
<path style="fill:#dfdfdf; stroke:none;" d="M217 126L218 127L217 126z"/>
<path style="fill:#b9b9b9; stroke:none;" d="M218 127L219 128L218 127z"/>
<path style="fill:#f4f4f4; stroke:none;" d="M219 127L220 128L219 127z"/>
<path style="fill:#dfdfdf; stroke:none;" d="M220 128L221 129L220 128z"/>
<path style="fill:#b9b9b9; stroke:none;" d="M221 129L222 130L221 129z"/>
<path style="fill:#f4f4f4; stroke:none;" d="M222 129L223 130L222 129z"/>
<path style="fill:#dfdfdf; stroke:none;" d="M223 130L224 131L223 130z"/>
<path style="fill:#b9b9b9; stroke:none;" d="M224 131L225 132L224 131z"/>
<path style="fill:#f4f4f4; stroke:none;" d="M225 131L226 132L225 131z"/>
<path style="fill:#dfdfdf; stroke:none;" d="M226 132L227 133L226 132z"/>
<path style="fill:#b9b9b9; stroke:none;" d="M227 133L228 134L227 133z"/>
<path style="fill:#f4f4f4; stroke:none;" d="M228 133L229 134L228 133z"/>
<path style="fill:#dfdfdf; stroke:none;" d="M229 134L230 135L229 134z"/>
<path style="fill:#b9b9b9; stroke:none;" d="M230 135L231 136L230 135z"/>
<path style="fill:#f4f4f4; stroke:none;" d="M231 135L232 136L231 135z"/>
<path style="fill:#dfdfdf; stroke:none;" d="M232 136L233 137L232 136z"/>
<path style="fill:#b9b9b9; stroke:none;" d="M233 137L234 138L233 137z"/>
<path style="fill:#f4f4f4; stroke:none;" d="M234 137L235 138L234 137z"/>
<path style="fill:#dfdfdf; stroke:none;" d="M235 138L236 139L235 138z"/>
<path style="fill:#b9b9b9; stroke:none;" d="M236 139L237 140L236 139z"/>
<path style="fill:#f4f4f4; stroke:none;" d="M237 139L238 140L237 139z"/>
<path style="fill:#dfdfdf; stroke:none;" d="M238 140L239 141L238 140z"/>
<path style="fill:#b9b9b9; stroke:none;" d="M239 141L240 142L239 141z"/>
<path style="fill:#f4f4f4; stroke:none;" d="M240 141L241 142L240 141z"/>
<path style="fill:#dfdfdf; stroke:none;" d="M241 142L242 143L241 142z"/>
<path style="fill:#b9b9b9; stroke:none;" d="M242 143L243 144L242 143z"/>
<path style="fill:#f4f4f4; stroke:none;" d="M243 143L244 144L243 143z"/>
<path style="fill:#dfdfdf; stroke:none;" d="M244 144L244 145L424 145L406 144L370 144L244 144z"/>
<path style="fill:#f4f4f4; stroke:none;" d="M424 144L424 145L427 145L424 144z"/>
<path style="fill:#b9b9b9; stroke:none;" d="M427.667 145.333L428.333 145.667L427.667 145.333z"/>
<path style="fill:#dfdfdf; stroke:none;" d="M429 145L430 146L429 145z"/>
<path style="fill:#f4f4f4; stroke:none;" d="M430 145L431 146L430 145z"/>
<path style="fill:#b9b9b9; stroke:none;" d="M431 146L432 147L431 146z"/>
<path style="fill:#dfdfdf; stroke:none;" d="M432 146L433 147L432 146z"/>
<path style="fill:#b9b9b9; stroke:none;" d="M433 147L434 148L433 147z"/>
<path style="fill:#f4f4f4; stroke:none;" d="M434 147L435 148L434 147z"/>
<path style="fill:#b9b9b9; stroke:none;" d="M435 148L436 149L435 148M436 149L437 150L436 149z"/>
<path style="fill:#f4f4f4; stroke:none;" d="M437 149L438 150L437 149M438 150L439 151L438 150M439 151L440 152L439 151z"/>
<path style="fill:#b9b9b9; stroke:none;" d="M439 152L440 153L439 152M440 153L441 154L440 153z"/>
<path style="fill:#dfdfdf; stroke:none;" d="M441 154L442 155L441 154M442 156L443 157L442 156z"/>
<path style="fill:#b9b9b9; stroke:none;" d="M442 157L443 158L442 157z"/>
<path style="fill:#dfdfdf; stroke:none;" d="M443 158L444 159L443 158z"/>
<path style="fill:#b9b9b9; stroke:none;" d="M443 159L444 160L443 159z"/>
<path style="fill:#f4f4f4; stroke:none;" d="M444 161L445 162L444 161z"/>
<path style="fill:#dfdfdf; stroke:none;" d="M444 162L445 163L444 162z"/>
<path style="fill:#b9b9b9; stroke:none;" d="M444 163L444 379L445 379L445 227L445 183L444 163z"/>
<path style="fill:#f4f4f4; stroke:none;" d="M54 173L54 375L55 375L55 233L55 192L54 173z"/>
<path style="fill:#dfdfdf; stroke:none;" d="M55.3333 379.667L55.6667 380.333L55.3333 379.667M444 379L445 380L444 379z"/>
<path style="fill:#f4f4f4; stroke:none;" d="M444 380L445 381L444 380M55 381L56 382L55 381z"/>
<path style="fill:#b9b9b9; stroke:none;" d="M443 382L444 383L443 382z"/>
<path style="fill:#dfdfdf; stroke:none;" d="M56 383L57 384L56 383M443 383L444 384L443 383z"/>
<path style="fill:#f4f4f4; stroke:none;" d="M56 384L57 385L56 384z"/>
<path style="fill:#b9b9b9; stroke:none;" d="M57 385L58 386L57 385z"/>
<path style="fill:#dfdfdf; stroke:none;" d="M442 385L443 386L442 385z"/>
<path style="fill:#f4f4f4; stroke:none;" d="M57 386L58 387L57 386M442 386L443 387L442 386z"/>
<path style="fill:#dfdfdf; stroke:none;" d="M58 387L59 388L58 387M441 387L442 388L441 387z"/>
<path style="fill:#b9b9b9; stroke:none;" d="M59 388L60 389L59 388M440 388L441 389L440 388z"/>
<path style="fill:#f4f4f4; stroke:none;" d="M59 389L60 390L59 389z"/>
<path style="fill:#b9b9b9; stroke:none;" d="M439 389L440 390L439 389z"/>
<path style="fill:#f4f4f4; stroke:none;" d="M60 390L61 391L60 390M439 390L440 391L439 390z"/>
<path style="fill:#dfdfdf; stroke:none;" d="M61 391L62 392L61 391z"/>
<path style="fill:#b9b9b9; stroke:none;" d="M437 391L438 392L437 391z"/>
<path style="fill:#f4f4f4; stroke:none;" d="M438 391L439 392L438 391M62 392L63 393L62 392z"/>
<path style="fill:#b9b9b9; stroke:none;" d="M63 392L64 393L63 392M436 392L437 393L436 392M64 393L65 394L64 393M435 393L436 394L435 393z"/>
<path style="fill:#dfdfdf; stroke:none;" d="M65 394L66 395L65 394z"/>
<path style="fill:#b9b9b9; stroke:none;" d="M66 394L67 395L66 394M433 394L434 395L433 394z"/>
<path style="fill:#dfdfdf; stroke:none;" d="M434 394L435 395L434 394M67 395L68 396L67 395z"/>
<path style="fill:#b9b9b9; stroke:none;" d="M68 395L69 396L68 395M431 395L432 396L431 395z"/>
<path style="fill:#dfdfdf; stroke:none;" d="M432 395L433 396L432 395z"/>
<path style="fill:#f4f4f4; stroke:none;" d="M69 396L70 397L69 396z"/>
<path style="fill:#b9b9b9; stroke:none;" d="M70.6667 396.333L71.3333 396.667L70.6667 396.333M428 396L429 397L428 396z"/>
<path style="fill:#dfdfdf; stroke:none;" d="M429 396L430 397L429 396M74 397L74 398L426 398L395 397L323 397L74 397z"/>
</svg>
