<?xml version="1.0" standalone="yes"?>
<svg xmlns="http://www.w3.org/2000/svg" width="500" height="500">
<path style="fill:#010101; stroke:none;" d="M0 0L0 500L500 500L500 0L0 0z"/>
<path style="fill:#dddddd; stroke:none;" d="M87 91L87 92L91 92L87 91z"/>
<path style="fill:#cbcbcb; stroke:none;" d="M84 92L85 93L84 92z"/>
<path style="fill:#979797; stroke:none;" d="M254 277C268.642 283.828 280.896 301.039 293 311.715C325.268 340.175 356.094 370.302 388 399.17C398.085 408.294 408.27 417.502 418 427C422.707 431.594 428.773 438.269 436 437.772C444.613 437.179 450.487 427.912 446.543 420C440.554 407.983 423.868 397.189 414.015 388.174C366.595 344.786 317.578 302.321 272 257C309.786 244.705 347.308 231.576 385 219C393.695 216.099 419.286 212.321 419.847 200.999C420.207 193.733 413.68 191.761 408 189.975C394.328 185.676 380.687 181.279 367 177.025C308.704 158.91 250.296 141.142 192 123.025C164.717 114.547 137.453 105.764 110 97.8588C102.39 95.6676 88.1297 87.4928 81.5139 95.2284C75.5185 102.239 83.1385 114.813 85.6566 122C94.3262 146.744 103.517 171.301 112.308 196C131.42 249.7 151.277 303.166 170 357C174.422 369.713 179.356 382.251 183.667 395C185.538 400.533 187.51 407.006 194.004 408.402C207.028 411.202 211.034 388.544 214.449 380C227.692 346.867 245.778 311.694 254 277z"/>
<path style="fill:#cbcbcb; stroke:none;" d="M93 92L94 93L93 92z"/>
<path style="fill:#dddddd; stroke:none;" d="M94 92L95 93L94 92M82 93L83 94L82 93z"/>
<path style="fill:#cbcbcb; stroke:none;" d="M96 93L97 94L96 93z"/>
<path style="fill:#dddddd; stroke:none;" d="M81 94L82 95L81 94z"/>
<path style="fill:#b5b5b5; stroke:none;" d="M99 94L100 95L99 94z"/>
<path style="fill:#dddddd; stroke:none;" d="M100 94L101 95L100 94M80 95L81 96L80 95z"/>
<path style="fill:#b5b5b5; stroke:none;" d="M102 95L103 96L102 95z"/>
<path style="fill:#cbcbcb; stroke:none;" d="M103 95L104 96L103 95z"/>
<path style="fill:#b5b5b5; stroke:none;" d="M105 96L106 97L105 96z"/>
<path style="fill:#cbcbcb; stroke:none;" d="M106 96L107 97L106 96M79 97L80 98L79 97z"/>
<path style="fill:#b5b5b5; stroke:none;" d="M108 97L109 98L108 97z"/>
<path style="fill:#cbcbcb; stroke:none;" d="M109 97L110 98L109 97z"/>
<path style="fill:#dddddd; stroke:none;" d="M110 97L111 98L110 97z"/>
<path style="fill:#b5b5b5; stroke:none;" d="M79 98L80 99L79 98M112 98L113 99L112 98z"/>
<path style="fill:#dddddd; stroke:none;" d="M113 98L114 99L113 98z"/>
<path style="fill:#b5b5b5; stroke:none;" d="M115 99L116 100L115 99z"/>
<path style="fill:#dddddd; stroke:none;" d="M116 99L117 100L116 99z"/>
<path style="fill:#b5b5b5; stroke:none;" d="M118 100L119 101L118 100z"/>
<path style="fill:#cbcbcb; stroke:none;" d="M119 100L120 101L119 100z"/>
<path style="fill:#dddddd; stroke:none;" d="M120 100L121 101L120 100z"/>
<path style="fill:#b5b5b5; stroke:none;" d="M122 101L123 102L122 101z"/>
<path style="fill:#dddddd; stroke:none;" d="M123 101L124 102L123 101z"/>
<path style="fill:#cbcbcb; stroke:none;" d="M125 102L126 103L125 102z"/>
<path style="fill:#dddddd; stroke:none;" d="M126 102L127 103L126 102z"/>
<path style="fill:#b5b5b5; stroke:none;" d="M128 103L129 104L128 103z"/>
<path style="fill:#cbcbcb; stroke:none;" d="M129 103L130 104L129 103z"/>
<path style="fill:#b5b5b5; stroke:none;" d="M79 104L80 105L79 104M131 104L132 105L131 104z"/>
<path style="fill:#cbcbcb; stroke:none;" d="M132 104L133 105L132 104M79 105L80 106L79 105z"/>
<path style="fill:#b5b5b5; stroke:none;" d="M134 105L135 106L134 105z"/>
<path style="fill:#cbcbcb; stroke:none;" d="M135 105L136 106L135 105z"/>
<path style="fill:#b5b5b5; stroke:none;" d="M137.667 106.333L138.333 106.667L137.667 106.333z"/>
<path style="fill:#dddddd; stroke:none;" d="M139 106L140 107L139 106z"/>
<path style="fill:#b5b5b5; stroke:none;" d="M80 107L81 108L80 107M141 107L142 108L141 107z"/>
<path style="fill:#cbcbcb; stroke:none;" d="M142 107L143 108L142 107M80 108L81 109L80 108z"/>
<path style="fill:#b5b5b5; stroke:none;" d="M144 108L145 109L144 108z"/>
<path style="fill:#dddddd; stroke:none;" d="M145 108L146 109L145 108z"/>
<path style="fill:#b5b5b5; stroke:none;" d="M147 109L148 110L147 109z"/>
<path style="fill:#cbcbcb; stroke:none;" d="M148 109L149 110L148 109z"/>
<path style="fill:#b5b5b5; stroke:none;" d="M81 110L82 111L81 110M151 110L152 111L151 110z"/>
<path style="fill:#dddddd; stroke:none;" d="M152 110L153 111L152 110M81 111L82 112L81 111z"/>
<path style="fill:#b5b5b5; stroke:none;" d="M154 111L155 112L154 111M157 112L158 113L157 112z"/>
<path style="fill:#cbcbcb; stroke:none;" d="M158 112L159 113L158 112M82 113L83 114L82 113M161 113L162 114L161 113z"/>
<path style="fill:#dddddd; stroke:none;" d="M82 114L83 115L82 114z"/>
<path style="fill:#cbcbcb; stroke:none;" d="M164 114L165 115L164 114z"/>
<path style="fill:#b5b5b5; stroke:none;" d="M167 115L168 116L167 115z"/>
<path style="fill:#cbcbcb; stroke:none;" d="M83 116L84 117L83 116z"/>
<path style="fill:#b5b5b5; stroke:none;" d="M170 116L171 117L170 116z"/>
<path style="fill:#cbcbcb; stroke:none;" d="M171 116L172 117L171 116z"/>
<path style="fill:#b5b5b5; stroke:none;" d="M173 117L174 118L173 117z"/>
<path style="fill:#cbcbcb; stroke:none;" d="M174 117L175 118L174 117z"/>
<path style="fill:#b5b5b5; stroke:none;" d="M84 118L85 119L84 118M176 118L177 119L176 118z"/>
<path style="fill:#cbcbcb; stroke:none;" d="M177 118L178 119L177 118z"/>
<path style="fill:#dddddd; stroke:none;" d="M84 119L85 120L84 119z"/>
<path style="fill:#b5b5b5; stroke:none;" d="M180 119L181 120L180 119M183 120L184 121L183 120z"/>
<path style="fill:#dddddd; stroke:none;" d="M184 120L185 121L184 120z"/>
<path style="fill:#b5b5b5; stroke:none;" d="M85 121L86 122L85 121M186 121L187 122L186 121z"/>
<path style="fill:#cbcbcb; stroke:none;" d="M187 121L188 122L187 121z"/>
<path style="fill:#dddddd; stroke:none;" d="M85 122L86 123L85 122z"/>
<path style="fill:#b5b5b5; stroke:none;" d="M190 122L191 123L190 122z"/>
<path style="fill:#cbcbcb; stroke:none;" d="M193 123L194 124L193 123z"/>
<path style="fill:#b5b5b5; stroke:none;" d="M86 124L87 125L86 124M196 124L197 125L196 124z"/>
<path style="fill:#dddddd; stroke:none;" d="M197 124L198 125L197 124M86 125L87 126L86 125z"/>
<path style="fill:#b5b5b5; stroke:none;" d="M199 125L200 126L199 125z"/>
<path style="fill:#cbcbcb; stroke:none;" d="M200 125L201 126L200 125z"/>
<path style="fill:#b5b5b5; stroke:none;" d="M202 126L203 127L202 126z"/>
<path style="fill:#cbcbcb; stroke:none;" d="M203 126L204 127L203 126M87 127L88 128L87 127z"/>
<path style="fill:#b5b5b5; stroke:none;" d="M205 127L206 128L205 127z"/>
<path style="fill:#cbcbcb; stroke:none;" d="M206 127L207 128L206 127z"/>
<path style="fill:#b5b5b5; stroke:none;" d="M209 128L210 129L209 128z"/>
<path style="fill:#cbcbcb; stroke:none;" d="M210 128L211 129L210 128z"/>
<path style="fill:#b5b5b5; stroke:none;" d="M88 129L89 130L88 129M120 129L121 130L120 129M212 129L213 130L212 129z"/>
<path style="fill:#dddddd; stroke:none;" d="M213 129L214 130L213 129z"/>
<path style="fill:#cbcbcb; stroke:none;" d="M88 130L89 131L88 130z"/>
<path style="fill:#dddddd; stroke:none;" d="M120 130L121 131L120 130z"/>
<path style="fill:#010101; stroke:none;" d="M121 130C123.988 149.95 135.017 171.037 141.947 190C154.699 224.896 167.317 259.901 179.505 295C184.883 310.49 192.303 326.027 196 342C202.424 337.603 204.977 323.18 207.684 316C214.49 297.953 221.492 279.931 228.601 262C231.189 255.473 233.25 244.4 238.419 239.51C244.666 233.599 258.916 231.695 267 229L322 210.667C330.641 207.786 341.29 205.852 349 201L325 192.975L274 177.28L121 130z"/>
<path style="fill:#dddddd; stroke:none;" d="M122 130L123 131L122 130z"/>
<path style="fill:#cbcbcb; stroke:none;" d="M123 130L124 131L123 130z"/>
<path style="fill:#b5b5b5; stroke:none;" d="M124 130L125 131L124 130M215 130L216 131L215 130z"/>
<path style="fill:#cbcbcb; stroke:none;" d="M216 130L217 131L216 130z"/>
<path style="fill:#b5b5b5; stroke:none;" d="M120 131L121 132L120 131z"/>
<path style="fill:#cbcbcb; stroke:none;" d="M126 131L127 132L126 131z"/>
<path style="fill:#b5b5b5; stroke:none;" d="M127 131L128 132L127 131M219 131L220 132L219 131z"/>
<path style="fill:#cbcbcb; stroke:none;" d="M129 132L130 133L129 132z"/>
<path style="fill:#b5b5b5; stroke:none;" d="M130 132L131 133L130 132M222 132L223 133L222 132z"/>
<path style="fill:#dddddd; stroke:none;" d="M223 132L224 133L223 132z"/>
<path style="fill:#cbcbcb; stroke:none;" d="M89 133L90 134L89 133M121 133L122 134L121 133z"/>
<path style="fill:#dddddd; stroke:none;" d="M132 133L133 134L132 133z"/>
<path style="fill:#b5b5b5; stroke:none;" d="M133 133L134 134L133 133M225 133L226 134L225 133z"/>
<path style="fill:#cbcbcb; stroke:none;" d="M226 133L227 134L226 133z"/>
<path style="fill:#b5b5b5; stroke:none;" d="M121 134L122 135L121 134z"/>
<path style="fill:#cbcbcb; stroke:none;" d="M136 134L137 135L136 134M229 134L230 135L229 134z"/>
<path style="fill:#b5b5b5; stroke:none;" d="M90 135L91 136L90 135z"/>
<path style="fill:#cbcbcb; stroke:none;" d="M139 135L140 136L139 135M232 135L233 136L232 135z"/>
<path style="fill:#dddddd; stroke:none;" d="M90 136L91 137L90 136z"/>
<path style="fill:#cbcbcb; stroke:none;" d="M122 136L123 137L122 136M142 136L143 137L142 136z"/>
<path style="fill:#b5b5b5; stroke:none;" d="M143 136L144 137L143 136M235 136L236 137L235 136z"/>
<path style="fill:#dddddd; stroke:none;" d="M236 136L237 137L236 136M145 137L146 138L145 137z"/>
<path style="fill:#b5b5b5; stroke:none;" d="M146 137L147 138L146 137M238 137L239 138L238 137z"/>
<path style="fill:#cbcbcb; stroke:none;" d="M239 137L240 138L239 137z"/>
<path style="fill:#b5b5b5; stroke:none;" d="M91 138L92 139L91 138z"/>
<path style="fill:#dddddd; stroke:none;" d="M123 138L124 139L123 138M148 138L149 139L148 138z"/>
<path style="fill:#b5b5b5; stroke:none;" d="M149 138L150 139L149 138M241 138L242 139L241 138z"/>
<path style="fill:#cbcbcb; stroke:none;" d="M242 138L243 139L242 138z"/>
<path style="fill:#dddddd; stroke:none;" d="M91 139L92 140L91 139z"/>
<path style="fill:#b5b5b5; stroke:none;" d="M123 139L124 140L123 139z"/>
<path style="fill:#cbcbcb; stroke:none;" d="M152 139L153 140L152 139z"/>
<path style="fill:#b5b5b5; stroke:none;" d="M153 139L154 140L153 139M244 139L245 140L244 139z"/>
<path style="fill:#cbcbcb; stroke:none;" d="M245 139L246 140L245 139M155 140L156 141L155 140z"/>
<path style="fill:#b5b5b5; stroke:none;" d="M156 140L157 141L156 140M248 140L249 141L248 140z"/>
<path style="fill:#dddddd; stroke:none;" d="M249 140L250 141L249 140z"/>
<path style="fill:#b5b5b5; stroke:none;" d="M92 141L93 142L92 141z"/>
<path style="fill:#dddddd; stroke:none;" d="M124 141L125 142L124 141z"/>
<path style="fill:#cbcbcb; stroke:none;" d="M158 141L159 142L158 141z"/>
<path style="fill:#b5b5b5; stroke:none;" d="M159 141L160 142L159 141M251 141L252 142L251 141z"/>
<path style="fill:#dddddd; stroke:none;" d="M252 141L253 142L252 141z"/>
<path style="fill:#b5b5b5; stroke:none;" d="M124 142L125 143L124 142z"/>
<path style="fill:#dddddd; stroke:none;" d="M161 142L162 143L161 142z"/>
<path style="fill:#cbcbcb; stroke:none;" d="M162 142L163 143L162 142z"/>
<path style="fill:#b5b5b5; stroke:none;" d="M254 142L255 143L254 142z"/>
<path style="fill:#cbcbcb; stroke:none;" d="M255 142L256 143L255 142z"/>
<path style="fill:#b5b5b5; stroke:none;" d="M93 143L94 144L93 143z"/>
<path style="fill:#cbcbcb; stroke:none;" d="M165 143L166 144L165 143z"/>
<path style="fill:#b5b5b5; stroke:none;" d="M258 143L259 144L258 143z"/>
<path style="fill:#cbcbcb; stroke:none;" d="M93 144L94 145L93 144z"/>
<path style="fill:#dddddd; stroke:none;" d="M125 144L126 145L125 144z"/>
<path style="fill:#cbcbcb; stroke:none;" d="M168 144L169 145L168 144M261 144L262 145L261 144z"/>
<path style="fill:#b5b5b5; stroke:none;" d="M125 145L126 146L125 145z"/>
<path style="fill:#cbcbcb; stroke:none;" d="M171 145L172 146L171 145z"/>
<path style="fill:#b5b5b5; stroke:none;" d="M172 145L173 146L172 145M264 145L265 146L264 145z"/>
<path style="fill:#dddddd; stroke:none;" d="M265 145L266 146L265 145z"/>
<path style="fill:#b5b5b5; stroke:none;" d="M94 146L95 147L94 146z"/>
<path style="fill:#dddddd; stroke:none;" d="M174 146L175 147L174 146z"/>
<path style="fill:#b5b5b5; stroke:none;" d="M175 146L176 147L175 146z"/>
<path style="fill:#cbcbcb; stroke:none;" d="M268 146L269 147L268 146M94 147L95 148L94 147M126 147L127 148L126 147z"/>
<path style="fill:#dddddd; stroke:none;" d="M177 147L178 148L177 147z"/>
<path style="fill:#b5b5b5; stroke:none;" d="M178 147L179 148L178 147M270 147L271 148L270 147z"/>
<path style="fill:#cbcbcb; stroke:none;" d="M271 147L272 148L271 147M181 148L182 149L181 148z"/>
<path style="fill:#b5b5b5; stroke:none;" d="M182 148L183 149L182 148z"/>
<path style="fill:#cbcbcb; stroke:none;" d="M274 148L275 149L274 148z"/>
<path style="fill:#dddddd; stroke:none;" d="M275 148L276 149L275 148z"/>
<path style="fill:#b5b5b5; stroke:none;" d="M95 149L96 150L95 149z"/>
<path style="fill:#dddddd; stroke:none;" d="M127 149L128 150L127 149M184 149L185 150L184 149z"/>
<path style="fill:#b5b5b5; stroke:none;" d="M185 149L186 150L185 149M277 149L278 150L277 149z"/>
<path style="fill:#dddddd; stroke:none;" d="M278 149L279 150L278 149M95 150L96 151L95 150z"/>
<path style="fill:#cbcbcb; stroke:none;" d="M127 150L128 151L127 150M187 150L188 151L187 150z"/>
<path style="fill:#b5b5b5; stroke:none;" d="M188 150L189 151L188 150M280 150L281 151L280 150z"/>
<path style="fill:#dddddd; stroke:none;" d="M281 150L282 151L281 150z"/>
<path style="fill:#b5b5b5; stroke:none;" d="M127 151L128 152L127 151z"/>
<path style="fill:#dddddd; stroke:none;" d="M190 151L191 152L190 151z"/>
<path style="fill:#b5b5b5; stroke:none;" d="M191.667 151.333L192.333 151.667L191.667 151.333M283 151L284 152L283 151z"/>
<path style="fill:#cbcbcb; stroke:none;" d="M284 151L285 152L284 151M96 152L97 153L96 152z"/>
<path style="fill:#dddddd; stroke:none;" d="M128 152L129 153L128 152z"/>
<path style="fill:#cbcbcb; stroke:none;" d="M194 152L195 153L194 152z"/>
<path style="fill:#b5b5b5; stroke:none;" d="M195 152L196 153L195 152M287 152L288 153L287 152z"/>
<path style="fill:#dddddd; stroke:none;" d="M288 152L289 153L288 152z"/>
<path style="fill:#cbcbcb; stroke:none;" d="M128 153L129 154L128 153M197 153L198 154L197 153z"/>
<path style="fill:#b5b5b5; stroke:none;" d="M198 153L199 154L198 153M290 153L291 154L290 153z"/>
<path style="fill:#dddddd; stroke:none;" d="M291 153L292 154L291 153z"/>
<path style="fill:#b5b5b5; stroke:none;" d="M97 154L98 155L97 154z"/>
<path style="fill:#cbcbcb; stroke:none;" d="M200 154L201 155L200 154z"/>
<path style="fill:#b5b5b5; stroke:none;" d="M201 154L202 155L201 154M293 154L294 155L293 154z"/>
<path style="fill:#cbcbcb; stroke:none;" d="M294 154L295 155L294 154M97 155L98 156L97 155z"/>
<path style="fill:#dddddd; stroke:none;" d="M129 155L130 156L129 155M203 155L204 156L203 155z"/>
<path style="fill:#cbcbcb; stroke:none;" d="M204 155L205 156L204 155M297 155L298 156L297 155z"/>
<path style="fill:#b5b5b5; stroke:none;" d="M129 156L130 157L129 156z"/>
<path style="fill:#dddddd; stroke:none;" d="M206 156L207 157L206 156z"/>
<path style="fill:#b5b5b5; stroke:none;" d="M207 156L208 157L207 156z"/>
<path style="fill:#cbcbcb; stroke:none;" d="M300 156L301 157L300 156M210 157L211 158L210 157z"/>
<path style="fill:#b5b5b5; stroke:none;" d="M211 157L212 158L211 157M303 157L304 158L303 157z"/>
<path style="fill:#dddddd; stroke:none;" d="M304 157L305 158L304 157z"/>
<path style="fill:#cbcbcb; stroke:none;" d="M98 158L99 159L98 158M130 158L131 159L130 158z"/>
<path style="fill:#dddddd; stroke:none;" d="M213 158L214 159L213 158z"/>
<path style="fill:#b5b5b5; stroke:none;" d="M214 158L215 159L214 158M306 158L307 159L306 158z"/>
<path style="fill:#cbcbcb; stroke:none;" d="M307 158L308 159L307 158z"/>
<path style="fill:#b5b5b5; stroke:none;" d="M130 159L131 160L130 159z"/>
<path style="fill:#dddddd; stroke:none;" d="M216 159L217 160L216 159z"/>
<path style="fill:#b5b5b5; stroke:none;" d="M217 159L218 160L217 159M309 159L310 160L309 159z"/>
<path style="fill:#cbcbcb; stroke:none;" d="M310 159L311 160L310 159z"/>
<path style="fill:#b5b5b5; stroke:none;" d="M99 160L100 161L99 160z"/>
<path style="fill:#dddddd; stroke:none;" d="M219 160L220 161L219 160z"/>
<path style="fill:#cbcbcb; stroke:none;" d="M220 160L221 161L220 160z"/>
<path style="fill:#b5b5b5; stroke:none;" d="M221 160L222 161L221 160M312 160L313 161L312 160z"/>
<path style="fill:#cbcbcb; stroke:none;" d="M313 160L314 161L313 160z"/>
<path style="fill:#dddddd; stroke:none;" d="M314 160L315 161L314 160M99 161L100 162L99 161z"/>
<path style="fill:#cbcbcb; stroke:none;" d="M131 161L132 162L131 161M223 161L224 162L223 161z"/>
<path style="fill:#b5b5b5; stroke:none;" d="M224 161L225 162L224 161M316 161L317 162L316 161z"/>
<path style="fill:#dddddd; stroke:none;" d="M317 161L318 162L317 161z"/>
<path style="fill:#b5b5b5; stroke:none;" d="M131 162L132 163L131 162z"/>
<path style="fill:#cbcbcb; stroke:none;" d="M226 162L227 163L226 162z"/>
<path style="fill:#b5b5b5; stroke:none;" d="M227 162L228 163L227 162M319 162L320 163L319 162z"/>
<path style="fill:#dddddd; stroke:none;" d="M320 162L321 163L320 162z"/>
<path style="fill:#b5b5b5; stroke:none;" d="M100 163L101 164L100 163z"/>
<path style="fill:#dddddd; stroke:none;" d="M132 163L133 164L132 163M229 163L230 164L229 163z"/>
<path style="fill:#b5b5b5; stroke:none;" d="M230 163L231 164L230 163M322 163L323 164L322 163z"/>
<path style="fill:#cbcbcb; stroke:none;" d="M323 163L324 164L323 163z"/>
<path style="fill:#dddddd; stroke:none;" d="M100 164L101 165L100 164z"/>
<path style="fill:#b5b5b5; stroke:none;" d="M132 164L133 165L132 164z"/>
<path style="fill:#cbcbcb; stroke:none;" d="M233 164L234 165L233 164M326 164L327 165L326 164z"/>
<path style="fill:#dddddd; stroke:none;" d="M327 164L328 165L327 164z"/>
<path style="fill:#b5b5b5; stroke:none;" d="M236 165L237 166L236 165z"/>
<path style="fill:#cbcbcb; stroke:none;" d="M329 165L330 166L329 165z"/>
<path style="fill:#b5b5b5; stroke:none;" d="M101 166L102 167L101 166z"/>
<path style="fill:#dddddd; stroke:none;" d="M133 166L134 167L133 166z"/>
<path style="fill:#cbcbcb; stroke:none;" d="M239 166L240 167L239 166z"/>
<path style="fill:#b5b5b5; stroke:none;" d="M240 166L241 167L240 166M332 166L333 167L332 166z"/>
<path style="fill:#cbcbcb; stroke:none;" d="M333 166L334 167L333 166z"/>
<path style="fill:#b5b5b5; stroke:none;" d="M133 167L134 168L133 167z"/>
<path style="fill:#dddddd; stroke:none;" d="M242 167L243 168L242 167z"/>
<path style="fill:#b5b5b5; stroke:none;" d="M243 167L244 168L243 167M335 167L336 168L335 167z"/>
<path style="fill:#cbcbcb; stroke:none;" d="M336 167L337 168L336 167z"/>
<path style="fill:#dddddd; stroke:none;" d="M245 168L246 169L245 168z"/>
<path style="fill:#b5b5b5; stroke:none;" d="M246 168L247 169L246 168M338 168L339 169L338 168z"/>
<path style="fill:#cbcbcb; stroke:none;" d="M339 168L340 169L339 168M102 169L103 170L102 169z"/>
<path style="fill:#dddddd; stroke:none;" d="M134 169L135 170L134 169z"/>
<path style="fill:#cbcbcb; stroke:none;" d="M249 169L250 170L249 169z"/>
<path style="fill:#b5b5b5; stroke:none;" d="M250 169L251 170L250 169M341 169L342 170L341 169z"/>
<path style="fill:#cbcbcb; stroke:none;" d="M342 169L343 170L342 169z"/>
<path style="fill:#b5b5b5; stroke:none;" d="M134 170L135 171L134 170z"/>
<path style="fill:#dddddd; stroke:none;" d="M252 170L253 171L252 170z"/>
<path style="fill:#b5b5b5; stroke:none;" d="M253 170L254 171L253 170M345 170L346 171L345 170z"/>
<path style="fill:#dddddd; stroke:none;" d="M346 170L347 171L346 170z"/>
<path style="fill:#b5b5b5; stroke:none;" d="M103 171L104 172L103 171z"/>
<path style="fill:#cbcbcb; stroke:none;" d="M255 171L256 172L255 171z"/>
<path style="fill:#b5b5b5; stroke:none;" d="M256 171L257 172L256 171M348 171L349 172L348 171z"/>
<path style="fill:#cbcbcb; stroke:none;" d="M103 172L104 173L103 172M135 172L136 173L135 172z"/>
<path style="fill:#dddddd; stroke:none;" d="M258 172L259 173L258 172z"/>
<path style="fill:#b5b5b5; stroke:none;" d="M259 172L260 173L259 172M351 172L352 173L351 172z"/>
<path style="fill:#cbcbcb; stroke:none;" d="M352 172L353 173L352 172M262 173L263 174L262 173z"/>
<path style="fill:#b5b5b5; stroke:none;" d="M355 173L356 174L355 173M104 174L105 175L104 174z"/>
<path style="fill:#cbcbcb; stroke:none;" d="M265 174L266 175L265 174z"/>
<path style="fill:#b5b5b5; stroke:none;" d="M358 174L359 175L358 174z"/>
<path style="fill:#dddddd; stroke:none;" d="M104 175L105 176L104 175z"/>
<path style="fill:#cbcbcb; stroke:none;" d="M136 175L137 176L136 175M268 175L269 176L268 175z"/>
<path style="fill:#b5b5b5; stroke:none;" d="M269 175L270 176L269 175M361 175L362 176L361 175z"/>
<path style="fill:#cbcbcb; stroke:none;" d="M362 175L363 176L362 175z"/>
<path style="fill:#b5b5b5; stroke:none;" d="M136 176L137 177L136 176z"/>
<path style="fill:#dddddd; stroke:none;" d="M271 176L272 177L271 176z"/>
<path style="fill:#b5b5b5; stroke:none;" d="M272 176L273 177L272 176z"/>
<path style="fill:#cbcbcb; stroke:none;" d="M365 176L366 177L365 176z"/>
<path style="fill:#b5b5b5; stroke:none;" d="M105 177L106 178L105 177z"/>
<path style="fill:#dddddd; stroke:none;" d="M274 177L275 178L274 177z"/>
<path style="fill:#b5b5b5; stroke:none;" d="M275 177L276 178L275 177z"/>
<path style="fill:#cbcbcb; stroke:none;" d="M368 177L369 178L368 177M137 178L138 179L137 178M278 178L279 179L278 178z"/>
<path style="fill:#b5b5b5; stroke:none;" d="M279 178L280 179L279 178M371 178L372 179L371 178z"/>
<path style="fill:#dddddd; stroke:none;" d="M372 178L373 179L372 178z"/>
<path style="fill:#b5b5b5; stroke:none;" d="M106 179L107 180L106 179z"/>
<path style="fill:#cbcbcb; stroke:none;" d="M281 179L282 180L281 179z"/>
<path style="fill:#b5b5b5; stroke:none;" d="M282 179L283 180L282 179M374 179L375 180L374 179z"/>
<path style="fill:#cbcbcb; stroke:none;" d="M375 179L376 180L375 179M106 180L107 181L106 180z"/>
<path style="fill:#dddddd; stroke:none;" d="M138 180L139 181L138 180z"/>
<path style="fill:#cbcbcb; stroke:none;" d="M284 180L285 181L284 180z"/>
<path style="fill:#b5b5b5; stroke:none;" d="M285 180L286 181L285 180M377 180L378 181L377 180z"/>
<path style="fill:#cbcbcb; stroke:none;" d="M378 180L379 181L378 180z"/>
<path style="fill:#b5b5b5; stroke:none;" d="M138 181L139 182L138 181z"/>
<path style="fill:#cbcbcb; stroke:none;" d="M288 181L289 182L288 181z"/>
<path style="fill:#b5b5b5; stroke:none;" d="M380 181L381 182L380 181z"/>
<path style="fill:#cbcbcb; stroke:none;" d="M381 181L382 182L381 181M291 182L292 183L291 182z"/>
<path style="fill:#b5b5b5; stroke:none;" d="M292 182L293 183L292 182M384 182L385 183L384 182z"/>
<path style="fill:#dddddd; stroke:none;" d="M385 182L386 183L385 182z"/>
<path style="fill:#cbcbcb; stroke:none;" d="M107 183L108 184L107 183z"/>
<path style="fill:#dddddd; stroke:none;" d="M139 183L140 184L139 183z"/>
<path style="fill:#cbcbcb; stroke:none;" d="M294 183L295 184L294 183z"/>
<path style="fill:#b5b5b5; stroke:none;" d="M387 183L388 184L387 183z"/>
<path style="fill:#dddddd; stroke:none;" d="M388 183L389 184L388 183z"/>
<path style="fill:#b5b5b5; stroke:none;" d="M139 184L140 185L139 184z"/>
<path style="fill:#dddddd; stroke:none;" d="M297 184L298 185L297 184z"/>
<path style="fill:#b5b5b5; stroke:none;" d="M298 184L299 185L298 184M390 184L391 185L390 184z"/>
<path style="fill:#cbcbcb; stroke:none;" d="M391 184L392 185L391 184z"/>
<path style="fill:#b5b5b5; stroke:none;" d="M108 185L109 186L108 185M301 185L302 186L301 185z"/>
<path style="fill:#cbcbcb; stroke:none;" d="M394 185L395 186L394 185z"/>
<path style="fill:#dddddd; stroke:none;" d="M395 185L396 186L395 185M108 186L109 187L108 186M140 186L141 187L140 186z"/>
<path style="fill:#b5b5b5; stroke:none;" d="M304 186L305 187L304 186z"/>
<path style="fill:#cbcbcb; stroke:none;" d="M397 186L398 187L397 186z"/>
<path style="fill:#dddddd; stroke:none;" d="M398 186L399 187L398 186z"/>
<path style="fill:#b5b5b5; stroke:none;" d="M140 187L141 188L140 187z"/>
<path style="fill:#cbcbcb; stroke:none;" d="M307 187L308 188L307 187z"/>
<path style="fill:#b5b5b5; stroke:none;" d="M308 187L309 188L308 187M400 187L401 188L400 187z"/>
<path style="fill:#dddddd; stroke:none;" d="M401 187L402 188L401 187z"/>
<path style="fill:#b5b5b5; stroke:none;" d="M109 188L110 189L109 188z"/>
<path style="fill:#dddddd; stroke:none;" d="M141 188L142 189L141 188M310 188L311 189L310 188z"/>
<path style="fill:#b5b5b5; stroke:none;" d="M311 188L312 189L311 188M403 188L404 189L403 188z"/>
<path style="fill:#cbcbcb; stroke:none;" d="M404 188L405 189L404 188z"/>
<path style="fill:#dddddd; stroke:none;" d="M109 189L110 190L109 189z"/>
<path style="fill:#cbcbcb; stroke:none;" d="M141 189L142 190L141 189z"/>
<path style="fill:#dddddd; stroke:none;" d="M313 189L314 190L313 189z"/>
<path style="fill:#b5b5b5; stroke:none;" d="M314 189L315 190L314 189M406 189L407 190L406 189z"/>
<path style="fill:#cbcbcb; stroke:none;" d="M407 189L408 190L407 189M317 190L318 191L317 190z"/>
<path style="fill:#b5b5b5; stroke:none;" d="M318 190L319 191L318 190M409 190L410 191L409 190z"/>
<path style="fill:#cbcbcb; stroke:none;" d="M410 190L411 191L410 190z"/>
<path style="fill:#dddddd; stroke:none;" d="M411 190L412 191L411 190z"/>
<path style="fill:#b5b5b5; stroke:none;" d="M110 191L111 192L110 191z"/>
<path style="fill:#dddddd; stroke:none;" d="M142 191L143 192L142 191z"/>
<path style="fill:#cbcbcb; stroke:none;" d="M320 191L321 192L320 191z"/>
<path style="fill:#b5b5b5; stroke:none;" d="M321 191L322 192L321 191M413 191L414 192L413 191z"/>
<path style="fill:#dddddd; stroke:none;" d="M414 191L415 192L414 191z"/>
<path style="fill:#cbcbcb; stroke:none;" d="M142 192L143 193L142 192M323 192L324 193L323 192z"/>
<path style="fill:#b5b5b5; stroke:none;" d="M324 192L325 193L324 192M415 192L416 193L415 192M111 193L112 194L111 193z"/>
<path style="fill:#dddddd; stroke:none;" d="M326 193L327 194L326 193z"/>
<path style="fill:#b5b5b5; stroke:none;" d="M327 193L328 194L327 193z"/>
<path style="fill:#dddddd; stroke:none;" d="M417 193L418 194L417 193z"/>
<path style="fill:#cbcbcb; stroke:none;" d="M111 194L112 195L111 194z"/>
<path style="fill:#dddddd; stroke:none;" d="M143 194L144 195L143 194z"/>
<path style="fill:#cbcbcb; stroke:none;" d="M330 194L331 195L330 194z"/>
<path style="fill:#dddddd; stroke:none;" d="M418 194L419 195L418 194z"/>
<path style="fill:#b5b5b5; stroke:none;" d="M143 195L144 196L143 195z"/>
<path style="fill:#cbcbcb; stroke:none;" d="M333 195L334 196L333 195z"/>
<path style="fill:#b5b5b5; stroke:none;" d="M112 196L113 197L112 196z"/>
<path style="fill:#cbcbcb; stroke:none;" d="M336 196L337 197L336 196z"/>
<path style="fill:#b5b5b5; stroke:none;" d="M337 196L338 197L337 196z"/>
<path style="fill:#cbcbcb; stroke:none;" d="M419 196L420 197L419 196M112 197L113 198L112 197M144 197L145 198L144 197z"/>
<path style="fill:#b5b5b5; stroke:none;" d="M340 197L341 198L340 197M343 198L344 199L343 198z"/>
<path style="fill:#dddddd; stroke:none;" d="M420 198L421 199L420 198z"/>
<path style="fill:#b5b5b5; stroke:none;" d="M113 199L114 200L113 199z"/>
<path style="fill:#cbcbcb; stroke:none;" d="M346 199L347 200L346 199z"/>
<path style="fill:#b5b5b5; stroke:none;" d="M347 199L348 200L347 199z"/>
<path style="fill:#cbcbcb; stroke:none;" d="M420 199L421 200L420 199z"/>
<path style="fill:#dddddd; stroke:none;" d="M113 200L114 201L113 200z"/>
<path style="fill:#cbcbcb; stroke:none;" d="M145 200L146 201L145 200M349 200L350 201L349 200z"/>
<path style="fill:#b5b5b5; stroke:none;" d="M350.333 200.667L350.667 201.333L350.333 200.667M420.333 200.667L420.667 201.333L420.333 200.667M145 201L146 202L145 201z"/>
<path style="fill:#dddddd; stroke:none;" d="M349 201L350 202L349 201z"/>
<path style="fill:#b5b5b5; stroke:none;" d="M114 202L115 203L114 202z"/>
<path style="fill:#cbcbcb; stroke:none;" d="M346 202L347 203L346 202z"/>
<path style="fill:#b5b5b5; stroke:none;" d="M347 202L348 203L347 202z"/>
<path style="fill:#dddddd; stroke:none;" d="M420 202L421 203L420 202z"/>
<path style="fill:#cbcbcb; stroke:none;" d="M146 203L147 204L146 203M343 203L344 204L343 203z"/>
<path style="fill:#dddddd; stroke:none;" d="M340 204L341 205L340 204z"/>
<path style="fill:#b5b5b5; stroke:none;" d="M341 204L342 205L341 204M419 204L420 205L419 204z"/>
<path style="fill:#cbcbcb; stroke:none;" d="M115 205L116 206L115 205z"/>
<path style="fill:#dddddd; stroke:none;" d="M147 205L148 206L147 205z"/>
<path style="fill:#cbcbcb; stroke:none;" d="M337 205L338 206L337 205z"/>
<path style="fill:#b5b5b5; stroke:none;" d="M338 205L339 206L338 205M147 206L148 207L147 206z"/>
<path style="fill:#cbcbcb; stroke:none;" d="M334 206L335 207L334 206z"/>
<path style="fill:#dddddd; stroke:none;" d="M418 206L419 207L418 206M331 207L332 208L331 207z"/>
<path style="fill:#b5b5b5; stroke:none;" d="M332 207L333 208L332 207z"/>
<path style="fill:#cbcbcb; stroke:none;" d="M417 207L418 208L417 207M116 208L117 209L116 208z"/>
<path style="fill:#dddddd; stroke:none;" d="M148 208L149 209L148 208z"/>
<path style="fill:#cbcbcb; stroke:none;" d="M328 208L329 209L328 208z"/>
<path style="fill:#b5b5b5; stroke:none;" d="M329 208L330 209L329 208M415 208L416 209L415 208M148 209L149 210L148 209z"/>
<path style="fill:#cbcbcb; stroke:none;" d="M325 209L326 210L325 209z"/>
<path style="fill:#b5b5b5; stroke:none;" d="M413 209L414 210L413 209M117 210L118 211L117 210z"/>
<path style="fill:#dddddd; stroke:none;" d="M322 210L323 211L322 210z"/>
<path style="fill:#b5b5b5; stroke:none;" d="M323 210L324 211L323 210M410 210L411 211L410 210z"/>
<path style="fill:#cbcbcb; stroke:none;" d="M411 210L412 211L411 210z"/>
<path style="fill:#dddddd; stroke:none;" d="M117 211L118 212L117 211M149 211L150 212L149 211z"/>
<path style="fill:#cbcbcb; stroke:none;" d="M319 211L320 212L319 211z"/>
<path style="fill:#b5b5b5; stroke:none;" d="M320 211L321 212L320 211M407 211L408 212L407 211z"/>
<path style="fill:#cbcbcb; stroke:none;" d="M408 211L409 212L408 211z"/>
<path style="fill:#b5b5b5; stroke:none;" d="M149 212L150 213L149 212z"/>
<path style="fill:#cbcbcb; stroke:none;" d="M316 212L317 213L316 212z"/>
<path style="fill:#b5b5b5; stroke:none;" d="M404 212L405 213L404 212z"/>
<path style="fill:#dddddd; stroke:none;" d="M405 212L406 213L405 212z"/>
<path style="fill:#b5b5b5; stroke:none;" d="M118 213L119 214L118 213z"/>
<path style="fill:#dddddd; stroke:none;" d="M313 213L314 214L313 213z"/>
<path style="fill:#b5b5b5; stroke:none;" d="M314 213L315 214L314 213M401 213L402 214L401 213z"/>
<path style="fill:#cbcbcb; stroke:none;" d="M402 213L403 214L402 213z"/>
<path style="fill:#dddddd; stroke:none;" d="M118 214L119 215L118 214z"/>
<path style="fill:#cbcbcb; stroke:none;" d="M150 214L151 215L150 214M310 214L311 215L310 214z"/>
<path style="fill:#b5b5b5; stroke:none;" d="M311 214L312 215L311 214M398 214L399 215L398 214z"/>
<path style="fill:#cbcbcb; stroke:none;" d="M399 214L400 215L399 214M307 215L308 216L307 215z"/>
<path style="fill:#b5b5b5; stroke:none;" d="M395 215L396 216L395 215z"/>
<path style="fill:#dddddd; stroke:none;" d="M396 215L397 216L396 215z"/>
<path style="fill:#b5b5b5; stroke:none;" d="M119 216L120 217L119 216z"/>
<path style="fill:#dddddd; stroke:none;" d="M151 216L152 217L151 216z"/>
<path style="fill:#cbcbcb; stroke:none;" d="M304 216L305 217L304 216z"/>
<path style="fill:#b5b5b5; stroke:none;" d="M305 216L306 217L305 216M392 216L393 217L392 216z"/>
<path style="fill:#cbcbcb; stroke:none;" d="M393 216L394 217L393 216M151 217L152 218L151 217M301 217L302 218L301 217z"/>
<path style="fill:#b5b5b5; stroke:none;" d="M302 217L303 218L302 217M389 217L390 218L389 217z"/>
<path style="fill:#cbcbcb; stroke:none;" d="M390 217L391 218L390 217M298 218L299 219L298 218z"/>
<path style="fill:#b5b5b5; stroke:none;" d="M386 218L387 219L386 218z"/>
<path style="fill:#dddddd; stroke:none;" d="M387 218L388 219L387 218z"/>
<path style="fill:#cbcbcb; stroke:none;" d="M120 219L121 220L120 219z"/>
<path style="fill:#dddddd; stroke:none;" d="M152 219L153 220L152 219z"/>
<path style="fill:#cbcbcb; stroke:none;" d="M295 219L296 220L295 219z"/>
<path style="fill:#b5b5b5; stroke:none;" d="M296 219L297 220L296 219M383 219L384 220L383 219z"/>
<path style="fill:#cbcbcb; stroke:none;" d="M384 219L385 220L384 219z"/>
<path style="fill:#b5b5b5; stroke:none;" d="M152 220L153 221L152 220z"/>
<path style="fill:#cbcbcb; stroke:none;" d="M292 220L293 221L292 220z"/>
<path style="fill:#b5b5b5; stroke:none;" d="M293 220L294 221L293 220M380 220L381 221L380 220z"/>
<path style="fill:#cbcbcb; stroke:none;" d="M381 220L382 221L381 220z"/>
<path style="fill:#b5b5b5; stroke:none;" d="M121 221L122 222L121 221z"/>
<path style="fill:#cbcbcb; stroke:none;" d="M289 221L290 222L289 221z"/>
<path style="fill:#b5b5b5; stroke:none;" d="M377 221L378 222L377 221z"/>
<path style="fill:#cbcbcb; stroke:none;" d="M378 221L379 222L378 221M121 222L122 223L121 222M153 222L154 223L153 222M286 222L287 223L286 222z"/>
<path style="fill:#b5b5b5; stroke:none;" d="M287 222L288 223L287 222z"/>
<path style="fill:#cbcbcb; stroke:none;" d="M375 222L376 223L375 222z"/>
<path style="fill:#b5b5b5; stroke:none;" d="M153 223L154 224L153 223z"/>
<path style="fill:#cbcbcb; stroke:none;" d="M283 223L284 224L283 223z"/>
<path style="fill:#b5b5b5; stroke:none;" d="M284 223L285 224L284 223M371 223L372 224L371 223z"/>
<path style="fill:#cbcbcb; stroke:none;" d="M372 223L373 224L372 223z"/>
<path style="fill:#b5b5b5; stroke:none;" d="M122 224L123 225L122 224z"/>
<path style="fill:#cbcbcb; stroke:none;" d="M280 224L281 225L280 224z"/>
<path style="fill:#b5b5b5; stroke:none;" d="M368 224L369 225L368 224z"/>
<path style="fill:#cbcbcb; stroke:none;" d="M369 224L370 225L369 224M122 225L123 226L122 225M154 225L155 226L154 225M277 225L278 226L277 225z"/>
<path style="fill:#b5b5b5; stroke:none;" d="M278 225L279 226L278 225z"/>
<path style="fill:#cbcbcb; stroke:none;" d="M366 225L367 226L366 225z"/>
<path style="fill:#b5b5b5; stroke:none;" d="M154 226L155 227L154 226z"/>
<path style="fill:#cbcbcb; stroke:none;" d="M274 226L275 227L274 226z"/>
<path style="fill:#b5b5b5; stroke:none;" d="M275 226L276 227L275 226M362 226L363 227L362 226z"/>
<path style="fill:#cbcbcb; stroke:none;" d="M363 226L364 227L363 226z"/>
<path style="fill:#b5b5b5; stroke:none;" d="M123 227L124 228L123 227z"/>
<path style="fill:#cbcbcb; stroke:none;" d="M271 227L272 228L271 227z"/>
<path style="fill:#b5b5b5; stroke:none;" d="M359 227L360 228L359 227z"/>
<path style="fill:#cbcbcb; stroke:none;" d="M360 227L361 228L360 227M155 228L156 229L155 228M268 228L269 229L268 228z"/>
<path style="fill:#b5b5b5; stroke:none;" d="M269 228L270 229L269 228z"/>
<path style="fill:#cbcbcb; stroke:none;" d="M357 228L358 229L357 228M265 229L266 230L265 229z"/>
<path style="fill:#b5b5b5; stroke:none;" d="M266 229L267 230L266 229M353 229L354 230L353 229z"/>
<path style="fill:#cbcbcb; stroke:none;" d="M354 229L355 230L354 229M124 230L125 231L124 230z"/>
<path style="fill:#dddddd; stroke:none;" d="M156 230L157 231L156 230z"/>
<path style="fill:#cbcbcb; stroke:none;" d="M262 230L263 231L262 230z"/>
<path style="fill:#b5b5b5; stroke:none;" d="M350 230L351 231L350 230z"/>
<path style="fill:#cbcbcb; stroke:none;" d="M351 230L352 231L351 230z"/>
<path style="fill:#dddddd; stroke:none;" d="M124 231L125 232L124 231z"/>
<path style="fill:#b5b5b5; stroke:none;" d="M156 231L157 232L156 231z"/>
<path style="fill:#cbcbcb; stroke:none;" d="M259 231L260 232L259 231z"/>
<path style="fill:#b5b5b5; stroke:none;" d="M260 231L261 232L260 231z"/>
<path style="fill:#cbcbcb; stroke:none;" d="M348 231L349 232L348 231M256 232L257 233L256 232z"/>
<path style="fill:#b5b5b5; stroke:none;" d="M257 232L258 233L257 232M344 232L345 233L344 232z"/>
<path style="fill:#cbcbcb; stroke:none;" d="M345 232L346 233L345 232M125 233L126 234L125 233z"/>
<path style="fill:#dddddd; stroke:none;" d="M157 233L158 234L157 233z"/>
<path style="fill:#cbcbcb; stroke:none;" d="M253 233L254 234L253 233z"/>
<path style="fill:#b5b5b5; stroke:none;" d="M341 233L342 234L341 233z"/>
<path style="fill:#cbcbcb; stroke:none;" d="M342 233L343 234L342 233z"/>
<path style="fill:#b5b5b5; stroke:none;" d="M157 234L158 235L157 234z"/>
<path style="fill:#cbcbcb; stroke:none;" d="M250 234L251 235L250 234z"/>
<path style="fill:#b5b5b5; stroke:none;" d="M251 234L252 235L251 234z"/>
<path style="fill:#cbcbcb; stroke:none;" d="M339 234L340 235L339 234z"/>
<path style="fill:#b5b5b5; stroke:none;" d="M126 235L127 236L126 235z"/>
<path style="fill:#cbcbcb; stroke:none;" d="M247 235L248 236L247 235z"/>
<path style="fill:#b5b5b5; stroke:none;" d="M248 235L249 236L248 235M335 235L336 236L335 235z"/>
<path style="fill:#cbcbcb; stroke:none;" d="M336 235L337 236L336 235z"/>
<path style="fill:#dddddd; stroke:none;" d="M126 236L127 237L126 236M158 236L159 237L158 236z"/>
<path style="fill:#cbcbcb; stroke:none;" d="M244 236L245 237L244 236z"/>
<path style="fill:#b5b5b5; stroke:none;" d="M332 236L333 237L332 236z"/>
<path style="fill:#cbcbcb; stroke:none;" d="M333 236L334 237L333 236z"/>
<path style="fill:#b5b5b5; stroke:none;" d="M158 237L159 238L158 237z"/>
<path style="fill:#dddddd; stroke:none;" d="M241 237L242 238L241 237z"/>
<path style="fill:#b5b5b5; stroke:none;" d="M242 237L243 238L242 237M330 237L331 238L330 237M127 238L128 239L127 238z"/>
<path style="fill:#dddddd; stroke:none;" d="M238 238L239 239L238 238z"/>
<path style="fill:#b5b5b5; stroke:none;" d="M239 238L240 239L239 238M326 238L327 239L326 238z"/>
<path style="fill:#cbcbcb; stroke:none;" d="M327 238L328 239L327 238z"/>
<path style="fill:#dddddd; stroke:none;" d="M127 239L128 240L127 239z"/>
<path style="fill:#cbcbcb; stroke:none;" d="M159 239L160 240L159 239z"/>
<path style="fill:#dddddd; stroke:none;" d="M237 239L238 240L237 239z"/>
<path style="fill:#b5b5b5; stroke:none;" d="M323 239L324 240L323 239z"/>
<path style="fill:#cbcbcb; stroke:none;" d="M324 239L325 240L324 239z"/>
<path style="fill:#b5b5b5; stroke:none;" d="M237 240L238 241L237 240M321 240L322 241L321 240M128 241L129 242L128 241z"/>
<path style="fill:#dddddd; stroke:none;" d="M160 241L161 242L160 241M236 241L237 242L236 241z"/>
<path style="fill:#b5b5b5; stroke:none;" d="M317 241L318 242L317 241z"/>
<path style="fill:#cbcbcb; stroke:none;" d="M318 241L319 242L318 241z"/>
<path style="fill:#dddddd; stroke:none;" d="M128 242L129 243L128 242z"/>
<path style="fill:#cbcbcb; stroke:none;" d="M160 242L161 243L160 242z"/>
<path style="fill:#b5b5b5; stroke:none;" d="M236 242L237 243L236 242z"/>
<path style="fill:#cbcbcb; stroke:none;" d="M315 242L316 243L315 242z"/>
<path style="fill:#b5b5b5; stroke:none;" d="M312 243L313 244L312 243z"/>
<path style="fill:#cbcbcb; stroke:none;" d="M129 244L130 245L129 244z"/>
<path style="fill:#dddddd; stroke:none;" d="M161 244L162 245L161 244z"/>
<path style="fill:#cbcbcb; stroke:none;" d="M235 244L236 245L235 244z"/>
<path style="fill:#b5b5b5; stroke:none;" d="M308 244L309 245L308 244z"/>
<path style="fill:#cbcbcb; stroke:none;" d="M309 244L310 245L309 244z"/>
<path style="fill:#b5b5b5; stroke:none;" d="M161 245L162 246L161 245M235 245L236 246L235 245z"/>
<path style="fill:#cbcbcb; stroke:none;" d="M306 245L307 246L306 245z"/>
<path style="fill:#b5b5b5; stroke:none;" d="M130 246L131 247L130 246M303 246L304 247L303 246z"/>
<path style="fill:#cbcbcb; stroke:none;" d="M130 247L131 248L130 247M162 247L163 248L162 247M234 247L235 248L234 247z"/>
<path style="fill:#b5b5b5; stroke:none;" d="M299 247L300 248L299 247z"/>
<path style="fill:#cbcbcb; stroke:none;" d="M300 247L301 248L300 247z"/>
<path style="fill:#b5b5b5; stroke:none;" d="M162 248L163 249L162 248z"/>
<path style="fill:#cbcbcb; stroke:none;" d="M297 248L298 249L297 248M233 249L234 250L233 249z"/>
<path style="fill:#b5b5b5; stroke:none;" d="M294 249L295 250L294 249z"/>
<path style="fill:#cbcbcb; stroke:none;" d="M131 250L132 251L131 250M163 250L164 251L163 250z"/>
<path style="fill:#b5b5b5; stroke:none;" d="M290 250L291 251L290 250z"/>
<path style="fill:#cbcbcb; stroke:none;" d="M291 250L292 251L291 250z"/>
<path style="fill:#b5b5b5; stroke:none;" d="M163 251L164 252L163 251z"/>
<path style="fill:#dddddd; stroke:none;" d="M232 251L233 252L232 251z"/>
<path style="fill:#cbcbcb; stroke:none;" d="M288 251L289 252L288 251z"/>
<path style="fill:#b5b5b5; stroke:none;" d="M132 252L133 253L132 252z"/>
<path style="fill:#cbcbcb; stroke:none;" d="M232 252L233 253L232 252z"/>
<path style="fill:#b5b5b5; stroke:none;" d="M285 252L286 253L285 252z"/>
<path style="fill:#dddddd; stroke:none;" d="M132 253L133 254L132 253z"/>
<path style="fill:#cbcbcb; stroke:none;" d="M164 253L165 254L164 253z"/>
<path style="fill:#b5b5b5; stroke:none;" d="M282 253L283 254L282 253z"/>
<path style="fill:#dddddd; stroke:none;" d="M231 254L232 255L231 254z"/>
<path style="fill:#cbcbcb; stroke:none;" d="M279 254L280 255L279 254z"/>
<path style="fill:#b5b5b5; stroke:none;" d="M133 255L134 256L133 255z"/>
<path style="fill:#dddddd; stroke:none;" d="M165 255L166 256L165 255z"/>
<path style="fill:#b5b5b5; stroke:none;" d="M231 255L232 256L231 255M276 255L277 256L276 255z"/>
<path style="fill:#dddddd; stroke:none;" d="M277 255L278 256L277 255M133 256L134 257L133 256z"/>
<path style="fill:#b5b5b5; stroke:none;" d="M165 256L166 257L165 256M273 256L274 257L273 256z"/>
<path style="fill:#dddddd; stroke:none;" d="M274 256L275 257L274 256z"/>
<path style="fill:#cbcbcb; stroke:none;" d="M230 257L231 258L230 257z"/>
<path style="fill:#dddddd; stroke:none;" d="M272 257L273 258L272 257z"/>
<path style="fill:#b5b5b5; stroke:none;" d="M134 258L135 259L134 258z"/>
<path style="fill:#dddddd; stroke:none;" d="M166 258L167 259L166 258z"/>
<path style="fill:#cbcbcb; stroke:none;" d="M273 258L274 259L273 258z"/>
<path style="fill:#b5b5b5; stroke:none;" d="M166 259L167 260L166 259z"/>
<path style="fill:#dddddd; stroke:none;" d="M229 259L230 260L229 259z"/>
<path style="fill:#cbcbcb; stroke:none;" d="M274 259L275 260L274 259z"/>
<path style="fill:#b5b5b5; stroke:none;" d="M135 260L136 261L135 260M229 260L230 261L229 260M275 260L276 261L275 260z"/>
<path style="fill:#cbcbcb; stroke:none;" d="M135 261L136 262L135 261z"/>
<path style="fill:#dddddd; stroke:none;" d="M167 261L168 262L167 261z"/>
<path style="fill:#b5b5b5; stroke:none;" d="M276 261L277 262L276 261M167 262L168 263L167 262z"/>
<path style="fill:#dddddd; stroke:none;" d="M228 262L229 263L228 262z"/>
<path style="fill:#b5b5b5; stroke:none;" d="M277 262L278 263L277 262M136 263L137 264L136 263M228 263L229 264L228 263M278 263L279 264L278 263z"/>
<path style="fill:#cbcbcb; stroke:none;" d="M136 264L137 265L136 264M168 264L169 265L168 264z"/>
<path style="fill:#dddddd; stroke:none;" d="M227 264L228 265L227 264z"/>
<path style="fill:#b5b5b5; stroke:none;" d="M227 265L228 266L227 265M280 265L281 266L280 265M137 266L138 267L137 266z"/>
<path style="fill:#dddddd; stroke:none;" d="M169 266L170 267L169 266M282 266L283 267L282 266M137 267L138 268L137 267z"/>
<path style="fill:#cbcbcb; stroke:none;" d="M169 267L170 268L169 267z"/>
<path style="fill:#dddddd; stroke:none;" d="M226 267L227 268L226 267M283 267L284 268L283 267z"/>
<path style="fill:#b5b5b5; stroke:none;" d="M169 268L170 269L169 268M226 268L227 269L226 268z"/>
<path style="fill:#dddddd; stroke:none;" d="M284 268L285 269L284 268z"/>
<path style="fill:#cbcbcb; stroke:none;" d="M138 269L139 270L138 269z"/>
<path style="fill:#dddddd; stroke:none;" d="M170 269L171 270L170 269z"/>
<path style="fill:#cbcbcb; stroke:none;" d="M285 269L286 270L285 269M170 270L171 271L170 270M225 270L226 271L225 270M286 270L287 271L286 270z"/>
<path style="fill:#b5b5b5; stroke:none;" d="M139 271L140 272L139 271z"/>
<path style="fill:#cbcbcb; stroke:none;" d="M287 271L288 272L287 271M139 272L140 273L139 272M171 272L172 273L171 272z"/>
<path style="fill:#dddddd; stroke:none;" d="M224 272L225 273L224 272z"/>
<path style="fill:#b5b5b5; stroke:none;" d="M288 272L289 273L288 272M171 273L172 274L171 273M224 273L225 274L224 273M289 273L290 274L289 273M290 274L291 275L290 274z"/>
<path style="fill:#cbcbcb; stroke:none;" d="M140 275L141 276L140 275M172 275L173 276L172 275M223 275L224 276L223 275z"/>
<path style="fill:#b5b5b5; stroke:none;" d="M172 276L173 277L172 276M223 276L224 277L223 276M292 276L293 277L292 276M141 277L142 278L141 277z"/>
<path style="fill:#cbcbcb; stroke:none;" d="M254 277L255 278L254 277z"/>
<path style="fill:#b5b5b5; stroke:none;" d="M256 277L257 278L256 277M293 277L294 278L293 277z"/>
<path style="fill:#dddddd; stroke:none;" d="M141 278L142 279L141 278z"/>
<path style="fill:#cbcbcb; stroke:none;" d="M173 278L174 279L173 278z"/>
<path style="fill:#b5b5b5; stroke:none;" d="M222 278L223 279L222 278M257 278L258 279L257 278z"/>
<path style="fill:#dddddd; stroke:none;" d="M295 278L296 279L295 278z"/>
<path style="fill:#b5b5b5; stroke:none;" d="M173 279L174 280L173 279M253 279L254 280L253 279M258 279L259 280L258 279M142 280L143 281L142 280z"/>
<path style="fill:#dddddd; stroke:none;" d="M174 280L175 281L174 280z"/>
<path style="fill:#cbcbcb; stroke:none;" d="M221 280L222 281L221 280z"/>
<path style="fill:#dddddd; stroke:none;" d="M253 280L254 281L253 280z"/>
<path style="fill:#cbcbcb; stroke:none;" d="M259 280L260 281L259 280z"/>
<path style="fill:#dddddd; stroke:none;" d="M297 280L298 281L297 280M142 281L143 282L142 281z"/>
<path style="fill:#b5b5b5; stroke:none;" d="M174 281L175 282L174 281z"/>
<path style="fill:#cbcbcb; stroke:none;" d="M260 281L261 282L260 281M298 281L299 282L298 281z"/>
<path style="fill:#dddddd; stroke:none;" d="M220 282L221 283L220 282z"/>
<path style="fill:#b5b5b5; stroke:none;" d="M252 282L253 283L252 282z"/>
<path style="fill:#cbcbcb; stroke:none;" d="M261 282L262 283L261 282z"/>
<path style="fill:#dddddd; stroke:none;" d="M299 282L300 283L299 282z"/>
<path style="fill:#b5b5b5; stroke:none;" d="M143 283L144 284L143 283z"/>
<path style="fill:#dddddd; stroke:none;" d="M175 283L176 284L175 283z"/>
<path style="fill:#cbcbcb; stroke:none;" d="M220 283L221 284L220 283z"/>
<path style="fill:#dddddd; stroke:none;" d="M262 283L263 284L262 283z"/>
<path style="fill:#cbcbcb; stroke:none;" d="M300 283L301 284L300 283z"/>
<path style="fill:#b5b5b5; stroke:none;" d="M175 284L176 285L175 284M251 284L252 285L251 284z"/>
<path style="fill:#dddddd; stroke:none;" d="M263 284L264 285L263 284z"/>
<path style="fill:#b5b5b5; stroke:none;" d="M301 284L302 285L301 284M144 285L145 286L144 285z"/>
<path style="fill:#dddddd; stroke:none;" d="M219 285L220 286L219 285M251 285L252 286L251 285z"/>
<path style="fill:#b5b5b5; stroke:none;" d="M302 285L303 286L302 285z"/>
<path style="fill:#cbcbcb; stroke:none;" d="M144 286L145 287L144 286z"/>
<path style="fill:#dddddd; stroke:none;" d="M176 286L177 287L176 286z"/>
<path style="fill:#b5b5b5; stroke:none;" d="M219 286L220 287L219 286M303 286L304 287L303 286M176 287L177 288L176 287z"/>
<path style="fill:#cbcbcb; stroke:none;" d="M250 287L251 288L250 287z"/>
<path style="fill:#b5b5b5; stroke:none;" d="M267 287L268 288L267 287M304 287L305 288L304 287M145 288L146 289L145 288z"/>
<path style="fill:#cbcbcb; stroke:none;" d="M218 288L219 289L218 288z"/>
<path style="fill:#dddddd; stroke:none;" d="M250 288L251 289L250 288z"/>
<path style="fill:#b5b5b5; stroke:none;" d="M268 288L269 289L268 288M305 288L306 289L305 288z"/>
<path style="fill:#cbcbcb; stroke:none;" d="M145 289L146 290L145 289M177 289L178 290L177 289z"/>
<path style="fill:#b5b5b5; stroke:none;" d="M269 289L270 290L269 289z"/>
<path style="fill:#dddddd; stroke:none;" d="M217 290L218 291L217 290z"/>
<path style="fill:#cbcbcb; stroke:none;" d="M249 290L250 291L249 290z"/>
<path style="fill:#b5b5b5; stroke:none;" d="M270 290L271 291L270 290M146 291L147 292L146 291z"/>
<path style="fill:#dddddd; stroke:none;" d="M178 291L179 292L178 291z"/>
<path style="fill:#b5b5b5; stroke:none;" d="M217 291L218 292L217 291M271 291L272 292L271 291z"/>
<path style="fill:#dddddd; stroke:none;" d="M146 292L147 293L146 292z"/>
<path style="fill:#cbcbcb; stroke:none;" d="M178 292L179 293L178 292z"/>
<path style="fill:#b5b5b5; stroke:none;" d="M248 292L249 293L248 292M272 292L273 293L272 292z"/>
<path style="fill:#dddddd; stroke:none;" d="M310 292L311 293L310 292z"/>
<path style="fill:#b5b5b5; stroke:none;" d="M178 293L179 294L178 293z"/>
<path style="fill:#dddddd; stroke:none;" d="M216 293L217 294L216 293z"/>
<path style="fill:#cbcbcb; stroke:none;" d="M273 293L274 294L273 293z"/>
<path style="fill:#dddddd; stroke:none;" d="M311 293L312 294L311 293z"/>
<path style="fill:#cbcbcb; stroke:none;" d="M147 294L148 295L147 294z"/>
<path style="fill:#b5b5b5; stroke:none;" d="M216 294L217 295L216 294M247 294L248 295L247 294z"/>
<path style="fill:#cbcbcb; stroke:none;" d="M274 294L275 295L274 294M312 294L313 295L312 294M179 295L180 296L179 295z"/>
<path style="fill:#dddddd; stroke:none;" d="M215 295L216 296L215 295z"/>
<path style="fill:#cbcbcb; stroke:none;" d="M247 295L248 296L247 295M275 295L276 296L275 295M313 295L314 296L313 295z"/>
<path style="fill:#b5b5b5; stroke:none;" d="M148 296L149 297L148 296M215 296L216 297L215 296M314 296L315 297L314 296z"/>
<path style="fill:#cbcbcb; stroke:none;" d="M148 297L149 298L148 297z"/>
<path style="fill:#dddddd; stroke:none;" d="M180 297L181 298L180 297z"/>
<path style="fill:#b5b5b5; stroke:none;" d="M246 297L247 298L246 297z"/>
<path style="fill:#dddddd; stroke:none;" d="M277 297L278 298L277 297z"/>
<path style="fill:#b5b5b5; stroke:none;" d="M315 297L316 298L315 297M180 298L181 299L180 298z"/>
<path style="fill:#dddddd; stroke:none;" d="M214 298L215 299L214 298M246 298L247 299L246 298z"/>
<path style="fill:#b5b5b5; stroke:none;" d="M316 298L317 299L316 298M214 299L215 300L214 299M280 299L281 300L280 299M317 299L318 300L317 299z"/>
<path style="fill:#cbcbcb; stroke:none;" d="M149 300L150 301L149 300M181 300L182 301L181 300M245 300L246 301L245 300z"/>
<path style="fill:#b5b5b5; stroke:none;" d="M181 301L182 302L181 301z"/>
<path style="fill:#cbcbcb; stroke:none;" d="M213 301L214 302L213 301z"/>
<path style="fill:#b5b5b5; stroke:none;" d="M282 301L283 302L282 301M319 301L320 302L319 301M150 302L151 303L150 302M244 302L245 303L244 302M283 302L284 303L283 302z"/>
<path style="fill:#dddddd; stroke:none;" d="M150 303L151 304L150 303z"/>
<path style="fill:#cbcbcb; stroke:none;" d="M182 303L183 304L182 303z"/>
<path style="fill:#dddddd; stroke:none;" d="M212 303L213 304L212 303z"/>
<path style="fill:#cbcbcb; stroke:none;" d="M244 303L245 304L244 303z"/>
<path style="fill:#b5b5b5; stroke:none;" d="M284 303L285 304L284 303M182 304L183 305L182 304M212 304L213 305L212 304z"/>
<path style="fill:#cbcbcb; stroke:none;" d="M285 304L286 305L285 304z"/>
<path style="fill:#dddddd; stroke:none;" d="M323 304L324 305L323 304z"/>
<path style="fill:#b5b5b5; stroke:none;" d="M151 305L152 306L151 305z"/>
<path style="fill:#dddddd; stroke:none;" d="M183 305L184 306L183 305z"/>
<path style="fill:#b5b5b5; stroke:none;" d="M243 305L244 306L243 305z"/>
<path style="fill:#cbcbcb; stroke:none;" d="M286 305L287 306L286 305M324 305L325 306L324 305z"/>
<path style="fill:#dddddd; stroke:none;" d="M151 306L152 307L151 306z"/>
<path style="fill:#b5b5b5; stroke:none;" d="M183 306L184 307L183 306z"/>
<path style="fill:#cbcbcb; stroke:none;" d="M211 306L212 307L211 306z"/>
<path style="fill:#dddddd; stroke:none;" d="M243 306L244 307L243 306z"/>
<path style="fill:#cbcbcb; stroke:none;" d="M287 306L288 307L287 306M325 306L326 307L325 306z"/>
<path style="fill:#b5b5b5; stroke:none;" d="M211 307L212 308L211 307M242 307L243 308L242 307z"/>
<path style="fill:#dddddd; stroke:none;" d="M288 307L289 308L288 307z"/>
<path style="fill:#cbcbcb; stroke:none;" d="M326 307L327 308L326 307z"/>
<path style="fill:#b5b5b5; stroke:none;" d="M152 308L153 309L152 308z"/>
<path style="fill:#dddddd; stroke:none;" d="M184 308L185 309L184 308M242 308L243 309L242 308M289 308L290 309L289 308z"/>
<path style="fill:#b5b5b5; stroke:none;" d="M327 308L328 309L327 308M184 309L185 310L184 309z"/>
<path style="fill:#cbcbcb; stroke:none;" d="M210 309L211 310L210 309z"/>
<path style="fill:#dddddd; stroke:none;" d="M290 309L291 310L290 309z"/>
<path style="fill:#b5b5b5; stroke:none;" d="M328 309L329 310L328 309M153 310L154 311L153 310M241 310L242 311L241 310M329 310L330 311L329 310z"/>
<path style="fill:#cbcbcb; stroke:none;" d="M153 311L154 312L153 311z"/>
<path style="fill:#dddddd; stroke:none;" d="M185 311L186 312L185 311z"/>
<path style="fill:#cbcbcb; stroke:none;" d="M209 311L210 312L209 311z"/>
<path style="fill:#dddddd; stroke:none;" d="M241 311L242 312L241 311z"/>
<path style="fill:#b5b5b5; stroke:none;" d="M185 312L186 313L185 312M209 312L210 313L209 312M331 312L332 313L331 312M154 313L155 314L154 313z"/>
<path style="fill:#dddddd; stroke:none;" d="M208 313L209 314L208 313z"/>
<path style="fill:#cbcbcb; stroke:none;" d="M240 313L241 314L240 313z"/>
<path style="fill:#b5b5b5; stroke:none;" d="M295 313L296 314L295 313M332 313L333 314L332 313z"/>
<path style="fill:#cbcbcb; stroke:none;" d="M154 314L155 315L154 314M186 314L187 315L186 314M208 314L209 315L208 314z"/>
<path style="fill:#b5b5b5; stroke:none;" d="M296 314L297 315L296 314M208 315L209 316L208 315M239 315L240 316L239 315M297 315L298 316L297 315M155 316L156 317L155 316z"/>
<path style="fill:#dddddd; stroke:none;" d="M207 316L208 317L207 316M239 316L240 317L239 316z"/>
<path style="fill:#cbcbcb; stroke:none;" d="M298 316L299 317L298 316z"/>
<path style="fill:#dddddd; stroke:none;" d="M336 316L337 317L336 316M155 317L156 318L155 317z"/>
<path style="fill:#cbcbcb; stroke:none;" d="M187 317L188 318L187 317z"/>
<path style="fill:#b5b5b5; stroke:none;" d="M207 317L208 318L207 317z"/>
<path style="fill:#cbcbcb; stroke:none;" d="M299 317L300 318L299 317M337 317L338 318L337 317z"/>
<path style="fill:#b5b5b5; stroke:none;" d="M187 318L188 319L187 318z"/>
<path style="fill:#cbcbcb; stroke:none;" d="M238 318L239 319L238 318M300 318L301 319L300 318z"/>
<path style="fill:#dddddd; stroke:none;" d="M338 318L339 319L338 318z"/>
<path style="fill:#cbcbcb; stroke:none;" d="M156 319L157 320L156 319M206 319L207 320L206 319M301 319L302 320L301 319M339 319L340 320L339 319M188 320L189 321L188 320z"/>
<path style="fill:#b5b5b5; stroke:none;" d="M237 320L238 321L237 320z"/>
<path style="fill:#dddddd; stroke:none;" d="M302 320L303 321L302 320z"/>
<path style="fill:#b5b5b5; stroke:none;" d="M340 320L341 321L340 320z"/>
<path style="fill:#dddddd; stroke:none;" d="M205 321L206 322L205 321z"/>
<path style="fill:#cbcbcb; stroke:none;" d="M237 321L238 322L237 321M341 321L342 322L341 321M157 322L158 323L157 322z"/>
<path style="fill:#dddddd; stroke:none;" d="M189 322L190 323L189 322z"/>
<path style="fill:#b5b5b5; stroke:none;" d="M205 322L206 323L205 322M342 322L343 323L342 322M189 323L190 324L189 323z"/>
<path style="fill:#cbcbcb; stroke:none;" d="M236 323L237 324L236 323z"/>
<path style="fill:#b5b5b5; stroke:none;" d="M343 323L344 324L343 323z"/>
<path style="fill:#dddddd; stroke:none;" d="M204 324L205 325L204 324z"/>
<path style="fill:#b5b5b5; stroke:none;" d="M344 324L345 325L344 324z"/>
<path style="fill:#cbcbcb; stroke:none;" d="M158 325L159 326L158 325M190 325L191 326L190 325z"/>
<path style="fill:#b5b5b5; stroke:none;" d="M204 325L205 326L204 325M235 325L236 326L235 325M308 325L309 326L308 325M190 326L191 327L190 326z"/>
<path style="fill:#cbcbcb; stroke:none;" d="M235 326L236 327L235 326z"/>
<path style="fill:#b5b5b5; stroke:none;" d="M309 326L310 327L309 326M159 327L160 328L159 327M203 327L204 328L203 327M310 327L311 328L310 327z"/>
<path style="fill:#dddddd; stroke:none;" d="M159 328L160 329L159 328z"/>
<path style="fill:#cbcbcb; stroke:none;" d="M191 328L192 329L191 328z"/>
<path style="fill:#b5b5b5; stroke:none;" d="M234 328L235 329L234 328M311 328L312 329L311 328z"/>
<path style="fill:#dddddd; stroke:none;" d="M349 328L350 329L349 328z"/>
<path style="fill:#b5b5b5; stroke:none;" d="M191 329L192 330L191 329z"/>
<path style="fill:#dddddd; stroke:none;" d="M202 329L203 330L202 329M234 329L235 330L234 329z"/>
<path style="fill:#cbcbcb; stroke:none;" d="M312 329L313 330L312 329z"/>
<path style="fill:#dddddd; stroke:none;" d="M350 329L351 330L350 329z"/>
<path style="fill:#b5b5b5; stroke:none;" d="M160 330L161 331L160 330M202 330L203 331L202 330z"/>
<path style="fill:#cbcbcb; stroke:none;" d="M313 330L314 331L313 330M351 330L352 331L351 330z"/>
<path style="fill:#dddddd; stroke:none;" d="M160 331L161 332L160 331z"/>
<path style="fill:#b5b5b5; stroke:none;" d="M192 331L193 332L192 331z"/>
<path style="fill:#cbcbcb; stroke:none;" d="M233 331L234 332L233 331M314 331L315 332L314 331M352 331L353 332L352 331M201 332L202 333L201 332z"/>
<path style="fill:#dddddd; stroke:none;" d="M315 332L316 333L315 332z"/>
<path style="fill:#b5b5b5; stroke:none;" d="M353 332L354 333L353 332M161 333L162 334L161 333z"/>
<path style="fill:#dddddd; stroke:none;" d="M193 333L194 334L193 333z"/>
<path style="fill:#b5b5b5; stroke:none;" d="M201 333L202 334L201 333M232 333L233 334L232 333z"/>
<path style="fill:#dddddd; stroke:none;" d="M316 333L317 334L316 333z"/>
<path style="fill:#b5b5b5; stroke:none;" d="M354 333L355 334L354 333M193 334L194 335L193 334z"/>
<path style="fill:#dddddd; stroke:none;" d="M200 334L201 335L200 334M232 334L233 335L232 334M317 334L318 335L317 334z"/>
<path style="fill:#b5b5b5; stroke:none;" d="M355 334L356 335L355 334M162 335L163 336L162 335M200 335L201 336L200 335M356 335L357 336L356 335z"/>
<path style="fill:#cbcbcb; stroke:none;" d="M162 336L163 337L162 336z"/>
<path style="fill:#dddddd; stroke:none;" d="M194 336L195 337L194 336z"/>
<path style="fill:#b5b5b5; stroke:none;" d="M231 336L232 337L231 336M194 337L195 338L194 337z"/>
<path style="fill:#cbcbcb; stroke:none;" d="M199 337L200 338L199 337z"/>
<path style="fill:#b5b5b5; stroke:none;" d="M321 337L322 338L321 337M358 337L359 338L358 337M163 338L164 339L163 338M199 338L200 339L199 338M230 338L231 339L230 338M322 338L323 339L322 338z"/>
<path style="fill:#cbcbcb; stroke:none;" d="M163 339L164 340L163 339M195 339L196 340L195 339z"/>
<path style="fill:#dddddd; stroke:none;" d="M230 339L231 340L230 339z"/>
<path style="fill:#b5b5b5; stroke:none;" d="M323 339L324 340L323 339z"/>
<path style="fill:#cbcbcb; stroke:none;" d="M198 340L199 341L198 340M324 340L325 341L324 340z"/>
<path style="fill:#dddddd; stroke:none;" d="M362 340L363 341L362 340z"/>
<path style="fill:#b5b5b5; stroke:none;" d="M164 341L165 342L164 341z"/>
<path style="fill:#cbcbcb; stroke:none;" d="M229 341L230 342L229 341M325 341L326 342L325 341M363 341L364 342L363 341M164 342L165 343L164 342M196 342L197 343L196 342z"/>
<path style="fill:#dddddd; stroke:none;" d="M197 342L198 343L197 342z"/>
<path style="fill:#cbcbcb; stroke:none;" d="M326 342L327 343L326 342z"/>
<path style="fill:#dddddd; stroke:none;" d="M364 342L365 343L364 342z"/>
<path style="fill:#b5b5b5; stroke:none;" d="M196.667 343.333L197.333 343.667L196.667 343.333z"/>
<path style="fill:#dddddd; stroke:none;" d="M327 343L328 344L327 343z"/>
<path style="fill:#cbcbcb; stroke:none;" d="M365 343L366 344L365 343M165 344L166 345L165 344M228 344L229 345L228 344z"/>
<path style="fill:#dddddd; stroke:none;" d="M328 344L329 345L328 344z"/>
<path style="fill:#b5b5b5; stroke:none;" d="M366 344L367 345L366 344z"/>
<path style="fill:#dddddd; stroke:none;" d="M329 345L330 346L329 345z"/>
<path style="fill:#b5b5b5; stroke:none;" d="M367 345L368 346L367 345M227 346L228 347L227 346M368 346L369 347L368 346z"/>
<path style="fill:#cbcbcb; stroke:none;" d="M166 347L167 348L166 347z"/>
<path style="fill:#b5b5b5; stroke:none;" d="M226 348L227 349L226 348M370 348L371 349L370 348z"/>
<path style="fill:#cbcbcb; stroke:none;" d="M226 349L227 350L226 349z"/>
<path style="fill:#b5b5b5; stroke:none;" d="M334 349L335 350L334 349M371 349L372 350L371 349z"/>
<path style="fill:#cbcbcb; stroke:none;" d="M167 350L168 351L167 350z"/>
<path style="fill:#b5b5b5; stroke:none;" d="M335 350L336 351L335 350M225 351L226 352L225 351M336 351L337 352L336 351M168 352L169 353L168 352z"/>
<path style="fill:#dddddd; stroke:none;" d="M225 352L226 353L225 352z"/>
<path style="fill:#b5b5b5; stroke:none;" d="M337 352L338 353L337 352z"/>
<path style="fill:#dddddd; stroke:none;" d="M375 352L376 353L375 352M168 353L169 354L168 353z"/>
<path style="fill:#cbcbcb; stroke:none;" d="M338 353L339 354L338 353M376 353L377 354L376 353M224 354L225 355L224 354M339 354L340 355L339 354z"/>
<path style="fill:#dddddd; stroke:none;" d="M377 354L378 355L377 354z"/>
<path style="fill:#b5b5b5; stroke:none;" d="M169 355L170 356L169 355z"/>
<path style="fill:#cbcbcb; stroke:none;" d="M340 355L341 356L340 355M378 355L379 356L378 355z"/>
<path style="fill:#dddddd; stroke:none;" d="M169 356L170 357L169 356z"/>
<path style="fill:#b5b5b5; stroke:none;" d="M223 356L224 357L223 356z"/>
<path style="fill:#dddddd; stroke:none;" d="M341 356L342 357L341 356z"/>
<path style="fill:#b5b5b5; stroke:none;" d="M379 356L380 357L379 356z"/>
<path style="fill:#cbcbcb; stroke:none;" d="M223 357L224 358L223 357z"/>
<path style="fill:#dddddd; stroke:none;" d="M342 357L343 358L342 357z"/>
<path style="fill:#cbcbcb; stroke:none;" d="M380 357L381 358L380 357z"/>
<path style="fill:#b5b5b5; stroke:none;" d="M170 358L171 359L170 358z"/>
<path style="fill:#dddddd; stroke:none;" d="M343 358L344 359L343 358z"/>
<path style="fill:#b5b5b5; stroke:none;" d="M381 358L382 359L381 358z"/>
<path style="fill:#dddddd; stroke:none;" d="M170 359L171 360L170 359z"/>
<path style="fill:#b5b5b5; stroke:none;" d="M222 359L223 360L222 359M382 359L383 360L382 359M383 360L384 361L383 360z"/>
<path style="fill:#cbcbcb; stroke:none;" d="M171 361L172 362L171 361z"/>
<path style="fill:#b5b5b5; stroke:none;" d="M221 361L222 362L221 361M347 361L348 362L347 361z"/>
<path style="fill:#dddddd; stroke:none;" d="M221 362L222 363L221 362z"/>
<path style="fill:#b5b5b5; stroke:none;" d="M348 362L349 363L348 362M172 363L173 364L172 363M349 363L350 364L349 363z"/>
<path style="fill:#cbcbcb; stroke:none;" d="M172 364L173 365L172 364z"/>
<path style="fill:#b5b5b5; stroke:none;" d="M220 364L221 365L220 364M350 364L351 365L350 364z"/>
<path style="fill:#dddddd; stroke:none;" d="M388 364L389 365L388 364M220 365L221 366L220 365z"/>
<path style="fill:#cbcbcb; stroke:none;" d="M351 365L352 366L351 365z"/>
<path style="fill:#dddddd; stroke:none;" d="M389 365L390 366L389 365z"/>
<path style="fill:#cbcbcb; stroke:none;" d="M352 366L353 367L352 366M390 366L391 367L390 366M173 367L174 368L173 367M219 367L220 368L219 367M353 367L354 368L353 367M391 367L392 368L391 367M392 368L393 369L392 368z"/>
<path style="fill:#b5b5b5; stroke:none;" d="M174 369L175 370L174 369M218 369L219 370L218 369z"/>
<path style="fill:#dddddd; stroke:none;" d="M355 369L356 370L355 369z"/>
<path style="fill:#b5b5b5; stroke:none;" d="M393 369L394 370L393 369z"/>
<path style="fill:#dddddd; stroke:none;" d="M218 370L219 371L218 370M356 370L357 371L356 370z"/>
<path style="fill:#b5b5b5; stroke:none;" d="M394 370L395 371L394 370M395 371L396 372L395 371z"/>
<path style="fill:#cbcbcb; stroke:none;" d="M175 372L176 373L175 372M217 372L218 373L217 372z"/>
<path style="fill:#b5b5b5; stroke:none;" d="M396 372L397 373L396 372M360 373L361 374L360 373M397 373L398 374L397 373M361 374L362 375L361 374z"/>
<path style="fill:#cbcbcb; stroke:none;" d="M176 375L177 376L176 375M216 375L217 376L216 375z"/>
<path style="fill:#b5b5b5; stroke:none;" d="M362 375L363 376L362 375z"/>
<path style="fill:#cbcbcb; stroke:none;" d="M363 376L364 377L363 376z"/>
<path style="fill:#dddddd; stroke:none;" d="M401 376L402 377L401 376z"/>
<path style="fill:#b5b5b5; stroke:none;" d="M177 377L178 378L177 377z"/>
<path style="fill:#cbcbcb; stroke:none;" d="M215 377L216 378L215 377M364 377L365 378L364 377M402 377L403 378L402 377z"/>
<path style="fill:#dddddd; stroke:none;" d="M177 378L178 379L177 378z"/>
<path style="fill:#b5b5b5; stroke:none;" d="M365 378L366 379L365 378z"/>
<path style="fill:#dddddd; stroke:none;" d="M403 378L404 379L403 378z"/>
<path style="fill:#b5b5b5; stroke:none;" d="M214 379L215 380L214 379z"/>
<path style="fill:#dddddd; stroke:none;" d="M366 379L367 380L366 379z"/>
<path style="fill:#cbcbcb; stroke:none;" d="M404 379L405 380L404 379z"/>
<path style="fill:#b5b5b5; stroke:none;" d="M178 380L179 381L178 380z"/>
<path style="fill:#cbcbcb; stroke:none;" d="M214 380L215 381L214 380z"/>
<path style="fill:#dddddd; stroke:none;" d="M367 380L368 381L367 380z"/>
<path style="fill:#b5b5b5; stroke:none;" d="M405 380L406 381L405 380z"/>
<path style="fill:#dddddd; stroke:none;" d="M178 381L179 382L178 381M368 381L369 382L368 381z"/>
<path style="fill:#cbcbcb; stroke:none;" d="M406 381L407 382L406 381z"/>
<path style="fill:#b5b5b5; stroke:none;" d="M213 382L214 383L213 382M407 382L408 383L407 382M179 383L180 384L179 383z"/>
<path style="fill:#dddddd; stroke:none;" d="M213 383L214 384L213 383M179 384L180 385L179 384z"/>
<path style="fill:#b5b5b5; stroke:none;" d="M409 384L410 385L409 384z"/>
<path style="fill:#cbcbcb; stroke:none;" d="M212 385L213 386L212 385z"/>
<path style="fill:#b5b5b5; stroke:none;" d="M373 385L374 386L373 385M410 385L411 386L410 385z"/>
<path style="fill:#cbcbcb; stroke:none;" d="M180 386L181 387L180 386z"/>
<path style="fill:#b5b5b5; stroke:none;" d="M374 386L375 387L374 386M211 387L212 388L211 387M375 387L376 388L375 387M181 388L182 389L181 388z"/>
<path style="fill:#dddddd; stroke:none;" d="M211 388L212 389L211 388z"/>
<path style="fill:#b5b5b5; stroke:none;" d="M376 388L377 389L376 388z"/>
<path style="fill:#dddddd; stroke:none;" d="M414 388L415 389L414 388z"/>
<path style="fill:#cbcbcb; stroke:none;" d="M181 389L182 390L181 389M377 389L378 390L377 389z"/>
<path style="fill:#dddddd; stroke:none;" d="M415 389L416 390L415 389z"/>
<path style="fill:#b5b5b5; stroke:none;" d="M210 390L211 391L210 390z"/>
<path style="fill:#cbcbcb; stroke:none;" d="M378 390L379 391L378 390z"/>
<path style="fill:#dddddd; stroke:none;" d="M416 390L417 391L416 390z"/>
<path style="fill:#b5b5b5; stroke:none;" d="M182 391L183 392L182 391z"/>
<path style="fill:#cbcbcb; stroke:none;" d="M379 391L380 392L379 391M417 391L418 392L417 391M182 392L183 393L182 392z"/>
<path style="fill:#b5b5b5; stroke:none;" d="M209 392L210 393L209 392z"/>
<path style="fill:#dddddd; stroke:none;" d="M380 392L381 393L380 392z"/>
<path style="fill:#b5b5b5; stroke:none;" d="M418 392L419 393L418 392z"/>
<path style="fill:#dddddd; stroke:none;" d="M209 393L210 394L209 393M381 393L382 394L381 393z"/>
<path style="fill:#cbcbcb; stroke:none;" d="M419 393L420 394L419 393z"/>
<path style="fill:#b5b5b5; stroke:none;" d="M183 394L184 395L183 394M420 394L421 395L420 394z"/>
<path style="fill:#cbcbcb; stroke:none;" d="M208 395L209 396L208 395z"/>
<path style="fill:#b5b5b5; stroke:none;" d="M421 395L422 396L421 395M422 396L423 397L422 396z"/>
<path style="fill:#cbcbcb; stroke:none;" d="M184 397L185 398L184 397z"/>
<path style="fill:#b5b5b5; stroke:none;" d="M386 397L387 398L386 397z"/>
<path style="fill:#cbcbcb; stroke:none;" d="M207 398L208 399L207 398z"/>
<path style="fill:#b5b5b5; stroke:none;" d="M387 398L388 399L387 398M388 399L389 400L388 399z"/>
<path style="fill:#cbcbcb; stroke:none;" d="M185 400L186 401L185 400z"/>
<path style="fill:#b5b5b5; stroke:none;" d="M206 400L207 401L206 400M389 400L390 401L389 400z"/>
<path style="fill:#dddddd; stroke:none;" d="M427 400L428 401L427 400z"/>
<path style="fill:#cbcbcb; stroke:none;" d="M390 401L391 402L390 401z"/>
<path style="fill:#dddddd; stroke:none;" d="M428 401L429 402L428 401z"/>
<path style="fill:#b5b5b5; stroke:none;" d="M186 402L187 403L186 402M205 402L206 403L205 402z"/>
<path style="fill:#cbcbcb; stroke:none;" d="M391 402L392 403L391 402z"/>
<path style="fill:#dddddd; stroke:none;" d="M429 402L430 403L429 402z"/>
<path style="fill:#cbcbcb; stroke:none;" d="M205 403L206 404L205 403M392 403L393 404L392 403M430 403L431 404L430 403z"/>
<path style="fill:#b5b5b5; stroke:none;" d="M187 404L188 405L187 404M204 404L205 405L204 404z"/>
<path style="fill:#dddddd; stroke:none;" d="M393 404L394 405L393 404z"/>
<path style="fill:#cbcbcb; stroke:none;" d="M431 404L432 405L431 404z"/>
<path style="fill:#dddddd; stroke:none;" d="M394 405L395 406L394 405z"/>
<path style="fill:#b5b5b5; stroke:none;" d="M432 405L433 406L432 405M189 406L190 407L189 406M202 406L203 407L202 406z"/>
<path style="fill:#dddddd; stroke:none;" d="M395 406L396 407L395 406z"/>
<path style="fill:#b5b5b5; stroke:none;" d="M433 406L434 407L433 406z"/>
<path style="fill:#dddddd; stroke:none;" d="M190 407L191 408L190 407z"/>
<path style="fill:#cbcbcb; stroke:none;" d="M201 407L202 408L201 407z"/>
<path style="fill:#b5b5b5; stroke:none;" d="M434 407L435 408L434 407z"/>
<path style="fill:#dddddd; stroke:none;" d="M192 408L193 409L192 408z"/>
<path style="fill:#b5b5b5; stroke:none;" d="M193 408L194 409L193 408M198 408L199 409L198 408z"/>
<path style="fill:#cbcbcb; stroke:none;" d="M199 408L200 409L199 408z"/>
<path style="fill:#b5b5b5; stroke:none;" d="M435 408L436 409L435 408M399 409L400 410L399 409M436 409L437 410L436 409M400 410L401 411L400 410M401 411L402 412L401 411M402 412L403 413L402 412z"/>
<path style="fill:#dddddd; stroke:none;" d="M440 412L441 413L440 412z"/>
<path style="fill:#cbcbcb; stroke:none;" d="M403 413L404 414L403 413M441 413L442 414L441 413z"/>
<path style="fill:#b5b5b5; stroke:none;" d="M404 414L405 415L404 414z"/>
<path style="fill:#dddddd; stroke:none;" d="M442 414L443 415L442 414z"/>
<path style="fill:#cbcbcb; stroke:none;" d="M405 415L406 416L405 415M443 415L444 416L443 415z"/>
<path style="fill:#dddddd; stroke:none;" d="M406 416L407 417L406 416z"/>
<path style="fill:#b5b5b5; stroke:none;" d="M444 416L445 417L444 416z"/>
<path style="fill:#dddddd; stroke:none;" d="M407 417L408 418L407 417M445 417L446 418L445 417z"/>
<path style="fill:#b5b5b5; stroke:none;" d="M446 419L447 420L446 419M412 421L413 422L412 421z"/>
<path style="fill:#cbcbcb; stroke:none;" d="M447 421L448 422L447 421z"/>
<path style="fill:#b5b5b5; stroke:none;" d="M413 422L414 423L413 422M414 423L415 424L414 423M415 424L416 425L415 424M416 425L417 426L416 425z"/>
<path style="fill:#cbcbcb; stroke:none;" d="M417 426L418 427L417 426M418 427L419 428L418 427z"/>
<path style="fill:#dddddd; stroke:none;" d="M419 428L420 429L419 428z"/>
<path style="fill:#b5b5b5; stroke:none;" d="M447 428L448 429L447 428z"/>
<path style="fill:#dddddd; stroke:none;" d="M420 429L421 430L420 429z"/>
<path style="fill:#cbcbcb; stroke:none;" d="M447 429L448 430L447 429z"/>
<path style="fill:#dddddd; stroke:none;" d="M421 430L422 431L421 430z"/>
<path style="fill:#cbcbcb; stroke:none;" d="M446 431L447 432L446 431z"/>
<path style="fill:#b5b5b5; stroke:none;" d="M425 433L426 434L425 433z"/>
<path style="fill:#dddddd; stroke:none;" d="M445 433L446 434L445 433z"/>
<path style="fill:#b5b5b5; stroke:none;" d="M426 434L427 435L426 434z"/>
<path style="fill:#dddddd; stroke:none;" d="M444 434L445 435L444 434z"/>
<path style="fill:#b5b5b5; stroke:none;" d="M427 435L428 436L427 435z"/>
<path style="fill:#dddddd; stroke:none;" d="M428 436L429 437L428 436z"/>
<path style="fill:#b5b5b5; stroke:none;" d="M429 436L430 437L429 436M441 436L442 437L441 436z"/>
<path style="fill:#dddddd; stroke:none;" d="M430 437L431 438L430 437z"/>
<path style="fill:#b5b5b5; stroke:none;" d="M431 437L432 438L431 437M438 437L439 438L438 437z"/>
<path style="fill:#cbcbcb; stroke:none;" d="M439 437L440 438L439 437z"/>
</svg>
