<?xml version="1.0" standalone="yes"?>
<svg xmlns="http://www.w3.org/2000/svg" width="500" height="500">
<path style="fill:#010101; stroke:none;" d="M0 0L0 500L500 500L500 0L0 0z"/>
<path style="fill:#848385; stroke:none;" d="M231 70L231 71L268 71C258.202 66.8887 241.649 70 231 70M228.667 71.3333L229.333 71.6667L228.667 71.3333z"/>
<path style="fill:#8a8a8c; stroke:none;" d="M230 71L230 72L237 72L230 71M248 71L248 72L257 72L248 71M263 71L263 72L269 72L263 71z"/>
<path style="fill:#848385; stroke:none;" d="M269 71L269 72L272 72L269 71z"/>
<path style="fill:#8f8f90; stroke:none;" d="M228 72L229 73L228 72z"/>
<path style="fill:#979797; stroke:none;" d="M116 192C111.277 195.695 111.464 203.383 108.502 208.41C104.67 214.911 89.4233 222.513 82 223C79.3994 225.351 74.936 226.427 73.0239 229.415C68.7686 236.066 71.9995 253.184 72 261C72.0002 264.169 71.2478 268.556 73.6034 271.084C81.9892 280.084 98.1398 280.189 106.657 289.213C112.627 295.539 114.824 308.123 118.762 315.985C124.184 326.809 115.838 339.445 112.72 350.17C111.379 354.783 108.725 359.404 111.604 364C115.882 370.829 130.908 388.169 138.999 389.59C152.782 392.009 167.37 374.48 181.285 379.511C189.817 382.595 205.147 387.195 211.606 393.532C220.273 402.036 220.142 418.486 229.554 426.397C235.843 431.682 258.112 429.917 265.996 428.811C281.156 426.683 280.056 397.408 293.015 390.754C300.334 386.996 316.101 378.394 324.17 378.685C335.419 379.091 351.168 392.743 362 389.353C368.74 387.244 375.127 377.873 380 373C383.27 369.73 389.049 365.693 390.212 361C393.362 348.296 376.924 334.259 379.1 321.576C380.399 314.007 388.886 291.519 395.108 287.21C402.247 282.266 411.216 278.929 419 275.083C422.122 273.541 426.887 272.255 428.397 268.787C431.8 260.966 429.004 246.506 429 238C428.998 234.535 429.573 230.479 426.682 227.966C417.559 220.037 402.671 219.204 393.474 211.185C387.326 205.826 382.014 187.872 379.752 180C375.951 166.766 395.802 147.963 388.393 136C384.146 129.143 367.571 109.964 359 110.434C346.669 111.111 330.914 125.112 318.715 120.211C310.648 116.971 292.981 112.644 287.698 105.867C282.311 98.9552 279.173 88.8473 275.247 81C273.745 77.998 272.357 73.3741 268.787 72.3179C259.949 69.7033 247.218 71.9958 238 72C234.447 72.0016 230.461 71.4829 227.799 74.3179C219.357 83.309 218.614 103.782 206.985 109.351C199.278 113.041 182.994 122.123 174.576 120.951C163.652 119.429 149.997 108.542 139 110.411C133.848 111.287 129.647 117.416 126.09 120.826C121.031 125.675 112.927 131.096 110.618 138C107.022 148.75 119.999 164.736 120.926 175.576C121.426 181.427 116.235 186.206 116 192z"/>
<path style="fill:#8a8a8c; stroke:none;" d="M271 72L272 73L271 72M227 73L226 76L227 76L227 73z"/>
<path style="fill:#8f8f90; stroke:none;" d="M271 73L272 74L271 73z"/>
<path style="fill:#848385; stroke:none;" d="M272 73L273 74L272 73z"/>
<path style="fill:#8f8f90; stroke:none;" d="M227 74L228 75L227 74z"/>
<path style="fill:#8a8a8c; stroke:none;" d="M272 74L273 75L272 74z"/>
<path style="fill:#8f8f90; stroke:none;" d="M272 75L273 76L272 75z"/>
<path style="fill:#848385; stroke:none;" d="M273 75L274 76L273 75z"/>
<path style="fill:#8a8a8c; stroke:none;" d="M273 76L279 88L280 88L273 76z"/>
<path style="fill:#8f8f90; stroke:none;" d="M225 77L226 78L225 77M273 77L274 78L273 77M224 79L223 82L224 79M274 79L275 80L274 79z"/>
<path style="fill:#8a8a8c; stroke:none;" d="M223 80L224 81L223 80z"/>
<path style="fill:#8f8f90; stroke:none;" d="M275 81L276 82L275 81M222 83L223 84L222 83M276 83L277 84L276 83M221.333 85.6667L221.667 86.3333L221.333 85.6667M277 85L278 86L277 85M220 87L221 88L220 87M278 87L279 88L278 87M279 88L280 92L281 92L279 88M219 89L220 90L219 89M218.333 91.6667L218.667 92.3333L218.333 91.6667M281.333 92.6667L281.667 93.3333L281.333 92.6667M217 93L218 94L217 93M282 94L284 100L285 100L282 94M216 95L217 96L216 95z"/>
<path style="fill:#8a8a8c; stroke:none;" d="M283 95L284 96L283 95z"/>
<path style="fill:#8f8f90; stroke:none;" d="M215.333 97.6667L215.667 98.3333L215.333 97.6667M214 99L215 100L214 99z"/>
<path style="fill:#8a8a8c; stroke:none;" d="M285 100L286 101L285 100z"/>
<path style="fill:#8f8f90; stroke:none;" d="M213 101L214 102L213 101M285 101L286 102L285 101z"/>
<path style="fill:#8a8a8c; stroke:none;" d="M286 102L287 103L286 102z"/>
<path style="fill:#8f8f90; stroke:none;" d="M212.333 103.667L212.667 104.333L212.333 103.667M286 103L291 109L291 108L286 103z"/>
<path style="fill:#8a8a8c; stroke:none;" d="M287 104L288 105L287 104z"/>
<path style="fill:#8f8f90; stroke:none;" d="M211.333 105.667L211.667 106.333L211.333 105.667z"/>
<path style="fill:#8a8a8c; stroke:none;" d="M288 106L289 107L288 106z"/>
<path style="fill:#8f8f90; stroke:none;" d="M210 107L211 108L210 107z"/>
<path style="fill:#8a8a8c; stroke:none;" d="M289 107L290 108L289 107z"/>
<path style="fill:#848385; stroke:none;" d="M138.667 108.333L139.333 108.667L138.667 108.333z"/>
<path style="fill:#8a8a8c; stroke:none;" d="M207.667 108.333L208.333 108.667L207.667 108.333z"/>
<path style="fill:#8f8f90; stroke:none;" d="M209 108L210 109L209 108z"/>
<path style="fill:#8a8a8c; stroke:none;" d="M291 108L292 109L291 108z"/>
<path style="fill:#848385; stroke:none;" d="M360 108L363 110L360 108z"/>
<path style="fill:#8a8a8c; stroke:none;" d="M136.667 109.333L137.333 109.667L136.667 109.333z"/>
<path style="fill:#8f8f90; stroke:none;" d="M138 109L139 110L138 109z"/>
<path style="fill:#8a8a8c; stroke:none;" d="M139 109L140 110L139 109z"/>
<path style="fill:#8f8f90; stroke:none;" d="M140 109L141 110L140 109z"/>
<path style="fill:#8a8a8c; stroke:none;" d="M141 109L141 110L146 111L146 110L141 109M203.667 109.333L204.333 109.667L203.667 109.333z"/>
<path style="fill:#8f8f90; stroke:none;" d="M205 109L205 110L208 110L205 109M292 109L292 110L301 112L292 109z"/>
<path style="fill:#848385; stroke:none;" d="M356 109L357 110L356 109z"/>
<path style="fill:#8a8a8c; stroke:none;" d="M341 115L341 116L361 110C355.321 107.986 346.302 112.65 341 115z"/>
<path style="fill:#8f8f90; stroke:none;" d="M136 110L137 111L136 110M142 110L143 111L142 110z"/>
<path style="fill:#8a8a8c; stroke:none;" d="M200.667 110.333L201.333 110.667L200.667 110.333z"/>
<path style="fill:#8f8f90; stroke:none;" d="M202.667 110.333L203.333 110.667L202.667 110.333M357 110L358 111L357 110M362 110L363 111L362 110z"/>
<path style="fill:#8a8a8c; stroke:none;" d="M363 110L364 111L363 110z"/>
<path style="fill:#8f8f90; stroke:none;" d="M135 111L136 112L135 111M145.667 111.333L146.333 111.667L145.667 111.333z"/>
<path style="fill:#8a8a8c; stroke:none;" d="M147.667 111.333L148.333 111.667L147.667 111.333z"/>
<path style="fill:#8f8f90; stroke:none;" d="M191 114L191 115L201 112L191 114M354 111L355 112L354 111z"/>
<path style="fill:#8a8a8c; stroke:none;" d="M364 111L365 112L364 111M133 112L134 113L133 112z"/>
<path style="fill:#8f8f90; stroke:none;" d="M134 112L135 113L134 112M148.667 112.333L149.333 112.667L148.667 112.333z"/>
<path style="fill:#8a8a8c; stroke:none;" d="M150 112L150 113L155 114L155 113L150 112z"/>
<path style="fill:#8f8f90; stroke:none;" d="M301 112L301 113L304 114L301 112M351 112L352 113L351 112z"/>
<path style="fill:#8a8a8c; stroke:none;" d="M365 112L366 113L365 112z"/>
<path style="fill:#8f8f90; stroke:none;" d="M133 113L134 114L133 113M151 113L152 114L151 113z"/>
<path style="fill:#8a8a8c; stroke:none;" d="M304 113L305 114L304 113z"/>
<path style="fill:#8f8f90; stroke:none;" d="M305 113L305 114L313 117L313 116L305 113z"/>
<path style="fill:#8a8a8c; stroke:none;" d="M306 113L307 114L306 113z"/>
<path style="fill:#8f8f90; stroke:none;" d="M348 113L349 114L348 113z"/>
<path style="fill:#8a8a8c; stroke:none;" d="M366 113L367 114L366 113z"/>
<path style="fill:#8f8f90; stroke:none;" d="M132 114L133 115L132 114M154.667 114.333L155.333 114.667L154.667 114.333z"/>
<path style="fill:#8a8a8c; stroke:none;" d="M156.667 114.333L157.333 114.667L156.667 114.333z"/>
<path style="fill:#8f8f90; stroke:none;" d="M345 114L346 115L345 114z"/>
<path style="fill:#8a8a8c; stroke:none;" d="M367 114L368 115L367 114M130 115L131 116L130 115z"/>
<path style="fill:#8f8f90; stroke:none;" d="M131 115L132 116L131 115M157 115L157 116L161 117L157 115z"/>
<path style="fill:#8a8a8c; stroke:none;" d="M188 115L186 116L186 117L188 115z"/>
<path style="fill:#8f8f90; stroke:none;" d="M189.667 115.333L190.333 115.667L189.667 115.333z"/>
<path style="fill:#8a8a8c; stroke:none;" d="M339 115L333 117L333 118L340 116L339 115z"/>
<path style="fill:#8f8f90; stroke:none;" d="M340 115L341 116L340 115M342 115L343 116L342 115z"/>
<path style="fill:#8a8a8c; stroke:none;" d="M368 115L369 116L368 115z"/>
<path style="fill:#8f8f90; stroke:none;" d="M130 116L131 117L130 116z"/>
<path style="fill:#8a8a8c; stroke:none;" d="M161 116L161 117L164 117L161 116z"/>
<path style="fill:#8f8f90; stroke:none;" d="M188 116L189 117L188 116M339 116L340 117L339 116z"/>
<path style="fill:#8a8a8c; stroke:none;" d="M369 116L370 117L369 116z"/>
<path style="fill:#8f8f90; stroke:none;" d="M129 117L130 118L129 117M163.667 117.333L164.333 117.667L163.667 117.333z"/>
<path style="fill:#8a8a8c; stroke:none;" d="M165 117L166 118L165 117z"/>
<path style="fill:#8f8f90; stroke:none;" d="M166 117L176 122L166 117z"/>
<path style="fill:#8a8a8c; stroke:none;" d="M184 117L185 118L184 117z"/>
<path style="fill:#8f8f90; stroke:none;" d="M185.667 117.333L186.333 117.667L185.667 117.333M313 117L316 119L313 117M336 117L337 118L336 117M370 117L371 118L370 117M127 118L127 120L129 118L127 118z"/>
<path style="fill:#8a8a8c; stroke:none;" d="M169 118L170 119L169 118M182 118L181 120L182 118z"/>
<path style="fill:#8f8f90; stroke:none;" d="M183.667 118.333L184.333 118.667L183.667 118.333z"/>
<path style="fill:#8a8a8c; stroke:none;" d="M316 118L317 119L316 118M329 120L332 119L329 120z"/>
<path style="fill:#8f8f90; stroke:none;" d="M332.667 118.333L333.333 118.667L332.667 118.333M371 118L372 119L371 118M182 119L183 120L182 119M317.667 119.333L318.333 119.667L317.667 119.333z"/>
<path style="fill:#8a8a8c; stroke:none;" d="M327 119L328 120L327 119z"/>
<path style="fill:#8f8f90; stroke:none;" d="M328 119L329 120L328 119z"/>
<path style="fill:#8a8a8c; stroke:none;" d="M372 119L373 120L372 119z"/>
<path style="fill:#8f8f90; stroke:none;" d="M126 120L127 121L126 120z"/>
<path style="fill:#8a8a8c; stroke:none;" d="M179 120L180 121L179 120z"/>
<path style="fill:#8f8f90; stroke:none;" d="M180 120L181 121L180 120M319 120L321 122L321 120L319 120M323 121L323 122L328 121L323 121M373 120L374 121L373 120M124 121L124 123L126 121L124 121M374 121L375 122L374 121M375 122L376 123L375 122M376 123L377 124L376 123M121 124L121 126L123 124L121 124M377 124L378 125L377 124M378 125L379 126L378 125M119 126L120 127L119 126M379 126L380 127L379 126M118 127L119 128L118 127M380 127L381 128L380 127M117 128L118 129L117 128M381 128L382 129L381 128M382 129L383 130L382 129M115.333 130.667L115.667 131.333L115.333 130.667M383 130L384 131L383 130M384 131L385 132L384 131M112 135L115 132L112 135M385 132L386 133L385 132M386 133L387 134L386 133M387 134L388 135L387 134M111 135L112 136L111 135M388 135L389 136L388 135z"/>
<path style="fill:#8a8a8c; stroke:none;" d="M109 136L110 137L109 136z"/>
<path style="fill:#8f8f90; stroke:none;" d="M110 136L111 137L110 136M389 136L390 137L389 136M109 137L109 142L110 142L109 137M390 137L390 141L391 141L390 137z"/>
<path style="fill:#8a8a8c; stroke:none;" d="M108.333 138.667L108.667 139.333L108.333 138.667z"/>
<path style="fill:#848385; stroke:none;" d="M391.333 138.667L391.667 139.333L391.333 138.667z"/>
<path style="fill:#8a8a8c; stroke:none;" d="M390.333 141.667L390.667 142.333L390.333 141.667M109 142L110 143L109 142z"/>
<path style="fill:#8f8f90; stroke:none;" d="M389.333 142.667L389.667 143.333L389.333 142.667M110 143L111 144L110 143z"/>
<path style="fill:#8a8a8c; stroke:none;" d="M110.333 144.667L110.667 145.333L110.333 144.667M389.333 144.667L389.667 145.333L389.333 144.667z"/>
<path style="fill:#8f8f90; stroke:none;" d="M111 145L112 151L113 151L111 145M388 145L389 146L388 145M388 147L386 152L388 147z"/>
<path style="fill:#8a8a8c; stroke:none;" d="M112 151L113 152L112 151z"/>
<path style="fill:#8f8f90; stroke:none;" d="M113 152L113 155L114 155L113 152M386 153L385 155L387 155L386 153M114 155L116 158L114 155M385 156L383 161L385 156M115.333 159.667L115.667 160.333L115.333 159.667M116 161L116 164L117 164L116 161M383 162L382 164L384 164L383 162M117.333 165.667L117.667 166.333L117.333 165.667M382 165L380 170L382 165M118.333 168.667L118.667 169.333L118.333 168.667M119 170L119 173L120 173L119 170M380 171L379 173L381 173L380 171M120 173L122 176L120 173M379 174L378 177L379 174M120 179L121 180L120 179M379 179L380 180L379 179M119 181L118 184L119 181M380.333 181.667L380.667 182.333L380.333 181.667M381 183L382 187L383 187L381 183M117 185L118 186L117 185M236 187L236 188L245 186L236 187z"/>
<path style="fill:#8a8a8c; stroke:none;" d="M245 186L245 187L249 187L245 186z"/>
<path style="fill:#8f8f90; stroke:none;" d="M249.667 186.333L250.333 186.667L249.667 186.333z"/>
<path style="fill:#8a8a8c; stroke:none;" d="M251 186L251 187L255 187L251 186z"/>
<path style="fill:#8f8f90; stroke:none;" d="M255 186L266 189L266 188L255 186M116.333 187.667L116.667 188.333L116.333 187.667z"/>
<path style="fill:#010101; stroke:none;" d="M245 187.424C218.426 190.955 195.386 207.902 188.899 235C179.619 273.763 212.2 317.698 254 312.715C286.279 308.866 310.705 284.954 312.91 252C315.292 216.429 280.596 182.696 245 187.424z"/>
<path style="fill:#8f8f90; stroke:none;" d="M383.333 187.667L383.667 188.333L383.333 187.667M232 188L233 189L232 188z"/>
<path style="fill:#8a8a8c; stroke:none;" d="M233 188L234 189L233 188z"/>
<path style="fill:#8f8f90; stroke:none;" d="M234 188L235 189L234 188z"/>
<path style="fill:#8a8a8c; stroke:none;" d="M235.667 188.333L236.333 188.667L235.667 188.333M266 188L267 189L266 188z"/>
<path style="fill:#8f8f90; stroke:none;" d="M115 189L116 190L115 189M229 189L226 190L226 191L230 190L229 189z"/>
<path style="fill:#8a8a8c; stroke:none;" d="M230 189L230 190L233 190L230 189M267 189L268 190L267 189z"/>
<path style="fill:#8f8f90; stroke:none;" d="M268 189L269 190L268 189z"/>
<path style="fill:#8a8a8c; stroke:none;" d="M269 189L270 190L269 189z"/>
<path style="fill:#8f8f90; stroke:none;" d="M384 189L386 196L387 196L384 189z"/>
<path style="fill:#8a8a8c; stroke:none;" d="M229 190L230 191L229 190z"/>
<path style="fill:#8f8f90; stroke:none;" d="M270 190L270 191L273 191L270 190M114.667 191.333L115.333 191.667L114.667 191.333M224 191L225 192L224 191z"/>
<path style="fill:#8a8a8c; stroke:none;" d="M225.667 191.333L226.333 191.667L225.667 191.333z"/>
<path style="fill:#8f8f90; stroke:none;" d="M273 191L273 192L276 192L273 191M222 192L223 193L222 192z"/>
<path style="fill:#8a8a8c; stroke:none;" d="M223.667 192.333L224.333 192.667L223.667 192.333M275 192L275 193L279 194L279 193L275 192z"/>
<path style="fill:#8f8f90; stroke:none;" d="M277 192L278 193L277 192M113 193L113 196L114 196L113 193M220.333 193.667L220.667 194.333L220.333 193.667z"/>
<path style="fill:#8a8a8c; stroke:none;" d="M221.667 193.333L222.333 193.667L221.667 193.333z"/>
<path style="fill:#8f8f90; stroke:none;" d="M279 193L279 195L281 195L279 193M218.333 194.667L218.667 195.333L218.333 194.667z"/>
<path style="fill:#8a8a8c; stroke:none;" d="M219 194L220 195L219 194M217 195L218 196L217 195z"/>
<path style="fill:#8f8f90; stroke:none;" d="M281.667 195.333L282.333 195.667L281.667 195.333M112 196L113 197L112 196M215 196L214 198L216 198L215 196z"/>
<path style="fill:#8a8a8c; stroke:none;" d="M216 196L217 197L216 196z"/>
<path style="fill:#8f8f90; stroke:none;" d="M283 196L286 198L283 196M387 196L391 209L392 209L387 196M112 198L113 199L112 198M210 201L214 198L210 201M286 198L290 202L286 198M111 199L112 200L111 199M110 201L110 204L111 204L112 201L110 201M209 201L210 202L209 201z"/>
<path style="fill:#8a8a8c; stroke:none;" d="M290 201L291 202L290 201z"/>
<path style="fill:#8f8f90; stroke:none;" d="M202 209L209 202L202 209M291 202L292 203L291 202M292 203L297 208L292 203M109.333 204.667L109.667 205.333L109.333 204.667z"/>
<path style="fill:#8a8a8c; stroke:none;" d="M390 204L391 205L390 204z"/>
<path style="fill:#8f8f90; stroke:none;" d="M109 207L110 208L109 207z"/>
<path style="fill:#8a8a8c; stroke:none;" d="M391 207L392 208L391 207z"/>
<path style="fill:#8f8f90; stroke:none;" d="M108 208L109 209L108 208M297 208L298 209L297 208M201 209L202 210L201 209M298 209L303 217L304 217L298 209M107 210L108 211L107 210M200 210L195 219L196 219L200 210z"/>
<path style="fill:#8a8a8c; stroke:none;" d="M299 210L300 211L299 210z"/>
<path style="fill:#8f8f90; stroke:none;" d="M392 210L392 212L394 212L392 210M106 211L107 212L106 211z"/>
<path style="fill:#8a8a8c; stroke:none;" d="M394 211L395 212L394 211z"/>
<path style="fill:#8f8f90; stroke:none;" d="M104.667 212.333L105.333 212.667L104.667 212.333M395 212L396 213L395 212z"/>
<path style="fill:#8a8a8c; stroke:none;" d="M396 212L397 213L396 212z"/>
<path style="fill:#8f8f90; stroke:none;" d="M102.667 213.333L103.333 213.667L102.667 213.333M397.667 213.333L398.333 213.667L397.667 213.333M96 216L96 217L102 215L96 216z"/>
<path style="fill:#979797; stroke:none;" d="M301 214L302 215L301 214z"/>
<path style="fill:#8f8f90; stroke:none;" d="M399 214L399 215L402 216L399 214z"/>
<path style="fill:#8a8a8c; stroke:none;" d="M401 214L402 215L401 214M402 215L402 216L406 217L406 216L402 215z"/>
<path style="fill:#8f8f90; stroke:none;" d="M403 216L404 217L403 216M83 224L96 218C91.5027 216.767 85.4632 220.24 83 224M304.333 217.667L304.667 218.333L304.333 217.667M405 217L405 218L408 219L405 217z"/>
<path style="fill:#8a8a8c; stroke:none;" d="M408.667 218.333L409.333 218.667L408.667 218.333z"/>
<path style="fill:#8f8f90; stroke:none;" d="M194 219L191 227L192 227L194 219M305 219L307 225L308 225L305 219M409 219L409 220L412 221L409 219z"/>
<path style="fill:#8a8a8c; stroke:none;" d="M411 219L412 220L411 219M412 220L412 221L416 222L416 221L412 220z"/>
<path style="fill:#8f8f90; stroke:none;" d="M413 221L414 222L413 221z"/>
<path style="fill:#979797; stroke:none;" d="M306 222L307 223L306 222z"/>
<path style="fill:#8f8f90; stroke:none;" d="M415 222L415 223L419 224L419 223L415 222z"/>
<path style="fill:#8a8a8c; stroke:none;" d="M417 222L418 223L417 222z"/>
<path style="fill:#8f8f90; stroke:none;" d="M81 223L79 224L79 225L81 223z"/>
<path style="fill:#8a8a8c; stroke:none;" d="M419 223L420 224L419 223M420.667 224.333L421.333 224.667L420.667 224.333z"/>
<path style="fill:#8f8f90; stroke:none;" d="M77 225L76 227L78 227L77 225M308 225L309 230L310 230L308 225M422 225L423 226L422 225z"/>
<path style="fill:#8a8a8c; stroke:none;" d="M423 225L424 226L423 225M75 226L76 227L75 226z"/>
<path style="fill:#8f8f90; stroke:none;" d="M424 226L425 227L424 226z"/>
<path style="fill:#8a8a8c; stroke:none;" d="M425.667 226.333L426.333 226.667L425.667 226.333z"/>
<path style="fill:#8f8f90; stroke:none;" d="M73.6667 227.333L74.3333 227.667L73.6667 227.333M426.667 227.333L427.333 227.667L426.667 227.333z"/>
<path style="fill:#8a8a8c; stroke:none;" d="M428 227L430 230L428 227M71 228L72 229L71 228z"/>
<path style="fill:#8f8f90; stroke:none;" d="M72 228L73 229L72 228z"/>
<path style="fill:#848385; stroke:none;" d="M429 228L430 229L429 228M71 229L72 230L71 229z"/>
<path style="fill:#8f8f90; stroke:none;" d="M190 229L191 230L190 229M71 230L71 270L72 270C72 258.566 75.411 240.512 71 230M189 230L189 233L190 233L189 230M310 230L311 231L310 230M429 230L429 270L430 270C430 258.566 433.411 240.512 429 230M310 232L312 235L310 232M188 233L189 234L188 233M188 235L187 238L188 238L188 235z"/>
<path style="fill:#979797; stroke:none;" d="M188 236L189 237L188 236z"/>
<path style="fill:#8f8f90; stroke:none;" d="M311.333 236.667L311.667 237.333L311.333 236.667M312 238L313 239L312 238M187 241L187 259L188 259L187 241M312 241L313 247L314 247L312 241M313 253L312 259L313 259L313 253M312 261L313 262L312 261M187 262L189 265L187 262M311.333 262.667L311.667 263.333L311.333 262.667M311 265L312 266L311 265M188 266L190 273L191 273L188 266M310 266L311 267L310 266M310 269L311 270L310 269z"/>
<path style="fill:#848385; stroke:none;" d="M71.3333 270.667L71.6667 271.333L71.3333 270.667z"/>
<path style="fill:#8f8f90; stroke:none;" d="M309 270L310 271L309 270z"/>
<path style="fill:#8a8a8c; stroke:none;" d="M428.667 270.333L429.333 270.667L428.667 270.333z"/>
<path style="fill:#8f8f90; stroke:none;" d="M72 271L72 272L77 274L77 273L72 271M426 271L427 272L426 271z"/>
<path style="fill:#8a8a8c; stroke:none;" d="M427 271L428 272L427 271M73 272L74 273L73 272z"/>
<path style="fill:#8f8f90; stroke:none;" d="M309 272L310 273L309 272M424 272L425 273L424 272z"/>
<path style="fill:#8a8a8c; stroke:none;" d="M425 272L426 273L425 272M75 273L76 274L75 273z"/>
<path style="fill:#8f8f90; stroke:none;" d="M191 273L194 281L195 281L191 273M422 273L423 274L422 273z"/>
<path style="fill:#8a8a8c; stroke:none;" d="M423 273L424 274L423 273M77 274L78 275L77 274z"/>
<path style="fill:#8f8f90; stroke:none;" d="M78 274L78 275L83 277L83 276L78 274z"/>
<path style="fill:#979797; stroke:none;" d="M307 274L308 275L307 274z"/>
<path style="fill:#8f8f90; stroke:none;" d="M308 274L309 275L308 274M418 276L421 275L418 276z"/>
<path style="fill:#8a8a8c; stroke:none;" d="M421 274L422 275L421 274z"/>
<path style="fill:#8f8f90; stroke:none;" d="M307 275L308 276L307 275z"/>
<path style="fill:#8a8a8c; stroke:none;" d="M419 275L420 276L419 275M416.667 276.333L417.333 276.667L416.667 276.333z"/>
<path style="fill:#8f8f90; stroke:none;" d="M83 277L83 278L89 280L89 279L83 277M413 277L414 278L413 277z"/>
<path style="fill:#8a8a8c; stroke:none;" d="M414.667 277.333L415.333 277.667L414.667 277.333z"/>
<path style="fill:#8f8f90; stroke:none;" d="M306 278L307 279L306 278z"/>
<path style="fill:#8a8a8c; stroke:none;" d="M412.667 278.333L413.333 278.667L412.667 278.333z"/>
<path style="fill:#8f8f90; stroke:none;" d="M410 279L411 280L410 279z"/>
<path style="fill:#8a8a8c; stroke:none;" d="M411 279L412 280L411 279z"/>
<path style="fill:#8f8f90; stroke:none;" d="M89 280L89 281L95 283L95 282L89 280M304 280L304 282L306 280L304 280M407.667 280.333L408.333 280.667L407.667 280.333z"/>
<path style="fill:#8a8a8c; stroke:none;" d="M409 280L410 281L409 280z"/>
<path style="fill:#8f8f90; stroke:none;" d="M195 281L197 286L198 286L195 281z"/>
<path style="fill:#8a8a8c; stroke:none;" d="M406.667 281.333L407.333 281.667L406.667 281.333z"/>
<path style="fill:#8f8f90; stroke:none;" d="M303 282L304 283L303 282z"/>
<path style="fill:#8a8a8c; stroke:none;" d="M404.667 282.333L405.333 282.667L404.667 282.333z"/>
<path style="fill:#8f8f90; stroke:none;" d="M95 283L95 284L100 286L95 283M400 285L403 283L400 285z"/>
<path style="fill:#8a8a8c; stroke:none;" d="M403 283L404 284L403 283z"/>
<path style="fill:#8f8f90; stroke:none;" d="M302 284L301 287L302 284z"/>
<path style="fill:#8a8a8c; stroke:none;" d="M100 285L102 287L100 285z"/>
<path style="fill:#8f8f90; stroke:none;" d="M101 285L102 286L101 285M398 285L399 286L398 285z"/>
<path style="fill:#8a8a8c; stroke:none;" d="M399 285L400 286L399 285z"/>
<path style="fill:#8f8f90; stroke:none;" d="M102 286L102 287L107 289L107 288L102 286M198 286L202 290L198 286M394 288L397 287L394 288z"/>
<path style="fill:#8a8a8c; stroke:none;" d="M397 286L398 287L397 286z"/>
<path style="fill:#8f8f90; stroke:none;" d="M300 287L298 291L300 287z"/>
<path style="fill:#8a8a8c; stroke:none;" d="M395 287L396 288L395 287M105 288L106 289L105 288z"/>
<path style="fill:#8f8f90; stroke:none;" d="M392 288L393 289L392 288z"/>
<path style="fill:#8a8a8c; stroke:none;" d="M393 288L394 289L393 288z"/>
<path style="fill:#8f8f90; stroke:none;" d="M107 289L108 290L107 289z"/>
<path style="fill:#8a8a8c; stroke:none;" d="M392 289L393 290L392 289M201 290L202 291L201 290z"/>
<path style="fill:#8f8f90; stroke:none;" d="M391.333 290.667L391.667 291.333L391.333 290.667z"/>
<path style="fill:#8a8a8c; stroke:none;" d="M108.333 291.667L108.667 292.333L108.333 291.667z"/>
<path style="fill:#8f8f90; stroke:none;" d="M202 291L203 292L202 291M109 292L109 296L110 296L109 292M203 292L209 298L203 292M296 292L297 293L296 292z"/>
<path style="fill:#8a8a8c; stroke:none;" d="M391.333 292.667L391.667 293.333L391.333 292.667z"/>
<path style="fill:#8f8f90; stroke:none;" d="M295 293L296 294L295 293M390 293L386 307L387 307L390 293M294 294L295 295L294 294M293 295L294 296L293 295M110 296L110 299L111 299L110 296M292 296L293 297L292 296M291 297L292 298L291 297M209 298L209 299L212 302L213 302L209 298M287 301L291 298L287 301M111 299L113 302L111 299z"/>
<path style="fill:#8a8a8c; stroke:none;" d="M210 299L211 300L210 299M213 301L215 303L215 301L213 301z"/>
<path style="fill:#8f8f90; stroke:none;" d="M284 303L287 301L284 303M215 302L215 304L217 304L215 302M112 303L114 309L115 309L112 303M279 307L284 304L279 307M217 304L219 306L219 304L217 304z"/>
<path style="fill:#8a8a8c; stroke:none;" d="M219 305L220 306L219 305z"/>
<path style="fill:#8f8f90; stroke:none;" d="M220.333 305.667L220.667 306.333L220.333 305.667z"/>
<path style="fill:#8a8a8c; stroke:none;" d="M221 306L222 307L221 306z"/>
<path style="fill:#8f8f90; stroke:none;" d="M222.333 306.667L222.667 307.333L222.333 306.667M277 306L275 307L275 308L277 306z"/>
<path style="fill:#8a8a8c; stroke:none;" d="M278 306L279 307L278 306M223 307L223 308L231 311L231 310L223 307z"/>
<path style="fill:#8f8f90; stroke:none;" d="M385 307L382 316L383 316L385 307M224 308L225 309L224 308M272 308L270 309L270 310L272 308z"/>
<path style="fill:#8a8a8c; stroke:none;" d="M273 308L274 309L273 308z"/>
<path style="fill:#8f8f90; stroke:none;" d="M274 308L275 309L274 308M115.333 309.667L115.667 310.333L115.333 309.667M229 310L230 311L229 310M231 310L232 311L231 310z"/>
<path style="fill:#8a8a8c; stroke:none;" d="M232 310L232 311L237 312L237 311L232 310M265 312L268 311L265 312z"/>
<path style="fill:#8f8f90; stroke:none;" d="M268 310L269 311L268 310z"/>
<path style="fill:#8a8a8c; stroke:none;" d="M269 310L270 311L269 310z"/>
<path style="fill:#8f8f90; stroke:none;" d="M116 311L117 315L118 315L116 311M233 311L234 312L233 311M237.333 311.667L237.667 312.333L237.333 311.667M262 313L265 312L262 313M266 311L267 312L266 311z"/>
<path style="fill:#8a8a8c; stroke:none;" d="M238 312L239 313L238 312z"/>
<path style="fill:#8f8f90; stroke:none;" d="M239.667 312.333L240.333 312.667L239.667 312.333z"/>
<path style="fill:#8a8a8c; stroke:none;" d="M241 312L241 313L248 314L241 312M251 313L251 314L259 313L251 313z"/>
<path style="fill:#8f8f90; stroke:none;" d="M259.667 312.333L260.333 312.667L259.667 312.333z"/>
<path style="fill:#8a8a8c; stroke:none;" d="M261 312L262 313L261 312M116 313L117 314L116 313z"/>
<path style="fill:#8f8f90; stroke:none;" d="M242.667 313.333L243.333 313.667L242.667 313.333M248 313L248 314L251 314L248 313M256 313L257 314L256 313M118 315L119 316L118 315z"/>
<path style="fill:#8a8a8c; stroke:none;" d="M118 316L119 317L118 316z"/>
<path style="fill:#8f8f90; stroke:none;" d="M381 316L378 323L381 316M119 317L120 318L119 317z"/>
<path style="fill:#8a8a8c; stroke:none;" d="M119 318L120 319L119 318z"/>
<path style="fill:#8f8f90; stroke:none;" d="M120 319L120 321L122 321L120 319z"/>
<path style="fill:#8a8a8c; stroke:none;" d="M380 319L381 320L380 319M379 323L380 324L379 323z"/>
<path style="fill:#8f8f90; stroke:none;" d="M120 324L120 327L121 327L122 324L120 324M379 324L380 329L381 329L379 324z"/>
<path style="fill:#8a8a8c; stroke:none;" d="M380 326L381 327L380 326z"/>
<path style="fill:#8f8f90; stroke:none;" d="M119 327L119 330L120 330L119 327z"/>
<path style="fill:#8a8a8c; stroke:none;" d="M381 329L382 330L381 329z"/>
<path style="fill:#8f8f90; stroke:none;" d="M118 330L117 336L118 336L118 330M381 330L382 335L383 335L381 330z"/>
<path style="fill:#8a8a8c; stroke:none;" d="M382 331L383 332L382 331z"/>
<path style="fill:#8f8f90; stroke:none;" d="M383 335L383 338L384 338L383 335M116 336L116 339L117 339L116 336M384 338L385 342L386 342L384 338M115 339L114 345L115 345L115 339M385 343L386 344L385 343M386 344L388 351L389 351L386 344M113 345L114 346L113 345M113 347L114 348L113 347M112 348L111 354L112 354L112 348M388 352L389 353L388 352M389 353L389 356L390 356L389 353M110 354L110 357L111 357L110 354z"/>
<path style="fill:#8a8a8c; stroke:none;" d="M390.333 355.667L390.667 356.333L390.333 355.667M109 357L110 358L109 357z"/>
<path style="fill:#8f8f90; stroke:none;" d="M390.333 357.667L390.667 358.333L390.333 357.667M109 358L109 363L110 363L109 358z"/>
<path style="fill:#8a8a8c; stroke:none;" d="M391.333 358.667L391.667 359.333L391.333 358.667M108 360L109 361L108 360z"/>
<path style="fill:#8f8f90; stroke:none;" d="M391 360L392 361L391 360z"/>
<path style="fill:#848385; stroke:none;" d="M108 361L109 362L108 361z"/>
<path style="fill:#8a8a8c; stroke:none;" d="M391 361L386 368L391 361z"/>
<path style="fill:#8f8f90; stroke:none;" d="M390 362L391 363L390 362M110 363L111 364L110 363M389 363L390 364L389 363M111 364L112 365L111 364M388 364L389 365L388 364z"/>
<path style="fill:#8a8a8c; stroke:none;" d="M112 365L113 366L112 365z"/>
<path style="fill:#8f8f90; stroke:none;" d="M387 365L388 366L387 365z"/>
<path style="fill:#8a8a8c; stroke:none;" d="M113 366L114 367L113 366M114 367L115 368L114 367z"/>
<path style="fill:#8f8f90; stroke:none;" d="M385 367L382 371L385 367M115 368L116 369L115 368z"/>
<path style="fill:#8a8a8c; stroke:none;" d="M116 369L117 370L116 369z"/>
<path style="fill:#8f8f90; stroke:none;" d="M117 370L118 371L117 370z"/>
<path style="fill:#8a8a8c; stroke:none;" d="M118 371L119 372L118 371M381.667 371.333L382.333 371.667L381.667 371.333M119 372L120 373L119 372z"/>
<path style="fill:#8f8f90; stroke:none;" d="M364 389L382 372L364 389z"/>
<path style="fill:#8a8a8c; stroke:none;" d="M120 373L121 374L120 373z"/>
<path style="fill:#8f8f90; stroke:none;" d="M121 374L122 375L121 374z"/>
<path style="fill:#8a8a8c; stroke:none;" d="M122 375L123 376L122 375z"/>
<path style="fill:#8f8f90; stroke:none;" d="M123 376L124 377L123 376M124 377L125 378L124 377z"/>
<path style="fill:#8a8a8c; stroke:none;" d="M125 378L126 379L125 378z"/>
<path style="fill:#8f8f90; stroke:none;" d="M175.667 378.333L176.333 378.667L175.667 378.333M179 378L188 384L179 378M321 378L322 379L321 378M323 378L324 379L323 378z"/>
<path style="fill:#8a8a8c; stroke:none;" d="M324 378L327 380L327 379L324 378z"/>
<path style="fill:#8f8f90; stroke:none;" d="M325 378L326 379L325 378z"/>
<path style="fill:#8a8a8c; stroke:none;" d="M126 379L127 380L126 379z"/>
<path style="fill:#8f8f90; stroke:none;" d="M169 382L174 380L169 382z"/>
<path style="fill:#8a8a8c; stroke:none;" d="M174.667 379.333L175.333 379.667L174.667 379.333z"/>
<path style="fill:#8f8f90; stroke:none;" d="M319 379L320 380L319 379z"/>
<path style="fill:#8a8a8c; stroke:none;" d="M320.667 379.333L321.333 379.667L320.667 379.333z"/>
<path style="fill:#8f8f90; stroke:none;" d="M327.667 379.333L328.333 379.667L327.667 379.333z"/>
<path style="fill:#8a8a8c; stroke:none;" d="M374 379L375 380L374 379z"/>
<path style="fill:#8f8f90; stroke:none;" d="M127 380L128 381L127 380M317 380L318 381L317 380z"/>
<path style="fill:#8a8a8c; stroke:none;" d="M318 380L319 381L318 380M328 380L328 381L334 382L334 381L328 380z"/>
<path style="fill:#8f8f90; stroke:none;" d="M331 380L332 381L331 380z"/>
<path style="fill:#8a8a8c; stroke:none;" d="M128 381L129 382L128 381z"/>
<path style="fill:#8f8f90; stroke:none;" d="M163 382L163 383L168 382L163 382z"/>
<path style="fill:#8a8a8c; stroke:none;" d="M168 381L169 382L168 381M183 381L184 382L183 381z"/>
<path style="fill:#8f8f90; stroke:none;" d="M315 381L313 382L313 383L315 381z"/>
<path style="fill:#8a8a8c; stroke:none;" d="M316.667 381.333L317.333 381.667L316.667 381.333z"/>
<path style="fill:#8f8f90; stroke:none;" d="M129 382L130 383L129 382z"/>
<path style="fill:#8a8a8c; stroke:none;" d="M185 382L186 383L185 382M315 382L316 383L315 382M334 382L334 383L345 386L345 385L334 382z"/>
<path style="fill:#8f8f90; stroke:none;" d="M337 382L338 383L337 382M130 383L131 384L130 383M157 386L162 384L157 386z"/>
<path style="fill:#8a8a8c; stroke:none;" d="M162.667 383.333L163.333 383.667L162.667 383.333M188 383L189 384L188 383z"/>
<path style="fill:#8f8f90; stroke:none;" d="M189.333 383.667L189.667 384.333L189.333 383.667M311 383L309 384L309 385L311 383z"/>
<path style="fill:#8a8a8c; stroke:none;" d="M312.667 383.333L313.333 383.667L312.667 383.333z"/>
<path style="fill:#8f8f90; stroke:none;" d="M340 383L341 384L340 383z"/>
<path style="fill:#8a8a8c; stroke:none;" d="M370 383L371 384L370 383M131 384L132 385L131 384M190 384L190 385L201 389L201 388L190 384z"/>
<path style="fill:#8f8f90; stroke:none;" d="M191 384L192 385L191 384M343 384L344 385L343 384z"/>
<path style="fill:#8a8a8c; stroke:none;" d="M369 384L370 385L369 384M132 385L133 386L132 385z"/>
<path style="fill:#8f8f90; stroke:none;" d="M154.667 385.333L155.333 385.667L154.667 385.333z"/>
<path style="fill:#8a8a8c; stroke:none;" d="M156 385L157 386L156 385z"/>
<path style="fill:#8f8f90; stroke:none;" d="M194 385L195 386L194 385M304 386L304 387L308 386L304 386z"/>
<path style="fill:#8a8a8c; stroke:none;" d="M308.667 385.333L309.333 385.667L308.667 385.333z"/>
<path style="fill:#8f8f90; stroke:none;" d="M345.667 385.333L346.333 385.667L345.667 385.333z"/>
<path style="fill:#8a8a8c; stroke:none;" d="M368 385L369 386L368 385z"/>
<path style="fill:#8f8f90; stroke:none;" d="M133 386L134 387L133 386M151.667 386.333L152.333 386.667L151.667 386.333z"/>
<path style="fill:#8a8a8c; stroke:none;" d="M153.667 386.333L154.333 386.667L153.667 386.333z"/>
<path style="fill:#8f8f90; stroke:none;" d="M196 386L197 387L196 386z"/>
<path style="fill:#8a8a8c; stroke:none;" d="M346 386L346 387L352 388L352 387L346 386z"/>
<path style="fill:#8f8f90; stroke:none;" d="M349 386L350 387L349 386z"/>
<path style="fill:#8a8a8c; stroke:none;" d="M367 386L368 387L367 386M134 387L135 388L134 387z"/>
<path style="fill:#8f8f90; stroke:none;" d="M147 389L150 387L147 389z"/>
<path style="fill:#8a8a8c; stroke:none;" d="M150.667 387.333L151.333 387.667L150.667 387.333z"/>
<path style="fill:#8f8f90; stroke:none;" d="M199 387L200 388L199 387M302 387L303 388L302 387z"/>
<path style="fill:#8a8a8c; stroke:none;" d="M303.667 387.333L304.333 387.667L303.667 387.333M366 387L367 388L366 387M135 388L136 389L135 388z"/>
<path style="fill:#8f8f90; stroke:none;" d="M145 388L146 389L145 388M201.667 388.333L202.333 388.667L201.667 388.333M296 389L296 390L302 389L296 389z"/>
<path style="fill:#8a8a8c; stroke:none;" d="M352 388L353 389L352 388z"/>
<path style="fill:#8f8f90; stroke:none;" d="M353 388L353 389L356 389L353 388z"/>
<path style="fill:#8a8a8c; stroke:none;" d="M365 388L366 389L365 388z"/>
<path style="fill:#8f8f90; stroke:none;" d="M136 389L137 390L136 389M142.667 389.333L143.333 389.667L142.667 389.333z"/>
<path style="fill:#8a8a8c; stroke:none;" d="M144.667 389.333L145.333 389.667L144.667 389.333M202 389L202 390L205 390L202 389M298 389L299 390L298 389M355.667 389.333L356.333 389.667L355.667 389.333z"/>
<path style="fill:#8f8f90; stroke:none;" d="M357 389L358 390L357 389z"/>
<path style="fill:#8a8a8c; stroke:none;" d="M363.667 389.333L364.333 389.667L363.667 389.333M137 390L138 391L137 390z"/>
<path style="fill:#8f8f90; stroke:none;" d="M138 390L138 391L141 391L138 390z"/>
<path style="fill:#8a8a8c; stroke:none;" d="M141.667 390.333L142.333 390.667L141.667 390.333M205 390L205 391L208 391L205 390z"/>
<path style="fill:#8f8f90; stroke:none;" d="M292 390L291 392L292 390z"/>
<path style="fill:#8a8a8c; stroke:none;" d="M293 390L294 391L293 390z"/>
<path style="fill:#8f8f90; stroke:none;" d="M294 390L295 391L294 390z"/>
<path style="fill:#8a8a8c; stroke:none;" d="M295 390L296 391L295 390M358 390L358 391L361 391L358 390z"/>
<path style="fill:#8f8f90; stroke:none;" d="M361 390L362 391L361 390z"/>
<path style="fill:#848385; stroke:none;" d="M362.667 390.333L363.333 390.667L362.667 390.333M138.667 391.333L139.333 391.667L138.667 391.333z"/>
<path style="fill:#8a8a8c; stroke:none;" d="M208 391L209 392L208 391z"/>
<path style="fill:#8f8f90; stroke:none;" d="M209 391L210 392L209 391z"/>
<path style="fill:#8a8a8c; stroke:none;" d="M292 391L293 392L292 391z"/>
<path style="fill:#848385; stroke:none;" d="M361 391L362 392L361 391z"/>
<path style="fill:#8f8f90; stroke:none;" d="M289 392L280 410C284.543 407.024 289.45 397.46 289 392M211 393L214 399L215 399L211 393z"/>
<path style="fill:#8a8a8c; stroke:none;" d="M289 393L290 394L289 393M212 395L213 396L212 395M214 399L215 400L214 399z"/>
<path style="fill:#8f8f90; stroke:none;" d="M215 400L217 406L218 406L215 400M218.333 406.667L218.667 407.333L218.333 406.667M219 408L219 410L221 410L219 408M220 411L221 412L220 411M280 411L281 412L280 411M221.333 412.667L221.667 413.333L221.333 412.667M279 412L272 426L273 426L279 412M222 414L223 417L224 417L222 414z"/>
<path style="fill:#8a8a8c; stroke:none;" d="M222 415L223 416L222 415M223 417L224 418L223 417z"/>
<path style="fill:#8f8f90; stroke:none;" d="M224 418L225 419L224 418z"/>
<path style="fill:#8a8a8c; stroke:none;" d="M224 419L225 420L224 419z"/>
<path style="fill:#8f8f90; stroke:none;" d="M225 420L226 423L227 423L225 420z"/>
<path style="fill:#8a8a8c; stroke:none;" d="M225 421L226 422L225 421M226 423L227 424L226 423M274 423L275 424L274 423z"/>
<path style="fill:#8f8f90; stroke:none;" d="M227 424C230.361 429.99 235.858 429 242 429L242 428C235.836 428 231.995 427.858 227 424z"/>
<path style="fill:#8a8a8c; stroke:none;" d="M227 425L228 426L227 425M273 425L274 426L273 425M272.333 426.667L272.667 427.333L272.333 426.667M228 427L229 428L228 427z"/>
<path style="fill:#8f8f90; stroke:none;" d="M271 427L272 428L271 427z"/>
<path style="fill:#848385; stroke:none;" d="M229 428L230 429L229 428z"/>
<path style="fill:#8f8f90; stroke:none;" d="M268.667 428.333L269.333 428.667L268.667 428.333z"/>
<path style="fill:#8a8a8c; stroke:none;" d="M270 428L271 429L270 428z"/>
<path style="fill:#848385; stroke:none;" d="M271 428L272 429L271 428z"/>
</svg>
