<?xml version="1.0" standalone="yes"?>
<svg xmlns="http://www.w3.org/2000/svg" width="500" height="500">
<path style="fill:#010101; stroke:none;" d="M0 0L0 500L500 500L500 0L0 0z"/>
<path style="fill:#e4e4e4; stroke:none;" d="M366.667 32.3333L367.333 32.6667L366.667 32.3333z"/>
<path style="fill:#d0d0d0; stroke:none;" d="M368 32L369 33L368 32z"/>
<path style="fill:#b9b9b9; stroke:none;" d="M369 32L369 33L373 33L369 32z"/>
<path style="fill:#979797; stroke:none;" d="M297 369C271.949 443 371.242 498.659 424.999 445.985C432.842 438.3 439.115 429.246 443.174 419C455.689 387.41 445.56 348.259 418 327.924C384.81 303.435 325.378 308.276 306 349L188 286C203.716 256.132 203.716 228.868 188 199C228.977 185.138 270.893 166.509 310 148C322.163 186.09 377.404 194.194 409 180.572C452.382 161.868 466.275 105.581 441.301 67C421.883 37.0015 382.151 24.7194 349 37.4282C326.002 46.2448 307.908 66.058 301.895 90C299.541 99.3742 298.701 108.433 299.845 118C300.412 122.739 301.862 127.398 296.941 130.095C270.296 144.699 239.115 154.41 211 166.011C200.506 170.341 185.273 180.488 174 181.062C166.366 181.451 153.91 170.825 146 168.347C121.852 160.783 94.8049 166.088 75 181.669C32.625 215.006 38.0315 286.53 87 311.191C104.586 320.047 126.022 322.848 145 316.975C152.552 314.637 168.035 302.306 175 303.984C187.642 307.03 201.619 317.83 213 324.139C240.295 339.269 268.204 357.011 297 369z"/>
<path style="fill:#b9b9b9; stroke:none;" d="M381 32L381 33L384 33L381 32z"/>
<path style="fill:#d0d0d0; stroke:none;" d="M384.667 32.3333L385.333 32.6667L384.667 32.3333z"/>
<path style="fill:#e4e4e4; stroke:none;" d="M386 32L387 33L386 32M361 33L362 34L361 33z"/>
<path style="fill:#d0d0d0; stroke:none;" d="M362 33L363 34L362 33z"/>
<path style="fill:#b9b9b9; stroke:none;" d="M363 33L364 34L363 33M389.667 33.3333L390.333 33.6667L389.667 33.3333z"/>
<path style="fill:#d0d0d0; stroke:none;" d="M391 33L392 34L391 33z"/>
<path style="fill:#e4e4e4; stroke:none;" d="M356 34L357 35L356 34z"/>
<path style="fill:#d0d0d0; stroke:none;" d="M357 34L358 35L357 34z"/>
<path style="fill:#b9b9b9; stroke:none;" d="M358 34L359 35L358 34M394 34L395 35L394 34z"/>
<path style="fill:#d0d0d0; stroke:none;" d="M395 34L396 35L395 34z"/>
<path style="fill:#e4e4e4; stroke:none;" d="M396 34L397 35L396 34z"/>
<path style="fill:#d0d0d0; stroke:none;" d="M353 35L354 36L353 35z"/>
<path style="fill:#b9b9b9; stroke:none;" d="M354 35L355 36L354 35M398 35L399 36L398 35z"/>
<path style="fill:#d0d0d0; stroke:none;" d="M399 35L400 36L399 35z"/>
<path style="fill:#e4e4e4; stroke:none;" d="M350 36L351 37L350 36z"/>
<path style="fill:#b9b9b9; stroke:none;" d="M351 36L352 37L351 36M401 36L402 37L401 36z"/>
<path style="fill:#d0d0d0; stroke:none;" d="M402 36L403 37L402 36z"/>
<path style="fill:#e4e4e4; stroke:none;" d="M347 37L348 38L347 37z"/>
<path style="fill:#d0d0d0; stroke:none;" d="M348 37L349 38L348 37z"/>
<path style="fill:#b9b9b9; stroke:none;" d="M404 37L405 38L404 37z"/>
<path style="fill:#e4e4e4; stroke:none;" d="M405 37L406 38L405 37M345 38L346 39L345 38z"/>
<path style="fill:#b9b9b9; stroke:none;" d="M346 38L347 39L346 38z"/>
<path style="fill:#d0d0d0; stroke:none;" d="M407 38L408 39L407 38z"/>
<path style="fill:#e4e4e4; stroke:none;" d="M343 39L344 40L343 39z"/>
<path style="fill:#d0d0d0; stroke:none;" d="M409 39L410 40L409 39M341 40L342 41L341 40z"/>
<path style="fill:#b9b9b9; stroke:none;" d="M342 40L343 41L342 40M411 40L412 41L411 40z"/>
<path style="fill:#d0d0d0; stroke:none;" d="M339 41L340 42L339 41z"/>
<path style="fill:#b9b9b9; stroke:none;" d="M413 41L414 42L413 41z"/>
<path style="fill:#e4e4e4; stroke:none;" d="M337 42L338 43L337 42z"/>
<path style="fill:#b9b9b9; stroke:none;" d="M338 42L339 43L338 42z"/>
<path style="fill:#e4e4e4; stroke:none;" d="M415 42L416 43L415 42z"/>
<path style="fill:#b9b9b9; stroke:none;" d="M336 43L337 44L336 43M416 43L417 44L416 43z"/>
<path style="fill:#e4e4e4; stroke:none;" d="M417 43L418 44L417 43z"/>
<path style="fill:#d0d0d0; stroke:none;" d="M334 44L335 45L334 44z"/>
<path style="fill:#b9b9b9; stroke:none;" d="M418 44L419 45L418 44M333 45L334 46L333 45z"/>
<path style="fill:#e4e4e4; stroke:none;" d="M420 45L421 46L420 45M331 46L332 47L331 46z"/>
<path style="fill:#d0d0d0; stroke:none;" d="M421 46L422 47L421 46z"/>
<path style="fill:#b9b9b9; stroke:none;" d="M330 47L331 48L330 47M329 48L330 49L329 48z"/>
<path style="fill:#e4e4e4; stroke:none;" d="M424 48L425 49L424 48M327 49L328 50L327 49z"/>
<path style="fill:#d0d0d0; stroke:none;" d="M425 49L426 50L425 49M326 50L327 51L326 50z"/>
<path style="fill:#b9b9b9; stroke:none;" d="M426 50L427 51L426 50z"/>
<path style="fill:#d0d0d0; stroke:none;" d="M325 51L326 52L325 51z"/>
<path style="fill:#b9b9b9; stroke:none;" d="M427 51L428 52L427 51M324 52L325 53L324 52M428 52L429 53L428 52M323 53L324 54L323 53M322 54L323 55L322 54M369.667 54.3333L370.333 54.6667L369.667 54.3333z"/>
<path style="fill:#d0d0d0; stroke:none;" d="M371.667 54.3333L372.333 54.6667L371.667 54.3333z"/>
<path style="fill:#e4e4e4; stroke:none;" d="M373 54L373 55L380 55L373 54z"/>
<path style="fill:#d0d0d0; stroke:none;" d="M380 54L380 55L383 55L380 54z"/>
<path style="fill:#b9b9b9; stroke:none;" d="M383.667 54.3333L384.333 54.6667L383.667 54.3333M321 55L322 56L321 55M363 55L364 56L363 55z"/>
<path style="fill:#d0d0d0; stroke:none;" d="M364 55L365 56L364 55z"/>
<path style="fill:#e4e4e4; stroke:none;" d="M365.667 55.3333L366.333 55.6667L365.667 55.3333z"/>
<path style="fill:#010101; stroke:none;" d="M367 55.4391C310.99 64.2553 306.269 146.56 360 162.961C368.095 165.432 377.637 165.867 386 164.561C442.023 155.811 447.201 74.6586 394 57.0895C385.762 54.369 375.546 54.0938 367 55.4391z"/>
<path style="fill:#e4e4e4; stroke:none;" d="M387 55L388 56L387 55z"/>
<path style="fill:#d0d0d0; stroke:none;" d="M388 55L389 56L388 55z"/>
<path style="fill:#b9b9b9; stroke:none;" d="M389 55L390 56L389 55z"/>
<path style="fill:#e4e4e4; stroke:none;" d="M432 55L433 56L432 55z"/>
<path style="fill:#b9b9b9; stroke:none;" d="M320 56L321 57L320 56M360 56L361 57L360 56z"/>
<path style="fill:#e4e4e4; stroke:none;" d="M361 56L362 57L361 56z"/>
<path style="fill:#d0d0d0; stroke:none;" d="M392 56L393 57L392 56z"/>
<path style="fill:#b9b9b9; stroke:none;" d="M393 56L394 57L393 56M319 57L320 58L319 57M357 57L358 58L357 57z"/>
<path style="fill:#e4e4e4; stroke:none;" d="M358 57L359 58L358 57z"/>
<path style="fill:#d0d0d0; stroke:none;" d="M395 57L396 58L395 57M318 58L319 59L318 58z"/>
<path style="fill:#b9b9b9; stroke:none;" d="M354 58L355 59L354 58z"/>
<path style="fill:#d0d0d0; stroke:none;" d="M355 58L356 59L355 58z"/>
<path style="fill:#e4e4e4; stroke:none;" d="M397 58L398 59L397 58z"/>
<path style="fill:#b9b9b9; stroke:none;" d="M398 58L399 59L398 58M434 58L435 59L434 58z"/>
<path style="fill:#d0d0d0; stroke:none;" d="M317 59L318 60L317 59z"/>
<path style="fill:#b9b9b9; stroke:none;" d="M352 59L353 60L352 59z"/>
<path style="fill:#e4e4e4; stroke:none;" d="M353 59L354 60L353 59z"/>
<path style="fill:#d0d0d0; stroke:none;" d="M400 59L401 60L400 59z"/>
<path style="fill:#b9b9b9; stroke:none;" d="M435 59L436 60L435 59z"/>
<path style="fill:#e4e4e4; stroke:none;" d="M316 60L317 61L316 60z"/>
<path style="fill:#b9b9b9; stroke:none;" d="M350 60L351 61L350 60z"/>
<path style="fill:#e4e4e4; stroke:none;" d="M351 60L352 61L351 60z"/>
<path style="fill:#b9b9b9; stroke:none;" d="M402 60L403 61L402 60z"/>
<path style="fill:#d0d0d0; stroke:none;" d="M436 60L437 61L436 60z"/>
<path style="fill:#e4e4e4; stroke:none;" d="M349 61L350 62L349 61M403 61L404 62L403 61z"/>
<path style="fill:#b9b9b9; stroke:none;" d="M404 61L405 62L404 61z"/>
<path style="fill:#e4e4e4; stroke:none;" d="M437 61L438 62L437 61z"/>
<path style="fill:#b9b9b9; stroke:none;" d="M315 62L316 63L315 62z"/>
<path style="fill:#d0d0d0; stroke:none;" d="M347 62L348 63L347 62z"/>
<path style="fill:#e4e4e4; stroke:none;" d="M405 62L406 63L405 62z"/>
<path style="fill:#b9b9b9; stroke:none;" d="M406 62L407 63L406 62z"/>
<path style="fill:#e4e4e4; stroke:none;" d="M438 62L439 63L438 62z"/>
<path style="fill:#b9b9b9; stroke:none;" d="M314 63L315 64L314 63z"/>
<path style="fill:#e4e4e4; stroke:none;" d="M346 63L347 64L346 63z"/>
<path style="fill:#b9b9b9; stroke:none;" d="M407 63L408 64L407 63z"/>
<path style="fill:#e4e4e4; stroke:none;" d="M313 64L314 65L313 64z"/>
<path style="fill:#d0d0d0; stroke:none;" d="M344 64L345 65L344 64z"/>
<path style="fill:#e4e4e4; stroke:none;" d="M408 64L409 65L408 64z"/>
<path style="fill:#b9b9b9; stroke:none;" d="M439 64L440 65L439 64z"/>
<path style="fill:#e4e4e4; stroke:none;" d="M343 65L344 66L343 65z"/>
<path style="fill:#b9b9b9; stroke:none;" d="M410 65L411 66L410 65z"/>
<path style="fill:#e4e4e4; stroke:none;" d="M440 65L441 66L440 65z"/>
<path style="fill:#b9b9b9; stroke:none;" d="M312 66L313 67L312 66M341 66L342 67L341 66z"/>
<path style="fill:#d0d0d0; stroke:none;" d="M411 66L412 67L411 66M311 67L312 68L311 67z"/>
<path style="fill:#b9b9b9; stroke:none;" d="M340 67L341 68L340 67z"/>
<path style="fill:#d0d0d0; stroke:none;" d="M412 67L413 68L412 67z"/>
<path style="fill:#b9b9b9; stroke:none;" d="M441 67L442 68L441 67z"/>
<path style="fill:#d0d0d0; stroke:none;" d="M339 68L340 69L339 68z"/>
<path style="fill:#e4e4e4; stroke:none;" d="M413 68L414 69L413 68z"/>
<path style="fill:#d0d0d0; stroke:none;" d="M442 68L443 69L442 68z"/>
<path style="fill:#b9b9b9; stroke:none;" d="M310 69L311 70L310 69z"/>
<path style="fill:#d0d0d0; stroke:none;" d="M338 69L339 70L338 69z"/>
<path style="fill:#e4e4e4; stroke:none;" d="M414 69L415 70L414 69M309 70L310 71L309 70z"/>
<path style="fill:#d0d0d0; stroke:none;" d="M337 70L338 71L337 70z"/>
<path style="fill:#e4e4e4; stroke:none;" d="M415 70L416 71L415 70z"/>
<path style="fill:#d0d0d0; stroke:none;" d="M443 70L444 71L443 70z"/>
<path style="fill:#b9b9b9; stroke:none;" d="M309 71L310 72L309 71z"/>
<path style="fill:#d0d0d0; stroke:none;" d="M336 71L337 72L336 71z"/>
<path style="fill:#e4e4e4; stroke:none;" d="M416 71L417 72L416 71M444 71L445 72L444 71z"/>
<path style="fill:#d0d0d0; stroke:none;" d="M308 72L309 73L308 72M335 72L336 73L335 72z"/>
<path style="fill:#e4e4e4; stroke:none;" d="M417 72L418 73L417 72z"/>
<path style="fill:#b9b9b9; stroke:none;" d="M444 72L445 73L444 72M334 73L335 74L334 73z"/>
<path style="fill:#e4e4e4; stroke:none;" d="M418 73L419 74L418 73M445 73L446 74L445 73z"/>
<path style="fill:#d0d0d0; stroke:none;" d="M307 74L308 75L307 74z"/>
<path style="fill:#b9b9b9; stroke:none;" d="M333 74L334 75L333 74z"/>
<path style="fill:#d0d0d0; stroke:none;" d="M419 74L420 75L419 74z"/>
<path style="fill:#b9b9b9; stroke:none;" d="M445 74L446 75L445 74M420 75L421 76L420 75z"/>
<path style="fill:#e4e4e4; stroke:none;" d="M446 75L447 76L446 75z"/>
<path style="fill:#d0d0d0; stroke:none;" d="M306 76L307 77L306 76z"/>
<path style="fill:#e4e4e4; stroke:none;" d="M332 76L333 77L332 76z"/>
<path style="fill:#b9b9b9; stroke:none;" d="M421 76L422 77L421 76M446 76L447 77L446 76z"/>
<path style="fill:#d0d0d0; stroke:none;" d="M331 77L332 78L331 77z"/>
<path style="fill:#e4e4e4; stroke:none;" d="M421 77L422 78L421 77M447 77L448 78L447 77M305 78L306 79L305 78z"/>
<path style="fill:#d0d0d0; stroke:none;" d="M422 78L423 79L422 78z"/>
<path style="fill:#b9b9b9; stroke:none;" d="M447 78L448 79L447 78z"/>
<path style="fill:#e4e4e4; stroke:none;" d="M330 79L331 80L330 79z"/>
<path style="fill:#b9b9b9; stroke:none;" d="M423 79L424 80L423 79z"/>
<path style="fill:#e4e4e4; stroke:none;" d="M304 80L305 81L304 80z"/>
<path style="fill:#d0d0d0; stroke:none;" d="M329 80L330 81L329 80M448 80L449 81L448 80M304 81L305 82L304 81z"/>
<path style="fill:#b9b9b9; stroke:none;" d="M328 81L329 82L328 81z"/>
<path style="fill:#d0d0d0; stroke:none;" d="M424 81L425 82L424 81z"/>
<path style="fill:#e4e4e4; stroke:none;" d="M328 82L329 83L328 82M449 82L450 83L449 82M303 83L304 84L303 83z"/>
<path style="fill:#b9b9b9; stroke:none;" d="M327 83L328 84L327 83z"/>
<path style="fill:#d0d0d0; stroke:none;" d="M425 83L426 84L425 83z"/>
<path style="fill:#b9b9b9; stroke:none;" d="M449 83L450 84L449 83M303 84L304 85L303 84z"/>
<path style="fill:#e4e4e4; stroke:none;" d="M327 84L328 85L327 84z"/>
<path style="fill:#b9b9b9; stroke:none;" d="M326 85L327 86L326 85z"/>
<path style="fill:#e4e4e4; stroke:none;" d="M426 85L427 86L426 85z"/>
<path style="fill:#d0d0d0; stroke:none;" d="M450 85L451 86L450 85M302 86L303 87L302 86z"/>
<path style="fill:#b9b9b9; stroke:none;" d="M427 86L428 87L427 86M450 86L451 87L450 86M302 87L303 88L302 87M325 87L326 88L325 87z"/>
<path style="fill:#d0d0d0; stroke:none;" d="M427 87L428 88L427 87M325 88L326 89L325 88z"/>
<path style="fill:#e4e4e4; stroke:none;" d="M451 88L452 89L451 88M301 89L302 90L301 89z"/>
<path style="fill:#b9b9b9; stroke:none;" d="M428 89L429 90L428 89M451.333 89.6667L451.667 90.3333L451.333 89.6667z"/>
<path style="fill:#d0d0d0; stroke:none;" d="M301 90L302 91L301 90z"/>
<path style="fill:#b9b9b9; stroke:none;" d="M324 90L325 91L324 90z"/>
<path style="fill:#e4e4e4; stroke:none;" d="M428 90L429 91L428 90z"/>
<path style="fill:#b9b9b9; stroke:none;" d="M301 91L302 92L301 91z"/>
<path style="fill:#e4e4e4; stroke:none;" d="M324 91L325 92L324 91z"/>
<path style="fill:#d0d0d0; stroke:none;" d="M429 92L430 93L429 92z"/>
<path style="fill:#e4e4e4; stroke:none;" d="M452 92L453 93L452 92z"/>
<path style="fill:#d0d0d0; stroke:none;" d="M323 93L324 94L323 93M452 93L453 94L452 93M300 94L301 95L300 94z"/>
<path style="fill:#e4e4e4; stroke:none;" d="M323 94L324 95L323 94z"/>
<path style="fill:#b9b9b9; stroke:none;" d="M452 94L453 95L452 94M300.333 95.6667L300.667 96.3333L300.333 95.6667M430 95L431 96L430 95M322 96L323 97L322 96z"/>
<path style="fill:#d0d0d0; stroke:none;" d="M430 96L431 97L430 96M322 97L323 98L322 97z"/>
<path style="fill:#e4e4e4; stroke:none;" d="M430 97L431 98L430 97M453 97L454 98L453 97M322 98L323 99L322 98z"/>
<path style="fill:#d0d0d0; stroke:none;" d="M453 98L454 99L453 98z"/>
<path style="fill:#e4e4e4; stroke:none;" d="M299 99L300 100L299 99z"/>
<path style="fill:#b9b9b9; stroke:none;" d="M431.333 99.6667L431.667 100.333L431.333 99.6667M453.333 99.6667L453.667 100.333L453.333 99.6667z"/>
<path style="fill:#d0d0d0; stroke:none;" d="M299.333 100.667L299.667 101.333L299.333 100.667z"/>
<path style="fill:#b9b9b9; stroke:none;" d="M321.333 101.667L321.667 102.333L321.333 101.667z"/>
<path style="fill:#d0d0d0; stroke:none;" d="M431 101L432 102L431 101z"/>
<path style="fill:#b9b9b9; stroke:none;" d="M299.333 102.667L299.667 103.333L299.333 102.667z"/>
<path style="fill:#e4e4e4; stroke:none;" d="M431 102L432 103L431 102z"/>
<path style="fill:#d0d0d0; stroke:none;" d="M321.333 103.667L321.667 104.333L321.333 103.667z"/>
<path style="fill:#e4e4e4; stroke:none;" d="M321 105L322 106L321 105M454 105L454 115L455 115L454 105z"/>
<path style="fill:#b9b9b9; stroke:none;" d="M432 106L432 113L433 113L432 106z"/>
<path style="fill:#e4e4e4; stroke:none;" d="M321.333 113.667L321.667 114.333L321.333 113.667z"/>
<path style="fill:#b9b9b9; stroke:none;" d="M299 115L299 118L300 118L299 115z"/>
<path style="fill:#d0d0d0; stroke:none;" d="M321.333 115.667L321.667 116.333L321.333 115.667z"/>
<path style="fill:#b9b9b9; stroke:none;" d="M321.333 117.667L321.667 118.333L321.333 117.667z"/>
<path style="fill:#e4e4e4; stroke:none;" d="M431 117L432 118L431 117z"/>
<path style="fill:#d0d0d0; stroke:none;" d="M299.333 118.667L299.667 119.333L299.333 118.667M431 118L432 119L431 118z"/>
<path style="fill:#b9b9b9; stroke:none;" d="M431.333 119.667L431.667 120.333L431.333 119.667M453.333 119.667L453.667 120.333L453.333 119.667z"/>
<path style="fill:#e4e4e4; stroke:none;" d="M299 120L300 121L299 120M322 121L323 122L322 121z"/>
<path style="fill:#d0d0d0; stroke:none;" d="M453 121L454 122L453 121M322 122L323 123L322 122z"/>
<path style="fill:#e4e4e4; stroke:none;" d="M430 122L431 123L430 122M453 122L454 123L453 122z"/>
<path style="fill:#b9b9b9; stroke:none;" d="M300 123L301 124L300 123M322 123L323 124L322 123z"/>
<path style="fill:#d0d0d0; stroke:none;" d="M430 123L431 124L430 123M300 124L301 125L300 124z"/>
<path style="fill:#b9b9b9; stroke:none;" d="M430 124L431 125L430 124z"/>
<path style="fill:#e4e4e4; stroke:none;" d="M300 125L301 126L300 125M323 125L324 126L323 125z"/>
<path style="fill:#b9b9b9; stroke:none;" d="M452 125L453 126L452 125z"/>
<path style="fill:#d0d0d0; stroke:none;" d="M323 126L324 127L323 126M452 126L453 127L452 126M429 127L430 128L429 127z"/>
<path style="fill:#e4e4e4; stroke:none;" d="M452 127L453 128L452 127M299 128L300 129L299 128z"/>
<path style="fill:#b9b9b9; stroke:none;" d="M300 128L301 129L300 128z"/>
<path style="fill:#e4e4e4; stroke:none;" d="M324 128L325 129L324 128M297 129L298 130L297 129z"/>
<path style="fill:#b9b9b9; stroke:none;" d="M298 129L299 130L298 129M324 129L325 130L324 129z"/>
<path style="fill:#e4e4e4; stroke:none;" d="M428 129L429 130L428 129z"/>
<path style="fill:#b9b9b9; stroke:none;" d="M451 129L452 130L451 129z"/>
<path style="fill:#d0d0d0; stroke:none;" d="M295 130L296 131L295 130z"/>
<path style="fill:#b9b9b9; stroke:none;" d="M296 130L297 131L296 130M428 130L429 131L428 130z"/>
<path style="fill:#d0d0d0; stroke:none;" d="M451 130L452 131L451 130z"/>
<path style="fill:#e4e4e4; stroke:none;" d="M292 131L293 132L292 131z"/>
<path style="fill:#b9b9b9; stroke:none;" d="M293 131L294 132L293 131z"/>
<path style="fill:#d0d0d0; stroke:none;" d="M325 131L326 132L325 131z"/>
<path style="fill:#e4e4e4; stroke:none;" d="M451 131L452 132L451 131M290 132L291 133L290 132z"/>
<path style="fill:#b9b9b9; stroke:none;" d="M291 132L292 133L291 132M325 132L326 133L325 132z"/>
<path style="fill:#d0d0d0; stroke:none;" d="M427 132L428 133L427 132z"/>
<path style="fill:#e4e4e4; stroke:none;" d="M287 133L288 134L287 133z"/>
<path style="fill:#d0d0d0; stroke:none;" d="M288 133L289 134L288 133z"/>
<path style="fill:#e4e4e4; stroke:none;" d="M326 133L327 134L326 133z"/>
<path style="fill:#b9b9b9; stroke:none;" d="M450 133L451 134L450 133z"/>
<path style="fill:#e4e4e4; stroke:none;" d="M285 134L286 135L285 134z"/>
<path style="fill:#b9b9b9; stroke:none;" d="M286 134L287 135L286 134M326 134L327 135L326 134z"/>
<path style="fill:#d0d0d0; stroke:none;" d="M426 134L427 135L426 134M450 134L451 135L450 134M283 135L284 136L283 135z"/>
<path style="fill:#e4e4e4; stroke:none;" d="M327 135L328 136L327 135M280 136L281 137L280 136z"/>
<path style="fill:#b9b9b9; stroke:none;" d="M281 136L282 137L281 136M327 136L328 137L327 136z"/>
<path style="fill:#d0d0d0; stroke:none;" d="M425 136L426 137L425 136z"/>
<path style="fill:#b9b9b9; stroke:none;" d="M449 136L450 137L449 136z"/>
<path style="fill:#d0d0d0; stroke:none;" d="M278 137L279 138L278 137z"/>
<path style="fill:#b9b9b9; stroke:none;" d="M279 137L280 138L279 137z"/>
<path style="fill:#d0d0d0; stroke:none;" d="M328 137L329 138L328 137z"/>
<path style="fill:#e4e4e4; stroke:none;" d="M449 137L450 138L449 137z"/>
<path style="fill:#d0d0d0; stroke:none;" d="M276 138L277 139L276 138z"/>
<path style="fill:#b9b9b9; stroke:none;" d="M328 138L329 139L328 138z"/>
<path style="fill:#d0d0d0; stroke:none;" d="M424 138L425 139L424 138z"/>
<path style="fill:#b9b9b9; stroke:none;" d="M448 138L449 139L448 138z"/>
<path style="fill:#e4e4e4; stroke:none;" d="M273 139L274 140L273 139z"/>
<path style="fill:#b9b9b9; stroke:none;" d="M274 139L275 140L274 139z"/>
<path style="fill:#d0d0d0; stroke:none;" d="M329 139L330 140L329 139z"/>
<path style="fill:#e4e4e4; stroke:none;" d="M423 139L424 140L423 139z"/>
<path style="fill:#d0d0d0; stroke:none;" d="M448 139L449 140L448 139M271 140L272 141L271 140z"/>
<path style="fill:#e4e4e4; stroke:none;" d="M330 140L331 141L330 140z"/>
<path style="fill:#b9b9b9; stroke:none;" d="M423 140L424 141L423 140M269 141L270 142L269 141z"/>
<path style="fill:#d0d0d0; stroke:none;" d="M422 141L423 142L422 141z"/>
<path style="fill:#b9b9b9; stroke:none;" d="M447 141L448 142L447 141z"/>
<path style="fill:#d0d0d0; stroke:none;" d="M266 142L267 143L266 142z"/>
<path style="fill:#b9b9b9; stroke:none;" d="M267 142L268 143L267 142z"/>
<path style="fill:#d0d0d0; stroke:none;" d="M331 142L332 143L331 142z"/>
<path style="fill:#e4e4e4; stroke:none;" d="M421 142L422 143L421 142z"/>
<path style="fill:#d0d0d0; stroke:none;" d="M264 143L265 144L264 143z"/>
<path style="fill:#e4e4e4; stroke:none;" d="M332 143L333 144L332 143z"/>
<path style="fill:#b9b9b9; stroke:none;" d="M446 143L447 144L446 143M262 144L263 145L262 144M420 144L421 145L420 144z"/>
<path style="fill:#d0d0d0; stroke:none;" d="M259 145L260 146L259 145z"/>
<path style="fill:#b9b9b9; stroke:none;" d="M260 145L261 146L260 145M333 145L334 146L333 145z"/>
<path style="fill:#d0d0d0; stroke:none;" d="M419 145L420 146L419 145z"/>
<path style="fill:#b9b9b9; stroke:none;" d="M445 145L446 146L445 145z"/>
<path style="fill:#e4e4e4; stroke:none;" d="M256 146L257 147L256 146z"/>
<path style="fill:#b9b9b9; stroke:none;" d="M257 146L258 147L257 146M334 146L335 147L334 146z"/>
<path style="fill:#d0d0d0; stroke:none;" d="M418 146L419 147L418 146z"/>
<path style="fill:#e4e4e4; stroke:none;" d="M445 146L446 147L445 146M254 147L255 148L254 147z"/>
<path style="fill:#b9b9b9; stroke:none;" d="M255 147L256 148L255 147z"/>
<path style="fill:#d0d0d0; stroke:none;" d="M335 147L336 148L335 147z"/>
<path style="fill:#e4e4e4; stroke:none;" d="M417 147L418 148L417 147z"/>
<path style="fill:#b9b9b9; stroke:none;" d="M444 147L445 148L444 147z"/>
<path style="fill:#d0d0d0; stroke:none;" d="M252 148L253 149L252 148z"/>
<path style="fill:#b9b9b9; stroke:none;" d="M253 148L254 149L253 148M309 148L310 149L309 148M336 148L337 149L336 148z"/>
<path style="fill:#e4e4e4; stroke:none;" d="M416 148L417 149L416 148M249 149L250 150L249 149z"/>
<path style="fill:#b9b9b9; stroke:none;" d="M250 149L251 150L250 149M306 149L307 150L306 149z"/>
<path style="fill:#e4e4e4; stroke:none;" d="M307 149L308 150L307 149z"/>
<path style="fill:#d0d0d0; stroke:none;" d="M337 149L338 150L337 149z"/>
<path style="fill:#e4e4e4; stroke:none;" d="M415 149L416 150L415 149z"/>
<path style="fill:#d0d0d0; stroke:none;" d="M443 149L444 150L443 149z"/>
<path style="fill:#e4e4e4; stroke:none;" d="M247 150L248 151L247 150z"/>
<path style="fill:#b9b9b9; stroke:none;" d="M248 150L249 151L248 150M304 150L305 151L304 150z"/>
<path style="fill:#e4e4e4; stroke:none;" d="M305 150L306 151L305 150z"/>
<path style="fill:#b9b9b9; stroke:none;" d="M310 150L311 151L310 150z"/>
<path style="fill:#d0d0d0; stroke:none;" d="M338 150L339 151L338 150z"/>
<path style="fill:#e4e4e4; stroke:none;" d="M414 150L415 151L414 150M244 151L245 152L244 151z"/>
<path style="fill:#b9b9b9; stroke:none;" d="M245 151L246 152L245 151z"/>
<path style="fill:#d0d0d0; stroke:none;" d="M302 151L303 152L302 151z"/>
<path style="fill:#b9b9b9; stroke:none;" d="M339 151L340 152L339 151z"/>
<path style="fill:#d0d0d0; stroke:none;" d="M413 151L414 152L413 151z"/>
<path style="fill:#e4e4e4; stroke:none;" d="M442 151L443 152L442 151z"/>
<path style="fill:#d0d0d0; stroke:none;" d="M242 152L243 153L242 152z"/>
<path style="fill:#b9b9b9; stroke:none;" d="M243 152L244 153L243 152M299 152L300 153L299 152z"/>
<path style="fill:#e4e4e4; stroke:none;" d="M300 152L301 153L300 152M311 152L312 153L311 152z"/>
<path style="fill:#b9b9b9; stroke:none;" d="M340 152L341 153L340 152z"/>
<path style="fill:#d0d0d0; stroke:none;" d="M412 152L413 153L412 152z"/>
<path style="fill:#b9b9b9; stroke:none;" d="M441 152L442 153L441 152z"/>
<path style="fill:#d0d0d0; stroke:none;" d="M240 153L241 154L240 153z"/>
<path style="fill:#b9b9b9; stroke:none;" d="M297 153L298 154L297 153M312 153L313 154L312 153M341 153L342 154L341 153z"/>
<path style="fill:#d0d0d0; stroke:none;" d="M411 153L412 154L411 153z"/>
<path style="fill:#e4e4e4; stroke:none;" d="M237 154L238 155L237 154z"/>
<path style="fill:#b9b9b9; stroke:none;" d="M238 154L239 155L238 154M294 154L295 155L294 154z"/>
<path style="fill:#d0d0d0; stroke:none;" d="M295 154L296 155L295 154z"/>
<path style="fill:#e4e4e4; stroke:none;" d="M343 154L344 155L343 154M409 154L410 155L409 154z"/>
<path style="fill:#b9b9b9; stroke:none;" d="M410 154L411 155L410 154z"/>
<path style="fill:#e4e4e4; stroke:none;" d="M440 154L441 155L440 154z"/>
<path style="fill:#d0d0d0; stroke:none;" d="M235 155L236 156L235 155z"/>
<path style="fill:#b9b9b9; stroke:none;" d="M292 155L293 156L292 155z"/>
<path style="fill:#e4e4e4; stroke:none;" d="M313 155L314 156L313 155z"/>
<path style="fill:#b9b9b9; stroke:none;" d="M344 155L345 156L344 155z"/>
<path style="fill:#e4e4e4; stroke:none;" d="M408 155L409 156L408 155z"/>
<path style="fill:#d0d0d0; stroke:none;" d="M439 155L440 156L439 155M233 156L234 157L233 156M290 156L291 157L290 156z"/>
<path style="fill:#b9b9b9; stroke:none;" d="M314 156L315 157L314 156z"/>
<path style="fill:#e4e4e4; stroke:none;" d="M346 156L347 157L346 156z"/>
<path style="fill:#b9b9b9; stroke:none;" d="M407 156L408 157L407 156z"/>
<path style="fill:#e4e4e4; stroke:none;" d="M230 157L231 158L230 157z"/>
<path style="fill:#b9b9b9; stroke:none;" d="M231 157L232 158L231 157M287 157L288 158L287 157z"/>
<path style="fill:#d0d0d0; stroke:none;" d="M288 157L289 158L288 157z"/>
<path style="fill:#b9b9b9; stroke:none;" d="M315 157L316 158L315 157z"/>
<path style="fill:#d0d0d0; stroke:none;" d="M347 157L348 158L347 157M405 157L406 158L405 157M228 158L229 159L228 158z"/>
<path style="fill:#b9b9b9; stroke:none;" d="M285 158L286 159L285 158M316 158L317 159L316 158z"/>
<path style="fill:#d0d0d0; stroke:none;" d="M349 158L350 159L349 158z"/>
<path style="fill:#e4e4e4; stroke:none;" d="M403 158L404 159L403 158M437 158L438 159L437 158z"/>
<path style="fill:#b9b9b9; stroke:none;" d="M226 159L227 160L226 159z"/>
<path style="fill:#d0d0d0; stroke:none;" d="M283 159L284 160L283 159z"/>
<path style="fill:#e4e4e4; stroke:none;" d="M316 159L317 160L316 159z"/>
<path style="fill:#b9b9b9; stroke:none;" d="M350 159L351 160L350 159z"/>
<path style="fill:#e4e4e4; stroke:none;" d="M351 159L352 160L351 159z"/>
<path style="fill:#b9b9b9; stroke:none;" d="M402 159L403 160L402 159z"/>
<path style="fill:#d0d0d0; stroke:none;" d="M436 159L437 160L436 159M223 160L224 161L223 160z"/>
<path style="fill:#b9b9b9; stroke:none;" d="M224 160L225 161L224 160M280 160L281 161L280 160z"/>
<path style="fill:#e4e4e4; stroke:none;" d="M281 160L282 161L281 160z"/>
<path style="fill:#d0d0d0; stroke:none;" d="M317 160L318 161L317 160z"/>
<path style="fill:#b9b9b9; stroke:none;" d="M352 160L353 161L352 160z"/>
<path style="fill:#d0d0d0; stroke:none;" d="M353 160L354 161L353 160z"/>
<path style="fill:#e4e4e4; stroke:none;" d="M399 160L400 161L399 160z"/>
<path style="fill:#b9b9b9; stroke:none;" d="M400 160L401 161L400 160M435 160L436 161L435 160M221 161L222 162L221 161z"/>
<path style="fill:#d0d0d0; stroke:none;" d="M278 161L279 162L278 161z"/>
<path style="fill:#e4e4e4; stroke:none;" d="M318 161L319 162L318 161z"/>
<path style="fill:#d0d0d0; stroke:none;" d="M355 161L356 162L355 161M397 161L398 162L397 161z"/>
<path style="fill:#b9b9b9; stroke:none;" d="M434 161L435 162L434 161z"/>
<path style="fill:#e4e4e4; stroke:none;" d="M218 162L219 163L218 162z"/>
<path style="fill:#b9b9b9; stroke:none;" d="M219 162L220 163L219 162z"/>
<path style="fill:#d0d0d0; stroke:none;" d="M276 162L277 163L276 162z"/>
<path style="fill:#b9b9b9; stroke:none;" d="M319 162L320 163L319 162M357 162L358 163L357 162z"/>
<path style="fill:#e4e4e4; stroke:none;" d="M358 162L359 163L358 162z"/>
<path style="fill:#d0d0d0; stroke:none;" d="M395 162L396 163L395 162M216 163L217 164L216 163z"/>
<path style="fill:#b9b9b9; stroke:none;" d="M217 163L218 164L217 163M273 163L274 164L273 163z"/>
<path style="fill:#e4e4e4; stroke:none;" d="M274 163L275 164L274 163z"/>
<path style="fill:#b9b9b9; stroke:none;" d="M320 163L321 164L320 163M360 163L361 164L360 163z"/>
<path style="fill:#d0d0d0; stroke:none;" d="M361 163L362 164L361 163z"/>
<path style="fill:#e4e4e4; stroke:none;" d="M391 163L392 164L391 163z"/>
<path style="fill:#b9b9b9; stroke:none;" d="M392.667 163.333L393.333 163.667L392.667 163.333z"/>
<path style="fill:#e4e4e4; stroke:none;" d="M119 164L119 165L122 165L119 164z"/>
<path style="fill:#d0d0d0; stroke:none;" d="M122.667 164.333L123.333 164.667L122.667 164.333z"/>
<path style="fill:#e4e4e4; stroke:none;" d="M124 164L124 165L128 165L124 164M213 164L214 165L213 164z"/>
<path style="fill:#b9b9b9; stroke:none;" d="M214 164L215 165L214 164z"/>
<path style="fill:#d0d0d0; stroke:none;" d="M271 164L272 165L271 164z"/>
<path style="fill:#b9b9b9; stroke:none;" d="M321 164L322 165L321 164M364 164L365 165L364 164z"/>
<path style="fill:#d0d0d0; stroke:none;" d="M365 164L366 165L365 164z"/>
<path style="fill:#e4e4e4; stroke:none;" d="M366 164L367 165L366 164M386 164L387 165L386 164z"/>
<path style="fill:#d0d0d0; stroke:none;" d="M387 164L388 165L387 164z"/>
<path style="fill:#b9b9b9; stroke:none;" d="M388 164L389 165L388 164z"/>
<path style="fill:#e4e4e4; stroke:none;" d="M110 165L111 166L110 165z"/>
<path style="fill:#d0d0d0; stroke:none;" d="M111.667 165.333L112.333 165.667L111.667 165.333z"/>
<path style="fill:#b9b9b9; stroke:none;" d="M113.667 165.333L114.333 165.667L113.667 165.333M132.667 165.333L133.333 165.667L132.667 165.333z"/>
<path style="fill:#d0d0d0; stroke:none;" d="M134 165L135 166L134 165z"/>
<path style="fill:#e4e4e4; stroke:none;" d="M135 165L136 166L135 165M211 165L212 166L211 165z"/>
<path style="fill:#b9b9b9; stroke:none;" d="M212 165L213 166L212 165M268 165L269 166L268 165z"/>
<path style="fill:#e4e4e4; stroke:none;" d="M269 165L270 166L269 165z"/>
<path style="fill:#b9b9b9; stroke:none;" d="M322 165L323 166L322 165M369.667 165.333L370.333 165.667L369.667 165.333z"/>
<path style="fill:#d0d0d0; stroke:none;" d="M371.667 165.333L372.333 165.667L371.667 165.333z"/>
<path style="fill:#e4e4e4; stroke:none;" d="M373 165L373 166L380 166L373 165z"/>
<path style="fill:#d0d0d0; stroke:none;" d="M380 165L380 166L383 166L380 165z"/>
<path style="fill:#b9b9b9; stroke:none;" d="M383.667 165.333L384.333 165.667L383.667 165.333z"/>
<path style="fill:#e4e4e4; stroke:none;" d="M105 166L106 167L105 166z"/>
<path style="fill:#d0d0d0; stroke:none;" d="M106 166L107 167L106 166z"/>
<path style="fill:#b9b9b9; stroke:none;" d="M107.667 166.333L108.333 166.667L107.667 166.333M138.667 166.333L139.333 166.667L138.667 166.333z"/>
<path style="fill:#d0d0d0; stroke:none;" d="M140 166L141 167L140 166z"/>
<path style="fill:#e4e4e4; stroke:none;" d="M141 166L142 167L141 166z"/>
<path style="fill:#d0d0d0; stroke:none;" d="M209 166L210 167L209 166M266 166L267 167L266 166z"/>
<path style="fill:#e4e4e4; stroke:none;" d="M267 166L268 167L267 166z"/>
<path style="fill:#b9b9b9; stroke:none;" d="M323 166L324 167L323 166z"/>
<path style="fill:#e4e4e4; stroke:none;" d="M101 167L102 168L101 167z"/>
<path style="fill:#d0d0d0; stroke:none;" d="M102 167L103 168L102 167z"/>
<path style="fill:#b9b9b9; stroke:none;" d="M143 167L144 168L143 167z"/>
<path style="fill:#d0d0d0; stroke:none;" d="M144 167L145 168L144 167z"/>
<path style="fill:#e4e4e4; stroke:none;" d="M206 167L207 168L206 167z"/>
<path style="fill:#b9b9b9; stroke:none;" d="M207 167L208 168L207 167M263 167L264 168L263 167z"/>
<path style="fill:#e4e4e4; stroke:none;" d="M264 167L265 168L264 167z"/>
<path style="fill:#d0d0d0; stroke:none;" d="M324 167L325 168L324 167z"/>
<path style="fill:#b9b9b9; stroke:none;" d="M428 167L429 168L428 167z"/>
<path style="fill:#e4e4e4; stroke:none;" d="M98 168L99 169L98 168z"/>
<path style="fill:#d0d0d0; stroke:none;" d="M99 168L100 169L99 168z"/>
<path style="fill:#b9b9b9; stroke:none;" d="M146 168L147 169L146 168z"/>
<path style="fill:#d0d0d0; stroke:none;" d="M147 168L148 169L147 168z"/>
<path style="fill:#e4e4e4; stroke:none;" d="M204 168L205 169L204 168z"/>
<path style="fill:#b9b9b9; stroke:none;" d="M205 168L206 169L205 168M261 168L262 169L261 168z"/>
<path style="fill:#e4e4e4; stroke:none;" d="M262 168L263 169L262 168z"/>
<path style="fill:#d0d0d0; stroke:none;" d="M325 168L326 169L325 168z"/>
<path style="fill:#b9b9b9; stroke:none;" d="M427 168L428 169L427 168z"/>
<path style="fill:#e4e4e4; stroke:none;" d="M95 169L96 170L95 169z"/>
<path style="fill:#d0d0d0; stroke:none;" d="M96 169L97 170L96 169z"/>
<path style="fill:#b9b9b9; stroke:none;" d="M149 169L150 170L149 169z"/>
<path style="fill:#d0d0d0; stroke:none;" d="M150 169L151 170L150 169z"/>
<path style="fill:#e4e4e4; stroke:none;" d="M201 169L202 170L201 169z"/>
<path style="fill:#b9b9b9; stroke:none;" d="M202 169L203 170L202 169z"/>
<path style="fill:#d0d0d0; stroke:none;" d="M259 169L260 170L259 169M326 169L327 170L326 169z"/>
<path style="fill:#b9b9b9; stroke:none;" d="M426 169L427 170L426 169z"/>
<path style="fill:#d0d0d0; stroke:none;" d="M93 170L94 171L93 170z"/>
<path style="fill:#b9b9b9; stroke:none;" d="M152 170L153 171L152 170z"/>
<path style="fill:#e4e4e4; stroke:none;" d="M153 170L154 171L153 170z"/>
<path style="fill:#d0d0d0; stroke:none;" d="M199 170L200 171L199 170z"/>
<path style="fill:#b9b9b9; stroke:none;" d="M256 170L257 171L256 170z"/>
<path style="fill:#e4e4e4; stroke:none;" d="M257 170L258 171L257 170z"/>
<path style="fill:#b9b9b9; stroke:none;" d="M328 170L329 171L328 170z"/>
<path style="fill:#e4e4e4; stroke:none;" d="M425 170L426 171L425 170z"/>
<path style="fill:#d0d0d0; stroke:none;" d="M91 171L92 172L91 171z"/>
<path style="fill:#b9b9b9; stroke:none;" d="M154 171L155 172L154 171z"/>
<path style="fill:#e4e4e4; stroke:none;" d="M155 171L156 172L155 171z"/>
<path style="fill:#d0d0d0; stroke:none;" d="M197 171L198 172L197 171z"/>
<path style="fill:#b9b9b9; stroke:none;" d="M254 171L255 172L254 171z"/>
<path style="fill:#e4e4e4; stroke:none;" d="M255 171L256 172L255 171z"/>
<path style="fill:#b9b9b9; stroke:none;" d="M329 171L330 172L329 171z"/>
<path style="fill:#e4e4e4; stroke:none;" d="M424 171L425 172L424 171z"/>
<path style="fill:#b9b9b9; stroke:none;" d="M89 172L90 173L89 172z"/>
<path style="fill:#d0d0d0; stroke:none;" d="M157 172L158 173L157 172z"/>
<path style="fill:#e4e4e4; stroke:none;" d="M194 172L195 173L194 172z"/>
<path style="fill:#b9b9b9; stroke:none;" d="M195 172L196 173L195 172M251 172L252 173L251 172z"/>
<path style="fill:#d0d0d0; stroke:none;" d="M252 172L253 173L252 172M330 172L331 173L330 172z"/>
<path style="fill:#b9b9b9; stroke:none;" d="M422 172L423 173L422 172M87 173L88 174L87 173z"/>
<path style="fill:#d0d0d0; stroke:none;" d="M159 173L160 174L159 173M192 173L193 174L192 173z"/>
<path style="fill:#b9b9b9; stroke:none;" d="M249 173L250 174L249 173z"/>
<path style="fill:#e4e4e4; stroke:none;" d="M331 173L332 174L331 173z"/>
<path style="fill:#d0d0d0; stroke:none;" d="M421 173L422 174L421 173M85 174L86 175L85 174z"/>
<path style="fill:#b9b9b9; stroke:none;" d="M160 174L161 175L160 174z"/>
<path style="fill:#e4e4e4; stroke:none;" d="M161 174L162 175L161 174z"/>
<path style="fill:#d0d0d0; stroke:none;" d="M190 174L191 175L190 174M247 174L248 175L247 174z"/>
<path style="fill:#b9b9b9; stroke:none;" d="M333 174L334 175L333 174z"/>
<path style="fill:#e4e4e4; stroke:none;" d="M420 174L421 175L420 174z"/>
<path style="fill:#d0d0d0; stroke:none;" d="M83 175L84 176L83 175z"/>
<path style="fill:#b9b9b9; stroke:none;" d="M84 175L85 176L84 175M162 175L163 176L162 175z"/>
<path style="fill:#e4e4e4; stroke:none;" d="M163 175L164 176L163 175M187 175L188 176L187 175z"/>
<path style="fill:#b9b9b9; stroke:none;" d="M188 175L189 176L188 175M244 175L245 176L244 175z"/>
<path style="fill:#e4e4e4; stroke:none;" d="M245 175L246 176L245 175M334 175L335 176L334 175z"/>
<path style="fill:#d0d0d0; stroke:none;" d="M418 175L419 176L418 175z"/>
<path style="fill:#b9b9b9; stroke:none;" d="M82 176L83 177L82 176z"/>
<path style="fill:#d0d0d0; stroke:none;" d="M164 176L165 177L164 176M185 176L186 177L185 176M242 176L243 177L242 176M336 176L337 177L336 176z"/>
<path style="fill:#b9b9b9; stroke:none;" d="M416 176L417 177L416 176z"/>
<path style="fill:#d0d0d0; stroke:none;" d="M80 177L81 178L80 177z"/>
<path style="fill:#e4e4e4; stroke:none;" d="M166 177L167 178L166 177M182 177L183 178L182 177z"/>
<path style="fill:#b9b9b9; stroke:none;" d="M183 177L184 178L183 177z"/>
<path style="fill:#d0d0d0; stroke:none;" d="M240 177L241 178L240 177z"/>
<path style="fill:#e4e4e4; stroke:none;" d="M337 177L338 178L337 177z"/>
<path style="fill:#b9b9b9; stroke:none;" d="M338 177L339 178L338 177z"/>
<path style="fill:#e4e4e4; stroke:none;" d="M415 177L416 178L415 177z"/>
<path style="fill:#b9b9b9; stroke:none;" d="M79 178L80 179L79 178z"/>
<path style="fill:#d0d0d0; stroke:none;" d="M167 178L168 179L167 178M180 178L181 179L180 178z"/>
<path style="fill:#b9b9b9; stroke:none;" d="M181 178L182 179L181 178M237 178L238 179L237 178z"/>
<path style="fill:#e4e4e4; stroke:none;" d="M238 178L239 179L238 178M339 178L340 179L339 178z"/>
<path style="fill:#b9b9b9; stroke:none;" d="M340 178L341 179L340 178z"/>
<path style="fill:#d0d0d0; stroke:none;" d="M413 178L414 179L413 178M77 179L78 180L77 179z"/>
<path style="fill:#e4e4e4; stroke:none;" d="M169 179L170 180L169 179z"/>
<path style="fill:#b9b9b9; stroke:none;" d="M178 179L179 180L178 179z"/>
<path style="fill:#d0d0d0; stroke:none;" d="M235 179L236 180L235 179z"/>
<path style="fill:#e4e4e4; stroke:none;" d="M341 179L342 180L341 179z"/>
<path style="fill:#b9b9b9; stroke:none;" d="M342 179L343 180L342 179z"/>
<path style="fill:#d0d0d0; stroke:none;" d="M411 179L412 180L411 179M76 180L77 181L76 180z"/>
<path style="fill:#e4e4e4; stroke:none;" d="M170 180L171 181L170 180M175 180L176 181L175 180z"/>
<path style="fill:#b9b9b9; stroke:none;" d="M176 180L177 181L176 180M232 180L233 181L232 180z"/>
<path style="fill:#d0d0d0; stroke:none;" d="M233 180L234 181L233 180z"/>
<path style="fill:#e4e4e4; stroke:none;" d="M343 180L344 181L343 180z"/>
<path style="fill:#d0d0d0; stroke:none;" d="M409 180L410 181L409 180z"/>
<path style="fill:#b9b9b9; stroke:none;" d="M75 181L76 182L75 181M171 181L172 182L171 181z"/>
<path style="fill:#e4e4e4; stroke:none;" d="M172 181L173 182L172 181z"/>
<path style="fill:#d0d0d0; stroke:none;" d="M173 181L174 182L173 181z"/>
<path style="fill:#b9b9b9; stroke:none;" d="M174 181L175 182L174 181z"/>
<path style="fill:#d0d0d0; stroke:none;" d="M230 181L231 182L230 181z"/>
<path style="fill:#e4e4e4; stroke:none;" d="M231 181L232 182L231 181M345 181L346 182L345 181z"/>
<path style="fill:#b9b9b9; stroke:none;" d="M346 181L347 182L346 181M406 181L407 182L406 181z"/>
<path style="fill:#d0d0d0; stroke:none;" d="M407 181L408 182L407 181z"/>
<path style="fill:#e4e4e4; stroke:none;" d="M73 182L74 183L73 182z"/>
<path style="fill:#b9b9b9; stroke:none;" d="M227 182L228 183L227 182z"/>
<path style="fill:#d0d0d0; stroke:none;" d="M228 182L229 183L228 182M348 182L349 183L348 182z"/>
<path style="fill:#b9b9b9; stroke:none;" d="M349 182L350 183L349 182z"/>
<path style="fill:#d0d0d0; stroke:none;" d="M404 182L405 183L404 182z"/>
<path style="fill:#e4e4e4; stroke:none;" d="M72 183L73 184L72 183z"/>
<path style="fill:#b9b9b9; stroke:none;" d="M225 183L226 184L225 183z"/>
<path style="fill:#e4e4e4; stroke:none;" d="M226 183L227 184L226 183M350 183L351 184L350 183z"/>
<path style="fill:#b9b9b9; stroke:none;" d="M351 183L352 184L351 183M401 183L402 184L401 183z"/>
<path style="fill:#d0d0d0; stroke:none;" d="M402 183L403 184L402 183M71 184L72 185L71 184M223 184L224 185L223 184z"/>
<path style="fill:#e4e4e4; stroke:none;" d="M353 184L354 185L353 184z"/>
<path style="fill:#d0d0d0; stroke:none;" d="M354 184L355 185L354 184z"/>
<path style="fill:#b9b9b9; stroke:none;" d="M355 184L356 185L355 184M397.667 184.333L398.333 184.667L397.667 184.333z"/>
<path style="fill:#d0d0d0; stroke:none;" d="M399 184L400 185L399 184z"/>
<path style="fill:#b9b9b9; stroke:none;" d="M70 185L71 186L70 185M220 185L221 186L220 185z"/>
<path style="fill:#e4e4e4; stroke:none;" d="M221 185L222 186L221 185M357 185L358 186L357 185z"/>
<path style="fill:#d0d0d0; stroke:none;" d="M358 185L359 186L358 185z"/>
<path style="fill:#b9b9b9; stroke:none;" d="M359 185L360 186L359 185M394 185L395 186L394 185z"/>
<path style="fill:#e4e4e4; stroke:none;" d="M395 185L396 186L395 185z"/>
<path style="fill:#d0d0d0; stroke:none;" d="M69 186L70 187L69 186z"/>
<path style="fill:#b9b9b9; stroke:none;" d="M121 186L121 187L125 187L121 186M218 186L219 187L218 186z"/>
<path style="fill:#e4e4e4; stroke:none;" d="M219 186L220 187L219 186M361 186L362 187L361 186z"/>
<path style="fill:#d0d0d0; stroke:none;" d="M362 186L363 187L362 186z"/>
<path style="fill:#b9b9b9; stroke:none;" d="M363 186L364 187L363 186M389 186L390 187L389 186z"/>
<path style="fill:#d0d0d0; stroke:none;" d="M390 186L391 187L390 186z"/>
<path style="fill:#e4e4e4; stroke:none;" d="M391 186L392 187L391 186z"/>
<path style="fill:#b9b9b9; stroke:none;" d="M68 187L69 188L68 187M112 187L113 188L112 187z"/>
<path style="fill:#d0d0d0; stroke:none;" d="M113.667 187.333L114.333 187.667L113.667 187.333z"/>
<path style="fill:#e4e4e4; stroke:none;" d="M115 187L116 188L115 187z"/>
<path style="fill:#010101; stroke:none;" d="M116 187.428C107.877 188.595 99.8511 191.145 93 195.749C46.0554 227.299 72.4831 305.203 130 297.711C138.065 296.66 146.092 293.812 153 289.532C202.287 259.002 173.393 179.188 116 187.428z"/>
<path style="fill:#e4e4e4; stroke:none;" d="M131 187L132 188L131 187z"/>
<path style="fill:#d0d0d0; stroke:none;" d="M132 187L133 188L132 187z"/>
<path style="fill:#b9b9b9; stroke:none;" d="M133.667 187.333L134.333 187.667L133.667 187.333M215 187L216 188L215 187z"/>
<path style="fill:#d0d0d0; stroke:none;" d="M216 187L217 188L216 187z"/>
<path style="fill:#e4e4e4; stroke:none;" d="M367.667 187.333L368.333 187.667L367.667 187.333z"/>
<path style="fill:#d0d0d0; stroke:none;" d="M369 187L369 188L372 188L369 187z"/>
<path style="fill:#b9b9b9; stroke:none;" d="M372 187L372 188L382 188L372 187z"/>
<path style="fill:#d0d0d0; stroke:none;" d="M382 187L382 188L385 188L382 187z"/>
<path style="fill:#e4e4e4; stroke:none;" d="M385 187L386 188L385 187z"/>
<path style="fill:#b9b9b9; stroke:none;" d="M67 188L68 189L67 188M108 188L109 189L108 188z"/>
<path style="fill:#d0d0d0; stroke:none;" d="M109 188L110 189L109 188M137 188L138 189L137 188z"/>
<path style="fill:#b9b9b9; stroke:none;" d="M138 188L139 189L138 188M213 188L214 189L213 188z"/>
<path style="fill:#e4e4e4; stroke:none;" d="M214 188L215 189L214 188z"/>
<path style="fill:#d0d0d0; stroke:none;" d="M66 189L67 190L66 189z"/>
<path style="fill:#b9b9b9; stroke:none;" d="M105 189L106 190L105 189z"/>
<path style="fill:#e4e4e4; stroke:none;" d="M106 189L107 190L106 189z"/>
<path style="fill:#d0d0d0; stroke:none;" d="M140 189L141 190L140 189z"/>
<path style="fill:#b9b9b9; stroke:none;" d="M141 189L142 190L141 189M211 189L212 190L211 189z"/>
<path style="fill:#d0d0d0; stroke:none;" d="M65 190L66 191L65 190z"/>
<path style="fill:#b9b9b9; stroke:none;" d="M102 190L103 191L102 190z"/>
<path style="fill:#d0d0d0; stroke:none;" d="M103 190L104 191L103 190M143 190L144 191L143 190z"/>
<path style="fill:#b9b9b9; stroke:none;" d="M144 190L145 191L144 190M208 190L209 191L208 190z"/>
<path style="fill:#d0d0d0; stroke:none;" d="M209 190L210 191L209 190M64 191L65 192L64 191z"/>
<path style="fill:#b9b9b9; stroke:none;" d="M100 191L101 192L100 191z"/>
<path style="fill:#e4e4e4; stroke:none;" d="M145 191L146 192L145 191z"/>
<path style="fill:#b9b9b9; stroke:none;" d="M146 191L147 192L146 191z"/>
<path style="fill:#d0d0d0; stroke:none;" d="M206 191L207 192L206 191z"/>
<path style="fill:#b9b9b9; stroke:none;" d="M98 192L99 193L98 192z"/>
<path style="fill:#e4e4e4; stroke:none;" d="M147 192L148 193L147 192z"/>
<path style="fill:#b9b9b9; stroke:none;" d="M148 192L149 193L148 192z"/>
<path style="fill:#d0d0d0; stroke:none;" d="M204 192L205 193L204 192z"/>
<path style="fill:#b9b9b9; stroke:none;" d="M96 193L97 194L96 193z"/>
<path style="fill:#e4e4e4; stroke:none;" d="M149 193L150 194L149 193z"/>
<path style="fill:#b9b9b9; stroke:none;" d="M150 193L151 194L150 193M201 193L202 194L201 193z"/>
<path style="fill:#e4e4e4; stroke:none;" d="M202 193L203 194L202 193z"/>
<path style="fill:#b9b9b9; stroke:none;" d="M94 194L95 195L94 194z"/>
<path style="fill:#e4e4e4; stroke:none;" d="M151 194L152 195L151 194z"/>
<path style="fill:#d0d0d0; stroke:none;" d="M199 194L200 195L199 194M61 195L62 196L61 195M93 195L94 196L93 195z"/>
<path style="fill:#b9b9b9; stroke:none;" d="M153 195L154 196L153 195z"/>
<path style="fill:#d0d0d0; stroke:none;" d="M197 195L198 196L197 195z"/>
<path style="fill:#e4e4e4; stroke:none;" d="M60 196L61 197L60 196z"/>
<path style="fill:#b9b9b9; stroke:none;" d="M91 196L92 197L91 196z"/>
<path style="fill:#e4e4e4; stroke:none;" d="M154 196L155 197L154 196z"/>
<path style="fill:#b9b9b9; stroke:none;" d="M194 196L195 197L194 196z"/>
<path style="fill:#e4e4e4; stroke:none;" d="M195 196L196 197L195 196z"/>
<path style="fill:#d0d0d0; stroke:none;" d="M90 197L91 198L90 197z"/>
<path style="fill:#b9b9b9; stroke:none;" d="M156 197L157 198L156 197z"/>
<path style="fill:#d0d0d0; stroke:none;" d="M192 197L193 198L192 197z"/>
<path style="fill:#b9b9b9; stroke:none;" d="M59 198L60 199L59 198z"/>
<path style="fill:#e4e4e4; stroke:none;" d="M89 198L90 199L89 198z"/>
<path style="fill:#d0d0d0; stroke:none;" d="M157 198L158 199L157 198z"/>
<path style="fill:#b9b9b9; stroke:none;" d="M189 198L190 199L189 198z"/>
<path style="fill:#e4e4e4; stroke:none;" d="M190 198L191 199L190 198z"/>
<path style="fill:#d0d0d0; stroke:none;" d="M58 199L59 200L58 199z"/>
<path style="fill:#b9b9b9; stroke:none;" d="M87 199L88 200L87 199z"/>
<path style="fill:#e4e4e4; stroke:none;" d="M158 199L159 200L158 199M188 199L189 200L188 199z"/>
<path style="fill:#b9b9b9; stroke:none;" d="M86 200L87 201L86 200M188 200L189 201L188 200M57 201L58 202L57 201M85 201L86 202L85 201z"/>
<path style="fill:#e4e4e4; stroke:none;" d="M189 201L190 202L189 201M56 202L57 203L56 202z"/>
<path style="fill:#b9b9b9; stroke:none;" d="M84 202L85 203L84 202M162 202L163 203L162 202z"/>
<path style="fill:#d0d0d0; stroke:none;" d="M83 203L84 204L83 203z"/>
<path style="fill:#b9b9b9; stroke:none;" d="M163 203L164 204L163 203z"/>
<path style="fill:#d0d0d0; stroke:none;" d="M190 203L191 204L190 203M55 204L56 205L55 204z"/>
<path style="fill:#b9b9b9; stroke:none;" d="M82 204L83 205L82 204M81 205L82 206L81 205z"/>
<path style="fill:#e4e4e4; stroke:none;" d="M164 205L165 206L164 205z"/>
<path style="fill:#b9b9b9; stroke:none;" d="M191 205L192 206L191 205z"/>
<path style="fill:#d0d0d0; stroke:none;" d="M54 206L55 207L54 206z"/>
<path style="fill:#b9b9b9; stroke:none;" d="M80 206L81 207L80 206z"/>
<path style="fill:#e4e4e4; stroke:none;" d="M192 206L193 207L192 206z"/>
<path style="fill:#d0d0d0; stroke:none;" d="M166 207L167 208L166 207z"/>
<path style="fill:#b9b9b9; stroke:none;" d="M192 207L193 208L192 207M53 208L54 209L53 208z"/>
<path style="fill:#e4e4e4; stroke:none;" d="M79 208L80 209L79 208z"/>
<path style="fill:#b9b9b9; stroke:none;" d="M167 208L168 209L167 208z"/>
<path style="fill:#e4e4e4; stroke:none;" d="M193 208L194 209L193 208z"/>
<path style="fill:#d0d0d0; stroke:none;" d="M78 209L79 210L78 209z"/>
<path style="fill:#b9b9b9; stroke:none;" d="M168 209L169 210L168 209M193 209L194 210L193 209z"/>
<path style="fill:#d0d0d0; stroke:none;" d="M52 210L53 211L52 210z"/>
<path style="fill:#b9b9b9; stroke:none;" d="M77 210L78 211L77 210M52 211L53 212L52 211z"/>
<path style="fill:#d0d0d0; stroke:none;" d="M169 211L170 212L169 211M194 211L195 212L194 211z"/>
<path style="fill:#e4e4e4; stroke:none;" d="M51 212L52 213L51 212z"/>
<path style="fill:#d0d0d0; stroke:none;" d="M76 212L77 213L76 212z"/>
<path style="fill:#b9b9b9; stroke:none;" d="M170 212L171 213L170 212M51 213L52 214L51 213z"/>
<path style="fill:#d0d0d0; stroke:none;" d="M195 213L196 214L195 213z"/>
<path style="fill:#e4e4e4; stroke:none;" d="M50 214L51 215L50 214M75 214L76 215L75 214z"/>
<path style="fill:#d0d0d0; stroke:none;" d="M171 214L172 215L171 214z"/>
<path style="fill:#b9b9b9; stroke:none;" d="M50 215L51 216L50 215M74 215L75 216L74 215z"/>
<path style="fill:#e4e4e4; stroke:none;" d="M196 215L197 216L196 215z"/>
<path style="fill:#d0d0d0; stroke:none;" d="M172 216L173 217L172 216M196 216L197 217L196 216z"/>
<path style="fill:#e4e4e4; stroke:none;" d="M49 217L50 218L49 217z"/>
<path style="fill:#b9b9b9; stroke:none;" d="M73 217L74 218L73 217M196 217L197 218L196 217z"/>
<path style="fill:#d0d0d0; stroke:none;" d="M49 218L50 219L49 218M173 218L174 219L173 218z"/>
<path style="fill:#b9b9b9; stroke:none;" d="M49 219L50 220L49 219M72 219L73 220L72 219z"/>
<path style="fill:#d0d0d0; stroke:none;" d="M197 219L198 220L197 219z"/>
<path style="fill:#e4e4e4; stroke:none;" d="M72 220L73 221L72 220z"/>
<path style="fill:#d0d0d0; stroke:none;" d="M174 220L175 221L174 220z"/>
<path style="fill:#b9b9b9; stroke:none;" d="M197 220L198 221L197 220z"/>
<path style="fill:#d0d0d0; stroke:none;" d="M48 221L49 222L48 221z"/>
<path style="fill:#b9b9b9; stroke:none;" d="M71 221L72 222L71 221M48 222L49 223L48 222z"/>
<path style="fill:#d0d0d0; stroke:none;" d="M71 222L72 223L71 222z"/>
<path style="fill:#b9b9b9; stroke:none;" d="M175 222L176 223L175 222z"/>
<path style="fill:#d0d0d0; stroke:none;" d="M198 222L199 223L198 222M175 223L176 224L175 223z"/>
<path style="fill:#b9b9b9; stroke:none;" d="M198 223L199 224L198 223z"/>
<path style="fill:#e4e4e4; stroke:none;" d="M47 224L48 225L47 224z"/>
<path style="fill:#b9b9b9; stroke:none;" d="M70 224L71 225L70 224z"/>
<path style="fill:#d0d0d0; stroke:none;" d="M47 225L48 226L47 225M70 225L71 226L70 225z"/>
<path style="fill:#b9b9b9; stroke:none;" d="M176 225L177 226L176 225M47 226L48 227L47 226z"/>
<path style="fill:#d0d0d0; stroke:none;" d="M176 226L177 227L176 226M199.333 226.667L199.667 227.333L199.333 226.667z"/>
<path style="fill:#b9b9b9; stroke:none;" d="M69 228L70 229L69 228M177 228L178 229L177 228M199.333 228.667L199.667 229.333L199.333 228.667z"/>
<path style="fill:#e4e4e4; stroke:none;" d="M46 229L47 230L46 229M69 229L70 230L69 229z"/>
<path style="fill:#d0d0d0; stroke:none;" d="M177 229L178 230L177 229M46.3333 230.667L46.6667 231.333L46.3333 230.667z"/>
<path style="fill:#e4e4e4; stroke:none;" d="M177 230L178 231L177 230z"/>
<path style="fill:#b9b9b9; stroke:none;" d="M68.3333 231.667L68.6667 232.333L68.3333 231.667M46 232L46 235L47 235L46 232z"/>
<path style="fill:#e4e4e4; stroke:none;" d="M200 232L201 233L200 232z"/>
<path style="fill:#d0d0d0; stroke:none;" d="M68 233L69 234L68 233z"/>
<path style="fill:#b9b9b9; stroke:none;" d="M178.333 233.667L178.667 234.333L178.333 233.667z"/>
<path style="fill:#d0d0d0; stroke:none;" d="M200.333 233.667L200.667 234.333L200.333 233.667z"/>
<path style="fill:#e4e4e4; stroke:none;" d="M68 234L69 235L68 234z"/>
<path style="fill:#d0d0d0; stroke:none;" d="M178.333 235.667L178.667 236.333L178.333 235.667z"/>
<path style="fill:#b9b9b9; stroke:none;" d="M200 235L200 238L201 238L200 235z"/>
<path style="fill:#e4e4e4; stroke:none;" d="M178.333 237.667L178.667 238.333L178.333 237.667z"/>
<path style="fill:#b9b9b9; stroke:none;" d="M67 238L67 247L68 247L67 238z"/>
<path style="fill:#e4e4e4; stroke:none;" d="M178.333 246.667L178.667 247.333L178.333 246.667z"/>
<path style="fill:#b9b9b9; stroke:none;" d="M200 247L200 250L201 250L200 247z"/>
<path style="fill:#d0d0d0; stroke:none;" d="M178.333 248.667L178.667 249.333L178.333 248.667z"/>
<path style="fill:#b9b9b9; stroke:none;" d="M46 250L46 253L47 253L46 250z"/>
<path style="fill:#e4e4e4; stroke:none;" d="M68 250L69 251L68 250z"/>
<path style="fill:#b9b9b9; stroke:none;" d="M178.333 250.667L178.667 251.333L178.333 250.667z"/>
<path style="fill:#d0d0d0; stroke:none;" d="M200.333 250.667L200.667 251.333L200.333 250.667M68 251L69 252L68 251z"/>
<path style="fill:#b9b9b9; stroke:none;" d="M68.3333 252.667L68.6667 253.333L68.3333 252.667z"/>
<path style="fill:#e4e4e4; stroke:none;" d="M200 252L201 253L200 252z"/>
<path style="fill:#d0d0d0; stroke:none;" d="M46.3333 253.667L46.6667 254.333L46.3333 253.667z"/>
<path style="fill:#e4e4e4; stroke:none;" d="M177 254L178 255L177 254M46 255L47 256L46 255M69 255L70 256L69 255z"/>
<path style="fill:#d0d0d0; stroke:none;" d="M177 255L178 256L177 255z"/>
<path style="fill:#b9b9b9; stroke:none;" d="M199.333 255.667L199.667 256.333L199.333 255.667M69 256L70 257L69 256z"/>
<path style="fill:#d0d0d0; stroke:none;" d="M199 257L200 258L199 257z"/>
<path style="fill:#b9b9b9; stroke:none;" d="M47 258L48 259L47 258z"/>
<path style="fill:#d0d0d0; stroke:none;" d="M176 258L177 259L176 258z"/>
<path style="fill:#e4e4e4; stroke:none;" d="M199 258L200 259L199 258z"/>
<path style="fill:#d0d0d0; stroke:none;" d="M47 259L48 260L47 259M70 259L71 260L70 259z"/>
<path style="fill:#b9b9b9; stroke:none;" d="M176 259L177 260L176 259M70 260L71 261L70 260z"/>
<path style="fill:#d0d0d0; stroke:none;" d="M175 261L176 262L175 261z"/>
<path style="fill:#b9b9b9; stroke:none;" d="M198 261L199 262L198 261M48 262L49 263L48 262z"/>
<path style="fill:#d0d0d0; stroke:none;" d="M71 262L72 263L71 262z"/>
<path style="fill:#b9b9b9; stroke:none;" d="M175 262L176 263L175 262z"/>
<path style="fill:#d0d0d0; stroke:none;" d="M198 262L199 263L198 262z"/>
<path style="fill:#e4e4e4; stroke:none;" d="M48 263L49 264L48 263M72 264L73 265L72 264z"/>
<path style="fill:#d0d0d0; stroke:none;" d="M174 264L175 265L174 264z"/>
<path style="fill:#b9b9b9; stroke:none;" d="M197 264L198 265L197 264M49 265L50 266L49 265M72 265L73 266L72 265z"/>
<path style="fill:#d0d0d0; stroke:none;" d="M197 265L198 266L197 265M49 266L50 267L49 266z"/>
<path style="fill:#e4e4e4; stroke:none;" d="M73 266L74 267L73 266z"/>
<path style="fill:#b9b9b9; stroke:none;" d="M173 266L174 267L173 266z"/>
<path style="fill:#e4e4e4; stroke:none;" d="M49 267L50 268L49 267z"/>
<path style="fill:#b9b9b9; stroke:none;" d="M73 267L74 268L73 267M196 267L197 268L196 267z"/>
<path style="fill:#e4e4e4; stroke:none;" d="M74 268L75 269L74 268z"/>
<path style="fill:#d0d0d0; stroke:none;" d="M172 268L173 269L172 268M196 268L197 269L196 268M50 269L51 270L50 269z"/>
<path style="fill:#b9b9b9; stroke:none;" d="M74 269L75 270L74 269z"/>
<path style="fill:#e4e4e4; stroke:none;" d="M75 270L76 271L75 270z"/>
<path style="fill:#d0d0d0; stroke:none;" d="M171 270L172 271L171 270z"/>
<path style="fill:#b9b9b9; stroke:none;" d="M51 271L52 272L51 271z"/>
<path style="fill:#e4e4e4; stroke:none;" d="M170 271L171 272L170 271z"/>
<path style="fill:#d0d0d0; stroke:none;" d="M195 271L196 272L195 271z"/>
<path style="fill:#e4e4e4; stroke:none;" d="M51 272L52 273L51 272z"/>
<path style="fill:#d0d0d0; stroke:none;" d="M76 272L77 273L76 272z"/>
<path style="fill:#b9b9b9; stroke:none;" d="M52 273L53 274L52 273z"/>
<path style="fill:#d0d0d0; stroke:none;" d="M169 273L170 274L169 273M194 273L195 274L194 273M52 274L53 275L52 274z"/>
<path style="fill:#b9b9b9; stroke:none;" d="M77 274L78 275L77 274M78 275L79 276L78 275M193 275L194 276L193 275z"/>
<path style="fill:#d0d0d0; stroke:none;" d="M53 276L54 277L53 276z"/>
<path style="fill:#e4e4e4; stroke:none;" d="M79 276L80 277L79 276z"/>
<path style="fill:#b9b9b9; stroke:none;" d="M167 276L168 277L167 276z"/>
<path style="fill:#d0d0d0; stroke:none;" d="M166 277L167 278L166 277z"/>
<path style="fill:#b9b9b9; stroke:none;" d="M192 277L193 278L192 277z"/>
<path style="fill:#d0d0d0; stroke:none;" d="M54 278L55 279L54 278z"/>
<path style="fill:#e4e4e4; stroke:none;" d="M165 278L166 279L165 278z"/>
<path style="fill:#b9b9b9; stroke:none;" d="M81 279L82 280L81 279M191 279L192 280L191 279z"/>
<path style="fill:#d0d0d0; stroke:none;" d="M55 280L56 281L55 280z"/>
<path style="fill:#b9b9b9; stroke:none;" d="M82 280L83 281L82 280z"/>
<path style="fill:#e4e4e4; stroke:none;" d="M163 280L164 281L163 280z"/>
<path style="fill:#b9b9b9; stroke:none;" d="M83 281L84 282L83 281z"/>
<path style="fill:#d0d0d0; stroke:none;" d="M190 281L191 282L190 281z"/>
<path style="fill:#e4e4e4; stroke:none;" d="M56 282L57 283L56 282z"/>
<path style="fill:#b9b9b9; stroke:none;" d="M84 282L85 283L84 282M162 282L163 283L162 282M57 283L58 284L57 283M85 283L86 284L85 283z"/>
<path style="fill:#e4e4e4; stroke:none;" d="M160 283L161 284L160 283M189 283L190 284L189 283z"/>
<path style="fill:#b9b9b9; stroke:none;" d="M86 284L87 285L86 284z"/>
<path style="fill:#e4e4e4; stroke:none;" d="M159 284L160 285L159 284z"/>
<path style="fill:#b9b9b9; stroke:none;" d="M188 284L189 285L188 284z"/>
<path style="fill:#d0d0d0; stroke:none;" d="M58 285L59 286L58 285z"/>
<path style="fill:#e4e4e4; stroke:none;" d="M158 285L159 286L158 285M188 285L189 286L188 285z"/>
<path style="fill:#b9b9b9; stroke:none;" d="M59 286L60 287L59 286z"/>
<path style="fill:#e4e4e4; stroke:none;" d="M89 286L90 287L89 286z"/>
<path style="fill:#d0d0d0; stroke:none;" d="M157 286L158 287L157 286z"/>
<path style="fill:#b9b9b9; stroke:none;" d="M189 286L190 287L189 286M90 287L91 288L90 287M156 287L157 288L156 287z"/>
<path style="fill:#d0d0d0; stroke:none;" d="M191 287L192 288L191 287z"/>
<path style="fill:#b9b9b9; stroke:none;" d="M91 288L92 289L91 288z"/>
<path style="fill:#e4e4e4; stroke:none;" d="M154 288L155 289L154 288z"/>
<path style="fill:#d0d0d0; stroke:none;" d="M193 288L194 289L193 288M61 289L62 290L61 289M93 289L94 290L93 289z"/>
<path style="fill:#b9b9b9; stroke:none;" d="M153 289L154 290L153 289M194 289L195 290L194 289z"/>
<path style="fill:#d0d0d0; stroke:none;" d="M195 289L196 290L195 289z"/>
<path style="fill:#b9b9b9; stroke:none;" d="M62 290L63 291L62 290z"/>
<path style="fill:#e4e4e4; stroke:none;" d="M95 290L96 291L95 290z"/>
<path style="fill:#d0d0d0; stroke:none;" d="M151 290L152 291L151 290z"/>
<path style="fill:#e4e4e4; stroke:none;" d="M197 290L198 291L197 290z"/>
<path style="fill:#b9b9b9; stroke:none;" d="M96 291L97 292L96 291z"/>
<path style="fill:#e4e4e4; stroke:none;" d="M149 291L150 292L149 291z"/>
<path style="fill:#b9b9b9; stroke:none;" d="M150 291L151 292L150 291M198 291L199 292L198 291M98 292L99 293L98 292z"/>
<path style="fill:#e4e4e4; stroke:none;" d="M99 292L100 293L99 292M147 292L148 293L147 292z"/>
<path style="fill:#b9b9b9; stroke:none;" d="M148 292L149 293L148 292M200 292L201 293L200 292z"/>
<path style="fill:#e4e4e4; stroke:none;" d="M201 292L202 293L201 292M64 293L65 294L64 293z"/>
<path style="fill:#b9b9b9; stroke:none;" d="M100 293L101 294L100 293z"/>
<path style="fill:#e4e4e4; stroke:none;" d="M101 293L102 294L101 293z"/>
<path style="fill:#d0d0d0; stroke:none;" d="M145 293L146 294L145 293z"/>
<path style="fill:#b9b9b9; stroke:none;" d="M202 293L203 294L202 293z"/>
<path style="fill:#d0d0d0; stroke:none;" d="M65 294L66 295L65 294M103 294L104 295L103 294M143 294L144 295L143 294M204 294L205 295L204 294M66 295L67 296L66 295z"/>
<path style="fill:#b9b9b9; stroke:none;" d="M105 295L106 296L105 295z"/>
<path style="fill:#d0d0d0; stroke:none;" d="M106 295L107 296L106 295z"/>
<path style="fill:#e4e4e4; stroke:none;" d="M139 295L140 296L139 295z"/>
<path style="fill:#d0d0d0; stroke:none;" d="M140 295L141 296L140 295z"/>
<path style="fill:#b9b9b9; stroke:none;" d="M141 295L142 296L141 295z"/>
<path style="fill:#d0d0d0; stroke:none;" d="M206 295L207 296L206 295M67 296L68 297L67 296z"/>
<path style="fill:#b9b9b9; stroke:none;" d="M109 296L110 297L109 296z"/>
<path style="fill:#e4e4e4; stroke:none;" d="M110 296L111 297L110 296z"/>
<path style="fill:#d0d0d0; stroke:none;" d="M136 296L137 297L136 296z"/>
<path style="fill:#b9b9b9; stroke:none;" d="M137 296L138 297L137 296z"/>
<path style="fill:#d0d0d0; stroke:none;" d="M208 296L209 297L208 296z"/>
<path style="fill:#b9b9b9; stroke:none;" d="M68 297L69 298L68 297M113 297L114 298L113 297z"/>
<path style="fill:#d0d0d0; stroke:none;" d="M114 297L115 298L114 297z"/>
<path style="fill:#e4e4e4; stroke:none;" d="M115 297L116 298L115 297M131 297L132 298L131 297z"/>
<path style="fill:#d0d0d0; stroke:none;" d="M132 297L133 298L132 297z"/>
<path style="fill:#b9b9b9; stroke:none;" d="M133 297L134 298L133 297M209 297L210 298L209 297z"/>
<path style="fill:#e4e4e4; stroke:none;" d="M210 297L211 298L210 297z"/>
<path style="fill:#d0d0d0; stroke:none;" d="M69 298L70 299L69 298z"/>
<path style="fill:#b9b9b9; stroke:none;" d="M120 298L120 299L127 299L120 298M211 298L212 299L211 298z"/>
<path style="fill:#d0d0d0; stroke:none;" d="M70 299L71 300L70 299z"/>
<path style="fill:#b9b9b9; stroke:none;" d="M213 299L214 300L213 299z"/>
<path style="fill:#d0d0d0; stroke:none;" d="M71 300L72 301L71 300M215 300L216 301L215 300z"/>
<path style="fill:#e4e4e4; stroke:none;" d="M72 301L73 302L72 301z"/>
<path style="fill:#d0d0d0; stroke:none;" d="M217 301L218 302L217 301z"/>
<path style="fill:#b9b9b9; stroke:none;" d="M172.667 302.333L173.333 302.667L172.667 302.333z"/>
<path style="fill:#d0d0d0; stroke:none;" d="M219 302L220 303L219 302z"/>
<path style="fill:#b9b9b9; stroke:none;" d="M75 303L76 304L75 303z"/>
<path style="fill:#d0d0d0; stroke:none;" d="M171 303L172 304L171 303z"/>
<path style="fill:#e4e4e4; stroke:none;" d="M174 303L175 304L174 303z"/>
<path style="fill:#b9b9b9; stroke:none;" d="M220 303L221 304L220 303z"/>
<path style="fill:#d0d0d0; stroke:none;" d="M76 304L77 305L76 304z"/>
<path style="fill:#e4e4e4; stroke:none;" d="M170 304L171 305L170 304z"/>
<path style="fill:#d0d0d0; stroke:none;" d="M176 304L177 305L176 304z"/>
<path style="fill:#b9b9b9; stroke:none;" d="M222 304L223 305L222 304z"/>
<path style="fill:#e4e4e4; stroke:none;" d="M223 304L224 305L223 304z"/>
<path style="fill:#b9b9b9; stroke:none;" d="M168 305L169 306L168 305z"/>
<path style="fill:#d0d0d0; stroke:none;" d="M178 305L179 306L178 305z"/>
<path style="fill:#b9b9b9; stroke:none;" d="M224 305L225 306L224 305M79 306L80 307L79 306z"/>
<path style="fill:#d0d0d0; stroke:none;" d="M167 306L168 307L167 306z"/>
<path style="fill:#b9b9b9; stroke:none;" d="M180 306L181 307L180 306z"/>
<path style="fill:#d0d0d0; stroke:none;" d="M226 306L227 307L226 306M80 307L81 308L80 307z"/>
<path style="fill:#b9b9b9; stroke:none;" d="M165 307L166 308L165 307M182 307L183 308L182 307z"/>
<path style="fill:#d0d0d0; stroke:none;" d="M228 307L229 308L228 307z"/>
<path style="fill:#b9b9b9; stroke:none;" d="M82 308L83 309L82 308z"/>
<path style="fill:#e4e4e4; stroke:none;" d="M164 308L165 309L164 308z"/>
<path style="fill:#b9b9b9; stroke:none;" d="M184 308L185 309L184 308z"/>
<path style="fill:#d0d0d0; stroke:none;" d="M230 308L231 309L230 308z"/>
<path style="fill:#e4e4e4; stroke:none;" d="M83 309L84 310L83 309z"/>
<path style="fill:#b9b9b9; stroke:none;" d="M162 309L163 310L162 309z"/>
<path style="fill:#e4e4e4; stroke:none;" d="M185 309L186 310L185 309M232 309L233 310L232 309z"/>
<path style="fill:#d0d0d0; stroke:none;" d="M85 310L86 311L85 310z"/>
<path style="fill:#b9b9b9; stroke:none;" d="M160 310L161 311L160 310z"/>
<path style="fill:#e4e4e4; stroke:none;" d="M161 310L162 311L161 310z"/>
<path style="fill:#d0d0d0; stroke:none;" d="M187 310L188 311L187 310z"/>
<path style="fill:#b9b9b9; stroke:none;" d="M233 310L234 311L233 310z"/>
<path style="fill:#e4e4e4; stroke:none;" d="M234 310L235 311L234 310z"/>
<path style="fill:#d0d0d0; stroke:none;" d="M87 311L88 312L87 311z"/>
<path style="fill:#b9b9b9; stroke:none;" d="M158 311L159 312L158 311z"/>
<path style="fill:#e4e4e4; stroke:none;" d="M159 311L160 312L159 311z"/>
<path style="fill:#d0d0d0; stroke:none;" d="M189 311L190 312L189 311z"/>
<path style="fill:#b9b9b9; stroke:none;" d="M235 311L236 312L235 311M89 312L90 313L89 312z"/>
<path style="fill:#d0d0d0; stroke:none;" d="M157 312L158 313L157 312z"/>
<path style="fill:#b9b9b9; stroke:none;" d="M191 312L192 313L191 312M237 312L238 313L237 312z"/>
<path style="fill:#e4e4e4; stroke:none;" d="M362.667 312.333L363.333 312.667L362.667 312.333z"/>
<path style="fill:#d0d0d0; stroke:none;" d="M364.667 312.333L365.333 312.667L364.667 312.333z"/>
<path style="fill:#b9b9b9; stroke:none;" d="M366 312L366 313L376 313L366 312z"/>
<path style="fill:#d0d0d0; stroke:none;" d="M376 312L376 313L379 313L376 312z"/>
<path style="fill:#e4e4e4; stroke:none;" d="M379 312L380 313L379 312z"/>
<path style="fill:#d0d0d0; stroke:none;" d="M91 313L92 314L91 313z"/>
<path style="fill:#b9b9b9; stroke:none;" d="M92 313L93 314L92 313M154 313L155 314L154 313z"/>
<path style="fill:#e4e4e4; stroke:none;" d="M155 313L156 314L155 313z"/>
<path style="fill:#b9b9b9; stroke:none;" d="M193 313L194 314L193 313z"/>
<path style="fill:#d0d0d0; stroke:none;" d="M239 313L240 314L239 313z"/>
<path style="fill:#e4e4e4; stroke:none;" d="M355 313L356 314L355 313z"/>
<path style="fill:#d0d0d0; stroke:none;" d="M356.667 313.333L357.333 313.667L356.667 313.333z"/>
<path style="fill:#b9b9b9; stroke:none;" d="M358.667 313.333L359.333 313.667L358.667 313.333M383.667 313.333L384.333 313.667L383.667 313.333z"/>
<path style="fill:#d0d0d0; stroke:none;" d="M385 313L386 314L385 313z"/>
<path style="fill:#e4e4e4; stroke:none;" d="M386 313L387 314L386 313z"/>
<path style="fill:#b9b9b9; stroke:none;" d="M94 314L95 315L94 314z"/>
<path style="fill:#d0d0d0; stroke:none;" d="M152 314L153 315L152 314z"/>
<path style="fill:#b9b9b9; stroke:none;" d="M195 314L196 315L195 314z"/>
<path style="fill:#d0d0d0; stroke:none;" d="M241 314L242 315L241 314z"/>
<path style="fill:#e4e4e4; stroke:none;" d="M351 314L352 315L351 314z"/>
<path style="fill:#d0d0d0; stroke:none;" d="M352 314L353 315L352 314z"/>
<path style="fill:#b9b9b9; stroke:none;" d="M353 314L354 315L353 314M389 314L390 315L389 314z"/>
<path style="fill:#d0d0d0; stroke:none;" d="M390 314L391 315L390 314M96 315L97 316L96 315z"/>
<path style="fill:#b9b9b9; stroke:none;" d="M149 315L150 316L149 315z"/>
<path style="fill:#d0d0d0; stroke:none;" d="M150 315L151 316L150 315z"/>
<path style="fill:#e4e4e4; stroke:none;" d="M196 315L197 316L196 315z"/>
<path style="fill:#d0d0d0; stroke:none;" d="M243 315L244 316L243 315z"/>
<path style="fill:#e4e4e4; stroke:none;" d="M348 315L349 316L348 315z"/>
<path style="fill:#b9b9b9; stroke:none;" d="M349 315L350 316L349 315M392 315L393 316L392 315z"/>
<path style="fill:#d0d0d0; stroke:none;" d="M393 315L394 316L393 315z"/>
<path style="fill:#e4e4e4; stroke:none;" d="M98 316L99 317L98 316z"/>
<path style="fill:#d0d0d0; stroke:none;" d="M99 316L100 317L99 316z"/>
<path style="fill:#b9b9b9; stroke:none;" d="M100 316L101 317L100 316M146 316L147 317L146 316z"/>
<path style="fill:#d0d0d0; stroke:none;" d="M147 316L148 317L147 316z"/>
<path style="fill:#e4e4e4; stroke:none;" d="M198 316L199 317L198 316z"/>
<path style="fill:#b9b9b9; stroke:none;" d="M199 316L200 317L199 316M244 316L245 317L244 316z"/>
<path style="fill:#e4e4e4; stroke:none;" d="M245 316L246 317L245 316z"/>
<path style="fill:#d0d0d0; stroke:none;" d="M345 316L346 317L345 316z"/>
<path style="fill:#b9b9b9; stroke:none;" d="M346 316L347 317L346 316M395 316L396 317L395 316z"/>
<path style="fill:#d0d0d0; stroke:none;" d="M396 316L397 317L396 316z"/>
<path style="fill:#e4e4e4; stroke:none;" d="M397 316L398 317L397 316M102 317L103 318L102 317z"/>
<path style="fill:#b9b9b9; stroke:none;" d="M103 317L104 318L103 317z"/>
<path style="fill:#d0d0d0; stroke:none;" d="M143 317L144 318L143 317z"/>
<path style="fill:#e4e4e4; stroke:none;" d="M144 317L145 318L144 317z"/>
<path style="fill:#d0d0d0; stroke:none;" d="M200 317L201 318L200 317z"/>
<path style="fill:#e4e4e4; stroke:none;" d="M247 317L248 318L247 317M342 317L343 318L342 317z"/>
<path style="fill:#b9b9b9; stroke:none;" d="M343 317L344 318L343 317z"/>
<path style="fill:#d0d0d0; stroke:none;" d="M399 317L400 318L399 317M106 318L107 319L106 318z"/>
<path style="fill:#b9b9b9; stroke:none;" d="M107 318L108 319L107 318M139 318L140 319L139 318z"/>
<path style="fill:#e4e4e4; stroke:none;" d="M140 318L141 319L140 318z"/>
<path style="fill:#d0d0d0; stroke:none;" d="M202 318L203 319L202 318z"/>
<path style="fill:#b9b9b9; stroke:none;" d="M248 318L249 319L248 318z"/>
<path style="fill:#e4e4e4; stroke:none;" d="M340 318L341 319L340 318z"/>
<path style="fill:#b9b9b9; stroke:none;" d="M401 318L402 319L401 318z"/>
<path style="fill:#e4e4e4; stroke:none;" d="M110 319L111 320L110 319z"/>
<path style="fill:#d0d0d0; stroke:none;" d="M111.667 319.333L112.333 319.667L111.667 319.333z"/>
<path style="fill:#b9b9b9; stroke:none;" d="M113 319L113 320L116 320L113 319M131.667 319.333L132.333 319.667L131.667 319.333z"/>
<path style="fill:#d0d0d0; stroke:none;" d="M133.667 319.333L134.333 319.667L133.667 319.333z"/>
<path style="fill:#e4e4e4; stroke:none;" d="M135 319L136 320L135 319z"/>
<path style="fill:#d0d0d0; stroke:none;" d="M204 319L205 320L204 319z"/>
<path style="fill:#b9b9b9; stroke:none;" d="M250 319L251 320L250 319z"/>
<path style="fill:#d0d0d0; stroke:none;" d="M338 319L339 320L338 319z"/>
<path style="fill:#b9b9b9; stroke:none;" d="M403 319L404 320L403 319z"/>
<path style="fill:#e4e4e4; stroke:none;" d="M404 319L405 320L404 319z"/>
<path style="fill:#b9b9b9; stroke:none;" d="M206 320L207 321L206 320M252 320L253 321L252 320M336 320L337 321L336 320z"/>
<path style="fill:#e4e4e4; stroke:none;" d="M406 320L407 321L406 320z"/>
<path style="fill:#b9b9b9; stroke:none;" d="M208 321L209 322L208 321z"/>
<path style="fill:#d0d0d0; stroke:none;" d="M254 321L255 322L254 321M334 321L335 322L334 321z"/>
<path style="fill:#b9b9b9; stroke:none;" d="M407 321L408 322L407 321z"/>
<path style="fill:#e4e4e4; stroke:none;" d="M408 321L409 322L408 321M209 322L210 323L209 322z"/>
<path style="fill:#b9b9b9; stroke:none;" d="M210 322L211 323L210 322z"/>
<path style="fill:#d0d0d0; stroke:none;" d="M256 322L257 323L256 322M332 322L333 323L332 322z"/>
<path style="fill:#b9b9b9; stroke:none;" d="M409 322L410 323L409 322z"/>
<path style="fill:#e4e4e4; stroke:none;" d="M211 323L212 324L211 323M258 323L259 324L258 323M330 323L331 324L330 323z"/>
<path style="fill:#b9b9b9; stroke:none;" d="M331 323L332 324L331 323M411 323L412 324L411 323z"/>
<path style="fill:#d0d0d0; stroke:none;" d="M213 324L214 325L213 324z"/>
<path style="fill:#b9b9b9; stroke:none;" d="M259 324L260 325L259 324z"/>
<path style="fill:#d0d0d0; stroke:none;" d="M329 324L330 325L329 324z"/>
<path style="fill:#b9b9b9; stroke:none;" d="M412 324L413 325L412 324z"/>
<path style="fill:#d0d0d0; stroke:none;" d="M215 325L216 326L215 325z"/>
<path style="fill:#b9b9b9; stroke:none;" d="M261 325L262 326L261 325z"/>
<path style="fill:#e4e4e4; stroke:none;" d="M327 325L328 326L327 325z"/>
<path style="fill:#b9b9b9; stroke:none;" d="M328 325L329 326L328 325M414 325L415 326L414 325z"/>
<path style="fill:#d0d0d0; stroke:none;" d="M217 326L218 327L217 326z"/>
<path style="fill:#b9b9b9; stroke:none;" d="M263 326L264 327L263 326M326 326L327 327L326 326z"/>
<path style="fill:#e4e4e4; stroke:none;" d="M416 326L417 327L416 326z"/>
<path style="fill:#b9b9b9; stroke:none;" d="M219 327L220 328L219 327z"/>
<path style="fill:#d0d0d0; stroke:none;" d="M265 327L266 328L265 327z"/>
<path style="fill:#b9b9b9; stroke:none;" d="M325 327L326 328L325 327z"/>
<path style="fill:#d0d0d0; stroke:none;" d="M417 327L418 328L417 327z"/>
<path style="fill:#e4e4e4; stroke:none;" d="M220 328L221 329L220 328z"/>
<path style="fill:#b9b9b9; stroke:none;" d="M221 328L222 329L221 328z"/>
<path style="fill:#d0d0d0; stroke:none;" d="M267 328L268 329L267 328z"/>
<path style="fill:#e4e4e4; stroke:none;" d="M323 328L324 329L323 328z"/>
<path style="fill:#b9b9b9; stroke:none;" d="M418 328L419 329L418 328M223 329L224 330L223 329z"/>
<path style="fill:#e4e4e4; stroke:none;" d="M269 329L270 330L269 329z"/>
<path style="fill:#d0d0d0; stroke:none;" d="M322 329L323 330L322 329z"/>
<path style="fill:#e4e4e4; stroke:none;" d="M420 329L421 330L420 329z"/>
<path style="fill:#d0d0d0; stroke:none;" d="M224 330L225 331L224 330z"/>
<path style="fill:#b9b9b9; stroke:none;" d="M270 330L271 331L270 330M321 330L322 331L321 330z"/>
<path style="fill:#e4e4e4; stroke:none;" d="M421 330L422 331L421 330z"/>
<path style="fill:#d0d0d0; stroke:none;" d="M226 331L227 332L226 331z"/>
<path style="fill:#b9b9b9; stroke:none;" d="M272 331L273 332L272 331z"/>
<path style="fill:#e4e4e4; stroke:none;" d="M273 331L274 332L273 331z"/>
<path style="fill:#b9b9b9; stroke:none;" d="M320 331L321 332L320 331z"/>
<path style="fill:#d0d0d0; stroke:none;" d="M422 331L423 332L422 331M228 332L229 333L228 332z"/>
<path style="fill:#b9b9b9; stroke:none;" d="M274 332L275 333L274 332M423 332L424 333L423 332M230 333L231 334L230 333z"/>
<path style="fill:#d0d0d0; stroke:none;" d="M276 333L277 334L276 333M424 333L425 334L424 333z"/>
<path style="fill:#b9b9b9; stroke:none;" d="M232 334L233 335L232 334z"/>
<path style="fill:#d0d0d0; stroke:none;" d="M278 334L279 335L278 334z"/>
<path style="fill:#e4e4e4; stroke:none;" d="M316 334L317 335L316 334z"/>
<path style="fill:#b9b9b9; stroke:none;" d="M363.667 334.333L364.333 334.667L363.667 334.333z"/>
<path style="fill:#d0d0d0; stroke:none;" d="M365 334L365 335L368 335L365 334z"/>
<path style="fill:#e4e4e4; stroke:none;" d="M368 334L368 335L374 335L368 334z"/>
<path style="fill:#d0d0d0; stroke:none;" d="M374 334L374 335L377 335L374 334z"/>
<path style="fill:#b9b9b9; stroke:none;" d="M377 334L377 335L380 335L377 334M425 334L426 335L425 334M234 335L235 336L234 335z"/>
<path style="fill:#d0d0d0; stroke:none;" d="M280 335L281 336L280 335z"/>
<path style="fill:#b9b9b9; stroke:none;" d="M358 335L359 336L358 335z"/>
<path style="fill:#d0d0d0; stroke:none;" d="M359 335L360 336L359 335z"/>
<path style="fill:#010101; stroke:none;" d="M360 335.515C352.355 337.079 345.287 340.133 339.001 344.757C291.867 379.423 325.105 456.608 383 444.331C390.533 442.734 397.726 439.39 404 434.957C451.746 401.217 416.523 323.946 360 335.515z"/>
<path style="fill:#e4e4e4; stroke:none;" d="M382 335L383 336L382 335z"/>
<path style="fill:#b9b9b9; stroke:none;" d="M383.667 335.333L384.333 335.667L383.667 335.333M426 335L427 336L426 335z"/>
<path style="fill:#d0d0d0; stroke:none;" d="M235 336L236 337L235 336z"/>
<path style="fill:#b9b9b9; stroke:none;" d="M281 336L282 337L281 336z"/>
<path style="fill:#e4e4e4; stroke:none;" d="M282 336L283 337L282 336z"/>
<path style="fill:#b9b9b9; stroke:none;" d="M355 336L356 337L355 336z"/>
<path style="fill:#e4e4e4; stroke:none;" d="M356 336L357 337L356 336z"/>
<path style="fill:#d0d0d0; stroke:none;" d="M386 336L387 337L386 336z"/>
<path style="fill:#b9b9b9; stroke:none;" d="M387 336L388 337L387 336z"/>
<path style="fill:#d0d0d0; stroke:none;" d="M427 336L428 337L427 336M237 337L238 338L237 337z"/>
<path style="fill:#b9b9b9; stroke:none;" d="M283 337L284 338L283 337z"/>
<path style="fill:#e4e4e4; stroke:none;" d="M284 337L285 338L284 337z"/>
<path style="fill:#d0d0d0; stroke:none;" d="M352 337L353 338L352 337M389 337L390 338L389 337z"/>
<path style="fill:#b9b9b9; stroke:none;" d="M390 337L391 338L390 337z"/>
<path style="fill:#d0d0d0; stroke:none;" d="M428 337L429 338L428 337M239 338L240 339L239 338z"/>
<path style="fill:#b9b9b9; stroke:none;" d="M285 338L286 339L285 338M313 338L314 339L313 338M349 338L350 339L349 338z"/>
<path style="fill:#d0d0d0; stroke:none;" d="M392 338L393 339L392 338M429 338L430 339L429 338z"/>
<path style="fill:#b9b9b9; stroke:none;" d="M241 339L242 340L241 339z"/>
<path style="fill:#d0d0d0; stroke:none;" d="M287 339L288 340L287 339z"/>
<path style="fill:#b9b9b9; stroke:none;" d="M312 339L313 340L312 339M347 339L348 340L347 339z"/>
<path style="fill:#d0d0d0; stroke:none;" d="M394 339L395 340L394 339z"/>
<path style="fill:#e4e4e4; stroke:none;" d="M430 339L431 340L430 339z"/>
<path style="fill:#b9b9b9; stroke:none;" d="M243 340L244 341L243 340z"/>
<path style="fill:#d0d0d0; stroke:none;" d="M289 340L290 341L289 340z"/>
<path style="fill:#b9b9b9; stroke:none;" d="M311 340L312 341L311 340M345 340L346 341L345 340z"/>
<path style="fill:#e4e4e4; stroke:none;" d="M396 340L397 341L396 340z"/>
<path style="fill:#b9b9b9; stroke:none;" d="M397 340L398 341L397 340M245 341L246 342L245 341z"/>
<path style="fill:#d0d0d0; stroke:none;" d="M291 341L292 342L291 341M310 341L311 342L310 341z"/>
<path style="fill:#b9b9b9; stroke:none;" d="M343 341L344 342L343 341z"/>
<path style="fill:#d0d0d0; stroke:none;" d="M398 341L399 342L398 341z"/>
<path style="fill:#e4e4e4; stroke:none;" d="M246 342L247 343L246 342M293 342L294 343L293 342z"/>
<path style="fill:#d0d0d0; stroke:none;" d="M342 342L343 343L342 342z"/>
<path style="fill:#b9b9b9; stroke:none;" d="M400 342L401 343L400 342M432 342L433 343L432 342z"/>
<path style="fill:#d0d0d0; stroke:none;" d="M248 343L249 344L248 343z"/>
<path style="fill:#b9b9b9; stroke:none;" d="M249 343L250 344L249 343M294 343L295 344L294 343z"/>
<path style="fill:#e4e4e4; stroke:none;" d="M295 343L296 344L295 343z"/>
<path style="fill:#b9b9b9; stroke:none;" d="M340 343L341 344L340 343z"/>
<path style="fill:#e4e4e4; stroke:none;" d="M401 343L402 344L401 343z"/>
<path style="fill:#b9b9b9; stroke:none;" d="M402 343L403 344L402 343z"/>
<path style="fill:#d0d0d0; stroke:none;" d="M433 343L434 344L433 343M250 344L251 345L250 344z"/>
<path style="fill:#b9b9b9; stroke:none;" d="M296 344L297 345L296 344z"/>
<path style="fill:#e4e4e4; stroke:none;" d="M297 344L298 345L297 344z"/>
<path style="fill:#b9b9b9; stroke:none;" d="M308 344L309 345L308 344z"/>
<path style="fill:#e4e4e4; stroke:none;" d="M339 344L340 345L339 344z"/>
<path style="fill:#d0d0d0; stroke:none;" d="M403 344L404 345L403 344z"/>
<path style="fill:#e4e4e4; stroke:none;" d="M434 344L435 345L434 344z"/>
<path style="fill:#d0d0d0; stroke:none;" d="M252 345L253 346L252 345z"/>
<path style="fill:#b9b9b9; stroke:none;" d="M298 345L299 346L298 345z"/>
<path style="fill:#d0d0d0; stroke:none;" d="M307 345L308 346L307 345z"/>
<path style="fill:#b9b9b9; stroke:none;" d="M337 345L338 346L337 345z"/>
<path style="fill:#d0d0d0; stroke:none;" d="M404 345L405 346L404 345z"/>
<path style="fill:#b9b9b9; stroke:none;" d="M434 345L435 346L434 345M254 346L255 347L254 346M300 346L301 347L300 346z"/>
<path style="fill:#d0d0d0; stroke:none;" d="M336 346L337 347L336 346z"/>
<path style="fill:#b9b9b9; stroke:none;" d="M406 346L407 347L406 346M435 346L436 347L435 346M256 347L257 348L256 347z"/>
<path style="fill:#d0d0d0; stroke:none;" d="M302 347L303 348L302 347z"/>
<path style="fill:#b9b9b9; stroke:none;" d="M306 347L307 348L306 347z"/>
<path style="fill:#e4e4e4; stroke:none;" d="M335 347L336 348L335 347z"/>
<path style="fill:#b9b9b9; stroke:none;" d="M407 347L408 348L407 347z"/>
<path style="fill:#e4e4e4; stroke:none;" d="M436 347L437 348L436 347M257 348L258 349L257 348z"/>
<path style="fill:#b9b9b9; stroke:none;" d="M258 348L259 349L258 348z"/>
<path style="fill:#e4e4e4; stroke:none;" d="M304 348L305 349L304 348z"/>
<path style="fill:#d0d0d0; stroke:none;" d="M305 348L306 349L305 348z"/>
<path style="fill:#e4e4e4; stroke:none;" d="M334 348L335 349L334 348z"/>
<path style="fill:#b9b9b9; stroke:none;" d="M408 348L409 349L408 348M436 348L437 349L436 348z"/>
<path style="fill:#e4e4e4; stroke:none;" d="M259 349L260 350L259 349z"/>
<path style="fill:#b9b9b9; stroke:none;" d="M260 349L261 350L260 349z"/>
<path style="fill:#e4e4e4; stroke:none;" d="M333 349L334 350L333 349z"/>
<path style="fill:#d0d0d0; stroke:none;" d="M409 349L410 350L409 349M437 349L438 350L437 349z"/>
<path style="fill:#e4e4e4; stroke:none;" d="M261 350L262 351L261 350z"/>
<path style="fill:#d0d0d0; stroke:none;" d="M410 350L411 351L410 350M263 351L264 352L263 351z"/>
<path style="fill:#e4e4e4; stroke:none;" d="M331 351L332 352L331 351z"/>
<path style="fill:#b9b9b9; stroke:none;" d="M411 351L412 352L411 351M438 351L439 352L438 351z"/>
<path style="fill:#d0d0d0; stroke:none;" d="M265 352L266 353L265 352z"/>
<path style="fill:#e4e4e4; stroke:none;" d="M330 352L331 353L330 352z"/>
<path style="fill:#b9b9b9; stroke:none;" d="M412 352L413 353L412 352z"/>
<path style="fill:#e4e4e4; stroke:none;" d="M439 352L440 353L439 352z"/>
<path style="fill:#d0d0d0; stroke:none;" d="M267 353L268 354L267 353z"/>
<path style="fill:#e4e4e4; stroke:none;" d="M329 353L330 354L329 353z"/>
<path style="fill:#b9b9b9; stroke:none;" d="M413 353L414 354L413 353M439 353L440 354L439 353z"/>
<path style="fill:#e4e4e4; stroke:none;" d="M268 354L269 355L268 354z"/>
<path style="fill:#b9b9b9; stroke:none;" d="M269 354L270 355L269 354z"/>
<path style="fill:#d0d0d0; stroke:none;" d="M328 354L329 355L328 354z"/>
<path style="fill:#e4e4e4; stroke:none;" d="M440 354L441 355L440 354M270 355L271 356L270 355z"/>
<path style="fill:#b9b9b9; stroke:none;" d="M271 355L272 356L271 355M327 355L328 356L327 355M440 355L441 356L440 355z"/>
<path style="fill:#e4e4e4; stroke:none;" d="M272 356L273 357L272 356z"/>
<path style="fill:#b9b9b9; stroke:none;" d="M273 356L274 357L273 356M326 356L327 357L326 356z"/>
<path style="fill:#e4e4e4; stroke:none;" d="M415 356L416 357L415 356z"/>
<path style="fill:#d0d0d0; stroke:none;" d="M441 356L442 357L441 356M274 357L275 358L274 357z"/>
<path style="fill:#b9b9b9; stroke:none;" d="M416 357L417 358L416 357z"/>
<path style="fill:#d0d0d0; stroke:none;" d="M276 358L277 359L276 358M325 358L326 359L325 358z"/>
<path style="fill:#b9b9b9; stroke:none;" d="M417 358L418 359L417 358z"/>
<path style="fill:#e4e4e4; stroke:none;" d="M442 358L443 359L442 358z"/>
<path style="fill:#b9b9b9; stroke:none;" d="M278 359L279 360L278 359M324 359L325 360L324 359M442 359L443 360L442 359M280 360L281 361L280 360M418 360L419 361L418 360z"/>
<path style="fill:#e4e4e4; stroke:none;" d="M281 361L282 362L281 361z"/>
<path style="fill:#b9b9b9; stroke:none;" d="M282 361L283 362L282 361z"/>
<path style="fill:#d0d0d0; stroke:none;" d="M323 361L324 362L323 361M443 361L444 362L443 361z"/>
<path style="fill:#e4e4e4; stroke:none;" d="M283 362L284 363L283 362z"/>
<path style="fill:#b9b9b9; stroke:none;" d="M284 362L285 363L284 362M322 362L323 363L322 362z"/>
<path style="fill:#d0d0d0; stroke:none;" d="M419 362L420 363L419 362M285 363L286 364L285 363M322 363L323 364L322 363z"/>
<path style="fill:#b9b9b9; stroke:none;" d="M420 363L421 364L420 363z"/>
<path style="fill:#e4e4e4; stroke:none;" d="M444 363L445 364L444 363z"/>
<path style="fill:#d0d0d0; stroke:none;" d="M287 364L288 365L287 364z"/>
<path style="fill:#e4e4e4; stroke:none;" d="M420 364L421 365L420 364z"/>
<path style="fill:#b9b9b9; stroke:none;" d="M444 364L445 365L444 364z"/>
<path style="fill:#d0d0d0; stroke:none;" d="M289 365L290 366L289 365z"/>
<path style="fill:#e4e4e4; stroke:none;" d="M321 365L322 366L321 365z"/>
<path style="fill:#b9b9b9; stroke:none;" d="M421 365L422 366L421 365M291 366L292 367L291 366z"/>
<path style="fill:#d0d0d0; stroke:none;" d="M421 366L422 367L421 366z"/>
<path style="fill:#e4e4e4; stroke:none;" d="M445 366L446 367L445 366z"/>
<path style="fill:#b9b9b9; stroke:none;" d="M293 367L294 368L293 367z"/>
<path style="fill:#d0d0d0; stroke:none;" d="M320 367L321 368L320 367z"/>
<path style="fill:#b9b9b9; stroke:none;" d="M445.333 367.667L445.667 368.333L445.333 367.667M295 368L296 369L295 368z"/>
<path style="fill:#d0d0d0; stroke:none;" d="M422 368L423 369L422 368z"/>
<path style="fill:#b9b9b9; stroke:none;" d="M296 369L297 370L296 369M319 369L320 370L319 369z"/>
<path style="fill:#e4e4e4; stroke:none;" d="M319 370L320 371L319 370z"/>
<path style="fill:#b9b9b9; stroke:none;" d="M423 370L424 371L423 370z"/>
<path style="fill:#d0d0d0; stroke:none;" d="M446 370L447 371L446 370z"/>
<path style="fill:#e4e4e4; stroke:none;" d="M423 371L424 372L423 371z"/>
<path style="fill:#b9b9b9; stroke:none;" d="M446 371L447 372L446 371z"/>
<path style="fill:#d0d0d0; stroke:none;" d="M295 372L296 373L295 372z"/>
<path style="fill:#b9b9b9; stroke:none;" d="M318 372L319 373L318 372M295.333 373.667L295.667 374.333L295.333 373.667M424 373L425 374L424 373z"/>
<path style="fill:#d0d0d0; stroke:none;" d="M424 374L425 375L424 374M447 374L448 375L447 374z"/>
<path style="fill:#b9b9b9; stroke:none;" d="M317 375L318 376L317 375M447.333 375.667L447.667 376.333L447.333 375.667z"/>
<path style="fill:#e4e4e4; stroke:none;" d="M317 376L318 377L317 376M294 377L295 378L294 377z"/>
<path style="fill:#b9b9b9; stroke:none;" d="M425 377L426 378L425 377z"/>
<path style="fill:#d0d0d0; stroke:none;" d="M294 378L295 379L294 378z"/>
<path style="fill:#b9b9b9; stroke:none;" d="M316.333 378.667L316.667 379.333L316.333 378.667z"/>
<path style="fill:#d0d0d0; stroke:none;" d="M425 378L426 379L425 378z"/>
<path style="fill:#b9b9b9; stroke:none;" d="M294.333 379.667L294.667 380.333L294.333 379.667z"/>
<path style="fill:#e4e4e4; stroke:none;" d="M448.333 379.667L448.667 380.333L448.333 379.667z"/>
<path style="fill:#d0d0d0; stroke:none;" d="M316.333 380.667L316.667 381.333L316.333 380.667z"/>
<path style="fill:#b9b9b9; stroke:none;" d="M426.333 381.667L426.667 382.333L426.333 381.667z"/>
<path style="fill:#d0d0d0; stroke:none;" d="M448.333 381.667L448.667 382.333L448.333 381.667M426 383L427 384L426 383z"/>
<path style="fill:#b9b9b9; stroke:none;" d="M448 383L448 397L449 397L448 383z"/>
<path style="fill:#e4e4e4; stroke:none;" d="M426.333 384.667L426.667 385.333L426.333 384.667M293 385L293 388L294 388L293 385z"/>
<path style="fill:#b9b9b9; stroke:none;" d="M315 387L315 393L316 393L315 387z"/>
<path style="fill:#d0d0d0; stroke:none;" d="M293 388L293 392L294 392L293 388z"/>
<path style="fill:#e4e4e4; stroke:none;" d="M293 392L293 395L294 395L293 392M426.333 394.667L426.667 395.333L426.333 394.667z"/>
<path style="fill:#d0d0d0; stroke:none;" d="M426 396L427 397L426 396z"/>
<path style="fill:#b9b9b9; stroke:none;" d="M426.333 397.667L426.667 398.333L426.333 397.667z"/>
<path style="fill:#d0d0d0; stroke:none;" d="M448.333 397.667L448.667 398.333L448.333 397.667M316.333 398.667L316.667 399.333L316.333 398.667z"/>
<path style="fill:#b9b9b9; stroke:none;" d="M294.333 399.667L294.667 400.333L294.333 399.667z"/>
<path style="fill:#e4e4e4; stroke:none;" d="M448 399L449 400L448 399z"/>
<path style="fill:#b9b9b9; stroke:none;" d="M316.333 400.667L316.667 401.333L316.333 400.667z"/>
<path style="fill:#d0d0d0; stroke:none;" d="M294 401L295 402L294 401M425 401L426 402L425 401z"/>
<path style="fill:#e4e4e4; stroke:none;" d="M294 402L295 403L294 402z"/>
<path style="fill:#b9b9b9; stroke:none;" d="M425 402L426 403L425 402z"/>
<path style="fill:#e4e4e4; stroke:none;" d="M317 403L318 404L317 403z"/>
<path style="fill:#b9b9b9; stroke:none;" d="M447.333 403.667L447.667 404.333L447.333 403.667z"/>
<path style="fill:#d0d0d0; stroke:none;" d="M317 404L318 405L317 404z"/>
<path style="fill:#b9b9b9; stroke:none;" d="M295.333 405.667L295.667 406.333L295.333 405.667M317 405L318 406L317 405z"/>
<path style="fill:#e4e4e4; stroke:none;" d="M424 405L425 406L424 405z"/>
<path style="fill:#d0d0d0; stroke:none;" d="M447 405L448 406L447 405z"/>
<path style="fill:#b9b9b9; stroke:none;" d="M424 406L425 407L424 406z"/>
<path style="fill:#d0d0d0; stroke:none;" d="M295 407L296 408L295 407M318 407L319 408L318 407z"/>
<path style="fill:#b9b9b9; stroke:none;" d="M446 408L447 409L446 408z"/>
<path style="fill:#e4e4e4; stroke:none;" d="M319 409L320 410L319 409z"/>
<path style="fill:#b9b9b9; stroke:none;" d="M423 409L424 410L423 409z"/>
<path style="fill:#d0d0d0; stroke:none;" d="M446 409L447 410L446 409z"/>
<path style="fill:#b9b9b9; stroke:none;" d="M296 410L297 411L296 410z"/>
<path style="fill:#d0d0d0; stroke:none;" d="M319 410L320 411L319 410M296 411L297 412L296 411M422 411L423 412L422 411z"/>
<path style="fill:#b9b9b9; stroke:none;" d="M445.333 411.667L445.667 412.333L445.333 411.667z"/>
<path style="fill:#e4e4e4; stroke:none;" d="M320 412L321 413L320 412z"/>
<path style="fill:#b9b9b9; stroke:none;" d="M297 413L298 414L297 413M320 413L321 414L320 413z"/>
<path style="fill:#e4e4e4; stroke:none;" d="M421 413L422 414L421 413M445 413L446 414L445 413z"/>
<path style="fill:#d0d0d0; stroke:none;" d="M297 414L298 415L297 414z"/>
<path style="fill:#e4e4e4; stroke:none;" d="M321 414L322 415L321 414z"/>
<path style="fill:#b9b9b9; stroke:none;" d="M421 414L422 415L421 414z"/>
<path style="fill:#e4e4e4; stroke:none;" d="M420 415L421 416L420 415z"/>
<path style="fill:#b9b9b9; stroke:none;" d="M444 415L445 416L444 415M298 416L299 417L298 416z"/>
<path style="fill:#d0d0d0; stroke:none;" d="M322 416L323 417L322 416z"/>
<path style="fill:#b9b9b9; stroke:none;" d="M420 416L421 417L420 416z"/>
<path style="fill:#e4e4e4; stroke:none;" d="M444 416L445 417L444 416z"/>
<path style="fill:#d0d0d0; stroke:none;" d="M298 417L299 418L298 417z"/>
<path style="fill:#b9b9b9; stroke:none;" d="M322 417L323 418L322 417z"/>
<path style="fill:#e4e4e4; stroke:none;" d="M419 417L420 418L419 417z"/>
<path style="fill:#d0d0d0; stroke:none;" d="M323 418L324 419L323 418M443 418L444 419L443 418z"/>
<path style="fill:#b9b9b9; stroke:none;" d="M299 419L300 420L299 419z"/>
<path style="fill:#d0d0d0; stroke:none;" d="M418 419L419 420L418 419z"/>
<path style="fill:#e4e4e4; stroke:none;" d="M299 420L300 421L299 420z"/>
<path style="fill:#b9b9b9; stroke:none;" d="M324 420L325 421L324 420M442 420L443 421L442 420M300 421L301 422L300 421z"/>
<path style="fill:#d0d0d0; stroke:none;" d="M325 421L326 422L325 421z"/>
<path style="fill:#b9b9b9; stroke:none;" d="M417 421L418 422L417 421z"/>
<path style="fill:#e4e4e4; stroke:none;" d="M442 421L443 422L442 421M300 422L301 423L300 422z"/>
<path style="fill:#b9b9b9; stroke:none;" d="M416 422L417 423L416 422M301 423L302 424L301 423M326 423L327 424L326 423z"/>
<path style="fill:#e4e4e4; stroke:none;" d="M415 423L416 424L415 423z"/>
<path style="fill:#d0d0d0; stroke:none;" d="M441 423L442 424L441 423M301 424L302 425L301 424z"/>
<path style="fill:#b9b9b9; stroke:none;" d="M327 424L328 425L327 424M440 424L441 425L440 424z"/>
<path style="fill:#d0d0d0; stroke:none;" d="M328 425L329 426L328 425z"/>
<path style="fill:#b9b9b9; stroke:none;" d="M414 425L415 426L414 425z"/>
<path style="fill:#e4e4e4; stroke:none;" d="M440 425L441 426L440 425z"/>
<path style="fill:#d0d0d0; stroke:none;" d="M302 426L303 427L302 426z"/>
<path style="fill:#b9b9b9; stroke:none;" d="M413 426L414 427L413 426M439 426L440 427L439 426M303 427L304 428L303 427z"/>
<path style="fill:#d0d0d0; stroke:none;" d="M412 427L413 428L412 427z"/>
<path style="fill:#e4e4e4; stroke:none;" d="M439 427L440 428L439 427z"/>
<path style="fill:#d0d0d0; stroke:none;" d="M411 428L412 429L411 428z"/>
<path style="fill:#b9b9b9; stroke:none;" d="M438 428L439 429L438 428M304 429L305 430L304 429M331 429L332 430L331 429z"/>
<path style="fill:#d0d0d0; stroke:none;" d="M410 429L411 430L410 429z"/>
<path style="fill:#e4e4e4; stroke:none;" d="M438 429L439 430L438 429z"/>
<path style="fill:#b9b9b9; stroke:none;" d="M332 430L333 431L332 430z"/>
<path style="fill:#d0d0d0; stroke:none;" d="M409 430L410 431L409 430M437 430L438 431L437 430M305 431L306 432L305 431z"/>
<path style="fill:#e4e4e4; stroke:none;" d="M334 431L335 432L334 431z"/>
<path style="fill:#d0d0d0; stroke:none;" d="M408 431L409 432L408 431z"/>
<path style="fill:#b9b9b9; stroke:none;" d="M306 432L307 433L306 432M407 432L408 433L407 432z"/>
<path style="fill:#d0d0d0; stroke:none;" d="M436 432L437 433L436 432M336 433L337 434L336 433z"/>
<path style="fill:#b9b9b9; stroke:none;" d="M406 433L407 434L406 433M435 433L436 434L435 433z"/>
<path style="fill:#d0d0d0; stroke:none;" d="M307 434L308 435L307 434z"/>
<path style="fill:#b9b9b9; stroke:none;" d="M337 434L338 435L337 434z"/>
<path style="fill:#e4e4e4; stroke:none;" d="M404 434L405 435L404 434z"/>
<path style="fill:#b9b9b9; stroke:none;" d="M308 435L309 436L308 435M338 435L339 436L338 435z"/>
<path style="fill:#d0d0d0; stroke:none;" d="M403 435L404 436L403 435z"/>
<path style="fill:#e4e4e4; stroke:none;" d="M434 435L435 436L434 435z"/>
<path style="fill:#d0d0d0; stroke:none;" d="M340 436L341 437L340 436z"/>
<path style="fill:#e4e4e4; stroke:none;" d="M401 436L402 437L401 436z"/>
<path style="fill:#b9b9b9; stroke:none;" d="M402 436L403 437L402 436z"/>
<path style="fill:#d0d0d0; stroke:none;" d="M433 436L434 437L433 436z"/>
<path style="fill:#e4e4e4; stroke:none;" d="M342 437L343 438L342 437z"/>
<path style="fill:#b9b9b9; stroke:none;" d="M400 437L401 438L400 437M432 437L433 438L432 437z"/>
<path style="fill:#d0d0d0; stroke:none;" d="M310 438L311 439L310 438z"/>
<path style="fill:#b9b9b9; stroke:none;" d="M343 438L344 439L343 438z"/>
<path style="fill:#e4e4e4; stroke:none;" d="M398 438L399 439L398 438z"/>
<path style="fill:#b9b9b9; stroke:none;" d="M311 439L312 440L311 439z"/>
<path style="fill:#d0d0d0; stroke:none;" d="M345 439L346 440L345 439z"/>
<path style="fill:#e4e4e4; stroke:none;" d="M396 439L397 440L396 439z"/>
<path style="fill:#b9b9b9; stroke:none;" d="M397 439L398 440L397 439M312 440L313 441L312 440z"/>
<path style="fill:#d0d0d0; stroke:none;" d="M347 440L348 441L347 440z"/>
<path style="fill:#e4e4e4; stroke:none;" d="M394 440L395 441L394 440M430 440L431 441L430 440z"/>
<path style="fill:#b9b9b9; stroke:none;" d="M349 441L350 442L349 441z"/>
<path style="fill:#e4e4e4; stroke:none;" d="M392 441L393 442L392 441z"/>
<path style="fill:#b9b9b9; stroke:none;" d="M393 441L394 442L393 441M429 441L430 442L429 441M351 442L352 443L351 442z"/>
<path style="fill:#d0d0d0; stroke:none;" d="M352 442L353 443L352 442z"/>
<path style="fill:#e4e4e4; stroke:none;" d="M389 442L390 443L389 442z"/>
<path style="fill:#b9b9b9; stroke:none;" d="M390 442L391 443L390 442z"/>
<path style="fill:#d0d0d0; stroke:none;" d="M428 442L429 443L428 442M355 443L356 444L355 443M386 443L387 444L386 443z"/>
<path style="fill:#b9b9b9; stroke:none;" d="M387 443L388 444L387 443M427 443L428 444L427 443M358 444L359 445L358 444z"/>
<path style="fill:#d0d0d0; stroke:none;" d="M359 444L360 445L359 444z"/>
<path style="fill:#e4e4e4; stroke:none;" d="M382 444L383 445L382 444z"/>
<path style="fill:#d0d0d0; stroke:none;" d="M383 444L384 445L383 444z"/>
<path style="fill:#b9b9b9; stroke:none;" d="M384 444L385 445L384 444M426 444L427 445L426 444z"/>
<path style="fill:#e4e4e4; stroke:none;" d="M316 445L317 446L316 445z"/>
<path style="fill:#b9b9b9; stroke:none;" d="M362 445L362 446L365 446L362 445z"/>
<path style="fill:#d0d0d0; stroke:none;" d="M365.667 445.333L366.333 445.667L365.667 445.333z"/>
<path style="fill:#e4e4e4; stroke:none;" d="M367 445L367 446L375 446L367 445z"/>
<path style="fill:#d0d0d0; stroke:none;" d="M375 445L375 446L378 446L375 445z"/>
<path style="fill:#b9b9b9; stroke:none;" d="M378.667 445.333L379.333 445.667L378.667 445.333M425 445L426 446L425 445M424 446L425 447L424 446M423 447L424 448L423 447M320 448L321 449L320 448z"/>
<path style="fill:#d0d0d0; stroke:none;" d="M422 448L423 449L422 448z"/>
<path style="fill:#b9b9b9; stroke:none;" d="M321 449L322 450L321 449z"/>
<path style="fill:#e4e4e4; stroke:none;" d="M421 449L422 450L421 449z"/>
<path style="fill:#b9b9b9; stroke:none;" d="M322 450L323 451L322 450z"/>
<path style="fill:#e4e4e4; stroke:none;" d="M420 450L421 451L420 450z"/>
<path style="fill:#d0d0d0; stroke:none;" d="M323 451L324 452L323 451z"/>
<path style="fill:#b9b9b9; stroke:none;" d="M418 451L419 452L418 451M325 452L326 453L325 452z"/>
<path style="fill:#d0d0d0; stroke:none;" d="M417 452L418 453L417 452z"/>
<path style="fill:#b9b9b9; stroke:none;" d="M326 453L327 454L326 453z"/>
<path style="fill:#e4e4e4; stroke:none;" d="M416 453L417 454L416 453M327 454L328 455L327 454z"/>
<path style="fill:#b9b9b9; stroke:none;" d="M414 454L415 455L414 454M329 455L330 456L329 455z"/>
<path style="fill:#e4e4e4; stroke:none;" d="M413 455L414 456L413 455M330 456L331 457L330 456z"/>
<path style="fill:#b9b9b9; stroke:none;" d="M411 456L412 457L411 456z"/>
<path style="fill:#d0d0d0; stroke:none;" d="M332 457L333 458L332 457z"/>
<path style="fill:#b9b9b9; stroke:none;" d="M409 457L410 458L409 457z"/>
<path style="fill:#e4e4e4; stroke:none;" d="M410 457L411 458L410 457z"/>
<path style="fill:#d0d0d0; stroke:none;" d="M334 458L335 459L334 458z"/>
<path style="fill:#b9b9b9; stroke:none;" d="M407 458L408 459L407 458z"/>
<path style="fill:#e4e4e4; stroke:none;" d="M408 458L409 459L408 458z"/>
<path style="fill:#b9b9b9; stroke:none;" d="M336 459L337 460L336 459z"/>
<path style="fill:#d0d0d0; stroke:none;" d="M406 459L407 460L406 459z"/>
<path style="fill:#b9b9b9; stroke:none;" d="M338 460L339 461L338 460M403 460L404 461L403 460z"/>
<path style="fill:#d0d0d0; stroke:none;" d="M404 460L405 461L404 460M340 461L341 462L340 461z"/>
<path style="fill:#b9b9b9; stroke:none;" d="M401 461L402 462L401 461z"/>
<path style="fill:#e4e4e4; stroke:none;" d="M402 461L403 462L402 461M342 462L343 463L342 462z"/>
<path style="fill:#b9b9b9; stroke:none;" d="M343 462L344 463L343 462M399 462L400 463L399 462z"/>
<path style="fill:#d0d0d0; stroke:none;" d="M345 463L346 464L345 463z"/>
<path style="fill:#b9b9b9; stroke:none;" d="M346 463L347 464L346 463M396 463L397 464L396 463z"/>
<path style="fill:#e4e4e4; stroke:none;" d="M397 463L398 464L397 463z"/>
<path style="fill:#d0d0d0; stroke:none;" d="M348 464L349 465L348 464z"/>
<path style="fill:#b9b9b9; stroke:none;" d="M349 464L350 465L349 464M393 464L394 465L393 464z"/>
<path style="fill:#e4e4e4; stroke:none;" d="M394 464L395 465L394 464M351 465L352 466L351 465z"/>
<path style="fill:#b9b9b9; stroke:none;" d="M352 465L353 466L352 465M389 465L390 466L389 465z"/>
<path style="fill:#d0d0d0; stroke:none;" d="M390 465L391 466L390 465z"/>
<path style="fill:#e4e4e4; stroke:none;" d="M355 466L356 467L355 466z"/>
<path style="fill:#d0d0d0; stroke:none;" d="M356 466L357 467L356 466z"/>
<path style="fill:#b9b9b9; stroke:none;" d="M357.667 466.333L358.333 466.667L357.667 466.333M383.667 466.333L384.333 466.667L383.667 466.333z"/>
<path style="fill:#d0d0d0; stroke:none;" d="M385.667 466.333L386.333 466.667L385.667 466.333z"/>
<path style="fill:#e4e4e4; stroke:none;" d="M362 467L363 468L362 467z"/>
<path style="fill:#d0d0d0; stroke:none;" d="M363.667 467.333L364.333 467.667L363.667 467.333z"/>
<path style="fill:#b9b9b9; stroke:none;" d="M365 467L365 468L371 468L365 467M372 467L372 468L377 468L372 467z"/>
<path style="fill:#d0d0d0; stroke:none;" d="M377 467L377 468L380 468L377 467z"/>
</svg>
