<?xml version="1.0" standalone="yes"?>
<svg xmlns="http://www.w3.org/2000/svg" width="500" height="500">
<path style="fill:#010101; stroke:none;" d="M0 0L0 500L500 500L500 0L0 0z"/>
<path style="fill:#c5c5c5; stroke:none;" d="M245 39L245 40L248 40L245 39z"/>
<path style="fill:#a1a1a1; stroke:none;" d="M248 39L248 40L251 40L248 39z"/>
<path style="fill:#c5c5c5; stroke:none;" d="M251 39L251 40L255 40L251 39M239 40L240 41L239 40z"/>
<path style="fill:#a1a1a1; stroke:none;" d="M240 40L241 41L240 40z"/>
<path style="fill:#858585; stroke:none;" d="M241.667 40.3333L242.333 40.6667L241.667 40.3333z"/>
<path style="fill:#4f4f4f; stroke:none;" d="M243 40.4391C224.608 43.3352 223.857 56.6997 219.846 72C212.192 101.196 205.573 130.686 198.374 160C187.578 203.964 176.768 247.941 166.346 292C162.57 307.959 151.928 330.751 156.785 347C160.738 360.223 174.238 368.703 186 374.218C214.3 387.488 250.558 389.26 281 383.916C302.124 380.208 334.078 371.595 342.441 349C349.141 330.897 336.149 302.966 331.884 285C319.384 232.345 307.603 179.229 293.424 127C288.397 108.483 284.528 89.6187 279.873 71C277.993 63.4773 277.203 52.9955 271.775 47.1049C265.019 39.7722 252.269 38.9795 243 40.4391z"/>
<path style="fill:#858585; stroke:none;" d="M257.667 40.3333L258.333 40.6667L257.667 40.3333z"/>
<path style="fill:#a1a1a1; stroke:none;" d="M259 40L260 41L259 40z"/>
<path style="fill:#c5c5c5; stroke:none;" d="M260 40L261 41L260 40M236 41L237 42L236 41z"/>
<path style="fill:#858585; stroke:none;" d="M237 41L238 42L237 41M262 41L263 42L262 41z"/>
<path style="fill:#c5c5c5; stroke:none;" d="M263 41L264 42L263 41M234 42L235 43L234 42M265 42L266 43L265 42z"/>
<path style="fill:#a1a1a1; stroke:none;" d="M232 43L233 44L232 43M267 43L268 44L267 43z"/>
<path style="fill:#c5c5c5; stroke:none;" d="M230 44L231 45L230 44M269 44L270 45L269 44z"/>
<path style="fill:#a1a1a1; stroke:none;" d="M229 45L230 46L229 45M270 45L271 46L270 45z"/>
<path style="fill:#858585; stroke:none;" d="M228 46L229 47L228 46M271 46L272 47L271 46M272 47L273 48L272 47z"/>
<path style="fill:#a1a1a1; stroke:none;" d="M226 48L227 49L226 48M273 48L274 49L273 48z"/>
<path style="fill:#c5c5c5; stroke:none;" d="M225 49L226 50L225 49M274 49L275 50L274 49z"/>
<path style="fill:#858585; stroke:none;" d="M274 50L275 51L274 50z"/>
<path style="fill:#c5c5c5; stroke:none;" d="M224 51L225 52L224 51z"/>
<path style="fill:#858585; stroke:none;" d="M224 52L225 53L224 52z"/>
<path style="fill:#a1a1a1; stroke:none;" d="M275 52L276 53L275 52z"/>
<path style="fill:#858585; stroke:none;" d="M275 53L276 54L275 53z"/>
<path style="fill:#c5c5c5; stroke:none;" d="M223.333 54.6667L223.667 55.3333L223.333 54.6667M276 55L277 56L276 55z"/>
<path style="fill:#858585; stroke:none;" d="M223.333 56.6667L223.667 57.3333L223.333 56.6667z"/>
<path style="fill:#a1a1a1; stroke:none;" d="M276 56L277 57L276 56z"/>
<path style="fill:#858585; stroke:none;" d="M276 57L277 58L276 57z"/>
<path style="fill:#c5c5c5; stroke:none;" d="M222 59L223 60L222 59M277 59L278 60L277 59z"/>
<path style="fill:#a1a1a1; stroke:none;" d="M222 60L223 61L222 60M277 60L278 61L277 60z"/>
<path style="fill:#858585; stroke:none;" d="M277 61L278 62L277 61z"/>
<path style="fill:#c5c5c5; stroke:none;" d="M221 63L222 64L221 63z"/>
<path style="fill:#858585; stroke:none;" d="M221 64L222 65L221 64z"/>
<path style="fill:#c5c5c5; stroke:none;" d="M278 64L279 65L278 64z"/>
<path style="fill:#858585; stroke:none;" d="M278 65L279 66L278 65z"/>
<path style="fill:#c5c5c5; stroke:none;" d="M220 67L221 68L220 67M279 67L280 68L279 67z"/>
<path style="fill:#a1a1a1; stroke:none;" d="M220 68L221 69L220 68M279 68L280 69L279 68z"/>
<path style="fill:#858585; stroke:none;" d="M220 69L221 70L220 69M279 69L280 70L279 69z"/>
<path style="fill:#c5c5c5; stroke:none;" d="M219 71L220 72L219 71M280.333 71.6667L280.667 72.3333L280.333 71.6667z"/>
<path style="fill:#a1a1a1; stroke:none;" d="M219 72L220 73L219 72z"/>
<path style="fill:#858585; stroke:none;" d="M219 73L220 74L219 73M280 73L281 74L280 73z"/>
<path style="fill:#c5c5c5; stroke:none;" d="M218 75L219 76L218 75z"/>
<path style="fill:#a1a1a1; stroke:none;" d="M218 76L219 77L218 76z"/>
<path style="fill:#c5c5c5; stroke:none;" d="M281 76L282 77L281 76z"/>
<path style="fill:#858585; stroke:none;" d="M281 77L282 78L281 77z"/>
<path style="fill:#c5c5c5; stroke:none;" d="M217 79L218 80L217 79z"/>
<path style="fill:#a1a1a1; stroke:none;" d="M217 80L218 81L217 80z"/>
<path style="fill:#c5c5c5; stroke:none;" d="M282 80L283 81L282 80z"/>
<path style="fill:#858585; stroke:none;" d="M217 81L218 82L217 81M282 81L283 82L282 81z"/>
<path style="fill:#c5c5c5; stroke:none;" d="M283.333 83.6667L283.667 84.3333L283.333 83.6667M216 84L217 85L216 84z"/>
<path style="fill:#858585; stroke:none;" d="M216 85L217 86L216 85z"/>
<path style="fill:#a1a1a1; stroke:none;" d="M283 85L284 86L283 85z"/>
<path style="fill:#858585; stroke:none;" d="M283 86L284 87L283 86z"/>
<path style="fill:#c5c5c5; stroke:none;" d="M215 87L216 88L215 87z"/>
<path style="fill:#a1a1a1; stroke:none;" d="M215 88L216 89L215 88z"/>
<path style="fill:#c5c5c5; stroke:none;" d="M284 88L285 89L284 88z"/>
<path style="fill:#858585; stroke:none;" d="M215 89L216 90L215 89z"/>
<path style="fill:#a1a1a1; stroke:none;" d="M284 89L285 90L284 89z"/>
<path style="fill:#858585; stroke:none;" d="M284 90L285 91L284 90z"/>
<path style="fill:#c5c5c5; stroke:none;" d="M214 91L215 92L214 91z"/>
<path style="fill:#a1a1a1; stroke:none;" d="M214 92L215 93L214 92z"/>
<path style="fill:#c5c5c5; stroke:none;" d="M285 92L286 93L285 92z"/>
<path style="fill:#858585; stroke:none;" d="M214.333 93.6667L214.667 94.3333L214.333 93.6667z"/>
<path style="fill:#a1a1a1; stroke:none;" d="M285 93L286 94L285 93z"/>
<path style="fill:#c5c5c5; stroke:none;" d="M213 96L214 97L213 96M286 96L287 97L286 96z"/>
<path style="fill:#a1a1a1; stroke:none;" d="M213 97L214 98L213 97M286 97L287 98L286 97z"/>
<path style="fill:#858585; stroke:none;" d="M286 98L287 99L286 98z"/>
<path style="fill:#c5c5c5; stroke:none;" d="M212 100L213 101L212 100z"/>
<path style="fill:#858585; stroke:none;" d="M212 101L213 102L212 101z"/>
<path style="fill:#a1a1a1; stroke:none;" d="M287 101L288 102L287 101z"/>
<path style="fill:#858585; stroke:none;" d="M287 102L288 103L287 102z"/>
<path style="fill:#c5c5c5; stroke:none;" d="M211 104L212 105L211 104M288 104L289 105L288 104z"/>
<path style="fill:#a1a1a1; stroke:none;" d="M211 105L212 106L211 105M288 105L289 106L288 105z"/>
<path style="fill:#858585; stroke:none;" d="M211 106L212 107L211 106M288 106L289 107L288 106z"/>
<path style="fill:#c5c5c5; stroke:none;" d="M210 108L211 109L210 108M289 108L290 109L289 108z"/>
<path style="fill:#a1a1a1; stroke:none;" d="M210 109L211 110L210 109M289 109L290 110L289 109z"/>
<path style="fill:#858585; stroke:none;" d="M210 110L211 111L210 110M289.333 110.667L289.667 111.333L289.333 110.667z"/>
<path style="fill:#c5c5c5; stroke:none;" d="M209 112L210 113L209 112z"/>
<path style="fill:#a1a1a1; stroke:none;" d="M242 112L243 113L242 112z"/>
<path style="fill:#858585; stroke:none;" d="M243 112L243 113L246 113L243 112M256.667 112.333L257.333 112.667L256.667 112.333M209 113L210 114L209 113M241 113L242 114L241 113z"/>
<path style="fill:#010101; stroke:none;" d="M242 113L230 165L270 164L258 113L242 113z"/>
<path style="fill:#c5c5c5; stroke:none;" d="M290 113L291 114L290 113z"/>
<path style="fill:#a1a1a1; stroke:none;" d="M241 114L242 115L241 114z"/>
<path style="fill:#858585; stroke:none;" d="M258 114L259 115L258 114z"/>
<path style="fill:#a1a1a1; stroke:none;" d="M290 114L291 115L290 114z"/>
<path style="fill:#c5c5c5; stroke:none;" d="M241.333 115.667L241.667 116.333L241.333 115.667M258 115L259 116L258 115M208 116L209 117L208 116z"/>
<path style="fill:#a1a1a1; stroke:none;" d="M208 117L209 118L208 117z"/>
<path style="fill:#c5c5c5; stroke:none;" d="M291 117L292 118L291 117z"/>
<path style="fill:#858585; stroke:none;" d="M208 118L209 119L208 118M240 118L241 119L240 118M259 118L260 119L259 118M291 118L292 119L291 118z"/>
<path style="fill:#c5c5c5; stroke:none;" d="M240.333 119.667L240.667 120.333L240.333 119.667z"/>
<path style="fill:#a1a1a1; stroke:none;" d="M259 119L260 120L259 119z"/>
<path style="fill:#c5c5c5; stroke:none;" d="M259 120L260 121L259 120M207 121L208 122L207 121M292 121L293 122L292 121z"/>
<path style="fill:#858585; stroke:none;" d="M207 122L208 123L207 122z"/>
<path style="fill:#a1a1a1; stroke:none;" d="M239 122L240 123L239 122z"/>
<path style="fill:#858585; stroke:none;" d="M260 122L261 123L260 122z"/>
<path style="fill:#a1a1a1; stroke:none;" d="M292 122L293 123L292 122z"/>
<path style="fill:#c5c5c5; stroke:none;" d="M239 123L240 124L239 123z"/>
<path style="fill:#a1a1a1; stroke:none;" d="M260 123L261 124L260 123z"/>
<path style="fill:#858585; stroke:none;" d="M292 123L293 124L292 123z"/>
<path style="fill:#c5c5c5; stroke:none;" d="M206 124L207 125L206 124M260 124L261 125L260 124z"/>
<path style="fill:#a1a1a1; stroke:none;" d="M206 125L207 126L206 125z"/>
<path style="fill:#858585; stroke:none;" d="M238.333 125.667L238.667 126.333L238.333 125.667z"/>
<path style="fill:#c5c5c5; stroke:none;" d="M293 125L294 126L293 125z"/>
<path style="fill:#858585; stroke:none;" d="M206 126L207 127L206 126M261 126L262 127L261 126z"/>
<path style="fill:#a1a1a1; stroke:none;" d="M293 126L294 127L293 126M238 127L239 128L238 127M261 127L262 128L261 127z"/>
<path style="fill:#858585; stroke:none;" d="M293 127L294 128L293 127z"/>
<path style="fill:#c5c5c5; stroke:none;" d="M205.333 128.667L205.667 129.333L205.333 128.667M238 128L239 129L238 128M261 128L262 129L261 128M294 129L295 130L294 129z"/>
<path style="fill:#858585; stroke:none;" d="M205 130L206 131L205 130M237 130L238 131L237 130M262 130L263 131L262 130z"/>
<path style="fill:#a1a1a1; stroke:none;" d="M294 130L295 131L294 130M237 131L238 132L237 131M262 131L263 132L262 131z"/>
<path style="fill:#c5c5c5; stroke:none;" d="M237 132L238 133L237 132M262 132L263 133L262 132M204 133L205 134L204 133M295 133L296 134L295 133z"/>
<path style="fill:#858585; stroke:none;" d="M204 134L205 135L204 134M236 134L237 135L236 134z"/>
<path style="fill:#a1a1a1; stroke:none;" d="M295 134L296 135L295 134M236 135L237 136L236 135z"/>
<path style="fill:#858585; stroke:none;" d="M263 135L264 136L263 135M295 135L296 136L295 135z"/>
<path style="fill:#c5c5c5; stroke:none;" d="M236 136L237 137L236 136M263 136L264 137L263 136M203 137L204 138L203 137M296.333 137.667L296.667 138.333L296.333 137.667z"/>
<path style="fill:#858585; stroke:none;" d="M203 138L204 139L203 138M235 138L236 139L235 138M264 138L265 139L264 138z"/>
<path style="fill:#a1a1a1; stroke:none;" d="M235 139L236 140L235 139M264 139L265 140L264 139z"/>
<path style="fill:#858585; stroke:none;" d="M296 139L297 140L296 139z"/>
<path style="fill:#c5c5c5; stroke:none;" d="M235.333 140.667L235.667 141.333L235.333 140.667M264 140L265 141L264 140M202 141L203 142L202 141M297 141L298 142L297 141z"/>
<path style="fill:#a1a1a1; stroke:none;" d="M202 142L203 143L202 142z"/>
<path style="fill:#858585; stroke:none;" d="M265 142L266 143L265 142z"/>
<path style="fill:#a1a1a1; stroke:none;" d="M297 142L298 143L297 142z"/>
<path style="fill:#858585; stroke:none;" d="M202 143L203 144L202 143z"/>
<path style="fill:#a1a1a1; stroke:none;" d="M234 143L235 144L234 143M265 143L266 144L265 143z"/>
<path style="fill:#858585; stroke:none;" d="M297 143L298 144L297 143z"/>
<path style="fill:#c5c5c5; stroke:none;" d="M234 144L235 145L234 144M265.333 144.667L265.667 145.333L265.333 144.667M201 145L202 146L201 145M298 145L299 146L298 145z"/>
<path style="fill:#a1a1a1; stroke:none;" d="M201 146L202 147L201 146z"/>
<path style="fill:#858585; stroke:none;" d="M233 146L234 147L233 146z"/>
<path style="fill:#a1a1a1; stroke:none;" d="M298 146L299 147L298 146z"/>
<path style="fill:#858585; stroke:none;" d="M201 147L202 148L201 147z"/>
<path style="fill:#a1a1a1; stroke:none;" d="M233 147L234 148L233 147z"/>
<path style="fill:#858585; stroke:none;" d="M266 147L267 148L266 147M298 147L299 148L298 147z"/>
<path style="fill:#c5c5c5; stroke:none;" d="M233 148L234 149L233 148M266 148L267 149L266 148M200 149L201 150L200 149z"/>
<path style="fill:#a1a1a1; stroke:none;" d="M200 150L201 151L200 150z"/>
<path style="fill:#858585; stroke:none;" d="M232 150L233 151L232 150z"/>
<path style="fill:#c5c5c5; stroke:none;" d="M299 150L300 151L299 150z"/>
<path style="fill:#a1a1a1; stroke:none;" d="M232 151L233 152L232 151M267 151L268 152L267 151z"/>
<path style="fill:#858585; stroke:none;" d="M299 151L300 152L299 151z"/>
<path style="fill:#c5c5c5; stroke:none;" d="M232.333 152.667L232.667 153.333L232.333 152.667M267 152L268 153L267 152M199 153L200 154L199 153z"/>
<path style="fill:#a1a1a1; stroke:none;" d="M199 154L200 155L199 154z"/>
<path style="fill:#858585; stroke:none;" d="M268.333 154.667L268.667 155.333L268.333 154.667z"/>
<path style="fill:#c5c5c5; stroke:none;" d="M300 154L301 155L300 154z"/>
<path style="fill:#858585; stroke:none;" d="M199 155L200 156L199 155M231 155L232 156L231 155M300 155L301 156L300 155z"/>
<path style="fill:#a1a1a1; stroke:none;" d="M231 156L232 157L231 156M268 156L269 157L268 156z"/>
<path style="fill:#c5c5c5; stroke:none;" d="M231 157L232 158L231 157M268 157L269 158L268 157z"/>
<path style="fill:#a1a1a1; stroke:none;" d="M198 158L199 159L198 158z"/>
<path style="fill:#c5c5c5; stroke:none;" d="M301 158L302 159L301 158z"/>
<path style="fill:#858585; stroke:none;" d="M198 159L199 160L198 159M230 159L231 160L230 159M269 159L270 160L269 159z"/>
<path style="fill:#a1a1a1; stroke:none;" d="M301 159L302 160L301 159z"/>
<path style="fill:#c5c5c5; stroke:none;" d="M230 160L231 161L230 160z"/>
<path style="fill:#a1a1a1; stroke:none;" d="M269 160L270 161L269 160z"/>
<path style="fill:#858585; stroke:none;" d="M301 160L302 161L301 160z"/>
<path style="fill:#c5c5c5; stroke:none;" d="M197 161L198 162L197 161M269 161L270 162L269 161z"/>
<path style="fill:#a1a1a1; stroke:none;" d="M197 162L198 163L197 162z"/>
<path style="fill:#c5c5c5; stroke:none;" d="M302 162L303 163L302 162z"/>
<path style="fill:#858585; stroke:none;" d="M197 163L198 164L197 163M229.333 163.667L229.667 164.333L229.333 163.667M270 163L271 164L270 163z"/>
<path style="fill:#a1a1a1; stroke:none;" d="M302 163L303 164L302 163z"/>
<path style="fill:#c5c5c5; stroke:none;" d="M266.667 164.333L267.333 164.667L266.667 164.333z"/>
<path style="fill:#a1a1a1; stroke:none;" d="M268 164L269 165L268 164z"/>
<path style="fill:#858585; stroke:none;" d="M269 164L270 165L269 164M302 164L303 165L302 164z"/>
<path style="fill:#c5c5c5; stroke:none;" d="M196 165L197 166L196 165z"/>
<path style="fill:#858585; stroke:none;" d="M235 165L235 166L238 166L235 165z"/>
<path style="fill:#a1a1a1; stroke:none;" d="M238 165L238 166L241 166L238 165z"/>
<path style="fill:#c5c5c5; stroke:none;" d="M241 165L241 166L249 166L241 165M252 165L252 166L258 166L252 165z"/>
<path style="fill:#a1a1a1; stroke:none;" d="M258.667 165.333L259.333 165.667L258.667 165.333z"/>
<path style="fill:#858585; stroke:none;" d="M260 165L260 166L263 166L260 165z"/>
<path style="fill:#a1a1a1; stroke:none;" d="M196 166L197 167L196 166z"/>
<path style="fill:#c5c5c5; stroke:none;" d="M303 166L304 167L303 166z"/>
<path style="fill:#858585; stroke:none;" d="M196.333 167.667L196.667 168.333L196.333 167.667M303 167L304 168L303 167z"/>
<path style="fill:#c5c5c5; stroke:none;" d="M195 170L196 171L195 170M304 170L305 171L304 170z"/>
<path style="fill:#a1a1a1; stroke:none;" d="M195 171L196 172L195 171M304 171L305 172L304 171z"/>
<path style="fill:#858585; stroke:none;" d="M304 172L305 173L304 172z"/>
<path style="fill:#c5c5c5; stroke:none;" d="M194 174L195 175L194 174z"/>
<path style="fill:#858585; stroke:none;" d="M194 175L195 176L194 175z"/>
<path style="fill:#a1a1a1; stroke:none;" d="M305 175L306 176L305 175z"/>
<path style="fill:#858585; stroke:none;" d="M305 176L306 177L305 176z"/>
<path style="fill:#c5c5c5; stroke:none;" d="M193 178L194 179L193 178M306 178L307 179L306 178z"/>
<path style="fill:#a1a1a1; stroke:none;" d="M193 179L194 180L193 179M306 179L307 180L306 179z"/>
<path style="fill:#858585; stroke:none;" d="M193 180L194 181L193 180M306 180L307 181L306 180z"/>
<path style="fill:#c5c5c5; stroke:none;" d="M192 182L193 183L192 182M307 182L308 183L307 182z"/>
<path style="fill:#a1a1a1; stroke:none;" d="M192 183L193 184L192 183M307 183L308 184L307 183z"/>
<path style="fill:#858585; stroke:none;" d="M192 184L193 185L192 184M307 184L308 185L307 184z"/>
<path style="fill:#c5c5c5; stroke:none;" d="M191 186L192 187L191 186z"/>
<path style="fill:#858585; stroke:none;" d="M191 187L192 188L191 187z"/>
<path style="fill:#c5c5c5; stroke:none;" d="M308 187L309 188L308 187z"/>
<path style="fill:#858585; stroke:none;" d="M308 188L309 189L308 188z"/>
<path style="fill:#c5c5c5; stroke:none;" d="M190 190L191 191L190 190z"/>
<path style="fill:#a1a1a1; stroke:none;" d="M190 191L191 192L190 191M309 191L310 192L309 191z"/>
<path style="fill:#858585; stroke:none;" d="M190 192L191 193L190 192M309 192L310 193L309 192z"/>
<path style="fill:#c5c5c5; stroke:none;" d="M310.333 194.667L310.667 195.333L310.333 194.667M189 195L190 196L189 195z"/>
<path style="fill:#858585; stroke:none;" d="M189 196L190 197L189 196z"/>
<path style="fill:#a1a1a1; stroke:none;" d="M310 196L311 197L310 196z"/>
<path style="fill:#858585; stroke:none;" d="M310 197L311 198L310 197z"/>
<path style="fill:#c5c5c5; stroke:none;" d="M188 198L189 199L188 198z"/>
<path style="fill:#a1a1a1; stroke:none;" d="M188 199L189 200L188 199z"/>
<path style="fill:#c5c5c5; stroke:none;" d="M311 199L312 200L311 199z"/>
<path style="fill:#858585; stroke:none;" d="M188 200L189 201L188 200z"/>
<path style="fill:#a1a1a1; stroke:none;" d="M311 200L312 201L311 200z"/>
<path style="fill:#858585; stroke:none;" d="M311 201L312 202L311 201z"/>
<path style="fill:#c5c5c5; stroke:none;" d="M187 202L188 203L187 202z"/>
<path style="fill:#a1a1a1; stroke:none;" d="M187 203L188 204L187 203z"/>
<path style="fill:#c5c5c5; stroke:none;" d="M312 203L313 204L312 203z"/>
<path style="fill:#858585; stroke:none;" d="M187 204L188 205L187 204z"/>
<path style="fill:#a1a1a1; stroke:none;" d="M312 204L313 205L312 204z"/>
<path style="fill:#c5c5c5; stroke:none;" d="M186 207L187 208L186 207M313 207L314 208L313 207z"/>
<path style="fill:#858585; stroke:none;" d="M186 208L187 209L186 208z"/>
<path style="fill:#a1a1a1; stroke:none;" d="M313 208L314 209L313 208z"/>
<path style="fill:#858585; stroke:none;" d="M313 209L314 210L313 209z"/>
<path style="fill:#c5c5c5; stroke:none;" d="M185 211L186 212L185 211M314 211L315 212L314 211z"/>
<path style="fill:#858585; stroke:none;" d="M185 212L186 213L185 212z"/>
<path style="fill:#a1a1a1; stroke:none;" d="M314 212L315 213L314 212z"/>
<path style="fill:#858585; stroke:none;" d="M314 213L315 214L314 213z"/>
<path style="fill:#c5c5c5; stroke:none;" d="M184 215L185 216L184 215M315 215L316 216L315 215z"/>
<path style="fill:#a1a1a1; stroke:none;" d="M184 216L185 217L184 216M315 216L316 217L315 216z"/>
<path style="fill:#858585; stroke:none;" d="M184 217L185 218L184 217M315 217L316 218L315 217z"/>
<path style="fill:#c5c5c5; stroke:none;" d="M183 219L184 220L183 219M316 219L317 220L316 219z"/>
<path style="fill:#a1a1a1; stroke:none;" d="M183 220L184 221L183 220M316 220L317 221L316 220z"/>
<path style="fill:#858585; stroke:none;" d="M183 221L184 222L183 221M316 221L317 222L316 221z"/>
<path style="fill:#c5c5c5; stroke:none;" d="M182 223L183 224L182 223z"/>
<path style="fill:#858585; stroke:none;" d="M182 224L183 225L182 224z"/>
<path style="fill:#c5c5c5; stroke:none;" d="M317 224L318 225L317 224z"/>
<path style="fill:#858585; stroke:none;" d="M214 225L215 226L214 225z"/>
<path style="fill:#a1a1a1; stroke:none;" d="M215 225L216 226L215 225z"/>
<path style="fill:#858585; stroke:none;" d="M216 225L217 226L216 225M282 225L283 226L282 225z"/>
<path style="fill:#a1a1a1; stroke:none;" d="M283 225L284 226L283 225z"/>
<path style="fill:#c5c5c5; stroke:none;" d="M284 225L285 226L284 225z"/>
<path style="fill:#858585; stroke:none;" d="M285 225L286 226L285 225M317 225L318 226L317 225z"/>
<path style="fill:#c5c5c5; stroke:none;" d="M214.333 226.667L214.667 227.333L214.333 226.667z"/>
<path style="fill:#010101; stroke:none;" d="M203 275C235.994 282.546 264.016 282.562 297 275L288.627 240L284.411 227.042L257 228.996L229 227.95L216.43 226.693L211.576 239L203 275z"/>
<path style="fill:#c5c5c5; stroke:none;" d="M219 226L220 227L219 226z"/>
<path style="fill:#a1a1a1; stroke:none;" d="M220 226L221 227L220 226z"/>
<path style="fill:#858585; stroke:none;" d="M221.667 226.333L222.333 226.667L221.667 226.333M275.667 226.333L276.333 226.667L275.667 226.333z"/>
<path style="fill:#a1a1a1; stroke:none;" d="M277 226L278 227L277 226z"/>
<path style="fill:#c5c5c5; stroke:none;" d="M278.667 226.333L279.333 226.667L278.667 226.333z"/>
<path style="fill:#a1a1a1; stroke:none;" d="M285 226L286 227L285 226z"/>
<path style="fill:#c5c5c5; stroke:none;" d="M181 227L182 228L181 227M225.667 227.333L226.333 227.667L225.667 227.333z"/>
<path style="fill:#a1a1a1; stroke:none;" d="M227 227L228 228L227 227z"/>
<path style="fill:#858585; stroke:none;" d="M228.667 227.333L229.333 227.667L228.667 227.333M268.667 227.333L269.333 227.667L268.667 227.333z"/>
<path style="fill:#a1a1a1; stroke:none;" d="M270 227L271 228L270 227z"/>
<path style="fill:#c5c5c5; stroke:none;" d="M271.667 227.333L272.333 227.667L271.667 227.333z"/>
<path style="fill:#a1a1a1; stroke:none;" d="M181 228L182 229L181 228z"/>
<path style="fill:#c5c5c5; stroke:none;" d="M233 228L233 229L236 229L233 228z"/>
<path style="fill:#a1a1a1; stroke:none;" d="M236.667 228.333L237.333 228.667L236.667 228.333z"/>
<path style="fill:#858585; stroke:none;" d="M238 228L238 229L242 229L238 228M256 228L256 229L260 229L256 228z"/>
<path style="fill:#a1a1a1; stroke:none;" d="M260.667 228.333L261.333 228.667L260.667 228.333z"/>
<path style="fill:#c5c5c5; stroke:none;" d="M262.667 228.333L263.333 228.667L262.667 228.333M318 228L319 229L318 228z"/>
<path style="fill:#858585; stroke:none;" d="M181 229L182 230L181 229M213 229L214 230L213 229M286 229L287 230L286 229M318 229L319 230L318 229z"/>
<path style="fill:#c5c5c5; stroke:none;" d="M213.333 230.667L213.667 231.333L213.333 230.667z"/>
<path style="fill:#a1a1a1; stroke:none;" d="M286 230L287 231L286 230z"/>
<path style="fill:#c5c5c5; stroke:none;" d="M286 231L287 232L286 231z"/>
<path style="fill:#a1a1a1; stroke:none;" d="M180 232L181 233L180 232z"/>
<path style="fill:#c5c5c5; stroke:none;" d="M319 232L320 233L319 232z"/>
<path style="fill:#858585; stroke:none;" d="M180 233L181 234L180 233z"/>
<path style="fill:#a1a1a1; stroke:none;" d="M212 233L213 234L212 233M319 233L320 234L319 233z"/>
<path style="fill:#c5c5c5; stroke:none;" d="M212 234L213 235L212 234z"/>
<path style="fill:#858585; stroke:none;" d="M287 234L288 235L287 234M319 234L320 235L319 234z"/>
<path style="fill:#c5c5c5; stroke:none;" d="M179 235L180 236L179 235M287 235L288 236L287 235z"/>
<path style="fill:#a1a1a1; stroke:none;" d="M179 236L180 237L179 236z"/>
<path style="fill:#858585; stroke:none;" d="M211.333 236.667L211.667 237.333L211.333 236.667z"/>
<path style="fill:#c5c5c5; stroke:none;" d="M320 236L321 237L320 236z"/>
<path style="fill:#858585; stroke:none;" d="M179 237L180 238L179 237M288 237L289 238L288 237z"/>
<path style="fill:#a1a1a1; stroke:none;" d="M320 237L321 238L320 237M211 238L212 239L211 238M288 238L289 239L288 238z"/>
<path style="fill:#858585; stroke:none;" d="M320 238L321 239L320 238z"/>
<path style="fill:#c5c5c5; stroke:none;" d="M178 239L179 240L178 239M211 239L212 240L211 239M288 239L289 240L288 239z"/>
<path style="fill:#a1a1a1; stroke:none;" d="M178 240L179 241L178 240z"/>
<path style="fill:#c5c5c5; stroke:none;" d="M321 240L322 241L321 240z"/>
<path style="fill:#858585; stroke:none;" d="M178 241L179 242L178 241M210 241L211 242L210 241M289 241L290 242L289 241M321 241L322 242L321 241z"/>
<path style="fill:#a1a1a1; stroke:none;" d="M210 242L211 243L210 242M289 242L290 243L289 242z"/>
<path style="fill:#c5c5c5; stroke:none;" d="M210 243L211 244L210 243M289 243L290 244L289 243M177 244L178 245L177 244M322 244L323 245L322 244z"/>
<path style="fill:#858585; stroke:none;" d="M177 245L178 246L177 245M209 245L210 246L209 245z"/>
<path style="fill:#a1a1a1; stroke:none;" d="M322 245L323 246L322 245z"/>
<path style="fill:#c5c5c5; stroke:none;" d="M209 246L210 247L209 246z"/>
<path style="fill:#858585; stroke:none;" d="M290 246L291 247L290 246M322 246L323 247L322 246z"/>
<path style="fill:#c5c5c5; stroke:none;" d="M290 247L291 248L290 247z"/>
<path style="fill:#a1a1a1; stroke:none;" d="M176 248L177 249L176 248z"/>
<path style="fill:#c5c5c5; stroke:none;" d="M323 248L324 249L323 248z"/>
<path style="fill:#858585; stroke:none;" d="M176 249L177 250L176 249M208 249L209 250L208 249z"/>
<path style="fill:#a1a1a1; stroke:none;" d="M323 249L324 250L323 249M208 250L209 251L208 250M291 250L292 251L291 250z"/>
<path style="fill:#858585; stroke:none;" d="M323 250L324 251L323 250z"/>
<path style="fill:#c5c5c5; stroke:none;" d="M175.333 251.667L175.667 252.333L175.333 251.667M208 251L209 252L208 251M291 251L292 252L291 251M324 252L325 253L324 252z"/>
<path style="fill:#a1a1a1; stroke:none;" d="M175 253L176 254L175 253z"/>
<path style="fill:#858585; stroke:none;" d="M207 253L208 254L207 253M292.333 253.667L292.667 254.333L292.333 253.667z"/>
<path style="fill:#a1a1a1; stroke:none;" d="M324 253L325 254L324 253z"/>
<path style="fill:#858585; stroke:none;" d="M175 254L176 255L175 254z"/>
<path style="fill:#a1a1a1; stroke:none;" d="M207 254L208 255L207 254z"/>
<path style="fill:#858585; stroke:none;" d="M324 254L325 255L324 254z"/>
<path style="fill:#c5c5c5; stroke:none;" d="M207 255L208 256L207 255M292 255L293 256L292 255M174 256L175 257L174 256M325 256L326 257L325 256z"/>
<path style="fill:#a1a1a1; stroke:none;" d="M174 257L175 258L174 257z"/>
<path style="fill:#858585; stroke:none;" d="M206 257L207 258L206 257z"/>
<path style="fill:#a1a1a1; stroke:none;" d="M325 257L326 258L325 257z"/>
<path style="fill:#858585; stroke:none;" d="M174 258L175 259L174 258z"/>
<path style="fill:#a1a1a1; stroke:none;" d="M206 258L207 259L206 258z"/>
<path style="fill:#858585; stroke:none;" d="M293 258L294 259L293 258M325 258L326 259L325 258z"/>
<path style="fill:#c5c5c5; stroke:none;" d="M206 259L207 260L206 259z"/>
<path style="fill:#a1a1a1; stroke:none;" d="M293 259L294 260L293 259z"/>
<path style="fill:#c5c5c5; stroke:none;" d="M173 260L174 261L173 260z"/>
<path style="fill:#858585; stroke:none;" d="M173 261L174 262L173 261M205 261L206 262L205 261z"/>
<path style="fill:#c5c5c5; stroke:none;" d="M326 261L327 262L326 261z"/>
<path style="fill:#a1a1a1; stroke:none;" d="M205 262L206 263L205 262z"/>
<path style="fill:#858585; stroke:none;" d="M294 262L295 263L294 262M326 262L327 263L326 262z"/>
<path style="fill:#c5c5c5; stroke:none;" d="M205 263L206 264L205 263M294 263L295 264L294 263M172 264L173 265L172 264z"/>
<path style="fill:#a1a1a1; stroke:none;" d="M172 265L173 266L172 265M327 265L328 266L327 265z"/>
<path style="fill:#858585; stroke:none;" d="M172 266L173 267L172 266M204 266L205 267L204 266M295 266L296 267L295 266M327 266L328 267L327 266z"/>
<path style="fill:#c5c5c5; stroke:none;" d="M204 267L205 268L204 267z"/>
<path style="fill:#a1a1a1; stroke:none;" d="M295 267L296 268L295 267z"/>
<path style="fill:#c5c5c5; stroke:none;" d="M295 268L296 269L295 268M328.333 268.667L328.667 269.333L328.333 268.667z"/>
<path style="fill:#a1a1a1; stroke:none;" d="M171 269L172 270L171 269z"/>
<path style="fill:#858585; stroke:none;" d="M203 269L204 270L203 269M171 270L172 271L171 270z"/>
<path style="fill:#a1a1a1; stroke:none;" d="M203 270L204 271L203 270z"/>
<path style="fill:#858585; stroke:none;" d="M296 270L297 271L296 270z"/>
<path style="fill:#a1a1a1; stroke:none;" d="M328 270L329 271L328 270z"/>
<path style="fill:#c5c5c5; stroke:none;" d="M203 271L204 272L203 271z"/>
<path style="fill:#a1a1a1; stroke:none;" d="M296 271L297 272L296 271z"/>
<path style="fill:#858585; stroke:none;" d="M328 271L329 272L328 271z"/>
<path style="fill:#c5c5c5; stroke:none;" d="M170 272L171 273L170 272M296 272L297 273L296 272z"/>
<path style="fill:#a1a1a1; stroke:none;" d="M170 273L171 274L170 273z"/>
<path style="fill:#858585; stroke:none;" d="M202.333 273.667L202.667 274.333L202.333 273.667z"/>
<path style="fill:#c5c5c5; stroke:none;" d="M329 273L330 274L329 273z"/>
<path style="fill:#858585; stroke:none;" d="M170 274L171 275L170 274M297 274L298 275L297 274z"/>
<path style="fill:#a1a1a1; stroke:none;" d="M329 274L330 275L329 274z"/>
<path style="fill:#858585; stroke:none;" d="M204 275L205 276L204 275z"/>
<path style="fill:#c5c5c5; stroke:none;" d="M205 275L206 276L205 275M294 275L295 276L294 275z"/>
<path style="fill:#858585; stroke:none;" d="M295 275L296 276L295 275M329 275L330 276L329 275z"/>
<path style="fill:#c5c5c5; stroke:none;" d="M169 276L170 277L169 276z"/>
<path style="fill:#858585; stroke:none;" d="M207 276L208 277L207 276z"/>
<path style="fill:#c5c5c5; stroke:none;" d="M208 276L209 277L208 276M291 276L292 277L291 276z"/>
<path style="fill:#858585; stroke:none;" d="M292 276L293 277L292 276z"/>
<path style="fill:#a1a1a1; stroke:none;" d="M169 277L170 278L169 277z"/>
<path style="fill:#858585; stroke:none;" d="M210 277L211 278L210 277z"/>
<path style="fill:#a1a1a1; stroke:none;" d="M211 277L212 278L211 277z"/>
<path style="fill:#c5c5c5; stroke:none;" d="M212.667 277.333L213.333 277.667L212.667 277.333M287 277L288 278L287 277z"/>
<path style="fill:#858585; stroke:none;" d="M288 277L289 278L288 277z"/>
<path style="fill:#c5c5c5; stroke:none;" d="M330 277L331 278L330 277z"/>
<path style="fill:#858585; stroke:none;" d="M169 278L170 279L169 278M215 278L216 279L215 278z"/>
<path style="fill:#a1a1a1; stroke:none;" d="M216 278L217 279L216 278z"/>
<path style="fill:#c5c5c5; stroke:none;" d="M217 278L218 279L217 278M282 278L283 279L282 278z"/>
<path style="fill:#a1a1a1; stroke:none;" d="M283 278L284 279L283 278z"/>
<path style="fill:#858585; stroke:none;" d="M284 278L285 279L284 278M330 278L331 279L330 278M219 279L220 280L219 279z"/>
<path style="fill:#a1a1a1; stroke:none;" d="M220 279L221 280L220 279z"/>
<path style="fill:#c5c5c5; stroke:none;" d="M221.667 279.333L222.333 279.667L221.667 279.333M277.667 279.333L278.333 279.667L277.667 279.333z"/>
<path style="fill:#a1a1a1; stroke:none;" d="M279 279L280 280L279 279z"/>
<path style="fill:#858585; stroke:none;" d="M280 279L281 280L280 279M224.667 280.333L225.333 280.667L224.667 280.333z"/>
<path style="fill:#a1a1a1; stroke:none;" d="M226.667 280.333L227.333 280.667L226.667 280.333z"/>
<path style="fill:#c5c5c5; stroke:none;" d="M228.667 280.333L229.333 280.667L228.667 280.333M270.667 280.333L271.333 280.667L270.667 280.333z"/>
<path style="fill:#a1a1a1; stroke:none;" d="M272.667 280.333L273.333 280.667L272.667 280.333z"/>
<path style="fill:#858585; stroke:none;" d="M274 280L275 281L274 280z"/>
<path style="fill:#c5c5c5; stroke:none;" d="M168 281L169 282L168 281z"/>
<path style="fill:#858585; stroke:none;" d="M233 281L233 282L236 282L233 281z"/>
<path style="fill:#a1a1a1; stroke:none;" d="M236.667 281.333L237.333 281.667L236.667 281.333z"/>
<path style="fill:#c5c5c5; stroke:none;" d="M238 281L238 282L241 282L238 281M259 281L259 282L262 282L259 281z"/>
<path style="fill:#a1a1a1; stroke:none;" d="M262.667 281.333L263.333 281.667L262.667 281.333z"/>
<path style="fill:#858585; stroke:none;" d="M264.667 281.333L265.333 281.667L264.667 281.333z"/>
<path style="fill:#c5c5c5; stroke:none;" d="M331 281L332 282L331 281z"/>
<path style="fill:#858585; stroke:none;" d="M168 282L169 283L168 282z"/>
<path style="fill:#a1a1a1; stroke:none;" d="M331 282L332 283L331 282z"/>
<path style="fill:#858585; stroke:none;" d="M331 283L332 284L331 283z"/>
<path style="fill:#a1a1a1; stroke:none;" d="M167 285L168 286L167 285z"/>
<path style="fill:#c5c5c5; stroke:none;" d="M332 285L333 286L332 285z"/>
<path style="fill:#858585; stroke:none;" d="M167 286L168 287L167 286z"/>
<path style="fill:#a1a1a1; stroke:none;" d="M332 286L333 287L332 286z"/>
<path style="fill:#858585; stroke:none;" d="M332 287L333 288L332 287z"/>
<path style="fill:#c5c5c5; stroke:none;" d="M166 289L167 290L166 289M333 289L334 290L333 289z"/>
<path style="fill:#858585; stroke:none;" d="M166.333 290.667L166.667 291.333L166.333 290.667z"/>
<path style="fill:#a1a1a1; stroke:none;" d="M333 290L334 291L333 290z"/>
<path style="fill:#858585; stroke:none;" d="M333 291L334 292L333 291z"/>
<path style="fill:#c5c5c5; stroke:none;" d="M165 293L166 294L165 293M334 293L335 294L334 293z"/>
<path style="fill:#a1a1a1; stroke:none;" d="M165 294L166 295L165 294M334 294L335 295L334 294z"/>
<path style="fill:#858585; stroke:none;" d="M165 295L166 296L165 295M334 295L335 296L334 295z"/>
<path style="fill:#c5c5c5; stroke:none;" d="M147 296L148 297L147 296z"/>
<path style="fill:#858585; stroke:none;" d="M148 296L149 297L148 296M351 296L352 297L351 296z"/>
<path style="fill:#c5c5c5; stroke:none;" d="M352 296L353 297L352 296z"/>
<path style="fill:#858585; stroke:none;" d="M146 297L147 298L146 297z"/>
<path style="fill:#4f4f4f; stroke:none;" d="M147 297L90 331.811C84.0192 335.482 72.2994 340.3 71.1489 348.001C69.0921 361.769 99.0807 373.445 109 379.4C142.146 399.298 175.231 419.438 208 439.95C219.402 447.087 236.958 462.483 251 461.621C265.231 460.747 281.128 446.41 293 439.203C325.712 419.345 358.231 399.165 391 379.399C400.524 373.654 429.92 361.971 428.876 349C428.191 340.491 417.208 336.689 411 332.657C392.442 320.603 372.285 305.752 352 297C354.633 317.385 366.25 336.929 356.19 357C345.993 377.345 322.987 389.166 302 395.14C256.735 408.025 192.424 406.947 156.001 372.91C144.569 362.228 136.603 346.875 140.015 331C141.986 321.828 149.735 306.007 147 297z"/>
<path style="fill:#a1a1a1; stroke:none;" d="M148 297L149 298L148 297z"/>
<path style="fill:#c5c5c5; stroke:none;" d="M164 297L165 298L164 297z"/>
<path style="fill:#a1a1a1; stroke:none;" d="M351 297L352 298L351 297z"/>
<path style="fill:#858585; stroke:none;" d="M353 297L354 298L353 297z"/>
<path style="fill:#a1a1a1; stroke:none;" d="M144 298L145 299L144 298z"/>
<path style="fill:#c5c5c5; stroke:none;" d="M148 298L149 299L148 298z"/>
<path style="fill:#858585; stroke:none;" d="M164 298L165 299L164 298z"/>
<path style="fill:#c5c5c5; stroke:none;" d="M335 298L336 299L335 298M351 298L352 299L351 298z"/>
<path style="fill:#a1a1a1; stroke:none;" d="M355 298L356 299L355 298z"/>
<path style="fill:#c5c5c5; stroke:none;" d="M142 299L143 300L142 299z"/>
<path style="fill:#858585; stroke:none;" d="M335 299L336 300L335 299z"/>
<path style="fill:#c5c5c5; stroke:none;" d="M357 299L358 300L357 299z"/>
<path style="fill:#858585; stroke:none;" d="M141 300L142 301L141 300M147 300L148 301L147 300M352 300L353 301L352 300z"/>
<path style="fill:#a1a1a1; stroke:none;" d="M358 300L359 301L358 300M139 301L140 302L139 301M147 301L148 302L147 301z"/>
<path style="fill:#c5c5c5; stroke:none;" d="M163 301L164 302L163 301z"/>
<path style="fill:#a1a1a1; stroke:none;" d="M352 301L353 302L352 301M360 301L361 302L360 301z"/>
<path style="fill:#c5c5c5; stroke:none;" d="M137 302L138 303L137 302M147 302L148 303L147 302z"/>
<path style="fill:#a1a1a1; stroke:none;" d="M163 302L164 303L163 302M336 302L337 303L336 302z"/>
<path style="fill:#c5c5c5; stroke:none;" d="M352.333 302.667L352.667 303.333L352.333 302.667z"/>
<path style="fill:#858585; stroke:none;" d="M361 302L362 303L361 302z"/>
<path style="fill:#a1a1a1; stroke:none;" d="M136 303L137 304L136 303z"/>
<path style="fill:#858585; stroke:none;" d="M163 303L164 304L163 303M336 303L337 304L336 303z"/>
<path style="fill:#a1a1a1; stroke:none;" d="M363 303L364 304L363 303M134 304L135 305L134 304z"/>
<path style="fill:#858585; stroke:none;" d="M146 304L147 305L146 304M364 304L365 305L364 304z"/>
<path style="fill:#c5c5c5; stroke:none;" d="M365 304L366 305L365 304z"/>
<path style="fill:#858585; stroke:none;" d="M133 305L134 306L133 305z"/>
<path style="fill:#a1a1a1; stroke:none;" d="M146 305L147 306L146 305z"/>
<path style="fill:#c5c5c5; stroke:none;" d="M337.333 305.667L337.667 306.333L337.333 305.667z"/>
<path style="fill:#858585; stroke:none;" d="M353 305L354 306L353 305M366 305L367 306L366 305z"/>
<path style="fill:#a1a1a1; stroke:none;" d="M131 306L132 307L131 306z"/>
<path style="fill:#c5c5c5; stroke:none;" d="M146 306L147 307L146 306z"/>
<path style="fill:#a1a1a1; stroke:none;" d="M162 306L163 307L162 306M353 306L354 307L353 306z"/>
<path style="fill:#c5c5c5; stroke:none;" d="M368 306L369 307L368 306M129 307L130 308L129 307z"/>
<path style="fill:#858585; stroke:none;" d="M162 307L163 308L162 307z"/>
<path style="fill:#a1a1a1; stroke:none;" d="M337 307L338 308L337 307z"/>
<path style="fill:#858585; stroke:none;" d="M369 307L370 308L369 307z"/>
<path style="fill:#c5c5c5; stroke:none;" d="M370 307L371 308L370 307z"/>
<path style="fill:#858585; stroke:none;" d="M128 308L129 309L128 308M145 308L146 309L145 308M337 308L338 309L337 308M371 308L372 309L371 308z"/>
<path style="fill:#c5c5c5; stroke:none;" d="M126 309L127 310L126 309z"/>
<path style="fill:#a1a1a1; stroke:none;" d="M145 309L146 310L145 309z"/>
<path style="fill:#c5c5c5; stroke:none;" d="M161 309L162 310L161 309z"/>
<path style="fill:#858585; stroke:none;" d="M354 309L355 310L354 309z"/>
<path style="fill:#c5c5c5; stroke:none;" d="M373 309L374 310L373 309M124 310L125 311L124 310z"/>
<path style="fill:#858585; stroke:none;" d="M125 310L126 311L125 310z"/>
<path style="fill:#c5c5c5; stroke:none;" d="M145 310L146 311L145 310z"/>
<path style="fill:#a1a1a1; stroke:none;" d="M161 310L162 311L161 310z"/>
<path style="fill:#c5c5c5; stroke:none;" d="M338 310L339 311L338 310M354 310L355 311L354 310z"/>
<path style="fill:#858585; stroke:none;" d="M374 310L375 311L374 310z"/>
<path style="fill:#c5c5c5; stroke:none;" d="M375 310L376 311L375 310z"/>
<path style="fill:#858585; stroke:none;" d="M123 311L124 312L123 311M161 311L162 312L161 311z"/>
<path style="fill:#a1a1a1; stroke:none;" d="M338 311L339 312L338 311z"/>
<path style="fill:#858585; stroke:none;" d="M376 311L377 312L376 311z"/>
<path style="fill:#c5c5c5; stroke:none;" d="M121 312L122 313L121 312z"/>
<path style="fill:#858585; stroke:none;" d="M338 312L339 313L338 312z"/>
<path style="fill:#c5c5c5; stroke:none;" d="M378 312L379 313L378 312M119 313L120 314L119 313z"/>
<path style="fill:#858585; stroke:none;" d="M120 313L121 314L120 313z"/>
<path style="fill:#a1a1a1; stroke:none;" d="M144 313L145 314L144 313z"/>
<path style="fill:#858585; stroke:none;" d="M355 313L356 314L355 313M379 313L380 314L379 313M118 314L119 315L118 314z"/>
<path style="fill:#c5c5c5; stroke:none;" d="M144 314L145 315L144 314z"/>
<path style="fill:#a1a1a1; stroke:none;" d="M160 314L161 315L160 314z"/>
<path style="fill:#c5c5c5; stroke:none;" d="M339 314L340 315L339 314M355.333 314.667L355.667 315.333L355.333 314.667z"/>
<path style="fill:#a1a1a1; stroke:none;" d="M381 314L382 315L381 314z"/>
<path style="fill:#c5c5c5; stroke:none;" d="M116 315L117 316L116 315z"/>
<path style="fill:#858585; stroke:none;" d="M160 315L161 316L160 315M339 315L340 316L339 315M382 315L383 316L382 315M115 316L116 317L115 316M143 316L144 317L143 316M384 316L385 317L384 316z"/>
<path style="fill:#a1a1a1; stroke:none;" d="M113 317L114 318L113 317M143 317L144 318L143 317z"/>
<path style="fill:#858585; stroke:none;" d="M356 317L357 318L356 317z"/>
<path style="fill:#a1a1a1; stroke:none;" d="M386 317L387 318L386 317z"/>
<path style="fill:#858585; stroke:none;" d="M112 318L113 319L112 318z"/>
<path style="fill:#c5c5c5; stroke:none;" d="M143 318L144 319L143 318M159 318L160 319L159 318M340 318L341 319L340 318z"/>
<path style="fill:#a1a1a1; stroke:none;" d="M356 318L357 319L356 318z"/>
<path style="fill:#858585; stroke:none;" d="M387 318L388 319L387 318M110 319L111 320L110 319M159 319L160 320L159 319z"/>
<path style="fill:#a1a1a1; stroke:none;" d="M340 319L341 320L340 319M389 319L390 320L389 319M108 320L109 321L108 320z"/>
<path style="fill:#858585; stroke:none;" d="M142 320L143 321L142 320M340 320L341 321L340 320z"/>
<path style="fill:#c5c5c5; stroke:none;" d="M391 320L392 321L391 320z"/>
<path style="fill:#858585; stroke:none;" d="M107 321L108 322L107 321z"/>
<path style="fill:#a1a1a1; stroke:none;" d="M142 321L143 322L142 321z"/>
<path style="fill:#858585; stroke:none;" d="M357 321L358 322L357 321M392 321L393 322L392 321z"/>
<path style="fill:#a1a1a1; stroke:none;" d="M105 322L106 323L105 322z"/>
<path style="fill:#c5c5c5; stroke:none;" d="M142 322L143 323L142 322z"/>
<path style="fill:#a1a1a1; stroke:none;" d="M158 322L159 323L158 322z"/>
<path style="fill:#c5c5c5; stroke:none;" d="M357 322L358 323L357 322z"/>
<path style="fill:#a1a1a1; stroke:none;" d="M394 322L395 323L394 322z"/>
<path style="fill:#c5c5c5; stroke:none;" d="M103 323L104 324L103 323z"/>
<path style="fill:#858585; stroke:none;" d="M158 323L159 324L158 323z"/>
<path style="fill:#a1a1a1; stroke:none;" d="M341 323L342 324L341 323z"/>
<path style="fill:#c5c5c5; stroke:none;" d="M396 323L397 324L396 323z"/>
<path style="fill:#858585; stroke:none;" d="M102 324L103 325L102 324M341 324L342 325L341 324M397 324L398 325L397 324z"/>
<path style="fill:#a1a1a1; stroke:none;" d="M100 325L101 326L100 325z"/>
<path style="fill:#858585; stroke:none;" d="M141 325L142 326L141 325M358 325L359 326L358 325z"/>
<path style="fill:#a1a1a1; stroke:none;" d="M399 325L400 326L399 325z"/>
<path style="fill:#c5c5c5; stroke:none;" d="M98 326L99 327L98 326M141 326L142 327L141 326M157 326L158 327L157 326M342 326L343 327L342 326z"/>
<path style="fill:#a1a1a1; stroke:none;" d="M358 326L359 327L358 326z"/>
<path style="fill:#858585; stroke:none;" d="M97 327L98 328L97 327z"/>
<path style="fill:#a1a1a1; stroke:none;" d="M157 327L158 328L157 327M342 327L343 328L342 327z"/>
<path style="fill:#c5c5c5; stroke:none;" d="M358 327L359 328L358 327z"/>
<path style="fill:#a1a1a1; stroke:none;" d="M402 327L403 328L402 327M95 328L96 329L95 328z"/>
<path style="fill:#858585; stroke:none;" d="M140 328L141 329L140 328M157 328L158 329L157 328M342 328L343 329L342 328z"/>
<path style="fill:#c5c5c5; stroke:none;" d="M404 328L405 329L404 328z"/>
<path style="fill:#a1a1a1; stroke:none;" d="M140 329L141 330L140 329z"/>
<path style="fill:#858585; stroke:none;" d="M359 329L360 330L359 329z"/>
<path style="fill:#a1a1a1; stroke:none;" d="M92 330L93 331L92 330z"/>
<path style="fill:#c5c5c5; stroke:none;" d="M140 330L141 331L140 330M156 330L157 331L156 330M343 330L344 331L343 330z"/>
<path style="fill:#a1a1a1; stroke:none;" d="M359 330L360 331L359 330M407 330L408 331L407 330z"/>
<path style="fill:#c5c5c5; stroke:none;" d="M90 331L91 332L90 331z"/>
<path style="fill:#a1a1a1; stroke:none;" d="M156 331L157 332L156 331M343 331L344 332L343 331z"/>
<path style="fill:#c5c5c5; stroke:none;" d="M359.333 331.667L359.667 332.333L359.333 331.667M409 331L410 332L409 331z"/>
<path style="fill:#858585; stroke:none;" d="M156 332L157 333L156 332M343 332L344 333L343 332M410 332L411 333L410 332z"/>
<path style="fill:#a1a1a1; stroke:none;" d="M87 333L88 334L87 333z"/>
<path style="fill:#858585; stroke:none;" d="M139.333 333.667L139.667 334.333L139.333 333.667z"/>
<path style="fill:#c5c5c5; stroke:none;" d="M412 333L413 334L412 333M85 334L86 335L85 334M155 334L156 335L155 334z"/>
<path style="fill:#858585; stroke:none;" d="M413 334L414 335L413 334z"/>
<path style="fill:#c5c5c5; stroke:none;" d="M414 334L415 335L414 334z"/>
<path style="fill:#858585; stroke:none;" d="M84 335L85 336L84 335z"/>
<path style="fill:#a1a1a1; stroke:none;" d="M139 335L139 343L140 343L139 335z"/>
<path style="fill:#858585; stroke:none;" d="M155 335L155 338L156 338L155 335M360.333 335.667L360.667 336.333L360.333 335.667M415 335L416 336L415 335z"/>
<path style="fill:#c5c5c5; stroke:none;" d="M82 336L83 337L82 336M344 336L345 337L344 336M417 336L418 337L417 336M80 337L81 338L80 337z"/>
<path style="fill:#858585; stroke:none;" d="M81 337L82 338L81 337z"/>
<path style="fill:#a1a1a1; stroke:none;" d="M344 337L344 342L345 342L344 337M360 337L360 341L361 341L360 337z"/>
<path style="fill:#858585; stroke:none;" d="M418 337L419 338L418 337M79 338L80 339L79 338M420 338L421 339L420 338z"/>
<path style="fill:#c5c5c5; stroke:none;" d="M77 339L78 340L77 339M422 339L423 340L422 339z"/>
<path style="fill:#858585; stroke:none;" d="M76 340L77 341L76 340M155 340L155 343L156 343L155 340M423 340L424 341L423 340z"/>
<path style="fill:#a1a1a1; stroke:none;" d="M74 341L75 342L74 341z"/>
<path style="fill:#858585; stroke:none;" d="M360 341L360 344L361 344L360 341z"/>
<path style="fill:#c5c5c5; stroke:none;" d="M425 341L426 342L425 341z"/>
<path style="fill:#858585; stroke:none;" d="M73 342L74 343L73 342z"/>
<path style="fill:#c5c5c5; stroke:none;" d="M344.333 342.667L344.667 343.333L344.333 342.667z"/>
<path style="fill:#a1a1a1; stroke:none;" d="M426 342L427 343L426 342M72 343L73 344L72 343z"/>
<path style="fill:#858585; stroke:none;" d="M139.333 343.667L139.667 344.333L139.333 343.667z"/>
<path style="fill:#a1a1a1; stroke:none;" d="M155 343L156 344L155 343M427 343L428 344L427 343z"/>
<path style="fill:#c5c5c5; stroke:none;" d="M71 344L72 345L71 344z"/>
<path style="fill:#858585; stroke:none;" d="M343 345L344 346L343 345M428 345L429 346L428 345z"/>
<path style="fill:#c5c5c5; stroke:none;" d="M70 346L71 347L70 346z"/>
<path style="fill:#858585; stroke:none;" d="M156 346L157 347L156 346z"/>
<path style="fill:#a1a1a1; stroke:none;" d="M343 346L344 347L343 346z"/>
<path style="fill:#c5c5c5; stroke:none;" d="M359 346L360 347L359 346z"/>
<path style="fill:#a1a1a1; stroke:none;" d="M70 347L71 348L70 347z"/>
<path style="fill:#c5c5c5; stroke:none;" d="M140 347L141 348L140 347M156 347L157 348L156 347M343 347L344 348L343 347z"/>
<path style="fill:#a1a1a1; stroke:none;" d="M359 347L360 348L359 347M429 347L430 348L429 347z"/>
<path style="fill:#858585; stroke:none;" d="M70 348L70 352L71 352L70 348z"/>
<path style="fill:#a1a1a1; stroke:none;" d="M140 348L141 349L140 348z"/>
<path style="fill:#858585; stroke:none;" d="M359 348L360 349L359 348M429 348L429 352L430 352L429 348z"/>
<path style="fill:#a1a1a1; stroke:none;" d="M157 349L158 350L157 349M342 349L343 350L342 349z"/>
<path style="fill:#c5c5c5; stroke:none;" d="M358 350L359 351L358 350z"/>
<path style="fill:#a1a1a1; stroke:none;" d="M141 351L142 352L141 351z"/>
<path style="fill:#858585; stroke:none;" d="M158 351L159 352L158 351z"/>
<path style="fill:#a1a1a1; stroke:none;" d="M341 351L342 352L341 351M358 351L359 352L358 351M70 352L71 353L70 352M429 352L430 353L429 352z"/>
<path style="fill:#c5c5c5; stroke:none;" d="M70 353L71 354L70 353M142 353L143 354L142 353M159 353L160 354L159 353M340 353L341 354L340 353M357 353L358 354L357 353z"/>
<path style="fill:#a1a1a1; stroke:none;" d="M142 354L143 355L142 354z"/>
<path style="fill:#858585; stroke:none;" d="M160 354L161 355L160 354M339 354L340 355L339 354M357 354L358 355L357 354M428 354L429 355L428 354z"/>
<path style="fill:#c5c5c5; stroke:none;" d="M71 355L72 356L71 355M160 355L161 356L160 355M72 356L73 357L72 356z"/>
<path style="fill:#a1a1a1; stroke:none;" d="M143 356L144 357L143 356z"/>
<path style="fill:#c5c5c5; stroke:none;" d="M161 356L162 357L161 356z"/>
<path style="fill:#858585; stroke:none;" d="M356 356L357 357L356 356z"/>
<path style="fill:#c5c5c5; stroke:none;" d="M427 356L428 357L427 356z"/>
<path style="fill:#a1a1a1; stroke:none;" d="M73 357L74 358L73 357z"/>
<path style="fill:#858585; stroke:none;" d="M162 357L163 358L162 357z"/>
<path style="fill:#a1a1a1; stroke:none;" d="M337 357L338 358L337 357M426 357L427 358L426 357z"/>
<path style="fill:#c5c5c5; stroke:none;" d="M74 358L75 359L74 358z"/>
<path style="fill:#a1a1a1; stroke:none;" d="M144 358L145 359L144 358z"/>
<path style="fill:#858585; stroke:none;" d="M163 358L164 359L163 358M336 358L337 359L336 358z"/>
<path style="fill:#a1a1a1; stroke:none;" d="M355 358L356 359L355 358z"/>
<path style="fill:#858585; stroke:none;" d="M424 358L425 359L424 358z"/>
<path style="fill:#c5c5c5; stroke:none;" d="M425 358L426 359L425 358z"/>
<path style="fill:#a1a1a1; stroke:none;" d="M76 359L77 360L76 359z"/>
<path style="fill:#858585; stroke:none;" d="M164 359L165 360L164 359M335 359L336 360L335 359z"/>
<path style="fill:#a1a1a1; stroke:none;" d="M423 359L424 360L423 359z"/>
<path style="fill:#c5c5c5; stroke:none;" d="M77 360L78 361L77 360z"/>
<path style="fill:#a1a1a1; stroke:none;" d="M145 360L146 361L145 360z"/>
<path style="fill:#858585; stroke:none;" d="M165 360L166 361L165 360M334 360L335 361L334 360M354 360L355 361L354 360M421 360L422 361L421 360z"/>
<path style="fill:#a1a1a1; stroke:none;" d="M79 361L80 362L79 361z"/>
<path style="fill:#c5c5c5; stroke:none;" d="M146 361L147 362L146 361z"/>
<path style="fill:#858585; stroke:none;" d="M166 361L167 362L166 361M333 361L334 362L333 361z"/>
<path style="fill:#c5c5c5; stroke:none;" d="M353 361L354 362L353 361M420 361L421 362L420 361z"/>
<path style="fill:#858585; stroke:none;" d="M81 362L82 363L81 362M167 362L168 363L167 362z"/>
<path style="fill:#a1a1a1; stroke:none;" d="M332 362L333 363L332 362M418 362L419 363L418 362z"/>
<path style="fill:#c5c5c5; stroke:none;" d="M82 363L83 364L82 363z"/>
<path style="fill:#858585; stroke:none;" d="M147 363L148 364L147 363M168 363L169 364L168 363z"/>
<path style="fill:#a1a1a1; stroke:none;" d="M331 363L332 364L331 363z"/>
<path style="fill:#858585; stroke:none;" d="M352 363L353 364L352 363z"/>
<path style="fill:#c5c5c5; stroke:none;" d="M417 363L418 364L417 363z"/>
<path style="fill:#a1a1a1; stroke:none;" d="M84 364L85 365L84 364z"/>
<path style="fill:#c5c5c5; stroke:none;" d="M148 364L149 365L148 364z"/>
<path style="fill:#a1a1a1; stroke:none;" d="M169 364L170 365L169 364z"/>
<path style="fill:#c5c5c5; stroke:none;" d="M330 364L331 365L330 364M351 364L352 365L351 364z"/>
<path style="fill:#a1a1a1; stroke:none;" d="M415 364L416 365L415 364z"/>
<path style="fill:#858585; stroke:none;" d="M86 365L87 366L86 365M328 365L329 366L328 365z"/>
<path style="fill:#c5c5c5; stroke:none;" d="M350 365L351 366L350 365z"/>
<path style="fill:#a1a1a1; stroke:none;" d="M413 365L414 366L413 365z"/>
<path style="fill:#c5c5c5; stroke:none;" d="M87 366L88 367L87 366z"/>
<path style="fill:#858585; stroke:none;" d="M149 366L150 367L149 366M172 366L173 367L172 366M327 366L328 367L327 366z"/>
<path style="fill:#c5c5c5; stroke:none;" d="M412 366L413 367L412 366z"/>
<path style="fill:#a1a1a1; stroke:none;" d="M89 367L90 368L89 367z"/>
<path style="fill:#858585; stroke:none;" d="M150 367L151 368L150 367z"/>
<path style="fill:#c5c5c5; stroke:none;" d="M173 367L174 368L173 367M326 367L327 368L326 367z"/>
<path style="fill:#858585; stroke:none;" d="M349 367L350 368L349 367z"/>
<path style="fill:#a1a1a1; stroke:none;" d="M410 367L411 368L410 367z"/>
<path style="fill:#858585; stroke:none;" d="M91 368L92 369L91 368z"/>
<path style="fill:#a1a1a1; stroke:none;" d="M151 368L152 369L151 368z"/>
<path style="fill:#858585; stroke:none;" d="M175 368L176 369L175 368z"/>
<path style="fill:#a1a1a1; stroke:none;" d="M324 368L325 369L324 368z"/>
<path style="fill:#858585; stroke:none;" d="M348 368L349 369L348 368M408 368L409 369L408 368z"/>
<path style="fill:#a1a1a1; stroke:none;" d="M92 369L93 370L92 369z"/>
<path style="fill:#c5c5c5; stroke:none;" d="M152 369L153 370L152 369M176 369L177 370L176 369z"/>
<path style="fill:#a1a1a1; stroke:none;" d="M347 369L348 370L347 369z"/>
<path style="fill:#c5c5c5; stroke:none;" d="M407 369L408 370L407 369z"/>
<path style="fill:#858585; stroke:none;" d="M94 370L95 371L94 370z"/>
<path style="fill:#a1a1a1; stroke:none;" d="M153 370L154 371L153 370M178 370L179 371L178 370M321 370L322 371L321 370M346 370L347 371L346 370M405 370L406 371L405 370z"/>
<path style="fill:#858585; stroke:none;" d="M96 371L97 372L96 371z"/>
<path style="fill:#a1a1a1; stroke:none;" d="M154 371L155 372L154 371M180 371L181 372L180 371M319 371L320 372L319 371M345 371L346 372L345 371z"/>
<path style="fill:#858585; stroke:none;" d="M403 371L404 372L403 371z"/>
<path style="fill:#a1a1a1; stroke:none;" d="M97 372L98 373L97 372z"/>
<path style="fill:#c5c5c5; stroke:none;" d="M155 372L156 373L155 372z"/>
<path style="fill:#858585; stroke:none;" d="M182 372L183 373L182 372M317 372L318 373L317 372z"/>
<path style="fill:#a1a1a1; stroke:none;" d="M344 372L345 373L344 372M402 372L403 373L402 372z"/>
<path style="fill:#858585; stroke:none;" d="M99 373L100 374L99 373z"/>
<path style="fill:#a1a1a1; stroke:none;" d="M156 373L157 374L156 373z"/>
<path style="fill:#858585; stroke:none;" d="M184 373L185 374L184 373z"/>
<path style="fill:#a1a1a1; stroke:none;" d="M315 373L316 374L315 373z"/>
<path style="fill:#858585; stroke:none;" d="M343 373L344 374L343 373z"/>
<path style="fill:#a1a1a1; stroke:none;" d="M400 373L401 374L400 373z"/>
<path style="fill:#858585; stroke:none;" d="M157 374L158 375L157 374z"/>
<path style="fill:#a1a1a1; stroke:none;" d="M186 374L187 375L186 374M313 374L314 375L313 374z"/>
<path style="fill:#858585; stroke:none;" d="M342 374L343 375L342 374M398 374L399 375L398 374z"/>
<path style="fill:#a1a1a1; stroke:none;" d="M102 375L103 376L102 375z"/>
<path style="fill:#858585; stroke:none;" d="M158 375L159 376L158 375z"/>
<path style="fill:#a1a1a1; stroke:none;" d="M188 375L189 376L188 375z"/>
<path style="fill:#c5c5c5; stroke:none;" d="M311 375L312 376L311 375z"/>
<path style="fill:#a1a1a1; stroke:none;" d="M397 375L398 376L397 375z"/>
<path style="fill:#858585; stroke:none;" d="M104 376L105 377L104 376z"/>
<path style="fill:#c5c5c5; stroke:none;" d="M160 376L161 377L160 376M190 376L191 377L190 376z"/>
<path style="fill:#858585; stroke:none;" d="M191 376L192 377L191 376z"/>
<path style="fill:#a1a1a1; stroke:none;" d="M308 376L309 377L308 376z"/>
<path style="fill:#c5c5c5; stroke:none;" d="M309 376L310 377L309 376M339 376L340 377L339 376z"/>
<path style="fill:#858585; stroke:none;" d="M395 376L396 377L395 376z"/>
<path style="fill:#c5c5c5; stroke:none;" d="M161 377L162 378L161 377M193 377L194 378L193 377z"/>
<path style="fill:#858585; stroke:none;" d="M194 377L195 378L194 377M305 377L306 378L305 377z"/>
<path style="fill:#c5c5c5; stroke:none;" d="M306 377L307 378L306 377z"/>
<path style="fill:#a1a1a1; stroke:none;" d="M338 377L339 378L338 377z"/>
<path style="fill:#858585; stroke:none;" d="M107 378L108 379L107 378M162 378L163 379L162 378z"/>
<path style="fill:#a1a1a1; stroke:none;" d="M196 378L197 379L196 378M303 378L304 379L303 378z"/>
<path style="fill:#858585; stroke:none;" d="M337 378L338 379L337 378z"/>
<path style="fill:#a1a1a1; stroke:none;" d="M392 378L393 379L392 378z"/>
<path style="fill:#858585; stroke:none;" d="M109 379L110 380L109 379M163 379L164 380L163 379z"/>
<path style="fill:#c5c5c5; stroke:none;" d="M164 379L165 380L164 379z"/>
<path style="fill:#a1a1a1; stroke:none;" d="M199 379L200 380L199 379z"/>
<path style="fill:#858585; stroke:none;" d="M200 379L201 380L200 379M299 379L300 380L299 379z"/>
<path style="fill:#a1a1a1; stroke:none;" d="M300 379L301 380L300 379z"/>
<path style="fill:#c5c5c5; stroke:none;" d="M335 379L336 380L335 379z"/>
<path style="fill:#858585; stroke:none;" d="M390 379L391 380L390 379z"/>
<path style="fill:#c5c5c5; stroke:none;" d="M110 380L111 381L110 380z"/>
<path style="fill:#858585; stroke:none;" d="M165 380L166 381L165 380z"/>
<path style="fill:#c5c5c5; stroke:none;" d="M202 380L203 381L202 380z"/>
<path style="fill:#858585; stroke:none;" d="M203 380L204 381L203 380z"/>
<path style="fill:#a1a1a1; stroke:none;" d="M296 380L297 381L296 380z"/>
<path style="fill:#c5c5c5; stroke:none;" d="M297 380L298 381L297 380z"/>
<path style="fill:#858585; stroke:none;" d="M334 380L335 381L334 380M112 381L113 382L112 381M166 381L167 382L166 381z"/>
<path style="fill:#a1a1a1; stroke:none;" d="M206 381L207 382L206 381z"/>
<path style="fill:#858585; stroke:none;" d="M207 381L208 382L207 381M292 381L293 382L292 381z"/>
<path style="fill:#a1a1a1; stroke:none;" d="M293 381L294 382L293 381z"/>
<path style="fill:#c5c5c5; stroke:none;" d="M332 381L333 382L332 381z"/>
<path style="fill:#858585; stroke:none;" d="M387 381L388 382L387 381z"/>
<path style="fill:#c5c5c5; stroke:none;" d="M113 382L114 383L113 382z"/>
<path style="fill:#858585; stroke:none;" d="M114 382L115 383L114 382M168 382L169 383L168 382z"/>
<path style="fill:#c5c5c5; stroke:none;" d="M209 382L210 383L209 382z"/>
<path style="fill:#a1a1a1; stroke:none;" d="M210 382L211 383L210 382z"/>
<path style="fill:#858585; stroke:none;" d="M211 382L212 383L211 382M287.667 382.333L288.333 382.667L287.667 382.333z"/>
<path style="fill:#a1a1a1; stroke:none;" d="M289 382L290 383L289 382z"/>
<path style="fill:#858585; stroke:none;" d="M331 382L332 383L331 382M385 382L386 383L385 382z"/>
<path style="fill:#c5c5c5; stroke:none;" d="M115 383L116 384L115 383z"/>
<path style="fill:#a1a1a1; stroke:none;" d="M170 383L171 384L170 383M215 383L216 384L215 383z"/>
<path style="fill:#858585; stroke:none;" d="M216 383L217 384L216 383M283 383L284 384L283 383z"/>
<path style="fill:#c5c5c5; stroke:none;" d="M284 383L285 384L284 383z"/>
<path style="fill:#a1a1a1; stroke:none;" d="M329 383L330 384L329 383z"/>
<path style="fill:#c5c5c5; stroke:none;" d="M384 383L385 384L384 383z"/>
<path style="fill:#858585; stroke:none;" d="M117 384L118 385L117 384z"/>
<path style="fill:#c5c5c5; stroke:none;" d="M172 384L173 385L172 384z"/>
<path style="fill:#a1a1a1; stroke:none;" d="M220 384L221 385L220 384z"/>
<path style="fill:#858585; stroke:none;" d="M221.667 384.333L222.333 384.667L221.667 384.333M277.667 384.333L278.333 384.667L277.667 384.333z"/>
<path style="fill:#a1a1a1; stroke:none;" d="M279 384L280 385L279 384z"/>
<path style="fill:#c5c5c5; stroke:none;" d="M327 384L328 385L327 384z"/>
<path style="fill:#858585; stroke:none;" d="M382 384L383 385L382 384z"/>
<path style="fill:#c5c5c5; stroke:none;" d="M118 385L119 386L118 385z"/>
<path style="fill:#858585; stroke:none;" d="M173 385L174 386L173 385z"/>
<path style="fill:#c5c5c5; stroke:none;" d="M174 385L175 386L174 385M226.667 385.333L227.333 385.667L226.667 385.333z"/>
<path style="fill:#a1a1a1; stroke:none;" d="M228 385L229 386L228 385z"/>
<path style="fill:#858585; stroke:none;" d="M229 385L229 386L232 386L229 385M268 385L268 386L271 386L268 385z"/>
<path style="fill:#a1a1a1; stroke:none;" d="M271 385L272 386L271 385z"/>
<path style="fill:#c5c5c5; stroke:none;" d="M272.667 385.333L273.333 385.667L272.667 385.333M325 385L326 386L325 385z"/>
<path style="fill:#858585; stroke:none;" d="M326 385L327 386L326 385M380 385L381 386L380 385z"/>
<path style="fill:#c5c5c5; stroke:none;" d="M381 385L382 386L381 385M120 386L121 387L120 386z"/>
<path style="fill:#858585; stroke:none;" d="M175 386L176 387L175 386z"/>
<path style="fill:#c5c5c5; stroke:none;" d="M238.667 386.333L239.333 386.667L238.667 386.333z"/>
<path style="fill:#a1a1a1; stroke:none;" d="M240 386L240 387L244 387L240 386z"/>
<path style="fill:#858585; stroke:none;" d="M244 386L244 387L256 387L244 386z"/>
<path style="fill:#a1a1a1; stroke:none;" d="M256 386L256 387L260 387L256 386z"/>
<path style="fill:#c5c5c5; stroke:none;" d="M260.667 386.333L261.333 386.667L260.667 386.333M323 386L324 387L323 386z"/>
<path style="fill:#858585; stroke:none;" d="M324 386L325 387L324 386z"/>
<path style="fill:#c5c5c5; stroke:none;" d="M379 386L380 387L379 386z"/>
<path style="fill:#858585; stroke:none;" d="M122 387L123 388L122 387M177 387L178 388L177 387M322 387L323 388L322 387M377 387L378 388L377 387z"/>
<path style="fill:#c5c5c5; stroke:none;" d="M123 388L124 389L123 388z"/>
<path style="fill:#858585; stroke:none;" d="M179 388L180 389L179 388z"/>
<path style="fill:#c5c5c5; stroke:none;" d="M180 388L181 389L180 388M319 388L320 389L319 388z"/>
<path style="fill:#858585; stroke:none;" d="M320 388L321 389L320 388M375 388L376 389L375 388z"/>
<path style="fill:#c5c5c5; stroke:none;" d="M376 388L377 389L376 388z"/>
<path style="fill:#a1a1a1; stroke:none;" d="M125 389L126 390L125 389M182 389L183 390L182 389M317 389L318 390L317 389z"/>
<path style="fill:#c5c5c5; stroke:none;" d="M374 389L375 390L374 389z"/>
<path style="fill:#858585; stroke:none;" d="M127 390L128 391L127 390z"/>
<path style="fill:#a1a1a1; stroke:none;" d="M184 390L185 391L184 390z"/>
<path style="fill:#858585; stroke:none;" d="M315 390L316 391L315 390M372 390L373 391L372 390z"/>
<path style="fill:#a1a1a1; stroke:none;" d="M128 391L129 392L128 391z"/>
<path style="fill:#858585; stroke:none;" d="M186 391L187 392L186 391z"/>
<path style="fill:#c5c5c5; stroke:none;" d="M187 391L188 392L187 391z"/>
<path style="fill:#a1a1a1; stroke:none;" d="M312 391L313 392L312 391z"/>
<path style="fill:#858585; stroke:none;" d="M313 391L314 392L313 391M370 391L371 392L370 391z"/>
<path style="fill:#c5c5c5; stroke:none;" d="M371 391L372 392L371 391z"/>
<path style="fill:#a1a1a1; stroke:none;" d="M130 392L131 393L130 392z"/>
<path style="fill:#858585; stroke:none;" d="M189 392L190 393L189 392z"/>
<path style="fill:#c5c5c5; stroke:none;" d="M190 392L191 393L190 392M309 392L310 393L309 392z"/>
<path style="fill:#858585; stroke:none;" d="M310 392L311 393L310 392z"/>
<path style="fill:#a1a1a1; stroke:none;" d="M369 392L370 393L369 392z"/>
<path style="fill:#c5c5c5; stroke:none;" d="M131 393L132 394L131 393z"/>
<path style="fill:#858585; stroke:none;" d="M192 393L193 394L192 393z"/>
<path style="fill:#c5c5c5; stroke:none;" d="M193 393L194 394L193 393M306 393L307 394L306 393z"/>
<path style="fill:#858585; stroke:none;" d="M307 393L308 394L307 393M367 393L368 394L367 393z"/>
<path style="fill:#a1a1a1; stroke:none;" d="M133 394L134 395L133 394z"/>
<path style="fill:#858585; stroke:none;" d="M195 394L196 395L195 394z"/>
<path style="fill:#c5c5c5; stroke:none;" d="M196 394L197 395L196 394M303 394L304 395L303 394z"/>
<path style="fill:#858585; stroke:none;" d="M304 394L305 395L304 394z"/>
<path style="fill:#c5c5c5; stroke:none;" d="M366 394L367 395L366 394z"/>
<path style="fill:#858585; stroke:none;" d="M135 395L136 396L135 395z"/>
<path style="fill:#a1a1a1; stroke:none;" d="M199 395L200 396L199 395z"/>
<path style="fill:#c5c5c5; stroke:none;" d="M299 395L300 396L299 395z"/>
<path style="fill:#a1a1a1; stroke:none;" d="M300 395L301 396L300 395M364 395L365 396L364 395z"/>
<path style="fill:#c5c5c5; stroke:none;" d="M136 396L137 397L136 396z"/>
<path style="fill:#858585; stroke:none;" d="M202 396L203 397L202 396z"/>
<path style="fill:#c5c5c5; stroke:none;" d="M203 396L204 397L203 396M296 396L297 397L296 396z"/>
<path style="fill:#858585; stroke:none;" d="M297 396L298 397L297 396z"/>
<path style="fill:#a1a1a1; stroke:none;" d="M138 397L139 398L138 397z"/>
<path style="fill:#858585; stroke:none;" d="M206 397L207 398L206 397z"/>
<path style="fill:#a1a1a1; stroke:none;" d="M207 397L208 398L207 397z"/>
<path style="fill:#c5c5c5; stroke:none;" d="M208 397L209 398L208 397M291 397L292 398L291 397z"/>
<path style="fill:#a1a1a1; stroke:none;" d="M292 397L293 398L292 397z"/>
<path style="fill:#858585; stroke:none;" d="M293 397L294 398L293 397z"/>
<path style="fill:#a1a1a1; stroke:none;" d="M361 397L362 398L361 397z"/>
<path style="fill:#858585; stroke:none;" d="M140 398L141 399L140 398M211 398L212 399L211 398z"/>
<path style="fill:#a1a1a1; stroke:none;" d="M212 398L213 399L212 398z"/>
<path style="fill:#c5c5c5; stroke:none;" d="M213 398L214 399L213 398M286 398L287 399L286 398z"/>
<path style="fill:#a1a1a1; stroke:none;" d="M287 398L288 399L287 398z"/>
<path style="fill:#858585; stroke:none;" d="M288 398L289 399L288 398z"/>
<path style="fill:#a1a1a1; stroke:none;" d="M359 398L360 399L359 398z"/>
<path style="fill:#c5c5c5; stroke:none;" d="M141 399L142 400L141 399z"/>
<path style="fill:#858585; stroke:none;" d="M216 399L217 400L216 399z"/>
<path style="fill:#a1a1a1; stroke:none;" d="M217 399L218 400L217 399z"/>
<path style="fill:#c5c5c5; stroke:none;" d="M218 399L219 400L218 399M281 399L282 400L281 399z"/>
<path style="fill:#a1a1a1; stroke:none;" d="M282 399L283 400L282 399z"/>
<path style="fill:#858585; stroke:none;" d="M283 399L284 400L283 399z"/>
<path style="fill:#c5c5c5; stroke:none;" d="M358 399L359 400L358 399z"/>
<path style="fill:#a1a1a1; stroke:none;" d="M143 400L144 401L143 400z"/>
<path style="fill:#858585; stroke:none;" d="M222.667 400.333L223.333 400.667L222.667 400.333z"/>
<path style="fill:#a1a1a1; stroke:none;" d="M224 400L225 401L224 400z"/>
<path style="fill:#c5c5c5; stroke:none;" d="M225 400L225 401L228 401L225 400M272.667 400.333L273.333 400.667L272.667 400.333z"/>
<path style="fill:#a1a1a1; stroke:none;" d="M274.667 400.333L275.333 400.667L274.667 400.333z"/>
<path style="fill:#858585; stroke:none;" d="M276.667 400.333L277.333 400.667L276.667 400.333z"/>
<path style="fill:#a1a1a1; stroke:none;" d="M356 400L357 401L356 400z"/>
<path style="fill:#858585; stroke:none;" d="M145 401L146 402L145 401M232 401L232 402L235 402L232 401z"/>
<path style="fill:#a1a1a1; stroke:none;" d="M235.667 401.333L236.333 401.667L235.667 401.333z"/>
<path style="fill:#c5c5c5; stroke:none;" d="M237 401L237 402L241 402L237 401M259 401L259 402L263 402L259 401z"/>
<path style="fill:#a1a1a1; stroke:none;" d="M263.667 401.333L264.333 401.667L263.667 401.333z"/>
<path style="fill:#858585; stroke:none;" d="M265 401L265 402L268 402L265 401M354 401L355 402L354 401z"/>
<path style="fill:#a1a1a1; stroke:none;" d="M146 402L147 403L146 402z"/>
<path style="fill:#c5c5c5; stroke:none;" d="M353 402L354 403L353 402z"/>
<path style="fill:#a1a1a1; stroke:none;" d="M148 403L149 404L148 403M351 403L352 404L351 403z"/>
<path style="fill:#858585; stroke:none;" d="M150 404L151 405L150 404M349 404L350 405L349 404z"/>
<path style="fill:#a1a1a1; stroke:none;" d="M151 405L152 406L151 405M348 405L349 406L348 405z"/>
<path style="fill:#858585; stroke:none;" d="M153 406L154 407L153 406z"/>
<path style="fill:#a1a1a1; stroke:none;" d="M346 406L347 407L346 406z"/>
<path style="fill:#858585; stroke:none;" d="M344 407L345 408L344 407z"/>
<path style="fill:#a1a1a1; stroke:none;" d="M156 408L157 409L156 408M343 408L344 409L343 408z"/>
<path style="fill:#858585; stroke:none;" d="M158 409L159 410L158 409z"/>
<path style="fill:#a1a1a1; stroke:none;" d="M341 409L342 410L341 409z"/>
<path style="fill:#858585; stroke:none;" d="M161 411L162 412L161 411z"/>
<path style="fill:#a1a1a1; stroke:none;" d="M338 411L339 412L338 411z"/>
<path style="fill:#858585; stroke:none;" d="M163 412L164 413L163 412M336 412L337 413L336 412z"/>
<path style="fill:#c5c5c5; stroke:none;" d="M164 413L165 414L164 413z"/>
<path style="fill:#858585; stroke:none;" d="M166 414L167 415L166 414M333 414L334 415L333 414z"/>
<path style="fill:#c5c5c5; stroke:none;" d="M167 415L168 416L167 415z"/>
<path style="fill:#858585; stroke:none;" d="M168 415L169 416L168 415M331 415L332 416L331 415z"/>
<path style="fill:#c5c5c5; stroke:none;" d="M169 416L170 417L169 416M330 416L331 417L330 416z"/>
<path style="fill:#858585; stroke:none;" d="M171 417L172 418L171 417M328 417L329 418L328 417z"/>
<path style="fill:#c5c5c5; stroke:none;" d="M172 418L173 419L172 418z"/>
<path style="fill:#858585; stroke:none;" d="M326 418L327 419L326 418z"/>
<path style="fill:#c5c5c5; stroke:none;" d="M174 419L175 420L174 419M325 419L326 420L325 419z"/>
<path style="fill:#858585; stroke:none;" d="M176 420L177 421L176 420M323 420L324 421L323 420z"/>
<path style="fill:#c5c5c5; stroke:none;" d="M177 421L178 422L177 421z"/>
<path style="fill:#858585; stroke:none;" d="M321 421L322 422L321 421z"/>
<path style="fill:#c5c5c5; stroke:none;" d="M322 421L323 422L322 421z"/>
<path style="fill:#a1a1a1; stroke:none;" d="M179 422L180 423L179 422z"/>
<path style="fill:#c5c5c5; stroke:none;" d="M320 422L321 423L320 422z"/>
<path style="fill:#858585; stroke:none;" d="M181 423L182 424L181 423M318 423L319 424L318 423z"/>
<path style="fill:#a1a1a1; stroke:none;" d="M182 424L183 425L182 424z"/>
<path style="fill:#858585; stroke:none;" d="M316 424L317 425L316 424z"/>
<path style="fill:#c5c5c5; stroke:none;" d="M317 424L318 425L317 424z"/>
<path style="fill:#a1a1a1; stroke:none;" d="M184 425L185 426L184 425M315 425L316 426L315 425z"/>
<path style="fill:#c5c5c5; stroke:none;" d="M185 426L186 427L185 426z"/>
<path style="fill:#858585; stroke:none;" d="M313 426L314 427L313 426z"/>
<path style="fill:#a1a1a1; stroke:none;" d="M187 427L188 428L187 427z"/>
<path style="fill:#c5c5c5; stroke:none;" d="M312 427L313 428L312 427z"/>
<path style="fill:#a1a1a1; stroke:none;" d="M189 428L190 429L189 428M310 428L311 429L310 428z"/>
<path style="fill:#c5c5c5; stroke:none;" d="M190 429L191 430L190 429z"/>
<path style="fill:#a1a1a1; stroke:none;" d="M192 430L193 431L192 430M307 430L308 431L307 430z"/>
<path style="fill:#858585; stroke:none;" d="M194 431L195 432L194 431z"/>
<path style="fill:#a1a1a1; stroke:none;" d="M305 431L306 432L305 431z"/>
<path style="fill:#c5c5c5; stroke:none;" d="M195 432L196 433L195 432M304 432L305 433L304 432z"/>
<path style="fill:#a1a1a1; stroke:none;" d="M197 433L198 434L197 433M302 433L303 434L302 433z"/>
<path style="fill:#858585; stroke:none;" d="M199 434L200 435L199 434M300 434L301 435L300 434z"/>
<path style="fill:#a1a1a1; stroke:none;" d="M200 435L201 436L200 435z"/>
<path style="fill:#c5c5c5; stroke:none;" d="M299 435L300 436L299 435z"/>
<path style="fill:#a1a1a1; stroke:none;" d="M202 436L203 437L202 436M297 436L298 437L297 436z"/>
<path style="fill:#858585; stroke:none;" d="M204 437L205 438L204 437M295 437L296 438L295 437z"/>
<path style="fill:#a1a1a1; stroke:none;" d="M205 438L206 439L205 438M294 438L295 439L294 438z"/>
<path style="fill:#858585; stroke:none;" d="M207 439L208 440L207 439z"/>
<path style="fill:#a1a1a1; stroke:none;" d="M292 439L293 440L292 439z"/>
<path style="fill:#858585; stroke:none;" d="M290 440L291 441L290 440z"/>
<path style="fill:#a1a1a1; stroke:none;" d="M210 441L211 442L210 441M289 441L290 442L289 441z"/>
<path style="fill:#858585; stroke:none;" d="M212 442L213 443L212 442z"/>
<path style="fill:#a1a1a1; stroke:none;" d="M287 442L288 443L287 442z"/>
<path style="fill:#858585; stroke:none;" d="M215 444L216 445L215 444z"/>
<path style="fill:#a1a1a1; stroke:none;" d="M284 444L285 445L284 444z"/>
<path style="fill:#858585; stroke:none;" d="M217 445L218 446L217 445M282 445L283 446L282 445z"/>
<path style="fill:#c5c5c5; stroke:none;" d="M218 446L219 447L218 446z"/>
<path style="fill:#858585; stroke:none;" d="M220 447L221 448L220 447M279 447L280 448L279 447z"/>
<path style="fill:#c5c5c5; stroke:none;" d="M221 448L222 449L221 448z"/>
<path style="fill:#858585; stroke:none;" d="M222 448L223 449L222 448M277 448L278 449L277 448z"/>
<path style="fill:#c5c5c5; stroke:none;" d="M223 449L224 450L223 449M276 449L277 450L276 449z"/>
<path style="fill:#858585; stroke:none;" d="M225 450L226 451L225 450M274 450L275 451L274 450z"/>
<path style="fill:#c5c5c5; stroke:none;" d="M226 451L227 452L226 451z"/>
<path style="fill:#858585; stroke:none;" d="M227 451L228 452L227 451M272 451L273 452L272 451z"/>
<path style="fill:#c5c5c5; stroke:none;" d="M273 451L274 452L273 451M228 452L229 453L228 452M271 452L272 453L271 452z"/>
<path style="fill:#858585; stroke:none;" d="M230 453L231 454L230 453M269 453L270 454L269 453z"/>
<path style="fill:#c5c5c5; stroke:none;" d="M231 454L232 455L231 454z"/>
<path style="fill:#858585; stroke:none;" d="M232 454L233 455L232 454M267 454L268 455L267 454z"/>
<path style="fill:#c5c5c5; stroke:none;" d="M268 454L269 455L268 454z"/>
<path style="fill:#a1a1a1; stroke:none;" d="M233 455L234 456L233 455z"/>
<path style="fill:#c5c5c5; stroke:none;" d="M266 455L267 456L266 455z"/>
<path style="fill:#858585; stroke:none;" d="M235 456L236 457L235 456M264 456L265 457L264 456z"/>
<path style="fill:#c5c5c5; stroke:none;" d="M236 457L237 458L236 457z"/>
<path style="fill:#858585; stroke:none;" d="M262 457L263 458L262 457z"/>
<path style="fill:#c5c5c5; stroke:none;" d="M263 457L264 458L263 457z"/>
<path style="fill:#a1a1a1; stroke:none;" d="M238 458L239 459L238 458M261 458L262 459L261 458z"/>
<path style="fill:#858585; stroke:none;" d="M240 459L241 460L240 459M259 459L260 460L259 459M242 460L243 461L242 460z"/>
<path style="fill:#a1a1a1; stroke:none;" d="M257 460L258 461L257 460M245 461L246 462L245 461z"/>
<path style="fill:#858585; stroke:none;" d="M246.667 461.333L247.333 461.667L246.667 461.333M252.667 461.333L253.333 461.667L252.667 461.333z"/>
<path style="fill:#c5c5c5; stroke:none;" d="M254 461L255 462L254 461z"/>
</svg>
