<?xml version="1.0" standalone="yes"?>
<svg xmlns="http://www.w3.org/2000/svg" width="500" height="500">
<path style="fill:#010101; stroke:none;" d="M0 0L0 500L500 500L500 0L0 0z"/>
<path style="fill:#d2d2d2; stroke:none;" d="M87 39L87 40L297 40L277 39L235 39L87 39z"/>
<path style="fill:#e5e5e5; stroke:none;" d="M297 39L298 40L297 39z"/>
<path style="fill:#979797; stroke:none;" d="M87 40L87 460L413 460L413 247L413 184L412.397 156L394 136L349 91L314 56L297 40.6034L277 40L234 40L87 40z"/>
<path style="fill:#d2d2d2; stroke:none;" d="M298 40L299 41L298 40z"/>
<path style="fill:#e5e5e5; stroke:none;" d="M299 41L300 42L299 41M300 42L301 43L300 42z"/>
<path style="fill:#d2d2d2; stroke:none;" d="M301 43L302 44L301 43z"/>
<path style="fill:#e5e5e5; stroke:none;" d="M302 44L303 45L302 44M303 45L304 46L303 45z"/>
<path style="fill:#d2d2d2; stroke:none;" d="M304 46L305 47L304 46z"/>
<path style="fill:#e5e5e5; stroke:none;" d="M305 47L306 48L305 47M306 48L307 49L306 48z"/>
<path style="fill:#d2d2d2; stroke:none;" d="M307 49L308 50L307 49z"/>
<path style="fill:#e5e5e5; stroke:none;" d="M308 50L309 51L308 50M309 51L310 52L309 51z"/>
<path style="fill:#d2d2d2; stroke:none;" d="M310 52L311 53L310 52z"/>
<path style="fill:#e5e5e5; stroke:none;" d="M311 53L312 54L311 53M312 54L313 55L312 54z"/>
<path style="fill:#d2d2d2; stroke:none;" d="M313 55L314 56L313 55z"/>
<path style="fill:#e5e5e5; stroke:none;" d="M314 56L315 57L314 56M315 57L316 58L315 57z"/>
<path style="fill:#d2d2d2; stroke:none;" d="M316 58L317 59L316 58z"/>
<path style="fill:#e5e5e5; stroke:none;" d="M317 59L318 60L317 59M318 60L319 61L318 60z"/>
<path style="fill:#d2d2d2; stroke:none;" d="M319 61L320 62L319 61z"/>
<path style="fill:#e5e5e5; stroke:none;" d="M320 62L321 63L320 62M321 63L322 64L321 63z"/>
<path style="fill:#d2d2d2; stroke:none;" d="M322 64L323 65L322 64z"/>
<path style="fill:#e5e5e5; stroke:none;" d="M323 65L324 66L323 65M324 66L325 67L324 66z"/>
<path style="fill:#d2d2d2; stroke:none;" d="M325 67L326 68L325 67z"/>
<path style="fill:#e5e5e5; stroke:none;" d="M326 68L327 69L326 68M327 69L328 70L327 69z"/>
<path style="fill:#d2d2d2; stroke:none;" d="M328 70L329 71L328 70M118 71L118 429L119 429L119 176L119 103L118 71z"/>
<path style="fill:#010101; stroke:none;" d="M119 71L119 428L381 428L381 182L296 182C289.576 182 271.331 185.124 266.603 180.397C261.983 175.776 265 158.26 265 152L265 71L119 71z"/>
<path style="fill:#e5e5e5; stroke:none;" d="M265 71L265 181L266 181L266 104L265 71M329 71L330 72L329 71M330 72L331 73L330 72z"/>
<path style="fill:#d2d2d2; stroke:none;" d="M331 73L332 74L331 73z"/>
<path style="fill:#e5e5e5; stroke:none;" d="M332 74L333 75L332 74M333 75L334 76L333 75z"/>
<path style="fill:#d2d2d2; stroke:none;" d="M334 76L335 77L334 76z"/>
<path style="fill:#e5e5e5; stroke:none;" d="M335 77L336 78L335 77M336 78L337 79L336 78z"/>
<path style="fill:#d2d2d2; stroke:none;" d="M337 79L338 80L337 79z"/>
<path style="fill:#e5e5e5; stroke:none;" d="M338 80L339 81L338 80M339 81L340 82L339 81z"/>
<path style="fill:#d2d2d2; stroke:none;" d="M340 82L341 83L340 82z"/>
<path style="fill:#e5e5e5; stroke:none;" d="M341 83L342 84L341 83z"/>
<path style="fill:#bbbbbb; stroke:none;" d="M297 84L298 85L297 84z"/>
<path style="fill:#e5e5e5; stroke:none;" d="M342 84L343 85L342 84M297 85L297 147L298 147L298 105L297 85z"/>
<path style="fill:#d2d2d2; stroke:none;" d="M298 85L330 118L363 150L331 117L298 85M343 85L344 86L343 85z"/>
<path style="fill:#010101; stroke:none;" d="M298 86L298 133L298.832 148.972L315 150L362 150L331 118L298 86z"/>
<path style="fill:#e5e5e5; stroke:none;" d="M344 86L345 87L344 86M345 87L346 88L345 87z"/>
<path style="fill:#d2d2d2; stroke:none;" d="M346 88L347 89L346 88z"/>
<path style="fill:#e5e5e5; stroke:none;" d="M347 89L348 90L347 89M348 90L349 91L348 90z"/>
<path style="fill:#d2d2d2; stroke:none;" d="M349 91L350 92L349 91z"/>
<path style="fill:#e5e5e5; stroke:none;" d="M350 92L351 93L350 92M351 93L352 94L351 93z"/>
<path style="fill:#d2d2d2; stroke:none;" d="M352 94L353 95L352 94z"/>
<path style="fill:#e5e5e5; stroke:none;" d="M353 95L354 96L353 95M354 96L355 97L354 96z"/>
<path style="fill:#d2d2d2; stroke:none;" d="M355 97L356 98L355 97z"/>
<path style="fill:#e5e5e5; stroke:none;" d="M356 98L357 99L356 98M357 99L358 100L357 99z"/>
<path style="fill:#d2d2d2; stroke:none;" d="M358 100L359 101L358 100z"/>
<path style="fill:#e5e5e5; stroke:none;" d="M359 101L360 102L359 101M360 102L361 103L360 102z"/>
<path style="fill:#d2d2d2; stroke:none;" d="M361 103L362 104L361 103z"/>
<path style="fill:#e5e5e5; stroke:none;" d="M362 104L363 105L362 104M363 105L364 106L363 105z"/>
<path style="fill:#d2d2d2; stroke:none;" d="M364 106L365 107L364 106z"/>
<path style="fill:#e5e5e5; stroke:none;" d="M365 107L366 108L365 107M366 108L367 109L366 108z"/>
<path style="fill:#d2d2d2; stroke:none;" d="M367 109L368 110L367 109z"/>
<path style="fill:#e5e5e5; stroke:none;" d="M368 110L369 111L368 110M369 111L370 112L369 111z"/>
<path style="fill:#d2d2d2; stroke:none;" d="M370 112L371 113L370 112z"/>
<path style="fill:#e5e5e5; stroke:none;" d="M371 113L372 114L371 113M372 114L373 115L372 114z"/>
<path style="fill:#d2d2d2; stroke:none;" d="M373 115L374 116L373 115z"/>
<path style="fill:#e5e5e5; stroke:none;" d="M374 116L375 117L374 116M375 117L376 118L375 117z"/>
<path style="fill:#d2d2d2; stroke:none;" d="M376 118L377 119L376 118z"/>
<path style="fill:#e5e5e5; stroke:none;" d="M377 119L378 120L377 119M378 120L379 121L378 120z"/>
<path style="fill:#d2d2d2; stroke:none;" d="M379 121L380 122L379 121z"/>
<path style="fill:#e5e5e5; stroke:none;" d="M380 122L381 123L380 122M381 123L382 124L381 123z"/>
<path style="fill:#d2d2d2; stroke:none;" d="M382 124L383 125L382 124z"/>
<path style="fill:#e5e5e5; stroke:none;" d="M383 125L384 126L383 125M384 126L385 127L384 126z"/>
<path style="fill:#d2d2d2; stroke:none;" d="M385 127L386 128L385 127z"/>
<path style="fill:#e5e5e5; stroke:none;" d="M386 128L387 129L386 128M387 129L388 130L387 129z"/>
<path style="fill:#d2d2d2; stroke:none;" d="M388 130L389 131L388 130z"/>
<path style="fill:#e5e5e5; stroke:none;" d="M389 131L390 132L389 131M390 132L391 133L390 132z"/>
<path style="fill:#d2d2d2; stroke:none;" d="M391 133L392 134L391 133z"/>
<path style="fill:#e5e5e5; stroke:none;" d="M392 134L393 135L392 134M393 135L394 136L393 135z"/>
<path style="fill:#d2d2d2; stroke:none;" d="M394 136L395 137L394 136z"/>
<path style="fill:#e5e5e5; stroke:none;" d="M395 137L396 138L395 137M396 138L397 139L396 138z"/>
<path style="fill:#d2d2d2; stroke:none;" d="M397 139L398 140L397 139z"/>
<path style="fill:#e5e5e5; stroke:none;" d="M398 140L399 141L398 140M399 141L400 142L399 141z"/>
<path style="fill:#d2d2d2; stroke:none;" d="M400 142L401 143L400 142z"/>
<path style="fill:#e5e5e5; stroke:none;" d="M401 143L402 144L401 143M402 144L403 145L402 144z"/>
<path style="fill:#d2d2d2; stroke:none;" d="M403 145L404 146L403 145z"/>
<path style="fill:#e5e5e5; stroke:none;" d="M404 146L405 147L404 146M405 147L406 148L405 147M297 148L298 149L297 148z"/>
<path style="fill:#d2d2d2; stroke:none;" d="M406 148L407 149L406 148M297 149L298 150L297 149z"/>
<path style="fill:#e5e5e5; stroke:none;" d="M407 149L408 150L407 149M408 150L409 151L408 150z"/>
<path style="fill:#d2d2d2; stroke:none;" d="M409 151L410 152L409 151z"/>
<path style="fill:#e5e5e5; stroke:none;" d="M410 152L411 153L410 152M411 153L412 154L411 153z"/>
<path style="fill:#d2d2d2; stroke:none;" d="M412 154L413 155L412 154M266 181L266 182L381 182L381 428C383.189 422.783 382 415.619 382 410L382 372L382 239L382 197C382 193.367 383.6 184.565 380.397 182.028C375.012 177.763 356.786 181 350 181L266 181z"/>
<path style="fill:#bbbbbb; stroke:none;" d="M381 181L382 182L381 181z"/>
<path style="fill:#e5e5e5; stroke:none;" d="M131 244L131 245L193 245L173 244L131 244M202 244L202 245L227 245L202 244M263 244L263 245L289 245L263 244M306 244L306 245L336 245L306 244z"/>
<path style="fill:#979797; stroke:none;" d="M131 245L131 260L153 260L153 322L171 322L171 260L193 260L193 245L131 245M202 245L202 322L219 322L218 267L219 267C223.83 279.935 228.468 292.957 233 306C234.436 310.133 235.721 318.366 239.499 320.972C242.968 323.366 250.261 322.489 252.443 318.852C260.449 305.504 268.365 282.311 271 267L272 267L272 322L289 322L289 245L263.699 246.028L258.414 258L247 294C239.43 286.174 236.5 269.271 232.997 259C231.766 255.39 230.474 248.409 227.298 246.028C222.375 242.338 208.042 245 202 245z"/>
<path style="fill:#d2d2d2; stroke:none;" d="M228 245L229 246L228 245M262 245L263 246L262 245z"/>
<path style="fill:#bbbbbb; stroke:none;" d="M289 245L289 321L290 321L290 269L289 245z"/>
<path style="fill:#d2d2d2; stroke:none;" d="M305 245L305 320L306 320L306 268L305 245z"/>
<path style="fill:#979797; stroke:none;" d="M306 245L306 322L324 322L324 292C334.296 292 344.81 293.142 353.996 287.521C366.223 280.039 367.597 259.574 355.957 250.789C343.063 241.059 321.14 245 306 245z"/>
<path style="fill:#bbbbbb; stroke:none;" d="M342 245L343 246L342 245z"/>
<path style="fill:#d2d2d2; stroke:none;" d="M343 245L344 246L343 245z"/>
<path style="fill:#e5e5e5; stroke:none;" d="M344 245L345 246L344 245M201 246L201 318L202 318L202 269L201 246z"/>
<path style="fill:#bbbbbb; stroke:none;" d="M228 246L229 247L228 246M262 246L263 247L262 246M346 246L347 247L346 246z"/>
<path style="fill:#d2d2d2; stroke:none;" d="M347 246L348 247L347 246z"/>
<path style="fill:#e5e5e5; stroke:none;" d="M348 246L349 247L348 246z"/>
<path style="fill:#d2d2d2; stroke:none;" d="M350 247L351 248L350 247M229 248L230 249L229 248M261 248L262 249L261 248z"/>
<path style="fill:#bbbbbb; stroke:none;" d="M352 248L353 249L352 248M229 249L230 250L229 249M261 249L262 250L261 249z"/>
<path style="fill:#d2d2d2; stroke:none;" d="M354 249L355 250L354 249z"/>
<path style="fill:#e5e5e5; stroke:none;" d="M260 250L261 251L260 250z"/>
<path style="fill:#bbbbbb; stroke:none;" d="M355 250L356 251L355 250z"/>
<path style="fill:#d2d2d2; stroke:none;" d="M230 251L231 252L230 251z"/>
<path style="fill:#bbbbbb; stroke:none;" d="M260 251L261 252L260 251z"/>
<path style="fill:#e5e5e5; stroke:none;" d="M357 251L358 252L357 251z"/>
<path style="fill:#bbbbbb; stroke:none;" d="M230 252L231 253L230 252z"/>
<path style="fill:#e5e5e5; stroke:none;" d="M358 252L359 253L358 252M231 253L232 254L231 253M259 253L260 254L259 253z"/>
<path style="fill:#bbbbbb; stroke:none;" d="M231 254L232 255L231 254z"/>
<path style="fill:#d2d2d2; stroke:none;" d="M259 254L260 255L259 254z"/>
<path style="fill:#bbbbbb; stroke:none;" d="M259 255L260 256L259 255M360 255L361 256L360 255z"/>
<path style="fill:#e5e5e5; stroke:none;" d="M232 256L233 257L232 256M361 256L362 257L361 256z"/>
<path style="fill:#bbbbbb; stroke:none;" d="M232 257L233 258L232 257z"/>
<path style="fill:#d2d2d2; stroke:none;" d="M258 257L259 258L258 257z"/>
<path style="fill:#bbbbbb; stroke:none;" d="M361 257L362 258L361 257z"/>
<path style="fill:#e5e5e5; stroke:none;" d="M233 259L234 260L233 259M257 259L258 260L257 259z"/>
<path style="fill:#bbbbbb; stroke:none;" d="M324 259L324 260L335 260L324 259M362 259L363 260L362 259M131 260L131 261L153 261L131 260M171 260L171 261L193 261L171 260M233 260L234 261L233 260M257 260L258 261L257 260z"/>
<path style="fill:#e5e5e5; stroke:none;" d="M324 260L324 278L325 278L324 260z"/>
<path style="fill:#010101; stroke:none;" d="M325 260L325 278C329.817 277.987 336.583 278.27 340.891 275.822C345.676 273.102 346.412 265.315 341.772 262.09C337.218 258.924 330.234 260 325 260z"/>
<path style="fill:#e5e5e5; stroke:none;" d="M338 260L339 261L338 260z"/>
<path style="fill:#bbbbbb; stroke:none;" d="M339 260L340 261L339 260z"/>
<path style="fill:#e5e5e5; stroke:none;" d="M152 261L152 321L153 321L153 280L152 261z"/>
<path style="fill:#d2d2d2; stroke:none;" d="M171 261L171 321L172 321L172 280L171 261z"/>
<path style="fill:#bbbbbb; stroke:none;" d="M341 261L342 262L341 261z"/>
<path style="fill:#e5e5e5; stroke:none;" d="M363 261L364 262L363 261z"/>
<path style="fill:#d2d2d2; stroke:none;" d="M234 262L235 263L234 262z"/>
<path style="fill:#e5e5e5; stroke:none;" d="M256 262L257 263L256 262z"/>
<path style="fill:#d2d2d2; stroke:none;" d="M363 262L364 263L363 262z"/>
<path style="fill:#bbbbbb; stroke:none;" d="M234 263L235 264L234 263M256 263L257 264L256 263M363 263L364 264L363 263z"/>
<path style="fill:#d2d2d2; stroke:none;" d="M344 264L345 265L344 264M235 265L236 266L235 265z"/>
<path style="fill:#e5e5e5; stroke:none;" d="M255 265L256 266L255 265z"/>
<path style="fill:#bbbbbb; stroke:none;" d="M235 266L236 267L235 266M255 266L256 267L255 266M345.333 266.667L345.667 267.333L345.333 266.667M218 267L218 284L219 284L218 267M271 267L272 268L271 267z"/>
<path style="fill:#d2d2d2; stroke:none;" d="M219 268L220 269L219 268M236 268L237 269L236 268z"/>
<path style="fill:#e5e5e5; stroke:none;" d="M254 268L255 269L254 268M271 268L272 269L271 268z"/>
<path style="fill:#d2d2d2; stroke:none;" d="M345 268L346 269L345 268z"/>
<path style="fill:#bbbbbb; stroke:none;" d="M254 269L255 270L254 269M345.333 269.667L345.667 270.333L345.333 269.667M220 270L221 271L220 270z"/>
<path style="fill:#e5e5e5; stroke:none;" d="M237 270L238 271L237 270z"/>
<path style="fill:#d2d2d2; stroke:none;" d="M270 270L271 271L270 270M220 271L221 272L220 271z"/>
<path style="fill:#bbbbbb; stroke:none;" d="M237 271L238 272L237 271z"/>
<path style="fill:#e5e5e5; stroke:none;" d="M253 271L254 272L253 271z"/>
<path style="fill:#bbbbbb; stroke:none;" d="M253 272L254 273L253 272M269 272L270 273L269 272z"/>
<path style="fill:#d2d2d2; stroke:none;" d="M344 272L345 273L344 272z"/>
<path style="fill:#e5e5e5; stroke:none;" d="M238 273L239 274L238 273M269 273L270 274L269 273z"/>
<path style="fill:#bbbbbb; stroke:none;" d="M363 273L364 274L363 273z"/>
<path style="fill:#d2d2d2; stroke:none;" d="M221 274L222 275L221 274z"/>
<path style="fill:#bbbbbb; stroke:none;" d="M238 274L239 275L238 274z"/>
<path style="fill:#e5e5e5; stroke:none;" d="M252 274L253 275L252 274z"/>
<path style="fill:#bbbbbb; stroke:none;" d="M343 274L344 275L343 274z"/>
<path style="fill:#d2d2d2; stroke:none;" d="M363 274L364 275L363 274z"/>
<path style="fill:#bbbbbb; stroke:none;" d="M252 275L253 276L252 275M268 275L269 276L268 275M222 276L223 277L222 276z"/>
<path style="fill:#e5e5e5; stroke:none;" d="M239 276L240 277L239 276M268 276L269 277L268 276z"/>
<path style="fill:#bbbbbb; stroke:none;" d="M340 276L341 277L340 276M239 277L240 278L239 277z"/>
<path style="fill:#d2d2d2; stroke:none;" d="M251 277L252 278L251 277z"/>
<path style="fill:#e5e5e5; stroke:none;" d="M333 277L333 278L336 278L333 277z"/>
<path style="fill:#d2d2d2; stroke:none;" d="M336 277L337 278L336 277z"/>
<path style="fill:#bbbbbb; stroke:none;" d="M337.667 277.333L338.333 277.667L337.667 277.333z"/>
<path style="fill:#d2d2d2; stroke:none;" d="M362 277L363 278L362 277z"/>
<path style="fill:#bbbbbb; stroke:none;" d="M251 278L252 279L251 278z"/>
<path style="fill:#d2d2d2; stroke:none;" d="M267 278L268 279L267 278z"/>
<path style="fill:#bbbbbb; stroke:none;" d="M223 279L224 280L223 279z"/>
<path style="fill:#d2d2d2; stroke:none;" d="M240 279L241 280L240 279z"/>
<path style="fill:#bbbbbb; stroke:none;" d="M361 279L362 280L361 279z"/>
<path style="fill:#d2d2d2; stroke:none;" d="M250 280L251 281L250 280z"/>
<path style="fill:#bbbbbb; stroke:none;" d="M266 280L267 281L266 280z"/>
<path style="fill:#e5e5e5; stroke:none;" d="M241 281L242 282L241 281z"/>
<path style="fill:#bbbbbb; stroke:none;" d="M250 281L251 282L250 281z"/>
<path style="fill:#e5e5e5; stroke:none;" d="M266 281L267 282L266 281M271 281L271 300L272 300L271 281z"/>
<path style="fill:#bbbbbb; stroke:none;" d="M360 281L361 282L360 281M224 282L225 283L224 282z"/>
<path style="fill:#d2d2d2; stroke:none;" d="M241 282L242 283L241 282z"/>
<path style="fill:#bbbbbb; stroke:none;" d="M241 283L242 284L241 283z"/>
<path style="fill:#e5e5e5; stroke:none;" d="M249 283L250 284L249 283z"/>
<path style="fill:#bbbbbb; stroke:none;" d="M265 283L266 284L265 283M225 284L226 285L225 284z"/>
<path style="fill:#e5e5e5; stroke:none;" d="M242 284L243 285L242 284z"/>
<path style="fill:#bbbbbb; stroke:none;" d="M249 284L250 285L249 284z"/>
<path style="fill:#e5e5e5; stroke:none;" d="M265 284L266 285L265 284z"/>
<path style="fill:#d2d2d2; stroke:none;" d="M225 285L226 286L225 285M242 285L243 286L242 285z"/>
<path style="fill:#e5e5e5; stroke:none;" d="M357 285L358 286L357 285z"/>
<path style="fill:#d2d2d2; stroke:none;" d="M248 286L249 287L248 286z"/>
<path style="fill:#bbbbbb; stroke:none;" d="M264 286L265 287L264 286M355 286L356 287L355 286M226 287L227 288L226 287z"/>
<path style="fill:#e5e5e5; stroke:none;" d="M243 287L244 288L243 287z"/>
<path style="fill:#bbbbbb; stroke:none;" d="M248 287L249 288L248 287z"/>
<path style="fill:#e5e5e5; stroke:none;" d="M264 287L265 288L264 287z"/>
<path style="fill:#d2d2d2; stroke:none;" d="M354 287L355 288L354 287M226 288L227 289L226 288z"/>
<path style="fill:#bbbbbb; stroke:none;" d="M243 288L244 289L243 288M352 288L353 289L352 288z"/>
<path style="fill:#d2d2d2; stroke:none;" d="M247 289L248 290L247 289M263 289L264 290L263 289z"/>
<path style="fill:#bbbbbb; stroke:none;" d="M350 289L351 290L350 289M227 290L228 291L227 290z"/>
<path style="fill:#d2d2d2; stroke:none;" d="M244 290L245 291L244 290z"/>
<path style="fill:#bbbbbb; stroke:none;" d="M247 290L248 291L247 290M347 290L348 291L347 290z"/>
<path style="fill:#d2d2d2; stroke:none;" d="M348 290L349 291L348 290z"/>
<path style="fill:#bbbbbb; stroke:none;" d="M244 291L245 292L244 291M262 291L263 292L262 291M344 291L345 292L344 291z"/>
<path style="fill:#d2d2d2; stroke:none;" d="M345 291L346 292L345 291z"/>
<path style="fill:#e5e5e5; stroke:none;" d="M246 292L245 294L246 292z"/>
<path style="fill:#d2d2d2; stroke:none;" d="M262 292L263 293L262 292z"/>
<path style="fill:#bbbbbb; stroke:none;" d="M324 292L324 293L338 293L324 292z"/>
<path style="fill:#d2d2d2; stroke:none;" d="M338.667 292.333L339.333 292.667L338.667 292.333z"/>
<path style="fill:#e5e5e5; stroke:none;" d="M340 292L341 293L340 292z"/>
<path style="fill:#d2d2d2; stroke:none;" d="M228 293L229 294L228 293z"/>
<path style="fill:#bbbbbb; stroke:none;" d="M246 293L247 294L246 293z"/>
<path style="fill:#e5e5e5; stroke:none;" d="M324 293L324 317L325 317L324 293z"/>
<path style="fill:#bbbbbb; stroke:none;" d="M261 294L262 295L261 294M229 295L230 296L229 295z"/>
<path style="fill:#d2d2d2; stroke:none;" d="M229 296L230 297L229 296M260 297L261 298L260 297M230 299L231 300L230 299z"/>
<path style="fill:#bbbbbb; stroke:none;" d="M259 299L260 300L259 299z"/>
<path style="fill:#d2d2d2; stroke:none;" d="M259 300L260 301L259 300M271 300L271 321L272 321L271 300z"/>
<path style="fill:#bbbbbb; stroke:none;" d="M231 301L232 302L231 301M258 302L259 303L258 302z"/>
<path style="fill:#d2d2d2; stroke:none;" d="M258 303L259 304L258 303z"/>
<path style="fill:#bbbbbb; stroke:none;" d="M232 304L233 305L232 304z"/>
<path style="fill:#d2d2d2; stroke:none;" d="M257 305L258 306L257 305z"/>
<path style="fill:#bbbbbb; stroke:none;" d="M233 307L234 308L233 307M256 307L257 308L256 307z"/>
<path style="fill:#d2d2d2; stroke:none;" d="M256 308L257 309L256 308M234 310L235 311L234 310M255 311L256 312L255 311z"/>
<path style="fill:#bbbbbb; stroke:none;" d="M235 312L236 313L235 312z"/>
<path style="fill:#d2d2d2; stroke:none;" d="M235 313L236 314L235 313z"/>
<path style="fill:#bbbbbb; stroke:none;" d="M254 313L255 314L254 313z"/>
<path style="fill:#d2d2d2; stroke:none;" d="M236 316L237 317L236 316z"/>
<path style="fill:#bbbbbb; stroke:none;" d="M253 316L254 317L253 316M237 318L238 319L237 318z"/>
<path style="fill:#d2d2d2; stroke:none;" d="M252 319L253 320L252 319z"/>
<path style="fill:#bbbbbb; stroke:none;" d="M251 321L252 322L251 321z"/>
<path style="fill:#e5e5e5; stroke:none;" d="M119 428L119 429L241 429C231.211 424.892 214.634 428 204 428L119 428M262 428L262 429L295 429L262 428M308 428L308 429L322 429L308 428M334 428L334 429L381 429C368.823 423.89 347.265 428 334 428z"/>
<path style="fill:#bbbbbb; stroke:none;" d="M381 428L382 429L381 428z"/>
<path style="fill:#e5e5e5; stroke:none;" d="M86 435L86 442L87 442L86 435M86 451L86 455L87 455L86 451z"/>
<path style="fill:#d2d2d2; stroke:none;" d="M88 460L88 461L412 461L383 460L317 460L88 460z"/>
</svg>
